<?xml version="1.0" encoding="utf-8" standalone="no"?>
<!DOCTYPE svg PUBLIC "-//W3C//DTD SVG 1.1//EN"
  "http://www.w3.org/Graphics/SVG/1.1/DTD/svg11.dtd">
<!-- Created with matplotlib (https://matplotlib.org/) -->
<svg height="345.6pt" version="1.1" viewBox="0 0 460.8 345.6" width="460.8pt" xmlns="http://www.w3.org/2000/svg" xmlns:xlink="http://www.w3.org/1999/xlink">
 <metadata>
  <rdf:RDF xmlns:cc="http://creativecommons.org/ns#" xmlns:dc="http://purl.org/dc/elements/1.1/" xmlns:rdf="http://www.w3.org/1999/02/22-rdf-syntax-ns#">
   <cc:Work>
    <dc:type rdf:resource="http://purl.org/dc/dcmitype/StillImage"/>
    <dc:date>2020-08-08T07:56:55.845570</dc:date>
    <dc:format>image/svg+xml</dc:format>
    <dc:creator>
     <cc:Agent>
      <dc:title>Matplotlib v3.3.0, https://matplotlib.org/</dc:title>
     </cc:Agent>
    </dc:creator>
   </cc:Work>
  </rdf:RDF>
 </metadata>
 <defs>
  <style type="text/css">*{stroke-linecap:butt;stroke-linejoin:round;}</style>
 </defs>
 <g id="figure_1">
  <g id="patch_1">
   <path d="M 0 345.6 
L 460.8 345.6 
L 460.8 0 
L 0 0 
z
" style="fill:#ffffff;"/>
  </g>
  <g id="axes_1">
   <g id="patch_2">
    <path d="M 61.58 280.672 
L 432.62 280.672 
L 432.62 74.88 
L 61.58 74.88 
z
" style="fill:#ffffff;"/>
   </g>
   <g id="patch_3">
    <path clip-path="url(#p6ca615434e)" d="M 61.58 295.371429 
L 123.42 295.371429 
L 123.42 45.481143 
L 61.58 45.481143 
z
" style="fill:#ffffff;opacity:0.3;stroke:#808080;stroke-linejoin:miter;"/>
   </g>
   <g id="patch_4">
    <path clip-path="url(#p6ca615434e)" d="M 123.42 295.371429 
L 185.26 295.371429 
L 185.26 45.481143 
L 123.42 45.481143 
z
" style="fill:#ffffff;opacity:0.3;stroke:#808080;stroke-linejoin:miter;"/>
   </g>
   <g id="patch_5">
    <path clip-path="url(#p6ca615434e)" d="M 185.26 295.371429 
L 247.1 295.371429 
L 247.1 45.481143 
L 185.26 45.481143 
z
" style="fill:#ffffff;opacity:0.3;stroke:#808080;stroke-linejoin:miter;"/>
   </g>
   <g id="patch_6">
    <path clip-path="url(#p6ca615434e)" d="M 247.1 295.371429 
L 308.94 295.371429 
L 308.94 45.481143 
L 247.1 45.481143 
z
" style="fill:#ffffff;opacity:0.3;stroke:#808080;stroke-linejoin:miter;"/>
   </g>
   <g id="patch_7">
    <path clip-path="url(#p6ca615434e)" d="M 308.94 295.371429 
L 370.78 295.371429 
L 370.78 45.481143 
L 308.94 45.481143 
z
" style="fill:#ffffff;opacity:0.3;stroke:#808080;stroke-linejoin:miter;"/>
   </g>
   <g id="patch_8">
    <path clip-path="url(#p6ca615434e)" d="M 370.78 295.371429 
L 432.62 295.371429 
L 432.62 45.481143 
L 370.78 45.481143 
z
" style="fill:#ffffff;opacity:0.3;stroke:#808080;stroke-linejoin:miter;"/>
   </g>
   <g id="patch_9">
    <path clip-path="url(#p6ca615434e)" d="M 78.757778 272.734309 
L 78.757778 272.734309 
L 78.757778 259.210834 
L 78.757778 259.210834 
z
" style="fill:#ff88cc;"/>
   </g>
   <g id="patch_10">
    <path clip-path="url(#p6ca615434e)" d="M 78.757778 258.03488 
L 78.757778 258.03488 
L 78.757778 244.511406 
L 78.757778 244.511406 
z
" style="fill:#ff88cc;"/>
   </g>
   <g id="patch_11">
    <path clip-path="url(#p6ca615434e)" d="M 75.122481 243.335451 
L 82.393075 243.335451 
L 82.393075 229.811977 
L 75.122481 229.811977 
z
" style="fill:#ff88cc;"/>
   </g>
   <g id="patch_12">
    <path clip-path="url(#p6ca615434e)" d="M 75.901473 228.636023 
L 81.614083 228.636023 
L 81.614083 215.112549 
L 75.901473 215.112549 
z
" style="fill:#ff88cc;"/>
   </g>
   <g id="patch_13">
    <path clip-path="url(#p6ca615434e)" d="M 77.719121 213.936594 
L 79.796434 213.936594 
L 79.796434 200.41312 
L 77.719121 200.41312 
z
" style="fill:#ff88cc;"/>
   </g>
   <g id="patch_14">
    <path clip-path="url(#p6ca615434e)" d="M 75.901473 199.237166 
L 81.614083 199.237166 
L 81.614083 185.713691 
L 75.901473 185.713691 
z
" style="fill:#ff88cc;"/>
   </g>
   <g id="patch_15">
    <path clip-path="url(#p6ca615434e)" d="M 76.940129 184.537737 
L 80.575426 184.537737 
L 80.575426 171.014263 
L 76.940129 171.014263 
z
" style="fill:#ff88cc;"/>
   </g>
   <g id="patch_16">
    <path clip-path="url(#p6ca615434e)" d="M 77.978786 169.838309 
L 79.53677 169.838309 
L 79.53677 156.314834 
L 77.978786 156.314834 
z
" style="fill:#ff88cc;"/>
   </g>
   <g id="patch_17">
    <path clip-path="url(#p6ca615434e)" d="M 76.420801 155.13888 
L 81.094755 155.13888 
L 81.094755 141.615406 
L 76.420801 141.615406 
z
" style="fill:#ff88cc;"/>
   </g>
   <g id="patch_18">
    <path clip-path="url(#p6ca615434e)" d="M 76.420801 140.439451 
L 81.094755 140.439451 
L 81.094755 126.915977 
L 76.420801 126.915977 
z
" style="fill:#ff88cc;"/>
   </g>
   <g id="patch_19">
    <path clip-path="url(#p6ca615434e)" d="M 75.641809 125.740023 
L 81.873747 125.740023 
L 81.873747 112.216549 
L 75.641809 112.216549 
z
" style="fill:#ff88cc;"/>
   </g>
   <g id="patch_20">
    <path clip-path="url(#p6ca615434e)" d="M 75.901473 111.040594 
L 81.614083 111.040594 
L 81.614083 97.51712 
L 75.901473 97.51712 
z
" style="fill:#ff88cc;"/>
   </g>
   <g id="patch_21">
    <path clip-path="url(#p6ca615434e)" d="M 73.564496 96.341166 
L 83.951059 96.341166 
L 83.951059 82.817691 
L 73.564496 82.817691 
z
" style="fill:#ff88cc;"/>
   </g>
   <g id="patch_22">
    <path clip-path="url(#p6ca615434e)" d="M 139.818786 272.734309 
L 141.37677 272.734309 
L 141.37677 259.210834 
L 139.818786 259.210834 
z
" style="fill:#ff88cc;"/>
   </g>
   <g id="patch_23">
    <path clip-path="url(#p6ca615434e)" d="M 140.597778 258.03488 
L 140.597778 258.03488 
L 140.597778 244.511406 
L 140.597778 244.511406 
z
" style="fill:#ff88cc;"/>
   </g>
   <g id="patch_24">
    <path clip-path="url(#p6ca615434e)" d="M 140.597778 243.335451 
L 140.597778 243.335451 
L 140.597778 229.811977 
L 140.597778 229.811977 
z
" style="fill:#ff88cc;"/>
   </g>
   <g id="patch_25">
    <path clip-path="url(#p6ca615434e)" d="M 140.597778 228.636023 
L 140.597778 228.636023 
L 140.597778 215.112549 
L 140.597778 215.112549 
z
" style="fill:#ff88cc;"/>
   </g>
   <g id="patch_26">
    <path clip-path="url(#p6ca615434e)" d="M 139.818786 213.936594 
L 141.37677 213.936594 
L 141.37677 200.41312 
L 139.818786 200.41312 
z
" style="fill:#ff88cc;"/>
   </g>
   <g id="patch_27">
    <path clip-path="url(#p6ca615434e)" d="M 139.039793 199.237166 
L 142.155762 199.237166 
L 142.155762 185.713691 
L 139.039793 185.713691 
z
" style="fill:#ff88cc;"/>
   </g>
   <g id="patch_28">
    <path clip-path="url(#p6ca615434e)" d="M 132.807855 184.537737 
L 148.3877 184.537737 
L 148.3877 171.014263 
L 132.807855 171.014263 
z
" style="fill:#ff88cc;"/>
   </g>
   <g id="patch_29">
    <path clip-path="url(#p6ca615434e)" d="M 131.769199 169.838309 
L 149.426357 169.838309 
L 149.426357 156.314834 
L 131.769199 156.314834 
z
" style="fill:#ff88cc;"/>
   </g>
   <g id="patch_30">
    <path clip-path="url(#p6ca615434e)" d="M 138.520465 155.13888 
L 142.67509 155.13888 
L 142.67509 141.615406 
L 138.520465 141.615406 
z
" style="fill:#ff88cc;"/>
   </g>
   <g id="patch_31">
    <path clip-path="url(#p6ca615434e)" d="M 138.780129 140.439451 
L 142.415426 140.439451 
L 142.415426 126.915977 
L 138.780129 126.915977 
z
" style="fill:#ff88cc;"/>
   </g>
   <g id="patch_32">
    <path clip-path="url(#p6ca615434e)" d="M 137.222145 125.740023 
L 143.973411 125.740023 
L 143.973411 112.216549 
L 137.222145 112.216549 
z
" style="fill:#ff88cc;"/>
   </g>
   <g id="patch_33">
    <path clip-path="url(#p6ca615434e)" d="M 138.780129 111.040594 
L 142.415426 111.040594 
L 142.415426 97.51712 
L 138.780129 97.51712 
z
" style="fill:#ff88cc;"/>
   </g>
   <g id="patch_34">
    <path clip-path="url(#p6ca615434e)" d="M 139.818786 96.341166 
L 141.37677 96.341166 
L 141.37677 82.817691 
L 139.818786 82.817691 
z
" style="fill:#ff88cc;"/>
   </g>
   <g id="patch_35">
    <path clip-path="url(#p6ca615434e)" d="M 202.437778 272.734309 
L 202.437778 272.734309 
L 202.437778 259.210834 
L 202.437778 259.210834 
z
" style="fill:#ff88cc;"/>
   </g>
   <g id="patch_36">
    <path clip-path="url(#p6ca615434e)" d="M 201.658786 258.03488 
L 203.21677 258.03488 
L 203.21677 244.511406 
L 201.658786 244.511406 
z
" style="fill:#ff88cc;"/>
   </g>
   <g id="patch_37">
    <path clip-path="url(#p6ca615434e)" d="M 202.437778 243.335451 
L 202.437778 243.335451 
L 202.437778 229.811977 
L 202.437778 229.811977 
z
" style="fill:#ff88cc;"/>
   </g>
   <g id="patch_38">
    <path clip-path="url(#p6ca615434e)" d="M 202.437778 228.636023 
L 202.437778 228.636023 
L 202.437778 215.112549 
L 202.437778 215.112549 
z
" style="fill:#ff88cc;"/>
   </g>
   <g id="patch_39">
    <path clip-path="url(#p6ca615434e)" d="M 201.658786 213.936594 
L 203.21677 213.936594 
L 203.21677 200.41312 
L 201.658786 200.41312 
z
" style="fill:#ff88cc;"/>
   </g>
   <g id="patch_40">
    <path clip-path="url(#p6ca615434e)" d="M 200.879793 199.237166 
L 203.995762 199.237166 
L 203.995762 185.713691 
L 200.879793 185.713691 
z
" style="fill:#ff88cc;"/>
   </g>
   <g id="patch_41">
    <path clip-path="url(#p6ca615434e)" d="M 197.763824 184.537737 
L 207.111731 184.537737 
L 207.111731 171.014263 
L 197.763824 171.014263 
z
" style="fill:#ff88cc;"/>
   </g>
   <g id="patch_42">
    <path clip-path="url(#p6ca615434e)" d="M 200.100801 169.838309 
L 204.774755 169.838309 
L 204.774755 156.314834 
L 200.100801 156.314834 
z
" style="fill:#ff88cc;"/>
   </g>
   <g id="patch_43">
    <path clip-path="url(#p6ca615434e)" d="M 200.100801 155.13888 
L 204.774755 155.13888 
L 204.774755 141.615406 
L 200.100801 141.615406 
z
" style="fill:#ff88cc;"/>
   </g>
   <g id="patch_44">
    <path clip-path="url(#p6ca615434e)" d="M 193.868863 140.439451 
L 211.006693 140.439451 
L 211.006693 126.915977 
L 193.868863 126.915977 
z
" style="fill:#ff88cc;"/>
   </g>
   <g id="patch_45">
    <path clip-path="url(#p6ca615434e)" d="M 197.763824 125.740023 
L 207.111731 125.740023 
L 207.111731 112.216549 
L 197.763824 112.216549 
z
" style="fill:#ff88cc;"/>
   </g>
   <g id="patch_46">
    <path clip-path="url(#p6ca615434e)" d="M 197.763824 111.040594 
L 207.111731 111.040594 
L 207.111731 97.51712 
L 197.763824 97.51712 
z
" style="fill:#ff88cc;"/>
   </g>
   <g id="patch_47">
    <path clip-path="url(#p6ca615434e)" d="M 202.437778 96.341166 
L 202.437778 96.341166 
L 202.437778 82.817691 
L 202.437778 82.817691 
z
" style="fill:#ff88cc;"/>
   </g>
   <g id="patch_48">
    <path clip-path="url(#p6ca615434e)" d="M 264.277778 272.734309 
L 264.277778 272.734309 
L 264.277778 259.210834 
L 264.277778 259.210834 
z
" style="fill:#ff88cc;"/>
   </g>
   <g id="patch_49">
    <path clip-path="url(#p6ca615434e)" d="M 264.277778 258.03488 
L 264.277778 258.03488 
L 264.277778 244.511406 
L 264.277778 244.511406 
z
" style="fill:#ff88cc;"/>
   </g>
   <g id="patch_50">
    <path clip-path="url(#p6ca615434e)" d="M 262.719793 243.335451 
L 265.835762 243.335451 
L 265.835762 229.811977 
L 262.719793 229.811977 
z
" style="fill:#ff88cc;"/>
   </g>
   <g id="patch_51">
    <path clip-path="url(#p6ca615434e)" d="M 263.498786 228.636023 
L 265.05677 228.636023 
L 265.05677 215.112549 
L 263.498786 215.112549 
z
" style="fill:#ff88cc;"/>
   </g>
   <g id="patch_52">
    <path clip-path="url(#p6ca615434e)" d="M 263.498786 213.936594 
L 265.05677 213.936594 
L 265.05677 200.41312 
L 263.498786 200.41312 
z
" style="fill:#ff88cc;"/>
   </g>
   <g id="patch_53">
    <path clip-path="url(#p6ca615434e)" d="M 262.719793 199.237166 
L 265.835762 199.237166 
L 265.835762 185.713691 
L 262.719793 185.713691 
z
" style="fill:#ff88cc;"/>
   </g>
   <g id="patch_54">
    <path clip-path="url(#p6ca615434e)" d="M 263.498786 184.537737 
L 265.05677 184.537737 
L 265.05677 171.014263 
L 263.498786 171.014263 
z
" style="fill:#ff88cc;"/>
   </g>
   <g id="patch_55">
    <path clip-path="url(#p6ca615434e)" d="M 263.239121 169.838309 
L 265.316434 169.838309 
L 265.316434 156.314834 
L 263.239121 156.314834 
z
" style="fill:#ff88cc;"/>
   </g>
   <g id="patch_56">
    <path clip-path="url(#p6ca615434e)" d="M 261.681137 155.13888 
L 266.874419 155.13888 
L 266.874419 141.615406 
L 261.681137 141.615406 
z
" style="fill:#ff88cc;"/>
   </g>
   <g id="patch_57">
    <path clip-path="url(#p6ca615434e)" d="M 261.940801 140.439451 
L 266.614755 140.439451 
L 266.614755 126.915977 
L 261.940801 126.915977 
z
" style="fill:#ff88cc;"/>
   </g>
   <g id="patch_58">
    <path clip-path="url(#p6ca615434e)" d="M 253.112222 125.740023 
L 275.443333 125.740023 
L 275.443333 112.216549 
L 253.112222 112.216549 
z
" style="fill:#ff88cc;"/>
   </g>
   <g id="patch_59">
    <path clip-path="url(#p6ca615434e)" d="M 260.123152 111.040594 
L 268.432403 111.040594 
L 268.432403 97.51712 
L 260.123152 97.51712 
z
" style="fill:#ff88cc;"/>
   </g>
   <g id="patch_60">
    <path clip-path="url(#p6ca615434e)" d="M 261.161809 96.341166 
L 267.393747 96.341166 
L 267.393747 82.817691 
L 261.161809 82.817691 
z
" style="fill:#ff88cc;"/>
   </g>
   <g id="patch_61">
    <path clip-path="url(#p6ca615434e)" d="M 326.117778 272.734309 
L 326.117778 272.734309 
L 326.117778 259.210834 
L 326.117778 259.210834 
z
" style="fill:#ff88cc;"/>
   </g>
   <g id="patch_62">
    <path clip-path="url(#p6ca615434e)" d="M 326.117778 258.03488 
L 326.117778 258.03488 
L 326.117778 244.511406 
L 326.117778 244.511406 
z
" style="fill:#ff88cc;"/>
   </g>
   <g id="patch_63">
    <path clip-path="url(#p6ca615434e)" d="M 325.858114 243.335451 
L 326.377442 243.335451 
L 326.377442 229.811977 
L 325.858114 229.811977 
z
" style="fill:#ff88cc;"/>
   </g>
   <g id="patch_64">
    <path clip-path="url(#p6ca615434e)" d="M 322.742145 228.636023 
L 329.493411 228.636023 
L 329.493411 215.112549 
L 322.742145 215.112549 
z
" style="fill:#ff88cc;"/>
   </g>
   <g id="patch_65">
    <path clip-path="url(#p6ca615434e)" d="M 325.338786 213.936594 
L 326.89677 213.936594 
L 326.89677 200.41312 
L 325.338786 200.41312 
z
" style="fill:#ff88cc;"/>
   </g>
   <g id="patch_66">
    <path clip-path="url(#p6ca615434e)" d="M 325.338786 199.237166 
L 326.89677 199.237166 
L 326.89677 185.713691 
L 325.338786 185.713691 
z
" style="fill:#ff88cc;"/>
   </g>
   <g id="patch_67">
    <path clip-path="url(#p6ca615434e)" d="M 323.780801 184.537737 
L 328.454755 184.537737 
L 328.454755 171.014263 
L 323.780801 171.014263 
z
" style="fill:#ff88cc;"/>
   </g>
   <g id="patch_68">
    <path clip-path="url(#p6ca615434e)" d="M 322.222817 169.838309 
L 330.012739 169.838309 
L 330.012739 156.314834 
L 322.222817 156.314834 
z
" style="fill:#ff88cc;"/>
   </g>
   <g id="patch_69">
    <path clip-path="url(#p6ca615434e)" d="M 318.068191 155.13888 
L 334.167364 155.13888 
L 334.167364 141.615406 
L 318.068191 141.615406 
z
" style="fill:#ff88cc;"/>
   </g>
   <g id="patch_70">
    <path clip-path="url(#p6ca615434e)" d="M 321.703488 140.439451 
L 330.532067 140.439451 
L 330.532067 126.915977 
L 321.703488 126.915977 
z
" style="fill:#ff88cc;"/>
   </g>
   <g id="patch_71">
    <path clip-path="url(#p6ca615434e)" d="M 321.18416 125.740023 
L 331.051395 125.740023 
L 331.051395 112.216549 
L 321.18416 112.216549 
z
" style="fill:#ff88cc;"/>
   </g>
   <g id="patch_72">
    <path clip-path="url(#p6ca615434e)" d="M 325.338786 111.040594 
L 326.89677 111.040594 
L 326.89677 97.51712 
L 325.338786 97.51712 
z
" style="fill:#ff88cc;"/>
   </g>
   <g id="patch_73">
    <path clip-path="url(#p6ca615434e)" d="M 326.117778 96.341166 
L 326.117778 96.341166 
L 326.117778 82.817691 
L 326.117778 82.817691 
z
" style="fill:#ff88cc;"/>
   </g>
   <g id="patch_74">
    <path clip-path="url(#p6ca615434e)" d="M 387.957778 272.734309 
L 387.957778 272.734309 
L 387.957778 259.210834 
L 387.957778 259.210834 
z
" style="fill:#ff88cc;"/>
   </g>
   <g id="patch_75">
    <path clip-path="url(#p6ca615434e)" d="M 387.957778 258.03488 
L 387.957778 258.03488 
L 387.957778 244.511406 
L 387.957778 244.511406 
z
" style="fill:#ff88cc;"/>
   </g>
   <g id="patch_76">
    <path clip-path="url(#p6ca615434e)" d="M 384.841809 243.335451 
L 391.073747 243.335451 
L 391.073747 229.811977 
L 384.841809 229.811977 
z
" style="fill:#ff88cc;"/>
   </g>
   <g id="patch_77">
    <path clip-path="url(#p6ca615434e)" d="M 387.957778 228.636023 
L 387.957778 228.636023 
L 387.957778 215.112549 
L 387.957778 215.112549 
z
" style="fill:#ff88cc;"/>
   </g>
   <g id="patch_78">
    <path clip-path="url(#p6ca615434e)" d="M 384.841809 213.936594 
L 391.073747 213.936594 
L 391.073747 200.41312 
L 384.841809 200.41312 
z
" style="fill:#ff88cc;"/>
   </g>
   <g id="patch_79">
    <path clip-path="url(#p6ca615434e)" d="M 386.399793 199.237166 
L 389.515762 199.237166 
L 389.515762 185.713691 
L 386.399793 185.713691 
z
" style="fill:#ff88cc;"/>
   </g>
   <g id="patch_80">
    <path clip-path="url(#p6ca615434e)" d="M 384.062817 184.537737 
L 391.852739 184.537737 
L 391.852739 171.014263 
L 384.062817 171.014263 
z
" style="fill:#ff88cc;"/>
   </g>
   <g id="patch_81">
    <path clip-path="url(#p6ca615434e)" d="M 384.062817 169.838309 
L 391.852739 169.838309 
L 391.852739 156.314834 
L 384.062817 156.314834 
z
" style="fill:#ff88cc;"/>
   </g>
   <g id="patch_82">
    <path clip-path="url(#p6ca615434e)" d="M 383.803152 155.13888 
L 392.112403 155.13888 
L 392.112403 141.615406 
L 383.803152 141.615406 
z
" style="fill:#ff88cc;"/>
   </g>
   <g id="patch_83">
    <path clip-path="url(#p6ca615434e)" d="M 384.062817 140.439451 
L 391.852739 140.439451 
L 391.852739 126.915977 
L 384.062817 126.915977 
z
" style="fill:#ff88cc;"/>
   </g>
   <g id="patch_84">
    <path clip-path="url(#p6ca615434e)" d="M 384.062817 125.740023 
L 391.852739 125.740023 
L 391.852739 112.216549 
L 384.062817 112.216549 
z
" style="fill:#ff88cc;"/>
   </g>
   <g id="patch_85">
    <path clip-path="url(#p6ca615434e)" d="M 387.698114 111.040594 
L 388.217442 111.040594 
L 388.217442 97.51712 
L 387.698114 97.51712 
z
" style="fill:#ff88cc;"/>
   </g>
   <g id="patch_86">
    <path clip-path="url(#p6ca615434e)" d="M 387.178786 96.341166 
L 388.73677 96.341166 
L 388.73677 82.817691 
L 387.178786 82.817691 
z
" style="fill:#ff88cc;"/>
   </g>
   <g id="patch_87">
    <path clip-path="url(#p6ca615434e)" d="M 95.935556 272.734309 
L 95.935556 272.734309 
L 95.935556 259.210834 
L 95.935556 259.210834 
z
" style="fill:#ffcc77;"/>
   </g>
   <g id="patch_88">
    <path clip-path="url(#p6ca615434e)" d="M 95.935556 258.03488 
L 95.935556 258.03488 
L 95.935556 244.511406 
L 95.935556 244.511406 
z
" style="fill:#ffcc77;"/>
   </g>
   <g id="patch_89">
    <path clip-path="url(#p6ca615434e)" d="M 95.935556 243.335451 
L 95.935556 243.335451 
L 95.935556 229.811977 
L 95.935556 229.811977 
z
" style="fill:#ffcc77;"/>
   </g>
   <g id="patch_90">
    <path clip-path="url(#p6ca615434e)" d="M 95.935556 228.636023 
L 95.935556 228.636023 
L 95.935556 215.112549 
L 95.935556 215.112549 
z
" style="fill:#ffcc77;"/>
   </g>
   <g id="patch_91">
    <path clip-path="url(#p6ca615434e)" d="M 95.675891 213.936594 
L 96.19522 213.936594 
L 96.19522 200.41312 
L 95.675891 200.41312 
z
" style="fill:#ffcc77;"/>
   </g>
   <g id="patch_92">
    <path clip-path="url(#p6ca615434e)" d="M 94.896899 199.237166 
L 96.974212 199.237166 
L 96.974212 185.713691 
L 94.896899 185.713691 
z
" style="fill:#ffcc77;"/>
   </g>
   <g id="patch_93">
    <path clip-path="url(#p6ca615434e)" d="M 95.156563 184.537737 
L 96.714548 184.537737 
L 96.714548 171.014263 
L 95.156563 171.014263 
z
" style="fill:#ffcc77;"/>
   </g>
   <g id="patch_94">
    <path clip-path="url(#p6ca615434e)" d="M 95.935556 169.838309 
L 95.935556 169.838309 
L 95.935556 156.314834 
L 95.935556 156.314834 
z
" style="fill:#ffcc77;"/>
   </g>
   <g id="patch_95">
    <path clip-path="url(#p6ca615434e)" d="M 95.156563 155.13888 
L 96.714548 155.13888 
L 96.714548 141.615406 
L 95.156563 141.615406 
z
" style="fill:#ffcc77;"/>
   </g>
   <g id="patch_96">
    <path clip-path="url(#p6ca615434e)" d="M 94.377571 140.439451 
L 97.49354 140.439451 
L 97.49354 126.915977 
L 94.377571 126.915977 
z
" style="fill:#ffcc77;"/>
   </g>
   <g id="patch_97">
    <path clip-path="url(#p6ca615434e)" d="M 95.156563 125.740023 
L 96.714548 125.740023 
L 96.714548 112.216549 
L 95.156563 112.216549 
z
" style="fill:#ffcc77;"/>
   </g>
   <g id="patch_98">
    <path clip-path="url(#p6ca615434e)" d="M 95.156563 111.040594 
L 96.714548 111.040594 
L 96.714548 97.51712 
L 95.156563 97.51712 
z
" style="fill:#ffcc77;"/>
   </g>
   <g id="patch_99">
    <path clip-path="url(#p6ca615434e)" d="M 93.598579 96.341166 
L 98.272532 96.341166 
L 98.272532 82.817691 
L 93.598579 82.817691 
z
" style="fill:#ffcc77;"/>
   </g>
   <g id="patch_100">
    <path clip-path="url(#p6ca615434e)" d="M 157.775556 272.734309 
L 157.775556 272.734309 
L 157.775556 259.210834 
L 157.775556 259.210834 
z
" style="fill:#ffcc77;"/>
   </g>
   <g id="patch_101">
    <path clip-path="url(#p6ca615434e)" d="M 157.775556 258.03488 
L 157.775556 258.03488 
L 157.775556 244.511406 
L 157.775556 244.511406 
z
" style="fill:#ffcc77;"/>
   </g>
   <g id="patch_102">
    <path clip-path="url(#p6ca615434e)" d="M 157.775556 243.335451 
L 157.775556 243.335451 
L 157.775556 229.811977 
L 157.775556 229.811977 
z
" style="fill:#ffcc77;"/>
   </g>
   <g id="patch_103">
    <path clip-path="url(#p6ca615434e)" d="M 157.775556 228.636023 
L 157.775556 228.636023 
L 157.775556 215.112549 
L 157.775556 215.112549 
z
" style="fill:#ffcc77;"/>
   </g>
   <g id="patch_104">
    <path clip-path="url(#p6ca615434e)" d="M 157.775556 213.936594 
L 157.775556 213.936594 
L 157.775556 200.41312 
L 157.775556 200.41312 
z
" style="fill:#ffcc77;"/>
   </g>
   <g id="patch_105">
    <path clip-path="url(#p6ca615434e)" d="M 157.775556 199.237166 
L 157.775556 199.237166 
L 157.775556 185.713691 
L 157.775556 185.713691 
z
" style="fill:#ffcc77;"/>
   </g>
   <g id="patch_106">
    <path clip-path="url(#p6ca615434e)" d="M 153.101602 184.537737 
L 162.449509 184.537737 
L 162.449509 171.014263 
L 153.101602 171.014263 
z
" style="fill:#ffcc77;"/>
   </g>
   <g id="patch_107">
    <path clip-path="url(#p6ca615434e)" d="M 156.217571 169.838309 
L 159.33354 169.838309 
L 159.33354 156.314834 
L 156.217571 156.314834 
z
" style="fill:#ffcc77;"/>
   </g>
   <g id="patch_108">
    <path clip-path="url(#p6ca615434e)" d="M 156.217571 155.13888 
L 159.33354 155.13888 
L 159.33354 141.615406 
L 156.217571 141.615406 
z
" style="fill:#ffcc77;"/>
   </g>
   <g id="patch_109">
    <path clip-path="url(#p6ca615434e)" d="M 156.996563 140.439451 
L 158.554548 140.439451 
L 158.554548 126.915977 
L 156.996563 126.915977 
z
" style="fill:#ffcc77;"/>
   </g>
   <g id="patch_110">
    <path clip-path="url(#p6ca615434e)" d="M 157.775556 125.740023 
L 157.775556 125.740023 
L 157.775556 112.216549 
L 157.775556 112.216549 
z
" style="fill:#ffcc77;"/>
   </g>
   <g id="patch_111">
    <path clip-path="url(#p6ca615434e)" d="M 157.775556 111.040594 
L 157.775556 111.040594 
L 157.775556 97.51712 
L 157.775556 97.51712 
z
" style="fill:#ffcc77;"/>
   </g>
   <g id="patch_112">
    <path clip-path="url(#p6ca615434e)" d="M 157.775556 96.341166 
L 157.775556 96.341166 
L 157.775556 82.817691 
L 157.775556 82.817691 
z
" style="fill:#ffcc77;"/>
   </g>
   <g id="patch_113">
    <path clip-path="url(#p6ca615434e)" d="M 219.615556 272.734309 
L 219.615556 272.734309 
L 219.615556 259.210834 
L 219.615556 259.210834 
z
" style="fill:#ffcc77;"/>
   </g>
   <g id="patch_114">
    <path clip-path="url(#p6ca615434e)" d="M 218.836563 258.03488 
L 220.394548 258.03488 
L 220.394548 244.511406 
L 218.836563 244.511406 
z
" style="fill:#ffcc77;"/>
   </g>
   <g id="patch_115">
    <path clip-path="url(#p6ca615434e)" d="M 219.615556 243.335451 
L 219.615556 243.335451 
L 219.615556 229.811977 
L 219.615556 229.811977 
z
" style="fill:#ffcc77;"/>
   </g>
   <g id="patch_116">
    <path clip-path="url(#p6ca615434e)" d="M 219.615556 228.636023 
L 219.615556 228.636023 
L 219.615556 215.112549 
L 219.615556 215.112549 
z
" style="fill:#ffcc77;"/>
   </g>
   <g id="patch_117">
    <path clip-path="url(#p6ca615434e)" d="M 219.615556 213.936594 
L 219.615556 213.936594 
L 219.615556 200.41312 
L 219.615556 200.41312 
z
" style="fill:#ffcc77;"/>
   </g>
   <g id="patch_118">
    <path clip-path="url(#p6ca615434e)" d="M 218.057571 199.237166 
L 221.17354 199.237166 
L 221.17354 185.713691 
L 218.057571 185.713691 
z
" style="fill:#ffcc77;"/>
   </g>
   <g id="patch_119">
    <path clip-path="url(#p6ca615434e)" d="M 218.057571 184.537737 
L 221.17354 184.537737 
L 221.17354 171.014263 
L 218.057571 171.014263 
z
" style="fill:#ffcc77;"/>
   </g>
   <g id="patch_120">
    <path clip-path="url(#p6ca615434e)" d="M 219.615556 169.838309 
L 219.615556 169.838309 
L 219.615556 156.314834 
L 219.615556 156.314834 
z
" style="fill:#ffcc77;"/>
   </g>
   <g id="patch_121">
    <path clip-path="url(#p6ca615434e)" d="M 218.057571 155.13888 
L 221.17354 155.13888 
L 221.17354 141.615406 
L 218.057571 141.615406 
z
" style="fill:#ffcc77;"/>
   </g>
   <g id="patch_122">
    <path clip-path="url(#p6ca615434e)" d="M 217.278579 140.439451 
L 221.952532 140.439451 
L 221.952532 126.915977 
L 217.278579 126.915977 
z
" style="fill:#ffcc77;"/>
   </g>
   <g id="patch_123">
    <path clip-path="url(#p6ca615434e)" d="M 218.836563 125.740023 
L 220.394548 125.740023 
L 220.394548 112.216549 
L 218.836563 112.216549 
z
" style="fill:#ffcc77;"/>
   </g>
   <g id="patch_124">
    <path clip-path="url(#p6ca615434e)" d="M 219.615556 111.040594 
L 219.615556 111.040594 
L 219.615556 97.51712 
L 219.615556 97.51712 
z
" style="fill:#ffcc77;"/>
   </g>
   <g id="patch_125">
    <path clip-path="url(#p6ca615434e)" d="M 219.615556 96.341166 
L 219.615556 96.341166 
L 219.615556 82.817691 
L 219.615556 82.817691 
z
" style="fill:#ffcc77;"/>
   </g>
   <g id="patch_126">
    <path clip-path="url(#p6ca615434e)" d="M 281.455556 272.734309 
L 281.455556 272.734309 
L 281.455556 259.210834 
L 281.455556 259.210834 
z
" style="fill:#ffcc77;"/>
   </g>
   <g id="patch_127">
    <path clip-path="url(#p6ca615434e)" d="M 281.455556 258.03488 
L 281.455556 258.03488 
L 281.455556 244.511406 
L 281.455556 244.511406 
z
" style="fill:#ffcc77;"/>
   </g>
   <g id="patch_128">
    <path clip-path="url(#p6ca615434e)" d="M 281.455556 243.335451 
L 281.455556 243.335451 
L 281.455556 229.811977 
L 281.455556 229.811977 
z
" style="fill:#ffcc77;"/>
   </g>
   <g id="patch_129">
    <path clip-path="url(#p6ca615434e)" d="M 280.676563 228.636023 
L 282.234548 228.636023 
L 282.234548 215.112549 
L 280.676563 215.112549 
z
" style="fill:#ffcc77;"/>
   </g>
   <g id="patch_130">
    <path clip-path="url(#p6ca615434e)" d="M 280.676563 213.936594 
L 282.234548 213.936594 
L 282.234548 200.41312 
L 280.676563 200.41312 
z
" style="fill:#ffcc77;"/>
   </g>
   <g id="patch_131">
    <path clip-path="url(#p6ca615434e)" d="M 280.676563 199.237166 
L 282.234548 199.237166 
L 282.234548 185.713691 
L 280.676563 185.713691 
z
" style="fill:#ffcc77;"/>
   </g>
   <g id="patch_132">
    <path clip-path="url(#p6ca615434e)" d="M 280.676563 184.537737 
L 282.234548 184.537737 
L 282.234548 171.014263 
L 280.676563 171.014263 
z
" style="fill:#ffcc77;"/>
   </g>
   <g id="patch_133">
    <path clip-path="url(#p6ca615434e)" d="M 279.897571 169.838309 
L 283.01354 169.838309 
L 283.01354 156.314834 
L 279.897571 156.314834 
z
" style="fill:#ffcc77;"/>
   </g>
   <g id="patch_134">
    <path clip-path="url(#p6ca615434e)" d="M 281.455556 155.13888 
L 281.455556 155.13888 
L 281.455556 141.615406 
L 281.455556 141.615406 
z
" style="fill:#ffcc77;"/>
   </g>
   <g id="patch_135">
    <path clip-path="url(#p6ca615434e)" d="M 281.455556 140.439451 
L 281.455556 140.439451 
L 281.455556 126.915977 
L 281.455556 126.915977 
z
" style="fill:#ffcc77;"/>
   </g>
   <g id="patch_136">
    <path clip-path="url(#p6ca615434e)" d="M 278.339587 125.740023 
L 284.571525 125.740023 
L 284.571525 112.216549 
L 278.339587 112.216549 
z
" style="fill:#ffcc77;"/>
   </g>
   <g id="patch_137">
    <path clip-path="url(#p6ca615434e)" d="M 280.676563 111.040594 
L 282.234548 111.040594 
L 282.234548 97.51712 
L 280.676563 97.51712 
z
" style="fill:#ffcc77;"/>
   </g>
   <g id="patch_138">
    <path clip-path="url(#p6ca615434e)" d="M 281.455556 96.341166 
L 281.455556 96.341166 
L 281.455556 82.817691 
L 281.455556 82.817691 
z
" style="fill:#ffcc77;"/>
   </g>
   <g id="patch_139">
    <path clip-path="url(#p6ca615434e)" d="M 343.295556 272.734309 
L 343.295556 272.734309 
L 343.295556 259.210834 
L 343.295556 259.210834 
z
" style="fill:#ffcc77;"/>
   </g>
   <g id="patch_140">
    <path clip-path="url(#p6ca615434e)" d="M 343.295556 258.03488 
L 343.295556 258.03488 
L 343.295556 244.511406 
L 343.295556 244.511406 
z
" style="fill:#ffcc77;"/>
   </g>
   <g id="patch_141">
    <path clip-path="url(#p6ca615434e)" d="M 342.516563 243.335451 
L 344.074548 243.335451 
L 344.074548 229.811977 
L 342.516563 229.811977 
z
" style="fill:#ffcc77;"/>
   </g>
   <g id="patch_142">
    <path clip-path="url(#p6ca615434e)" d="M 343.295556 228.636023 
L 343.295556 228.636023 
L 343.295556 215.112549 
L 343.295556 215.112549 
z
" style="fill:#ffcc77;"/>
   </g>
   <g id="patch_143">
    <path clip-path="url(#p6ca615434e)" d="M 343.295556 213.936594 
L 343.295556 213.936594 
L 343.295556 200.41312 
L 343.295556 200.41312 
z
" style="fill:#ffcc77;"/>
   </g>
   <g id="patch_144">
    <path clip-path="url(#p6ca615434e)" d="M 341.737571 199.237166 
L 344.85354 199.237166 
L 344.85354 185.713691 
L 341.737571 185.713691 
z
" style="fill:#ffcc77;"/>
   </g>
   <g id="patch_145">
    <path clip-path="url(#p6ca615434e)" d="M 342.516563 184.537737 
L 344.074548 184.537737 
L 344.074548 171.014263 
L 342.516563 171.014263 
z
" style="fill:#ffcc77;"/>
   </g>
   <g id="patch_146">
    <path clip-path="url(#p6ca615434e)" d="M 342.516563 169.838309 
L 344.074548 169.838309 
L 344.074548 156.314834 
L 342.516563 156.314834 
z
" style="fill:#ffcc77;"/>
   </g>
   <g id="patch_147">
    <path clip-path="url(#p6ca615434e)" d="M 341.737571 155.13888 
L 344.85354 155.13888 
L 344.85354 141.615406 
L 341.737571 141.615406 
z
" style="fill:#ffcc77;"/>
   </g>
   <g id="patch_148">
    <path clip-path="url(#p6ca615434e)" d="M 342.516563 140.439451 
L 344.074548 140.439451 
L 344.074548 126.915977 
L 342.516563 126.915977 
z
" style="fill:#ffcc77;"/>
   </g>
   <g id="patch_149">
    <path clip-path="url(#p6ca615434e)" d="M 341.737571 125.740023 
L 344.85354 125.740023 
L 344.85354 112.216549 
L 341.737571 112.216549 
z
" style="fill:#ffcc77;"/>
   </g>
   <g id="patch_150">
    <path clip-path="url(#p6ca615434e)" d="M 342.516563 111.040594 
L 344.074548 111.040594 
L 344.074548 97.51712 
L 342.516563 97.51712 
z
" style="fill:#ffcc77;"/>
   </g>
   <g id="patch_151">
    <path clip-path="url(#p6ca615434e)" d="M 343.295556 96.341166 
L 343.295556 96.341166 
L 343.295556 82.817691 
L 343.295556 82.817691 
z
" style="fill:#ffcc77;"/>
   </g>
   <g id="patch_152">
    <path clip-path="url(#p6ca615434e)" d="M 405.135556 272.734309 
L 405.135556 272.734309 
L 405.135556 259.210834 
L 405.135556 259.210834 
z
" style="fill:#ffcc77;"/>
   </g>
   <g id="patch_153">
    <path clip-path="url(#p6ca615434e)" d="M 405.135556 258.03488 
L 405.135556 258.03488 
L 405.135556 244.511406 
L 405.135556 244.511406 
z
" style="fill:#ffcc77;"/>
   </g>
   <g id="patch_154">
    <path clip-path="url(#p6ca615434e)" d="M 405.135556 243.335451 
L 405.135556 243.335451 
L 405.135556 229.811977 
L 405.135556 229.811977 
z
" style="fill:#ffcc77;"/>
   </g>
   <g id="patch_155">
    <path clip-path="url(#p6ca615434e)" d="M 404.356563 228.636023 
L 405.914548 228.636023 
L 405.914548 215.112549 
L 404.356563 215.112549 
z
" style="fill:#ffcc77;"/>
   </g>
   <g id="patch_156">
    <path clip-path="url(#p6ca615434e)" d="M 403.577571 213.936594 
L 406.69354 213.936594 
L 406.69354 200.41312 
L 403.577571 200.41312 
z
" style="fill:#ffcc77;"/>
   </g>
   <g id="patch_157">
    <path clip-path="url(#p6ca615434e)" d="M 405.135556 199.237166 
L 405.135556 199.237166 
L 405.135556 185.713691 
L 405.135556 185.713691 
z
" style="fill:#ffcc77;"/>
   </g>
   <g id="patch_158">
    <path clip-path="url(#p6ca615434e)" d="M 404.356563 184.537737 
L 405.914548 184.537737 
L 405.914548 171.014263 
L 404.356563 171.014263 
z
" style="fill:#ffcc77;"/>
   </g>
   <g id="patch_159">
    <path clip-path="url(#p6ca615434e)" d="M 403.577571 169.838309 
L 406.69354 169.838309 
L 406.69354 156.314834 
L 403.577571 156.314834 
z
" style="fill:#ffcc77;"/>
   </g>
   <g id="patch_160">
    <path clip-path="url(#p6ca615434e)" d="M 405.135556 155.13888 
L 405.135556 155.13888 
L 405.135556 141.615406 
L 405.135556 141.615406 
z
" style="fill:#ffcc77;"/>
   </g>
   <g id="patch_161">
    <path clip-path="url(#p6ca615434e)" d="M 403.317907 140.439451 
L 406.953204 140.439451 
L 406.953204 126.915977 
L 403.317907 126.915977 
z
" style="fill:#ffcc77;"/>
   </g>
   <g id="patch_162">
    <path clip-path="url(#p6ca615434e)" d="M 404.096899 125.740023 
L 406.174212 125.740023 
L 406.174212 112.216549 
L 404.096899 112.216549 
z
" style="fill:#ffcc77;"/>
   </g>
   <g id="patch_163">
    <path clip-path="url(#p6ca615434e)" d="M 405.135556 111.040594 
L 405.135556 111.040594 
L 405.135556 97.51712 
L 405.135556 97.51712 
z
" style="fill:#ffcc77;"/>
   </g>
   <g id="patch_164">
    <path clip-path="url(#p6ca615434e)" d="M 404.356563 96.341166 
L 405.914548 96.341166 
L 405.914548 82.817691 
L 404.356563 82.817691 
z
" style="fill:#ffcc77;"/>
   </g>
   <g id="patch_165">
    <path clip-path="url(#p6ca615434e)" d="M 113.113333 272.734309 
L 113.113333 272.734309 
L 113.113333 259.210834 
L 113.113333 259.210834 
z
" style="fill:#88eeff;"/>
   </g>
   <g id="patch_166">
    <path clip-path="url(#p6ca615434e)" d="M 113.113333 258.03488 
L 113.113333 258.03488 
L 113.113333 244.511406 
L 113.113333 244.511406 
z
" style="fill:#88eeff;"/>
   </g>
   <g id="patch_167">
    <path clip-path="url(#p6ca615434e)" d="M 113.113333 243.335451 
L 113.113333 243.335451 
L 113.113333 229.811977 
L 113.113333 229.811977 
z
" style="fill:#88eeff;"/>
   </g>
   <g id="patch_168">
    <path clip-path="url(#p6ca615434e)" d="M 112.334341 228.636023 
L 113.892326 228.636023 
L 113.892326 215.112549 
L 112.334341 215.112549 
z
" style="fill:#88eeff;"/>
   </g>
   <g id="patch_169">
    <path clip-path="url(#p6ca615434e)" d="M 113.113333 213.936594 
L 113.113333 213.936594 
L 113.113333 200.41312 
L 113.113333 200.41312 
z
" style="fill:#88eeff;"/>
   </g>
   <g id="patch_170">
    <path clip-path="url(#p6ca615434e)" d="M 111.555349 199.237166 
L 114.671318 199.237166 
L 114.671318 185.713691 
L 111.555349 185.713691 
z
" style="fill:#88eeff;"/>
   </g>
   <g id="patch_171">
    <path clip-path="url(#p6ca615434e)" d="M 111.555349 184.537737 
L 114.671318 184.537737 
L 114.671318 171.014263 
L 111.555349 171.014263 
z
" style="fill:#88eeff;"/>
   </g>
   <g id="patch_172">
    <path clip-path="url(#p6ca615434e)" d="M 112.853669 169.838309 
L 113.372997 169.838309 
L 113.372997 156.314834 
L 112.853669 156.314834 
z
" style="fill:#88eeff;"/>
   </g>
   <g id="patch_173">
    <path clip-path="url(#p6ca615434e)" d="M 112.853669 155.13888 
L 113.372997 155.13888 
L 113.372997 141.615406 
L 112.853669 141.615406 
z
" style="fill:#88eeff;"/>
   </g>
   <g id="patch_174">
    <path clip-path="url(#p6ca615434e)" d="M 112.334341 140.439451 
L 113.892326 140.439451 
L 113.892326 126.915977 
L 112.334341 126.915977 
z
" style="fill:#88eeff;"/>
   </g>
   <g id="patch_175">
    <path clip-path="url(#p6ca615434e)" d="M 113.113333 125.740023 
L 113.113333 125.740023 
L 113.113333 112.216549 
L 113.113333 112.216549 
z
" style="fill:#88eeff;"/>
   </g>
   <g id="patch_176">
    <path clip-path="url(#p6ca615434e)" d="M 112.334341 111.040594 
L 113.892326 111.040594 
L 113.892326 97.51712 
L 112.334341 97.51712 
z
" style="fill:#88eeff;"/>
   </g>
   <g id="patch_177">
    <path clip-path="url(#p6ca615434e)" d="M 111.555349 96.341166 
L 114.671318 96.341166 
L 114.671318 82.817691 
L 111.555349 82.817691 
z
" style="fill:#88eeff;"/>
   </g>
   <g id="patch_178">
    <path clip-path="url(#p6ca615434e)" d="M 174.174341 272.734309 
L 175.732326 272.734309 
L 175.732326 259.210834 
L 174.174341 259.210834 
z
" style="fill:#88eeff;"/>
   </g>
   <g id="patch_179">
    <path clip-path="url(#p6ca615434e)" d="M 174.953333 258.03488 
L 174.953333 258.03488 
L 174.953333 244.511406 
L 174.953333 244.511406 
z
" style="fill:#88eeff;"/>
   </g>
   <g id="patch_180">
    <path clip-path="url(#p6ca615434e)" d="M 174.953333 243.335451 
L 174.953333 243.335451 
L 174.953333 229.811977 
L 174.953333 229.811977 
z
" style="fill:#88eeff;"/>
   </g>
   <g id="patch_181">
    <path clip-path="url(#p6ca615434e)" d="M 174.953333 228.636023 
L 174.953333 228.636023 
L 174.953333 215.112549 
L 174.953333 215.112549 
z
" style="fill:#88eeff;"/>
   </g>
   <g id="patch_182">
    <path clip-path="url(#p6ca615434e)" d="M 174.953333 213.936594 
L 174.953333 213.936594 
L 174.953333 200.41312 
L 174.953333 200.41312 
z
" style="fill:#88eeff;"/>
   </g>
   <g id="patch_183">
    <path clip-path="url(#p6ca615434e)" d="M 174.953333 199.237166 
L 174.953333 199.237166 
L 174.953333 185.713691 
L 174.953333 185.713691 
z
" style="fill:#88eeff;"/>
   </g>
   <g id="patch_184">
    <path clip-path="url(#p6ca615434e)" d="M 171.058372 184.537737 
L 178.848295 184.537737 
L 178.848295 171.014263 
L 171.058372 171.014263 
z
" style="fill:#88eeff;"/>
   </g>
   <g id="patch_185">
    <path clip-path="url(#p6ca615434e)" d="M 174.174341 169.838309 
L 175.732326 169.838309 
L 175.732326 156.314834 
L 174.174341 156.314834 
z
" style="fill:#88eeff;"/>
   </g>
   <g id="patch_186">
    <path clip-path="url(#p6ca615434e)" d="M 174.174341 155.13888 
L 175.732326 155.13888 
L 175.732326 141.615406 
L 174.174341 141.615406 
z
" style="fill:#88eeff;"/>
   </g>
   <g id="patch_187">
    <path clip-path="url(#p6ca615434e)" d="M 174.953333 140.439451 
L 174.953333 140.439451 
L 174.953333 126.915977 
L 174.953333 126.915977 
z
" style="fill:#88eeff;"/>
   </g>
   <g id="patch_188">
    <path clip-path="url(#p6ca615434e)" d="M 174.174341 125.740023 
L 175.732326 125.740023 
L 175.732326 112.216549 
L 174.174341 112.216549 
z
" style="fill:#88eeff;"/>
   </g>
   <g id="patch_189">
    <path clip-path="url(#p6ca615434e)" d="M 174.174341 111.040594 
L 175.732326 111.040594 
L 175.732326 97.51712 
L 174.174341 97.51712 
z
" style="fill:#88eeff;"/>
   </g>
   <g id="patch_190">
    <path clip-path="url(#p6ca615434e)" d="M 174.953333 96.341166 
L 174.953333 96.341166 
L 174.953333 82.817691 
L 174.953333 82.817691 
z
" style="fill:#88eeff;"/>
   </g>
   <g id="patch_191">
    <path clip-path="url(#p6ca615434e)" d="M 236.793333 272.734309 
L 236.793333 272.734309 
L 236.793333 259.210834 
L 236.793333 259.210834 
z
" style="fill:#88eeff;"/>
   </g>
   <g id="patch_192">
    <path clip-path="url(#p6ca615434e)" d="M 236.793333 258.03488 
L 236.793333 258.03488 
L 236.793333 244.511406 
L 236.793333 244.511406 
z
" style="fill:#88eeff;"/>
   </g>
   <g id="patch_193">
    <path clip-path="url(#p6ca615434e)" d="M 236.793333 243.335451 
L 236.793333 243.335451 
L 236.793333 229.811977 
L 236.793333 229.811977 
z
" style="fill:#88eeff;"/>
   </g>
   <g id="patch_194">
    <path clip-path="url(#p6ca615434e)" d="M 236.793333 228.636023 
L 236.793333 228.636023 
L 236.793333 215.112549 
L 236.793333 215.112549 
z
" style="fill:#88eeff;"/>
   </g>
   <g id="patch_195">
    <path clip-path="url(#p6ca615434e)" d="M 236.533669 213.936594 
L 237.052997 213.936594 
L 237.052997 200.41312 
L 236.533669 200.41312 
z
" style="fill:#88eeff;"/>
   </g>
   <g id="patch_196">
    <path clip-path="url(#p6ca615434e)" d="M 234.975685 199.237166 
L 238.610982 199.237166 
L 238.610982 185.713691 
L 234.975685 185.713691 
z
" style="fill:#88eeff;"/>
   </g>
   <g id="patch_197">
    <path clip-path="url(#p6ca615434e)" d="M 236.014341 184.537737 
L 237.572326 184.537737 
L 237.572326 171.014263 
L 236.014341 171.014263 
z
" style="fill:#88eeff;"/>
   </g>
   <g id="patch_198">
    <path clip-path="url(#p6ca615434e)" d="M 234.975685 169.838309 
L 238.610982 169.838309 
L 238.610982 156.314834 
L 234.975685 156.314834 
z
" style="fill:#88eeff;"/>
   </g>
   <g id="patch_199">
    <path clip-path="url(#p6ca615434e)" d="M 235.754677 155.13888 
L 237.83199 155.13888 
L 237.83199 141.615406 
L 235.754677 141.615406 
z
" style="fill:#88eeff;"/>
   </g>
   <g id="patch_200">
    <path clip-path="url(#p6ca615434e)" d="M 236.793333 140.439451 
L 236.793333 140.439451 
L 236.793333 126.915977 
L 236.793333 126.915977 
z
" style="fill:#88eeff;"/>
   </g>
   <g id="patch_201">
    <path clip-path="url(#p6ca615434e)" d="M 236.014341 125.740023 
L 237.572326 125.740023 
L 237.572326 112.216549 
L 236.014341 112.216549 
z
" style="fill:#88eeff;"/>
   </g>
   <g id="patch_202">
    <path clip-path="url(#p6ca615434e)" d="M 236.014341 111.040594 
L 237.572326 111.040594 
L 237.572326 97.51712 
L 236.014341 97.51712 
z
" style="fill:#88eeff;"/>
   </g>
   <g id="patch_203">
    <path clip-path="url(#p6ca615434e)" d="M 236.793333 96.341166 
L 236.793333 96.341166 
L 236.793333 82.817691 
L 236.793333 82.817691 
z
" style="fill:#88eeff;"/>
   </g>
   <g id="patch_204">
    <path clip-path="url(#p6ca615434e)" d="M 298.633333 272.734309 
L 298.633333 272.734309 
L 298.633333 259.210834 
L 298.633333 259.210834 
z
" style="fill:#88eeff;"/>
   </g>
   <g id="patch_205">
    <path clip-path="url(#p6ca615434e)" d="M 297.854341 258.03488 
L 299.412326 258.03488 
L 299.412326 244.511406 
L 297.854341 244.511406 
z
" style="fill:#88eeff;"/>
   </g>
   <g id="patch_206">
    <path clip-path="url(#p6ca615434e)" d="M 298.633333 243.335451 
L 298.633333 243.335451 
L 298.633333 229.811977 
L 298.633333 229.811977 
z
" style="fill:#88eeff;"/>
   </g>
   <g id="patch_207">
    <path clip-path="url(#p6ca615434e)" d="M 298.633333 228.636023 
L 298.633333 228.636023 
L 298.633333 215.112549 
L 298.633333 215.112549 
z
" style="fill:#88eeff;"/>
   </g>
   <g id="patch_208">
    <path clip-path="url(#p6ca615434e)" d="M 298.633333 213.936594 
L 298.633333 213.936594 
L 298.633333 200.41312 
L 298.633333 200.41312 
z
" style="fill:#88eeff;"/>
   </g>
   <g id="patch_209">
    <path clip-path="url(#p6ca615434e)" d="M 298.633333 199.237166 
L 298.633333 199.237166 
L 298.633333 185.713691 
L 298.633333 185.713691 
z
" style="fill:#88eeff;"/>
   </g>
   <g id="patch_210">
    <path clip-path="url(#p6ca615434e)" d="M 298.633333 184.537737 
L 298.633333 184.537737 
L 298.633333 171.014263 
L 298.633333 171.014263 
z
" style="fill:#88eeff;"/>
   </g>
   <g id="patch_211">
    <path clip-path="url(#p6ca615434e)" d="M 297.854341 169.838309 
L 299.412326 169.838309 
L 299.412326 156.314834 
L 297.854341 156.314834 
z
" style="fill:#88eeff;"/>
   </g>
   <g id="patch_212">
    <path clip-path="url(#p6ca615434e)" d="M 296.296357 155.13888 
L 300.97031 155.13888 
L 300.97031 141.615406 
L 296.296357 141.615406 
z
" style="fill:#88eeff;"/>
   </g>
   <g id="patch_213">
    <path clip-path="url(#p6ca615434e)" d="M 296.296357 140.439451 
L 300.97031 140.439451 
L 300.97031 126.915977 
L 296.296357 126.915977 
z
" style="fill:#88eeff;"/>
   </g>
   <g id="patch_214">
    <path clip-path="url(#p6ca615434e)" d="M 298.633333 125.740023 
L 298.633333 125.740023 
L 298.633333 112.216549 
L 298.633333 112.216549 
z
" style="fill:#88eeff;"/>
   </g>
   <g id="patch_215">
    <path clip-path="url(#p6ca615434e)" d="M 298.633333 111.040594 
L 298.633333 111.040594 
L 298.633333 97.51712 
L 298.633333 97.51712 
z
" style="fill:#88eeff;"/>
   </g>
   <g id="patch_216">
    <path clip-path="url(#p6ca615434e)" d="M 297.075349 96.341166 
L 300.191318 96.341166 
L 300.191318 82.817691 
L 297.075349 82.817691 
z
" style="fill:#88eeff;"/>
   </g>
   <g id="patch_217">
    <path clip-path="url(#p6ca615434e)" d="M 360.473333 272.734309 
L 360.473333 272.734309 
L 360.473333 259.210834 
L 360.473333 259.210834 
z
" style="fill:#88eeff;"/>
   </g>
   <g id="patch_218">
    <path clip-path="url(#p6ca615434e)" d="M 360.473333 258.03488 
L 360.473333 258.03488 
L 360.473333 244.511406 
L 360.473333 244.511406 
z
" style="fill:#88eeff;"/>
   </g>
   <g id="patch_219">
    <path clip-path="url(#p6ca615434e)" d="M 359.694341 243.335451 
L 361.252326 243.335451 
L 361.252326 229.811977 
L 359.694341 229.811977 
z
" style="fill:#88eeff;"/>
   </g>
   <g id="patch_220">
    <path clip-path="url(#p6ca615434e)" d="M 360.473333 228.636023 
L 360.473333 228.636023 
L 360.473333 215.112549 
L 360.473333 215.112549 
z
" style="fill:#88eeff;"/>
   </g>
   <g id="patch_221">
    <path clip-path="url(#p6ca615434e)" d="M 360.473333 213.936594 
L 360.473333 213.936594 
L 360.473333 200.41312 
L 360.473333 200.41312 
z
" style="fill:#88eeff;"/>
   </g>
   <g id="patch_222">
    <path clip-path="url(#p6ca615434e)" d="M 358.136357 199.237166 
L 362.81031 199.237166 
L 362.81031 185.713691 
L 358.136357 185.713691 
z
" style="fill:#88eeff;"/>
   </g>
   <g id="patch_223">
    <path clip-path="url(#p6ca615434e)" d="M 359.694341 184.537737 
L 361.252326 184.537737 
L 361.252326 171.014263 
L 359.694341 171.014263 
z
" style="fill:#88eeff;"/>
   </g>
   <g id="patch_224">
    <path clip-path="url(#p6ca615434e)" d="M 358.915349 169.838309 
L 362.031318 169.838309 
L 362.031318 156.314834 
L 358.915349 156.314834 
z
" style="fill:#88eeff;"/>
   </g>
   <g id="patch_225">
    <path clip-path="url(#p6ca615434e)" d="M 359.694341 155.13888 
L 361.252326 155.13888 
L 361.252326 141.615406 
L 359.694341 141.615406 
z
" style="fill:#88eeff;"/>
   </g>
   <g id="patch_226">
    <path clip-path="url(#p6ca615434e)" d="M 360.473333 140.439451 
L 360.473333 140.439451 
L 360.473333 126.915977 
L 360.473333 126.915977 
z
" style="fill:#88eeff;"/>
   </g>
   <g id="patch_227">
    <path clip-path="url(#p6ca615434e)" d="M 360.473333 125.740023 
L 360.473333 125.740023 
L 360.473333 112.216549 
L 360.473333 112.216549 
z
" style="fill:#88eeff;"/>
   </g>
   <g id="patch_228">
    <path clip-path="url(#p6ca615434e)" d="M 358.915349 111.040594 
L 362.031318 111.040594 
L 362.031318 97.51712 
L 358.915349 97.51712 
z
" style="fill:#88eeff;"/>
   </g>
   <g id="patch_229">
    <path clip-path="url(#p6ca615434e)" d="M 360.473333 96.341166 
L 360.473333 96.341166 
L 360.473333 82.817691 
L 360.473333 82.817691 
z
" style="fill:#88eeff;"/>
   </g>
   <g id="patch_230">
    <path clip-path="url(#p6ca615434e)" d="M 422.313333 272.734309 
L 422.313333 272.734309 
L 422.313333 259.210834 
L 422.313333 259.210834 
z
" style="fill:#88eeff;"/>
   </g>
   <g id="patch_231">
    <path clip-path="url(#p6ca615434e)" d="M 422.313333 258.03488 
L 422.313333 258.03488 
L 422.313333 244.511406 
L 422.313333 244.511406 
z
" style="fill:#88eeff;"/>
   </g>
   <g id="patch_232">
    <path clip-path="url(#p6ca615434e)" d="M 422.313333 243.335451 
L 422.313333 243.335451 
L 422.313333 229.811977 
L 422.313333 229.811977 
z
" style="fill:#88eeff;"/>
   </g>
   <g id="patch_233">
    <path clip-path="url(#p6ca615434e)" d="M 420.755349 228.636023 
L 423.871318 228.636023 
L 423.871318 215.112549 
L 420.755349 215.112549 
z
" style="fill:#88eeff;"/>
   </g>
   <g id="patch_234">
    <path clip-path="url(#p6ca615434e)" d="M 421.534341 213.936594 
L 423.092326 213.936594 
L 423.092326 200.41312 
L 421.534341 200.41312 
z
" style="fill:#88eeff;"/>
   </g>
   <g id="patch_235">
    <path clip-path="url(#p6ca615434e)" d="M 421.534341 199.237166 
L 423.092326 199.237166 
L 423.092326 185.713691 
L 421.534341 185.713691 
z
" style="fill:#88eeff;"/>
   </g>
   <g id="patch_236">
    <path clip-path="url(#p6ca615434e)" d="M 420.755349 184.537737 
L 423.871318 184.537737 
L 423.871318 171.014263 
L 420.755349 171.014263 
z
" style="fill:#88eeff;"/>
   </g>
   <g id="patch_237">
    <path clip-path="url(#p6ca615434e)" d="M 422.313333 169.838309 
L 422.313333 169.838309 
L 422.313333 156.314834 
L 422.313333 156.314834 
z
" style="fill:#88eeff;"/>
   </g>
   <g id="patch_238">
    <path clip-path="url(#p6ca615434e)" d="M 421.534341 155.13888 
L 423.092326 155.13888 
L 423.092326 141.615406 
L 421.534341 141.615406 
z
" style="fill:#88eeff;"/>
   </g>
   <g id="patch_239">
    <path clip-path="url(#p6ca615434e)" d="M 421.534341 140.439451 
L 423.092326 140.439451 
L 423.092326 126.915977 
L 421.534341 126.915977 
z
" style="fill:#88eeff;"/>
   </g>
   <g id="patch_240">
    <path clip-path="url(#p6ca615434e)" d="M 422.313333 125.740023 
L 422.313333 125.740023 
L 422.313333 112.216549 
L 422.313333 112.216549 
z
" style="fill:#88eeff;"/>
   </g>
   <g id="patch_241">
    <path clip-path="url(#p6ca615434e)" d="M 420.755349 111.040594 
L 423.871318 111.040594 
L 423.871318 97.51712 
L 420.755349 97.51712 
z
" style="fill:#88eeff;"/>
   </g>
   <g id="patch_242">
    <path clip-path="url(#p6ca615434e)" d="M 422.313333 96.341166 
L 422.313333 96.341166 
L 422.313333 82.817691 
L 422.313333 82.817691 
z
" style="fill:#88eeff;"/>
   </g>
   <g id="matplotlib.axis_1">
    <g id="xtick_1">
     <g id="line2d_1">
      <defs>
       <path d="M 0 0 
L 0 3.5 
" id="mb8996b9b9b" style="stroke:#000000;stroke-width:0.8;"/>
      </defs>
      <g>
       <use style="stroke:#000000;stroke-width:0.8;" x="92.5" xlink:href="#mb8996b9b9b" y="280.672"/>
      </g>
     </g>
     <g id="text_1">
      <!-- musculature -->
      <g transform="translate(61.669922 296.030281)scale(0.11 -0.11)">
       <defs>
        <path d="M 46.78125 44.1875 
Q 49.859375 50.25 54.046875 53.125 
Q 58.25 56 63.96875 56 
Q 71.6875 56 75.859375 50.015625 
Q 80.03125 44.046875 80.03125 33.015625 
L 80.03125 0 
L 71.875 0 
L 71.875 32.71875 
Q 71.875 40.578125 69.375 44.375 
Q 66.890625 48.1875 61.71875 48.1875 
Q 55.46875 48.1875 51.796875 43.546875 
Q 48.140625 38.921875 48.140625 30.90625 
L 48.140625 0 
L 40.046875 0 
L 40.046875 32.71875 
Q 40.046875 40.625 37.53125 44.40625 
Q 35.015625 48.1875 29.78125 48.1875 
Q 23.578125 48.1875 19.9375 43.53125 
Q 16.3125 38.875 16.3125 30.90625 
L 16.3125 0 
L 8.15625 0 
L 8.15625 54.6875 
L 16.3125 54.6875 
L 16.3125 46.1875 
Q 19.09375 51.21875 22.953125 53.609375 
Q 26.8125 56 32.125 56 
Q 37.5 56 41.25 52.96875 
Q 45.015625 49.953125 46.78125 44.1875 
z
" id="DejaVuSansCondensed-109"/>
        <path d="M 7.671875 21.578125 
L 7.671875 54.6875 
L 15.71875 54.6875 
L 15.71875 21.921875 
Q 15.71875 14.15625 18.453125 10.265625 
Q 21.1875 6.390625 26.609375 6.390625 
Q 33.203125 6.390625 36.984375 11.03125 
Q 40.765625 15.671875 40.765625 23.6875 
L 40.765625 54.6875 
L 48.875 54.6875 
L 48.875 0 
L 40.765625 0 
L 40.765625 8.40625 
Q 37.84375 3.421875 33.953125 1 
Q 30.078125 -1.421875 24.90625 -1.421875 
Q 16.453125 -1.421875 12.0625 4.4375 
Q 7.671875 10.296875 7.671875 21.578125 
z
M 27.984375 56 
z
" id="DejaVuSansCondensed-117"/>
        <path d="M 39.84375 53.078125 
L 39.84375 44.578125 
Q 36.421875 46.53125 32.734375 47.5 
Q 29.046875 48.484375 25.09375 48.484375 
Q 19.09375 48.484375 16.0625 46.4375 
Q 13.03125 44.390625 13.03125 40.28125 
Q 13.03125 37.15625 15.203125 35.375 
Q 17.390625 33.59375 23.875 31.984375 
L 26.609375 31.296875 
Q 35.25 29.25 38.859375 25.515625 
Q 42.484375 21.78125 42.484375 15.09375 
Q 42.484375 7.46875 37.0625 3.015625 
Q 31.640625 -1.421875 22.171875 -1.421875 
Q 18.21875 -1.421875 13.921875 -0.5625 
Q 9.625 0.296875 4.890625 2 
L 4.890625 11.28125 
Q 9.375 8.6875 13.71875 7.390625 
Q 18.0625 6.109375 22.3125 6.109375 
Q 28.03125 6.109375 31.109375 8.28125 
Q 34.1875 10.453125 34.1875 14.40625 
Q 34.1875 18.0625 31.953125 20.015625 
Q 29.734375 21.96875 22.21875 23.78125 
L 19.4375 24.515625 
Q 11.921875 26.265625 8.5625 29.90625 
Q 5.21875 33.546875 5.21875 39.890625 
Q 5.21875 47.609375 10.15625 51.796875 
Q 15.09375 56 24.125 56 
Q 28.609375 56 32.5625 55.265625 
Q 36.53125 54.546875 39.84375 53.078125 
z
" id="DejaVuSansCondensed-115"/>
        <path d="M 43.890625 52.59375 
L 43.890625 44.1875 
Q 40.484375 46.296875 37.03125 47.34375 
Q 33.59375 48.390625 30.078125 48.390625 
Q 22.171875 48.390625 17.828125 42.84375 
Q 13.484375 37.3125 13.484375 27.296875 
Q 13.484375 17.28125 17.828125 11.734375 
Q 22.171875 6.203125 30.078125 6.203125 
Q 33.59375 6.203125 37.03125 7.25 
Q 40.484375 8.296875 43.890625 10.40625 
L 43.890625 2.09375 
Q 40.53125 0.34375 36.890625 -0.53125 
Q 33.25 -1.421875 29.203125 -1.421875 
Q 18.0625 -1.421875 11.515625 6.34375 
Q 4.984375 14.109375 4.984375 27.296875 
Q 4.984375 40.671875 11.59375 48.328125 
Q 18.21875 56 29.6875 56 
Q 33.453125 56 37.015625 55.140625 
Q 40.578125 54.296875 43.890625 52.59375 
z
" id="DejaVuSansCondensed-99"/>
        <path d="M 8.5 75.984375 
L 16.546875 75.984375 
L 16.546875 0 
L 8.5 0 
z
" id="DejaVuSansCondensed-108"/>
        <path d="M 30.859375 27.484375 
Q 21.046875 27.484375 17.265625 25 
Q 13.484375 22.515625 13.484375 16.5 
Q 13.484375 11.71875 16.3125 8.90625 
Q 19.140625 6.109375 24.03125 6.109375 
Q 30.765625 6.109375 34.8125 11.40625 
Q 38.875 16.703125 38.875 25.484375 
L 38.875 27.484375 
z
M 46.96875 31.203125 
L 46.96875 0 
L 38.875 0 
L 38.875 8.296875 
Q 36.140625 3.328125 32 0.953125 
Q 27.875 -1.421875 21.875 -1.421875 
Q 14.3125 -1.421875 9.859375 3.296875 
Q 5.421875 8.015625 5.421875 15.921875 
Q 5.421875 25.140625 10.953125 29.828125 
Q 16.5 34.515625 27.546875 34.515625 
L 38.875 34.515625 
L 38.875 35.40625 
Q 38.875 41.609375 35.203125 45 
Q 31.546875 48.390625 24.90625 48.390625 
Q 20.703125 48.390625 16.703125 47.265625 
Q 12.703125 46.140625 8.984375 43.890625 
L 8.984375 52.203125 
Q 13.421875 54.109375 17.59375 55.046875 
Q 21.78125 56 25.734375 56 
Q 36.421875 56 41.6875 49.84375 
Q 46.96875 43.703125 46.96875 31.203125 
z
" id="DejaVuSansCondensed-97"/>
        <path d="M 16.5 70.21875 
L 16.5 54.6875 
L 33.15625 54.6875 
L 33.15625 47.703125 
L 16.5 47.703125 
L 16.5 18.015625 
Q 16.5 11.328125 18.140625 9.421875 
Q 19.78125 7.515625 24.8125 7.515625 
L 33.15625 7.515625 
L 33.15625 0 
L 24.8125 0 
Q 15.484375 0 11.90625 3.875 
Q 8.34375 7.765625 8.34375 18.015625 
L 8.34375 47.703125 
L 2.4375 47.703125 
L 2.4375 54.6875 
L 8.34375 54.6875 
L 8.34375 70.21875 
z
" id="DejaVuSansCondensed-116"/>
        <path d="M 37.015625 46.296875 
Q 35.640625 47.171875 34.03125 47.578125 
Q 32.421875 48 30.515625 48 
Q 23.640625 48 19.96875 43.046875 
Q 16.3125 38.09375 16.3125 28.8125 
L 16.3125 0 
L 8.15625 0 
L 8.15625 54.6875 
L 16.3125 54.6875 
L 16.3125 46.1875 
Q 18.84375 51.171875 22.9375 53.578125 
Q 27.046875 56 32.859375 56 
Q 33.6875 56 34.71875 55.875 
Q 35.75 55.765625 36.96875 55.515625 
z
" id="DejaVuSansCondensed-114"/>
        <path d="M 50.59375 29.59375 
L 50.59375 25.203125 
L 13.375 25.203125 
Q 13.921875 15.921875 18.4375 11.0625 
Q 22.953125 6.203125 30.953125 6.203125 
Q 35.640625 6.203125 40.015625 7.46875 
Q 44.390625 8.734375 48.6875 11.28125 
L 48.6875 2.78125 
Q 44.34375 0.734375 39.765625 -0.34375 
Q 35.203125 -1.421875 30.515625 -1.421875 
Q 18.703125 -1.421875 11.84375 6.1875 
Q 4.984375 13.8125 4.984375 26.8125 
Q 4.984375 40.234375 11.5 48.109375 
Q 18.015625 56 29.109375 56 
Q 39.015625 56 44.796875 48.890625 
Q 50.59375 41.796875 50.59375 29.59375 
z
M 42.484375 32.234375 
Q 42.390625 39.59375 38.765625 43.984375 
Q 35.15625 48.390625 29.203125 48.390625 
Q 22.40625 48.390625 18.328125 44.140625 
Q 14.265625 39.890625 13.671875 32.171875 
z
" id="DejaVuSansCondensed-101"/>
       </defs>
       <use xlink:href="#DejaVuSansCondensed-109"/>
       <use x="87.646484" xlink:href="#DejaVuSansCondensed-117"/>
       <use x="144.677734" xlink:href="#DejaVuSansCondensed-115"/>
       <use x="191.552734" xlink:href="#DejaVuSansCondensed-99"/>
       <use x="241.015625" xlink:href="#DejaVuSansCondensed-117"/>
       <use x="298.046875" xlink:href="#DejaVuSansCondensed-108"/>
       <use x="323.046875" xlink:href="#DejaVuSansCondensed-97"/>
       <use x="378.173828" xlink:href="#DejaVuSansCondensed-116"/>
       <use x="413.427734" xlink:href="#DejaVuSansCondensed-117"/>
       <use x="470.458984" xlink:href="#DejaVuSansCondensed-114"/>
       <use x="505.171875" xlink:href="#DejaVuSansCondensed-101"/>
      </g>
     </g>
    </g>
    <g id="xtick_2">
     <g id="line2d_2">
      <g>
       <use style="stroke:#000000;stroke-width:0.8;" x="154.34" xlink:href="#mb8996b9b9b" y="280.672"/>
      </g>
     </g>
     <g id="text_2">
      <!-- thinness -->
      <g transform="translate(133.414219 296.030281)scale(0.11 -0.11)">
       <defs>
        <path d="M 49.421875 33.015625 
L 49.421875 0 
L 41.3125 0 
L 41.3125 32.71875 
Q 41.3125 40.484375 38.578125 44.328125 
Q 35.84375 48.1875 30.421875 48.1875 
Q 23.875 48.1875 20.09375 43.546875 
Q 16.3125 38.921875 16.3125 30.90625 
L 16.3125 0 
L 8.15625 0 
L 8.15625 75.984375 
L 16.3125 75.984375 
L 16.3125 46.1875 
Q 19.1875 51.125 23.109375 53.5625 
Q 27.046875 56 32.234375 56 
Q 40.671875 56 45.046875 50.171875 
Q 49.421875 44.34375 49.421875 33.015625 
z
" id="DejaVuSansCondensed-104"/>
        <path d="M 8.5 54.6875 
L 16.546875 54.6875 
L 16.546875 0 
L 8.5 0 
z
M 8.5 75.984375 
L 16.546875 75.984375 
L 16.546875 64.59375 
L 8.5 64.59375 
z
" id="DejaVuSansCondensed-105"/>
        <path d="M 49.421875 33.015625 
L 49.421875 0 
L 41.3125 0 
L 41.3125 32.71875 
Q 41.3125 40.484375 38.578125 44.328125 
Q 35.84375 48.1875 30.421875 48.1875 
Q 23.875 48.1875 20.09375 43.546875 
Q 16.3125 38.921875 16.3125 30.90625 
L 16.3125 0 
L 8.15625 0 
L 8.15625 54.6875 
L 16.3125 54.6875 
L 16.3125 46.1875 
Q 19.1875 51.125 23.109375 53.5625 
Q 27.046875 56 32.234375 56 
Q 40.671875 56 45.046875 50.171875 
Q 49.421875 44.34375 49.421875 33.015625 
z
" id="DejaVuSansCondensed-110"/>
       </defs>
       <use xlink:href="#DejaVuSansCondensed-116"/>
       <use x="35.253906" xlink:href="#DejaVuSansCondensed-104"/>
       <use x="92.285156" xlink:href="#DejaVuSansCondensed-105"/>
       <use x="117.285156" xlink:href="#DejaVuSansCondensed-110"/>
       <use x="174.316406" xlink:href="#DejaVuSansCondensed-110"/>
       <use x="231.347656" xlink:href="#DejaVuSansCondensed-101"/>
       <use x="286.71875" xlink:href="#DejaVuSansCondensed-115"/>
       <use x="333.59375" xlink:href="#DejaVuSansCondensed-115"/>
      </g>
     </g>
    </g>
    <g id="xtick_3">
     <g id="line2d_3">
      <g>
       <use style="stroke:#000000;stroke-width:0.8;" x="216.18" xlink:href="#mb8996b9b9b" y="280.672"/>
      </g>
     </g>
     <g id="text_3">
      <!-- youth -->
      <g transform="translate(202.014062 296.030281)scale(0.11 -0.11)">
       <defs>
        <path d="M 28.953125 -5.078125 
Q 25.53125 -14.84375 22.28125 -17.8125 
Q 19.046875 -20.796875 13.578125 -20.796875 
L 7.125 -20.796875 
L 7.125 -13.28125 
L 11.859375 -13.28125 
Q 15.1875 -13.28125 17.03125 -11.515625 
Q 18.890625 -9.765625 21.140625 -3.21875 
L 22.609375 0.875 
L 2.6875 54.6875 
L 11.234375 54.6875 
L 26.609375 11.921875 
L 42 54.6875 
L 50.59375 54.6875 
z
" id="DejaVuSansCondensed-121"/>
        <path d="M 27.546875 48.390625 
Q 21.046875 48.390625 17.265625 42.75 
Q 13.484375 37.109375 13.484375 27.296875 
Q 13.484375 17.484375 17.234375 11.84375 
Q 21 6.203125 27.546875 6.203125 
Q 34.03125 6.203125 37.78125 11.859375 
Q 41.546875 17.53125 41.546875 27.296875 
Q 41.546875 37.015625 37.78125 42.703125 
Q 34.03125 48.390625 27.546875 48.390625 
z
M 27.546875 56 
Q 38.09375 56 44.109375 48.375 
Q 50.140625 40.765625 50.140625 27.296875 
Q 50.140625 13.875 44.109375 6.21875 
Q 38.09375 -1.421875 27.546875 -1.421875 
Q 16.9375 -1.421875 10.953125 6.21875 
Q 4.984375 13.875 4.984375 27.296875 
Q 4.984375 40.765625 10.953125 48.375 
Q 16.9375 56 27.546875 56 
z
" id="DejaVuSansCondensed-111"/>
       </defs>
       <use xlink:href="#DejaVuSansCondensed-121"/>
       <use x="53.222656" xlink:href="#DejaVuSansCondensed-111"/>
       <use x="108.251953" xlink:href="#DejaVuSansCondensed-117"/>
       <use x="165.283203" xlink:href="#DejaVuSansCondensed-116"/>
       <use x="200.537109" xlink:href="#DejaVuSansCondensed-104"/>
      </g>
     </g>
    </g>
    <g id="xtick_4">
     <g id="line2d_4">
      <g>
       <use style="stroke:#000000;stroke-width:0.8;" x="278.02" xlink:href="#mb8996b9b9b" y="280.672"/>
      </g>
     </g>
     <g id="text_4">
      <!-- attractive- -->
      <g transform="translate(252.2525 296.030281)scale(0.11 -0.11)">
       <defs>
        <path d="M 2.6875 54.6875 
L 11.234375 54.6875 
L 26.609375 8.796875 
L 42 54.6875 
L 50.59375 54.6875 
L 32.125 0 
L 21.140625 0 
z
" id="DejaVuSansCondensed-118"/>
        <path d="M 4.390625 31.390625 
L 28.078125 31.390625 
L 28.078125 23.390625 
L 4.390625 23.390625 
z
" id="DejaVuSansCondensed-45"/>
       </defs>
       <use xlink:href="#DejaVuSansCondensed-97"/>
       <use x="55.126953" xlink:href="#DejaVuSansCondensed-116"/>
       <use x="90.380859" xlink:href="#DejaVuSansCondensed-116"/>
       <use x="125.634766" xlink:href="#DejaVuSansCondensed-114"/>
       <use x="162.597656" xlink:href="#DejaVuSansCondensed-97"/>
       <use x="217.724609" xlink:href="#DejaVuSansCondensed-99"/>
       <use x="267.1875" xlink:href="#DejaVuSansCondensed-116"/>
       <use x="302.441406" xlink:href="#DejaVuSansCondensed-105"/>
       <use x="327.441406" xlink:href="#DejaVuSansCondensed-118"/>
       <use x="380.664062" xlink:href="#DejaVuSansCondensed-101"/>
       <use x="436.035156" xlink:href="#DejaVuSansCondensed-45"/>
      </g>
      <!-- ness -->
      <g transform="translate(266.681406 308.347875)scale(0.11 -0.11)">
       <use xlink:href="#DejaVuSansCondensed-110"/>
       <use x="57.03125" xlink:href="#DejaVuSansCondensed-101"/>
       <use x="112.402344" xlink:href="#DejaVuSansCondensed-115"/>
       <use x="159.277344" xlink:href="#DejaVuSansCondensed-115"/>
      </g>
     </g>
    </g>
    <g id="xtick_5">
     <g id="line2d_5">
      <g>
       <use style="stroke:#000000;stroke-width:0.8;" x="339.86" xlink:href="#mb8996b9b9b" y="280.672"/>
      </g>
     </g>
     <g id="text_5">
      <!-- sexualization -->
      <g transform="translate(307.380781 296.030281)scale(0.11 -0.11)">
       <defs>
        <path d="M 49.421875 54.6875 
L 31.59375 28.078125 
L 50.296875 0 
L 40.765625 0 
L 26.46875 21.484375 
L 12.109375 0 
L 2.59375 0 
L 21.734375 28.609375 
L 4.203125 54.6875 
L 13.765625 54.6875 
L 26.8125 35.203125 
L 39.84375 54.6875 
z
" id="DejaVuSansCondensed-120"/>
        <path d="M 4.984375 54.6875 
L 43.359375 54.6875 
L 43.359375 46.484375 
L 12.984375 7.171875 
L 43.359375 7.171875 
L 43.359375 0 
L 3.859375 0 
L 3.859375 8.203125 
L 34.28125 47.515625 
L 4.984375 47.515625 
z
" id="DejaVuSansCondensed-122"/>
       </defs>
       <use xlink:href="#DejaVuSansCondensed-115"/>
       <use x="46.875" xlink:href="#DejaVuSansCondensed-101"/>
       <use x="100.496094" xlink:href="#DejaVuSansCondensed-120"/>
       <use x="153.71875" xlink:href="#DejaVuSansCondensed-117"/>
       <use x="210.75" xlink:href="#DejaVuSansCondensed-97"/>
       <use x="265.876953" xlink:href="#DejaVuSansCondensed-108"/>
       <use x="290.876953" xlink:href="#DejaVuSansCondensed-105"/>
       <use x="315.876953" xlink:href="#DejaVuSansCondensed-122"/>
       <use x="363.09375" xlink:href="#DejaVuSansCondensed-97"/>
       <use x="418.220703" xlink:href="#DejaVuSansCondensed-116"/>
       <use x="453.474609" xlink:href="#DejaVuSansCondensed-105"/>
       <use x="478.474609" xlink:href="#DejaVuSansCondensed-111"/>
       <use x="533.503906" xlink:href="#DejaVuSansCondensed-110"/>
      </g>
     </g>
    </g>
    <g id="xtick_6">
     <g id="line2d_6">
      <g>
       <use style="stroke:#000000;stroke-width:0.8;" x="401.7" xlink:href="#mb8996b9b9b" y="280.672"/>
      </g>
     </g>
     <g id="text_6">
      <!-- attire -->
      <g transform="translate(388.460469 296.030281)scale(0.11 -0.11)">
       <use xlink:href="#DejaVuSansCondensed-97"/>
       <use x="55.126953" xlink:href="#DejaVuSansCondensed-116"/>
       <use x="90.380859" xlink:href="#DejaVuSansCondensed-116"/>
       <use x="125.634766" xlink:href="#DejaVuSansCondensed-105"/>
       <use x="150.634766" xlink:href="#DejaVuSansCondensed-114"/>
       <use x="185.347656" xlink:href="#DejaVuSansCondensed-101"/>
      </g>
      <!-- sexualization -->
      <g transform="translate(369.220781 308.347875)scale(0.11 -0.11)">
       <use xlink:href="#DejaVuSansCondensed-115"/>
       <use x="46.875" xlink:href="#DejaVuSansCondensed-101"/>
       <use x="100.496094" xlink:href="#DejaVuSansCondensed-120"/>
       <use x="153.71875" xlink:href="#DejaVuSansCondensed-117"/>
       <use x="210.75" xlink:href="#DejaVuSansCondensed-97"/>
       <use x="265.876953" xlink:href="#DejaVuSansCondensed-108"/>
       <use x="290.876953" xlink:href="#DejaVuSansCondensed-105"/>
       <use x="315.876953" xlink:href="#DejaVuSansCondensed-122"/>
       <use x="363.09375" xlink:href="#DejaVuSansCondensed-97"/>
       <use x="418.220703" xlink:href="#DejaVuSansCondensed-116"/>
       <use x="453.474609" xlink:href="#DejaVuSansCondensed-105"/>
       <use x="478.474609" xlink:href="#DejaVuSansCondensed-111"/>
       <use x="533.503906" xlink:href="#DejaVuSansCondensed-110"/>
      </g>
     </g>
    </g>
    <g id="text_7">
     <!-- Construct -->
     <g transform="translate(214.41875 326.033187)scale(0.15 -0.15)">
      <defs>
       <path d="M 57.953125 67.28125 
L 57.953125 56.890625 
Q 53.46875 61.53125 48.390625 63.8125 
Q 43.3125 66.109375 37.59375 66.109375 
Q 26.375 66.109375 20.390625 58.46875 
Q 14.40625 50.828125 14.40625 36.375 
Q 14.40625 21.96875 20.390625 14.328125 
Q 26.375 6.6875 37.59375 6.6875 
Q 43.3125 6.6875 48.390625 8.984375 
Q 53.46875 11.28125 57.953125 15.921875 
L 57.953125 5.609375 
Q 53.328125 2.09375 48.09375 0.328125 
Q 42.875 -1.421875 37.109375 -1.421875 
Q 22.171875 -1.421875 13.625 8.703125 
Q 5.078125 18.84375 5.078125 36.375 
Q 5.078125 53.953125 13.625 64.078125 
Q 22.171875 74.21875 37.109375 74.21875 
Q 42.96875 74.21875 48.1875 72.484375 
Q 53.421875 70.75 57.953125 67.28125 
z
" id="DejaVuSansCondensed-67"/>
      </defs>
      <use xlink:href="#DejaVuSansCondensed-67"/>
      <use x="62.841797" xlink:href="#DejaVuSansCondensed-111"/>
      <use x="117.871094" xlink:href="#DejaVuSansCondensed-110"/>
      <use x="174.902344" xlink:href="#DejaVuSansCondensed-115"/>
      <use x="221.777344" xlink:href="#DejaVuSansCondensed-116"/>
      <use x="257.03125" xlink:href="#DejaVuSansCondensed-114"/>
      <use x="293.994141" xlink:href="#DejaVuSansCondensed-117"/>
      <use x="351.025391" xlink:href="#DejaVuSansCondensed-99"/>
      <use x="400.488281" xlink:href="#DejaVuSansCondensed-116"/>
     </g>
    </g>
   </g>
   <g id="matplotlib.axis_2">
    <g id="ytick_1">
     <g id="line2d_7">
      <defs>
       <path d="M 0 0 
L -3.5 0 
" id="m7e68ad9ff9" style="stroke:#000000;stroke-width:0.8;"/>
      </defs>
      <g>
       <use style="stroke:#000000;stroke-width:0.8;" x="61.58" xlink:href="#m7e68ad9ff9" y="265.972571"/>
      </g>
     </g>
     <g id="text_8">
      <!-- 1 -->
      <g transform="translate(46.567188 271.291478)scale(0.14 -0.14)">
       <defs>
        <path d="M 11.1875 8.296875 
L 25.6875 8.296875 
L 25.6875 63.921875 
L 9.859375 60.40625 
L 9.859375 69.390625 
L 25.59375 72.90625 
L 34.46875 72.90625 
L 34.46875 8.296875 
L 48.96875 8.296875 
L 48.96875 0 
L 11.1875 0 
z
" id="DejaVuSansCondensed-49"/>
       </defs>
       <use xlink:href="#DejaVuSansCondensed-49"/>
      </g>
     </g>
    </g>
    <g id="ytick_2">
     <g id="line2d_8">
      <g>
       <use style="stroke:#000000;stroke-width:0.8;" x="61.58" xlink:href="#m7e68ad9ff9" y="251.273143"/>
      </g>
     </g>
     <g id="text_9">
      <!-- 1.5 -->
      <g transform="translate(34.555625 256.592049)scale(0.14 -0.14)">
       <defs>
        <path d="M 9.625 12.40625 
L 18.890625 12.40625 
L 18.890625 0 
L 9.625 0 
z
" id="DejaVuSansCondensed-46"/>
        <path d="M 9.71875 72.90625 
L 44.578125 72.90625 
L 44.578125 64.59375 
L 17.828125 64.59375 
L 17.828125 46.734375 
Q 19.78125 47.46875 21.703125 47.828125 
Q 23.640625 48.1875 25.59375 48.1875 
Q 36.578125 48.1875 43 41.5 
Q 49.421875 34.8125 49.421875 23.390625 
Q 49.421875 11.625 42.828125 5.09375 
Q 36.234375 -1.421875 24.21875 -1.421875 
Q 20.0625 -1.421875 15.796875 -0.640625 
Q 11.53125 0.140625 6.9375 1.703125 
L 6.9375 11.625 
Q 10.890625 9.234375 15.109375 8.0625 
Q 19.34375 6.890625 24.03125 6.890625 
Q 31.640625 6.890625 36.078125 11.328125 
Q 40.53125 15.765625 40.53125 23.390625 
Q 40.53125 31 36.078125 35.4375 
Q 31.640625 39.890625 24.03125 39.890625 
Q 20.453125 39.890625 16.90625 39.015625 
Q 13.375 38.140625 9.71875 36.28125 
z
" id="DejaVuSansCondensed-53"/>
       </defs>
       <use xlink:href="#DejaVuSansCondensed-49"/>
       <use x="57.226562" xlink:href="#DejaVuSansCondensed-46"/>
       <use x="85.791016" xlink:href="#DejaVuSansCondensed-53"/>
      </g>
     </g>
    </g>
    <g id="ytick_3">
     <g id="line2d_9">
      <g>
       <use style="stroke:#000000;stroke-width:0.8;" x="61.58" xlink:href="#m7e68ad9ff9" y="236.573714"/>
      </g>
     </g>
     <g id="text_10">
      <!-- 2 -->
      <g transform="translate(46.567188 241.892621)scale(0.14 -0.14)">
       <defs>
        <path d="M 17.28125 8.296875 
L 48.25 8.296875 
L 48.25 0 
L 6.59375 0 
L 6.59375 8.296875 
Q 11.625 14.109375 20.359375 23.890625 
Q 29.109375 33.6875 31.34375 36.53125 
Q 35.59375 41.84375 37.28125 45.53125 
Q 38.96875 49.21875 38.96875 52.78125 
Q 38.96875 58.59375 35.296875 62.25 
Q 31.640625 65.921875 25.734375 65.921875 
Q 21.578125 65.921875 16.9375 64.3125 
Q 12.3125 62.703125 7.03125 59.421875 
L 7.03125 69.390625 
Q 12.40625 71.78125 17.0625 73 
Q 21.734375 74.21875 25.59375 74.21875 
Q 35.796875 74.21875 41.84375 68.546875 
Q 47.90625 62.890625 47.90625 53.421875 
Q 47.90625 48.921875 46.390625 44.890625 
Q 44.875 40.875 40.875 35.40625 
Q 39.75 33.984375 33.859375 27.21875 
Q 27.984375 20.453125 17.28125 8.296875 
z
" id="DejaVuSansCondensed-50"/>
       </defs>
       <use xlink:href="#DejaVuSansCondensed-50"/>
      </g>
     </g>
    </g>
    <g id="ytick_4">
     <g id="line2d_10">
      <g>
       <use style="stroke:#000000;stroke-width:0.8;" x="61.58" xlink:href="#m7e68ad9ff9" y="221.874286"/>
      </g>
     </g>
     <g id="text_11">
      <!-- 2.5 -->
      <g transform="translate(34.555625 227.193192)scale(0.14 -0.14)">
       <use xlink:href="#DejaVuSansCondensed-50"/>
       <use x="57.226562" xlink:href="#DejaVuSansCondensed-46"/>
       <use x="85.791016" xlink:href="#DejaVuSansCondensed-53"/>
      </g>
     </g>
    </g>
    <g id="ytick_5">
     <g id="line2d_11">
      <g>
       <use style="stroke:#000000;stroke-width:0.8;" x="61.58" xlink:href="#m7e68ad9ff9" y="207.174857"/>
      </g>
     </g>
     <g id="text_12">
      <!-- 3 -->
      <g transform="translate(46.567188 212.493763)scale(0.14 -0.14)">
       <defs>
        <path d="M 36.53125 39.3125 
Q 42.875 37.796875 46.453125 33 
Q 50.046875 28.21875 50.046875 21.1875 
Q 50.046875 10.40625 43.375 4.484375 
Q 36.71875 -1.421875 24.421875 -1.421875 
Q 20.265625 -1.421875 15.890625 -0.515625 
Q 11.53125 0.390625 6.84375 2.203125 
L 6.84375 11.71875 
Q 10.546875 9.328125 14.9375 8.109375 
Q 19.34375 6.890625 24.125 6.890625 
Q 32.46875 6.890625 36.84375 10.546875 
Q 41.21875 14.203125 41.21875 21.1875 
Q 41.21875 27.640625 37.15625 31.265625 
Q 33.109375 34.90625 25.828125 34.90625 
L 18.21875 34.90625 
L 18.21875 43.015625 
L 26.171875 43.015625 
Q 32.71875 43.015625 36.203125 45.921875 
Q 39.703125 48.828125 39.703125 54.296875 
Q 39.703125 59.90625 36.109375 62.90625 
Q 32.515625 65.921875 25.828125 65.921875 
Q 22.171875 65.921875 18.015625 65.03125 
Q 13.875 64.15625 8.84375 62.3125 
L 8.84375 71.09375 
Q 13.875 72.65625 18.28125 73.4375 
Q 22.703125 74.21875 26.609375 74.21875 
Q 36.71875 74.21875 42.625 69.109375 
Q 48.53125 64.015625 48.53125 55.328125 
Q 48.53125 49.265625 45.40625 45.09375 
Q 42.28125 40.921875 36.53125 39.3125 
z
" id="DejaVuSansCondensed-51"/>
       </defs>
       <use xlink:href="#DejaVuSansCondensed-51"/>
      </g>
     </g>
    </g>
    <g id="ytick_6">
     <g id="line2d_12">
      <g>
       <use style="stroke:#000000;stroke-width:0.8;" x="61.58" xlink:href="#m7e68ad9ff9" y="192.475429"/>
      </g>
     </g>
     <g id="text_13">
      <!-- 3.5 -->
      <g transform="translate(34.555625 197.794335)scale(0.14 -0.14)">
       <use xlink:href="#DejaVuSansCondensed-51"/>
       <use x="57.226562" xlink:href="#DejaVuSansCondensed-46"/>
       <use x="85.791016" xlink:href="#DejaVuSansCondensed-53"/>
      </g>
     </g>
    </g>
    <g id="ytick_7">
     <g id="line2d_13">
      <g>
       <use style="stroke:#000000;stroke-width:0.8;" x="61.58" xlink:href="#m7e68ad9ff9" y="177.776"/>
      </g>
     </g>
     <g id="text_14">
      <!-- 4 -->
      <g transform="translate(46.567188 183.094906)scale(0.14 -0.14)">
       <defs>
        <path d="M 34.03125 64.3125 
L 11.625 25.390625 
L 34.03125 25.390625 
z
M 31.6875 72.90625 
L 42.875 72.90625 
L 42.875 25.390625 
L 52.203125 25.390625 
L 52.203125 17.1875 
L 42.875 17.1875 
L 42.875 0 
L 34.03125 0 
L 34.03125 17.1875 
L 4.390625 17.1875 
L 4.390625 26.703125 
z
" id="DejaVuSansCondensed-52"/>
       </defs>
       <use xlink:href="#DejaVuSansCondensed-52"/>
      </g>
     </g>
    </g>
    <g id="ytick_8">
     <g id="line2d_14">
      <g>
       <use style="stroke:#000000;stroke-width:0.8;" x="61.58" xlink:href="#m7e68ad9ff9" y="163.076571"/>
      </g>
     </g>
     <g id="text_15">
      <!-- 4.5 -->
      <g transform="translate(34.555625 168.395478)scale(0.14 -0.14)">
       <use xlink:href="#DejaVuSansCondensed-52"/>
       <use x="57.226562" xlink:href="#DejaVuSansCondensed-46"/>
       <use x="85.791016" xlink:href="#DejaVuSansCondensed-53"/>
      </g>
     </g>
    </g>
    <g id="ytick_9">
     <g id="line2d_15">
      <g>
       <use style="stroke:#000000;stroke-width:0.8;" x="61.58" xlink:href="#m7e68ad9ff9" y="148.377143"/>
      </g>
     </g>
     <g id="text_16">
      <!-- 5 -->
      <g transform="translate(46.567188 153.696049)scale(0.14 -0.14)">
       <use xlink:href="#DejaVuSansCondensed-53"/>
      </g>
     </g>
    </g>
    <g id="ytick_10">
     <g id="line2d_16">
      <g>
       <use style="stroke:#000000;stroke-width:0.8;" x="61.58" xlink:href="#m7e68ad9ff9" y="133.677714"/>
      </g>
     </g>
     <g id="text_17">
      <!-- 5.5 -->
      <g transform="translate(34.555625 138.996621)scale(0.14 -0.14)">
       <use xlink:href="#DejaVuSansCondensed-53"/>
       <use x="57.226562" xlink:href="#DejaVuSansCondensed-46"/>
       <use x="85.791016" xlink:href="#DejaVuSansCondensed-53"/>
      </g>
     </g>
    </g>
    <g id="ytick_11">
     <g id="line2d_17">
      <g>
       <use style="stroke:#000000;stroke-width:0.8;" x="61.58" xlink:href="#m7e68ad9ff9" y="118.978286"/>
      </g>
     </g>
     <g id="text_18">
      <!-- 6 -->
      <g transform="translate(46.567188 124.297192)scale(0.14 -0.14)">
       <defs>
        <path d="M 29.6875 40.375 
Q 23.734375 40.375 20.234375 35.828125 
Q 16.75 31.296875 16.75 23.390625 
Q 16.75 15.53125 20.234375 10.953125 
Q 23.734375 6.390625 29.6875 6.390625 
Q 35.6875 6.390625 39.171875 10.953125 
Q 42.671875 15.53125 42.671875 23.390625 
Q 42.671875 31.296875 39.171875 35.828125 
Q 35.6875 40.375 29.6875 40.375 
z
M 47.3125 71.296875 
L 47.3125 62.3125 
Q 44 64.0625 40.578125 64.984375 
Q 37.15625 65.921875 33.84375 65.921875 
Q 25.046875 65.921875 20.40625 59.328125 
Q 15.765625 52.734375 15.140625 39.40625 
Q 17.71875 43.65625 21.625 45.921875 
Q 25.53125 48.1875 30.21875 48.1875 
Q 40.140625 48.1875 45.875 41.515625 
Q 51.609375 34.859375 51.609375 23.390625 
Q 51.609375 12.15625 45.625 5.359375 
Q 39.65625 -1.421875 29.6875 -1.421875 
Q 18.3125 -1.421875 12.296875 8.265625 
Q 6.296875 17.96875 6.296875 36.375 
Q 6.296875 53.65625 13.671875 63.9375 
Q 21.046875 74.21875 33.5 74.21875 
Q 36.8125 74.21875 40.234375 73.484375 
Q 43.65625 72.75 47.3125 71.296875 
z
" id="DejaVuSansCondensed-54"/>
       </defs>
       <use xlink:href="#DejaVuSansCondensed-54"/>
      </g>
     </g>
    </g>
    <g id="ytick_12">
     <g id="line2d_18">
      <g>
       <use style="stroke:#000000;stroke-width:0.8;" x="61.58" xlink:href="#m7e68ad9ff9" y="104.278857"/>
      </g>
     </g>
     <g id="text_19">
      <!-- 6.5 -->
      <g transform="translate(34.555625 109.597763)scale(0.14 -0.14)">
       <use xlink:href="#DejaVuSansCondensed-54"/>
       <use x="57.226562" xlink:href="#DejaVuSansCondensed-46"/>
       <use x="85.791016" xlink:href="#DejaVuSansCondensed-53"/>
      </g>
     </g>
    </g>
    <g id="ytick_13">
     <g id="line2d_19">
      <g>
       <use style="stroke:#000000;stroke-width:0.8;" x="61.58" xlink:href="#m7e68ad9ff9" y="89.579429"/>
      </g>
     </g>
     <g id="text_20">
      <!-- 7 -->
      <g transform="translate(46.567188 94.898335)scale(0.14 -0.14)">
       <defs>
        <path d="M 7.375 72.90625 
L 49.5625 72.90625 
L 49.5625 68.703125 
L 25.734375 0 
L 16.5 0 
L 38.875 64.59375 
L 7.375 64.59375 
z
" id="DejaVuSansCondensed-55"/>
       </defs>
       <use xlink:href="#DejaVuSansCondensed-55"/>
      </g>
     </g>
    </g>
    <g id="text_21">
     <!-- Median Construct Values -->
     <g transform="translate(27.436094 261.277953)rotate(-90)scale(0.15 -0.15)">
      <defs>
       <path d="M 8.84375 72.90625 
L 22.078125 72.90625 
L 38.8125 23.296875 
L 55.609375 72.90625 
L 68.84375 72.90625 
L 68.84375 0 
L 60.203125 0 
L 60.203125 64.015625 
L 43.265625 14.015625 
L 34.375 14.015625 
L 17.4375 64.015625 
L 17.4375 0 
L 8.84375 0 
z
" id="DejaVuSansCondensed-77"/>
       <path d="M 40.875 46.390625 
L 40.875 75.984375 
L 48.96875 75.984375 
L 48.96875 0 
L 40.875 0 
L 40.875 8.203125 
Q 38.328125 3.328125 34.4375 0.953125 
Q 30.5625 -1.421875 25.09375 -1.421875 
Q 16.15625 -1.421875 10.5625 6.484375 
Q 4.984375 14.40625 4.984375 27.296875 
Q 4.984375 40.1875 10.5625 48.09375 
Q 16.15625 56 25.09375 56 
Q 30.5625 56 34.4375 53.625 
Q 38.328125 51.265625 40.875 46.390625 
z
M 13.328125 27.296875 
Q 13.328125 17.390625 16.984375 11.75 
Q 20.65625 6.109375 27.046875 6.109375 
Q 33.5 6.109375 37.1875 11.75 
Q 40.875 17.390625 40.875 27.296875 
Q 40.875 37.203125 37.1875 42.84375 
Q 33.5 48.484375 27.046875 48.484375 
Q 20.65625 48.484375 16.984375 42.84375 
Q 13.328125 37.203125 13.328125 27.296875 
z
" id="DejaVuSansCondensed-100"/>
       <path id="DejaVuSansCondensed-32"/>
       <path d="M 25.734375 0 
L 0.6875 72.90625 
L 9.96875 72.90625 
L 30.765625 11.53125 
L 51.609375 72.90625 
L 60.84375 72.90625 
L 35.84375 0 
z
" id="DejaVuSansCondensed-86"/>
      </defs>
      <use xlink:href="#DejaVuSansCondensed-77"/>
      <use x="77.636719" xlink:href="#DejaVuSansCondensed-101"/>
      <use x="133.007812" xlink:href="#DejaVuSansCondensed-100"/>
      <use x="190.136719" xlink:href="#DejaVuSansCondensed-105"/>
      <use x="215.136719" xlink:href="#DejaVuSansCondensed-97"/>
      <use x="270.263672" xlink:href="#DejaVuSansCondensed-110"/>
      <use x="327.294922" xlink:href="#DejaVuSansCondensed-32"/>
      <use x="355.859375" xlink:href="#DejaVuSansCondensed-67"/>
      <use x="418.701172" xlink:href="#DejaVuSansCondensed-111"/>
      <use x="473.730469" xlink:href="#DejaVuSansCondensed-110"/>
      <use x="530.761719" xlink:href="#DejaVuSansCondensed-115"/>
      <use x="577.636719" xlink:href="#DejaVuSansCondensed-116"/>
      <use x="612.890625" xlink:href="#DejaVuSansCondensed-114"/>
      <use x="649.853516" xlink:href="#DejaVuSansCondensed-117"/>
      <use x="706.884766" xlink:href="#DejaVuSansCondensed-99"/>
      <use x="756.347656" xlink:href="#DejaVuSansCondensed-116"/>
      <use x="791.601562" xlink:href="#DejaVuSansCondensed-32"/>
      <use x="820.166016" xlink:href="#DejaVuSansCondensed-86"/>
      <use x="873.939453" xlink:href="#DejaVuSansCondensed-97"/>
      <use x="929.066406" xlink:href="#DejaVuSansCondensed-108"/>
      <use x="954.066406" xlink:href="#DejaVuSansCondensed-117"/>
      <use x="1011.097656" xlink:href="#DejaVuSansCondensed-101"/>
      <use x="1066.46875" xlink:href="#DejaVuSansCondensed-115"/>
     </g>
    </g>
   </g>
   <g id="patch_243">
    <path d="M 61.58 280.672 
L 61.58 74.88 
" style="fill:none;stroke:#000000;stroke-linecap:square;stroke-linejoin:miter;stroke-width:0.8;"/>
   </g>
   <g id="patch_244">
    <path d="M 432.62 280.672 
L 432.62 74.88 
" style="fill:none;stroke:#000000;stroke-linecap:square;stroke-linejoin:miter;stroke-width:0.8;"/>
   </g>
   <g id="patch_245">
    <path d="M 61.58 280.672 
L 432.62 280.672 
" style="fill:none;stroke:#000000;stroke-linecap:square;stroke-linejoin:miter;stroke-width:0.8;"/>
   </g>
   <g id="patch_246">
    <path d="M 61.58 74.88 
L 432.62 74.88 
" style="fill:none;stroke:#000000;stroke-linecap:square;stroke-linejoin:miter;stroke-width:0.8;"/>
   </g>
   <g id="text_22">
    <!-- Construct Ranges by Skin Color -->
    <g transform="translate(119.4575 29.88)scale(0.18 -0.18)">
     <defs>
      <path d="M 39.9375 34.1875 
Q 42.828125 33.109375 45.5 29.59375 
Q 48.1875 26.078125 50.921875 19.921875 
L 59.96875 0 
L 50.390625 0 
L 42 18.703125 
Q 38.765625 26.03125 35.71875 28.421875 
Q 32.671875 30.8125 27.390625 30.8125 
L 17.71875 30.8125 
L 17.71875 0 
L 8.84375 0 
L 8.84375 72.90625 
L 28.859375 72.90625 
Q 40.140625 72.90625 45.65625 67.671875 
Q 51.171875 62.453125 51.171875 51.90625 
Q 51.171875 45.015625 48.3125 40.46875 
Q 45.453125 35.9375 39.9375 34.1875 
z
M 17.71875 64.796875 
L 17.71875 38.921875 
L 28.859375 38.921875 
Q 35.296875 38.921875 38.5625 42.21875 
Q 41.84375 45.515625 41.84375 51.90625 
Q 41.84375 58.296875 38.5625 61.546875 
Q 35.296875 64.796875 28.859375 64.796875 
z
" id="DejaVuSansCondensed-82"/>
      <path d="M 40.875 27.984375 
Q 40.875 37.75 37.234375 43.109375 
Q 33.59375 48.484375 27.046875 48.484375 
Q 20.5625 48.484375 16.9375 43.109375 
Q 13.328125 37.75 13.328125 27.984375 
Q 13.328125 18.265625 16.9375 12.890625 
Q 20.5625 7.515625 27.046875 7.515625 
Q 33.59375 7.515625 37.234375 12.890625 
Q 40.875 18.265625 40.875 27.984375 
z
M 48.96875 6.78125 
Q 48.96875 -7.171875 43.375 -13.984375 
Q 37.796875 -20.796875 26.265625 -20.796875 
Q 22.015625 -20.796875 18.234375 -20.09375 
Q 14.453125 -19.390625 10.890625 -17.921875 
L 10.890625 -9.1875 
Q 14.453125 -11.328125 17.921875 -12.34375 
Q 21.390625 -13.375 25 -13.375 
Q 32.953125 -13.375 36.90625 -8.765625 
Q 40.875 -4.15625 40.875 5.171875 
L 40.875 9.625 
Q 38.375 4.78125 34.46875 2.390625 
Q 30.5625 0 25.09375 0 
Q 16.015625 0 10.5 7.65625 
Q 4.984375 15.328125 4.984375 27.984375 
Q 4.984375 40.671875 10.5 48.328125 
Q 16.015625 56 25.09375 56 
Q 30.5625 56 34.46875 53.609375 
Q 38.375 51.21875 40.875 46.390625 
L 40.875 54.6875 
L 48.96875 54.6875 
z
" id="DejaVuSansCondensed-103"/>
      <path d="M 43.796875 27.296875 
Q 43.796875 37.203125 40.125 42.84375 
Q 36.46875 48.484375 30.078125 48.484375 
Q 23.640625 48.484375 19.96875 42.84375 
Q 16.3125 37.203125 16.3125 27.296875 
Q 16.3125 17.390625 19.96875 11.75 
Q 23.640625 6.109375 30.078125 6.109375 
Q 36.46875 6.109375 40.125 11.75 
Q 43.796875 17.390625 43.796875 27.296875 
z
M 16.3125 46.390625 
Q 18.84375 51.265625 22.71875 53.625 
Q 26.609375 56 32.03125 56 
Q 41.015625 56 46.609375 48.09375 
Q 52.203125 40.1875 52.203125 27.296875 
Q 52.203125 14.40625 46.609375 6.484375 
Q 41.015625 -1.421875 32.03125 -1.421875 
Q 26.609375 -1.421875 22.71875 0.953125 
Q 18.84375 3.328125 16.3125 8.203125 
L 16.3125 0 
L 8.15625 0 
L 8.15625 75.984375 
L 16.3125 75.984375 
z
" id="DejaVuSansCondensed-98"/>
      <path d="M 48.140625 70.515625 
L 48.140625 60.890625 
Q 43.109375 63.578125 38.609375 64.890625 
Q 34.125 66.21875 29.984375 66.21875 
Q 22.703125 66.21875 18.765625 63.09375 
Q 14.84375 59.96875 14.84375 54.203125 
Q 14.84375 49.359375 17.453125 46.890625 
Q 20.0625 44.4375 27.390625 42.921875 
L 32.71875 41.703125 
Q 42.671875 39.59375 47.375 34.296875 
Q 52.09375 29 52.09375 20.125 
Q 52.09375 9.515625 45.71875 4.046875 
Q 39.359375 -1.421875 27 -1.421875 
Q 22.3125 -1.421875 17.0625 -0.25 
Q 11.8125 0.921875 6.203125 3.21875 
L 6.203125 13.375 
Q 11.625 10.015625 16.796875 8.296875 
Q 21.96875 6.59375 27 6.59375 
Q 34.578125 6.59375 38.71875 9.90625 
Q 42.875 13.234375 42.875 19.390625 
Q 42.875 24.75 39.890625 27.78125 
Q 36.921875 30.8125 30.125 32.328125 
L 24.75 33.5 
Q 14.796875 35.6875 10.375 40.375 
Q 5.953125 45.0625 5.953125 53.421875 
Q 5.953125 63.09375 12.078125 68.65625 
Q 18.21875 74.21875 28.953125 74.21875 
Q 33.59375 74.21875 38.375 73.28125 
Q 43.171875 72.359375 48.140625 70.515625 
z
" id="DejaVuSansCondensed-83"/>
      <path d="M 8.15625 75.984375 
L 16.3125 75.984375 
L 16.3125 31.109375 
L 40.4375 54.6875 
L 50.78125 54.6875 
L 24.65625 29.109375 
L 51.859375 0 
L 41.3125 0 
L 16.3125 26.703125 
L 16.3125 0 
L 8.15625 0 
z
" id="DejaVuSansCondensed-107"/>
     </defs>
     <use xlink:href="#DejaVuSansCondensed-67"/>
     <use x="62.841797" xlink:href="#DejaVuSansCondensed-111"/>
     <use x="117.871094" xlink:href="#DejaVuSansCondensed-110"/>
     <use x="174.902344" xlink:href="#DejaVuSansCondensed-115"/>
     <use x="221.777344" xlink:href="#DejaVuSansCondensed-116"/>
     <use x="257.03125" xlink:href="#DejaVuSansCondensed-114"/>
     <use x="293.994141" xlink:href="#DejaVuSansCondensed-117"/>
     <use x="351.025391" xlink:href="#DejaVuSansCondensed-99"/>
     <use x="400.488281" xlink:href="#DejaVuSansCondensed-116"/>
     <use x="435.742188" xlink:href="#DejaVuSansCondensed-32"/>
     <use x="464.306641" xlink:href="#DejaVuSansCondensed-82"/>
     <use x="524.556641" xlink:href="#DejaVuSansCondensed-97"/>
     <use x="579.683594" xlink:href="#DejaVuSansCondensed-110"/>
     <use x="636.714844" xlink:href="#DejaVuSansCondensed-103"/>
     <use x="693.84375" xlink:href="#DejaVuSansCondensed-101"/>
     <use x="749.214844" xlink:href="#DejaVuSansCondensed-115"/>
     <use x="796.089844" xlink:href="#DejaVuSansCondensed-32"/>
     <use x="824.654297" xlink:href="#DejaVuSansCondensed-98"/>
     <use x="881.783203" xlink:href="#DejaVuSansCondensed-121"/>
     <use x="935.005859" xlink:href="#DejaVuSansCondensed-32"/>
     <use x="963.570312" xlink:href="#DejaVuSansCondensed-83"/>
     <use x="1020.699219" xlink:href="#DejaVuSansCondensed-107"/>
     <use x="1072.798828" xlink:href="#DejaVuSansCondensed-105"/>
     <use x="1097.798828" xlink:href="#DejaVuSansCondensed-110"/>
     <use x="1154.830078" xlink:href="#DejaVuSansCondensed-32"/>
     <use x="1183.394531" xlink:href="#DejaVuSansCondensed-67"/>
     <use x="1246.236328" xlink:href="#DejaVuSansCondensed-111"/>
     <use x="1301.265625" xlink:href="#DejaVuSansCondensed-108"/>
     <use x="1326.265625" xlink:href="#DejaVuSansCondensed-111"/>
     <use x="1381.294922" xlink:href="#DejaVuSansCondensed-114"/>
    </g>
   </g>
   <g id="legend_1">
    <g id="patch_247">
     <path d="M 71.38 65.82208 
L 426.468125 65.82208 
Q 429.268125 65.82208 429.268125 63.02208 
L 429.268125 43.872705 
Q 429.268125 41.072705 426.468125 41.072705 
L 71.38 41.072705 
Q 68.58 41.072705 68.58 43.872705 
L 68.58 63.02208 
Q 68.58 65.82208 71.38 65.82208 
z
" style="fill:#ffffff;opacity:0.8;stroke:#cccccc;stroke-linejoin:miter;"/>
    </g>
    <g id="patch_248">
     <path d="M 74.18 57.310518 
L 102.18 57.310518 
L 102.18 47.510518 
L 74.18 47.510518 
z
" style="fill:#ff88cc;"/>
    </g>
    <g id="text_23">
     <!-- Lighter -->
     <g transform="translate(113.38 57.310518)scale(0.14 -0.14)">
      <defs>
       <path d="M 8.84375 72.90625 
L 17.71875 72.90625 
L 17.71875 8.296875 
L 49.65625 8.296875 
L 49.65625 0 
L 8.84375 0 
z
" id="DejaVuSansCondensed-76"/>
      </defs>
      <use xlink:href="#DejaVuSansCondensed-76"/>
      <use x="50.097656" xlink:href="#DejaVuSansCondensed-105"/>
      <use x="75.097656" xlink:href="#DejaVuSansCondensed-103"/>
      <use x="132.226562" xlink:href="#DejaVuSansCondensed-104"/>
      <use x="189.257812" xlink:href="#DejaVuSansCondensed-116"/>
      <use x="224.511719" xlink:href="#DejaVuSansCondensed-101"/>
      <use x="279.882812" xlink:href="#DejaVuSansCondensed-114"/>
     </g>
    </g>
    <g id="patch_249">
     <path d="M 185.738125 57.310518 
L 213.738125 57.310518 
L 213.738125 47.510518 
L 185.738125 47.510518 
z
" style="fill:#ffcc77;"/>
    </g>
    <g id="text_24">
     <!-- Darker -->
     <g transform="translate(224.938125 57.310518)scale(0.14 -0.14)">
      <defs>
       <path d="M 17.71875 64.796875 
L 17.71875 8.109375 
L 28.421875 8.109375 
Q 42 8.109375 48.3125 14.9375 
Q 54.640625 21.78125 54.640625 36.53125 
Q 54.640625 51.171875 48.3125 57.984375 
Q 42 64.796875 28.421875 64.796875 
z
M 8.84375 72.90625 
L 27.046875 72.90625 
Q 46.140625 72.90625 55.046875 64.09375 
Q 63.96875 55.28125 63.96875 36.53125 
Q 63.96875 17.671875 55 8.828125 
Q 46.046875 0 27.046875 0 
L 8.84375 0 
z
" id="DejaVuSansCondensed-68"/>
      </defs>
      <use xlink:href="#DejaVuSansCondensed-68"/>
      <use x="69.287109" xlink:href="#DejaVuSansCondensed-97"/>
      <use x="124.414062" xlink:href="#DejaVuSansCondensed-114"/>
      <use x="161.376953" xlink:href="#DejaVuSansCondensed-107"/>
      <use x="209.851562" xlink:href="#DejaVuSansCondensed-101"/>
      <use x="265.222656" xlink:href="#DejaVuSansCondensed-114"/>
     </g>
    </g>
    <g id="patch_250">
     <path d="M 295.244375 57.310518 
L 323.244375 57.310518 
L 323.244375 47.510518 
L 295.244375 47.510518 
z
" style="fill:#88eeff;"/>
    </g>
    <g id="text_25">
     <!-- Indeterminate -->
     <g transform="translate(334.444375 57.310518)scale(0.14 -0.14)">
      <defs>
       <path d="M 8.84375 72.90625 
L 17.71875 72.90625 
L 17.71875 0 
L 8.84375 0 
z
" id="DejaVuSansCondensed-73"/>
      </defs>
      <use xlink:href="#DejaVuSansCondensed-73"/>
      <use x="26.513672" xlink:href="#DejaVuSansCondensed-110"/>
      <use x="83.544922" xlink:href="#DejaVuSansCondensed-100"/>
      <use x="140.673828" xlink:href="#DejaVuSansCondensed-101"/>
      <use x="196.044922" xlink:href="#DejaVuSansCondensed-116"/>
      <use x="231.298828" xlink:href="#DejaVuSansCondensed-101"/>
      <use x="286.669922" xlink:href="#DejaVuSansCondensed-114"/>
      <use x="321.882812" xlink:href="#DejaVuSansCondensed-109"/>
      <use x="409.529297" xlink:href="#DejaVuSansCondensed-105"/>
      <use x="434.529297" xlink:href="#DejaVuSansCondensed-110"/>
      <use x="491.560547" xlink:href="#DejaVuSansCondensed-97"/>
      <use x="546.6875" xlink:href="#DejaVuSansCondensed-116"/>
      <use x="581.941406" xlink:href="#DejaVuSansCondensed-101"/>
     </g>
    </g>
   </g>
  </g>
 </g>
 <defs>
  <clipPath id="p6ca615434e">
   <rect height="205.792" width="371.04" x="61.58" y="74.88"/>
  </clipPath>
 </defs>
</svg>
