<?xml version="1.0" encoding="utf-8" standalone="no"?>
<!DOCTYPE svg PUBLIC "-//W3C//DTD SVG 1.1//EN"
  "http://www.w3.org/Graphics/SVG/1.1/DTD/svg11.dtd">
<!-- Created with matplotlib (https://matplotlib.org/) -->
<svg height="345.6pt" version="1.1" viewBox="0 0 460.8 345.6" width="460.8pt" xmlns="http://www.w3.org/2000/svg" xmlns:xlink="http://www.w3.org/1999/xlink">
 <metadata>
  <rdf:RDF xmlns:cc="http://creativecommons.org/ns#" xmlns:dc="http://purl.org/dc/elements/1.1/" xmlns:rdf="http://www.w3.org/1999/02/22-rdf-syntax-ns#">
   <cc:Work>
    <dc:type rdf:resource="http://purl.org/dc/dcmitype/StillImage"/>
    <dc:date>2020-08-08T07:56:55.206898</dc:date>
    <dc:format>image/svg+xml</dc:format>
    <dc:creator>
     <cc:Agent>
      <dc:title>Matplotlib v3.3.0, https://matplotlib.org/</dc:title>
     </cc:Agent>
    </dc:creator>
   </cc:Work>
  </rdf:RDF>
 </metadata>
 <defs>
  <style type="text/css">*{stroke-linecap:butt;stroke-linejoin:round;}</style>
 </defs>
 <g id="figure_1">
  <g id="patch_1">
   <path d="M 0 345.6 
L 460.8 345.6 
L 460.8 0 
L 0 0 
z
" style="fill:#ffffff;"/>
  </g>
  <g id="axes_1">
   <g id="patch_2">
    <path d="M 61.58 280.672 
L 441.78 280.672 
L 441.78 74.88 
L 61.58 74.88 
z
" style="fill:#ffffff;"/>
   </g>
   <g id="patch_3">
    <path clip-path="url(#p49a9996a8e)" d="M 61.58 295.371429 
L 124.946667 295.371429 
L 124.946667 45.481143 
L 61.58 45.481143 
z
" style="fill:#ffffff;opacity:0.3;stroke:#808080;stroke-linejoin:miter;"/>
   </g>
   <g id="patch_4">
    <path clip-path="url(#p49a9996a8e)" d="M 124.946667 295.371429 
L 188.313333 295.371429 
L 188.313333 45.481143 
L 124.946667 45.481143 
z
" style="fill:#ffffff;opacity:0.3;stroke:#808080;stroke-linejoin:miter;"/>
   </g>
   <g id="patch_5">
    <path clip-path="url(#p49a9996a8e)" d="M 188.313333 295.371429 
L 251.68 295.371429 
L 251.68 45.481143 
L 188.313333 45.481143 
z
" style="fill:#ffffff;opacity:0.3;stroke:#808080;stroke-linejoin:miter;"/>
   </g>
   <g id="patch_6">
    <path clip-path="url(#p49a9996a8e)" d="M 251.68 295.371429 
L 315.046667 295.371429 
L 315.046667 45.481143 
L 251.68 45.481143 
z
" style="fill:#ffffff;opacity:0.3;stroke:#808080;stroke-linejoin:miter;"/>
   </g>
   <g id="patch_7">
    <path clip-path="url(#p49a9996a8e)" d="M 315.046667 295.371429 
L 378.413333 295.371429 
L 378.413333 45.481143 
L 315.046667 45.481143 
z
" style="fill:#ffffff;opacity:0.3;stroke:#808080;stroke-linejoin:miter;"/>
   </g>
   <g id="patch_8">
    <path clip-path="url(#p49a9996a8e)" d="M 378.413333 295.371429 
L 441.78 295.371429 
L 441.78 45.481143 
L 378.413333 45.481143 
z
" style="fill:#ffffff;opacity:0.3;stroke:#808080;stroke-linejoin:miter;"/>
   </g>
   <g id="patch_9">
    <path clip-path="url(#p49a9996a8e)" d="M 79.181852 272.734309 
L 79.181852 272.734309 
L 79.181852 259.210834 
L 79.181852 259.210834 
z
" style="fill:#9900bb;"/>
   </g>
   <g id="patch_10">
    <path clip-path="url(#p49a9996a8e)" d="M 79.181852 258.03488 
L 79.181852 258.03488 
L 79.181852 244.511406 
L 79.181852 244.511406 
z
" style="fill:#9900bb;"/>
   </g>
   <g id="patch_11">
    <path clip-path="url(#p49a9996a8e)" d="M 77.465671 243.335451 
L 80.898032 243.335451 
L 80.898032 229.811977 
L 77.465671 229.811977 
z
" style="fill:#9900bb;"/>
   </g>
   <g id="patch_12">
    <path clip-path="url(#p49a9996a8e)" d="M 78.037731 228.636023 
L 80.325972 228.636023 
L 80.325972 215.112549 
L 78.037731 215.112549 
z
" style="fill:#9900bb;"/>
   </g>
   <g id="patch_13">
    <path clip-path="url(#p49a9996a8e)" d="M 78.991165 213.936594 
L 79.372539 213.936594 
L 79.372539 200.41312 
L 78.991165 200.41312 
z
" style="fill:#9900bb;"/>
   </g>
   <g id="patch_14">
    <path clip-path="url(#p49a9996a8e)" d="M 78.419105 199.237166 
L 79.944599 199.237166 
L 79.944599 185.713691 
L 78.419105 185.713691 
z
" style="fill:#9900bb;"/>
   </g>
   <g id="patch_15">
    <path clip-path="url(#p49a9996a8e)" d="M 78.037731 184.537737 
L 80.325972 184.537737 
L 80.325972 171.014263 
L 78.037731 171.014263 
z
" style="fill:#9900bb;"/>
   </g>
   <g id="patch_16">
    <path clip-path="url(#p49a9996a8e)" d="M 78.419105 169.838309 
L 79.944599 169.838309 
L 79.944599 156.314834 
L 78.419105 156.314834 
z
" style="fill:#9900bb;"/>
   </g>
   <g id="patch_17">
    <path clip-path="url(#p49a9996a8e)" d="M 77.847045 155.13888 
L 80.516659 155.13888 
L 80.516659 141.615406 
L 77.847045 141.615406 
z
" style="fill:#9900bb;"/>
   </g>
   <g id="patch_18">
    <path clip-path="url(#p49a9996a8e)" d="M 75.749491 140.439451 
L 82.614213 140.439451 
L 82.614213 126.915977 
L 75.749491 126.915977 
z
" style="fill:#9900bb;"/>
   </g>
   <g id="patch_19">
    <path clip-path="url(#p49a9996a8e)" d="M 76.893611 125.740023 
L 81.470093 125.740023 
L 81.470093 112.216549 
L 76.893611 112.216549 
z
" style="fill:#9900bb;"/>
   </g>
   <g id="patch_20">
    <path clip-path="url(#p49a9996a8e)" d="M 76.512238 111.040594 
L 81.851466 111.040594 
L 81.851466 97.51712 
L 76.512238 97.51712 
z
" style="fill:#9900bb;"/>
   </g>
   <g id="patch_21">
    <path clip-path="url(#p49a9996a8e)" d="M 72.507816 96.341166 
L 85.855887 96.341166 
L 85.855887 82.817691 
L 72.507816 82.817691 
z
" style="fill:#9900bb;"/>
   </g>
   <g id="patch_22">
    <path clip-path="url(#p49a9996a8e)" d="M 141.404398 272.734309 
L 143.692639 272.734309 
L 143.692639 259.210834 
L 141.404398 259.210834 
z
" style="fill:#9900bb;"/>
   </g>
   <g id="patch_23">
    <path clip-path="url(#p49a9996a8e)" d="M 142.548519 258.03488 
L 142.548519 258.03488 
L 142.548519 244.511406 
L 142.548519 244.511406 
z
" style="fill:#9900bb;"/>
   </g>
   <g id="patch_24">
    <path clip-path="url(#p49a9996a8e)" d="M 142.548519 243.335451 
L 142.548519 243.335451 
L 142.548519 229.811977 
L 142.548519 229.811977 
z
" style="fill:#9900bb;"/>
   </g>
   <g id="patch_25">
    <path clip-path="url(#p49a9996a8e)" d="M 142.548519 228.636023 
L 142.548519 228.636023 
L 142.548519 215.112549 
L 142.548519 215.112549 
z
" style="fill:#9900bb;"/>
   </g>
   <g id="patch_26">
    <path clip-path="url(#p49a9996a8e)" d="M 141.976458 213.936594 
L 143.120579 213.936594 
L 143.120579 200.41312 
L 141.976458 200.41312 
z
" style="fill:#9900bb;"/>
   </g>
   <g id="patch_27">
    <path clip-path="url(#p49a9996a8e)" d="M 141.404398 199.237166 
L 143.692639 199.237166 
L 143.692639 185.713691 
L 141.404398 185.713691 
z
" style="fill:#9900bb;"/>
   </g>
   <g id="patch_28">
    <path clip-path="url(#p49a9996a8e)" d="M 131.107315 184.537737 
L 153.989722 184.537737 
L 153.989722 171.014263 
L 131.107315 171.014263 
z
" style="fill:#9900bb;"/>
   </g>
   <g id="patch_29">
    <path clip-path="url(#p49a9996a8e)" d="M 136.255856 169.838309 
L 148.841181 169.838309 
L 148.841181 156.314834 
L 136.255856 156.314834 
z
" style="fill:#9900bb;"/>
   </g>
   <g id="patch_30">
    <path clip-path="url(#p49a9996a8e)" d="M 141.785772 155.13888 
L 143.311265 155.13888 
L 143.311265 141.615406 
L 141.785772 141.615406 
z
" style="fill:#9900bb;"/>
   </g>
   <g id="patch_31">
    <path clip-path="url(#p49a9996a8e)" d="M 141.785772 140.439451 
L 143.311265 140.439451 
L 143.311265 126.915977 
L 141.785772 126.915977 
z
" style="fill:#9900bb;"/>
   </g>
   <g id="patch_32">
    <path clip-path="url(#p49a9996a8e)" d="M 142.548519 125.740023 
L 142.548519 125.740023 
L 142.548519 112.216549 
L 142.548519 112.216549 
z
" style="fill:#9900bb;"/>
   </g>
   <g id="patch_33">
    <path clip-path="url(#p49a9996a8e)" d="M 142.548519 111.040594 
L 142.548519 111.040594 
L 142.548519 97.51712 
L 142.548519 97.51712 
z
" style="fill:#9900bb;"/>
   </g>
   <g id="patch_34">
    <path clip-path="url(#p49a9996a8e)" d="M 141.976458 96.341166 
L 143.120579 96.341166 
L 143.120579 82.817691 
L 141.976458 82.817691 
z
" style="fill:#9900bb;"/>
   </g>
   <g id="patch_35">
    <path clip-path="url(#p49a9996a8e)" d="M 205.915185 272.734309 
L 205.915185 272.734309 
L 205.915185 259.210834 
L 205.915185 259.210834 
z
" style="fill:#9900bb;"/>
   </g>
   <g id="patch_36">
    <path clip-path="url(#p49a9996a8e)" d="M 204.771065 258.03488 
L 207.059306 258.03488 
L 207.059306 244.511406 
L 204.771065 244.511406 
z
" style="fill:#9900bb;"/>
   </g>
   <g id="patch_37">
    <path clip-path="url(#p49a9996a8e)" d="M 205.915185 243.335451 
L 205.915185 243.335451 
L 205.915185 229.811977 
L 205.915185 229.811977 
z
" style="fill:#9900bb;"/>
   </g>
   <g id="patch_38">
    <path clip-path="url(#p49a9996a8e)" d="M 205.915185 228.636023 
L 205.915185 228.636023 
L 205.915185 215.112549 
L 205.915185 215.112549 
z
" style="fill:#9900bb;"/>
   </g>
   <g id="patch_39">
    <path clip-path="url(#p49a9996a8e)" d="M 205.152438 213.936594 
L 206.677932 213.936594 
L 206.677932 200.41312 
L 205.152438 200.41312 
z
" style="fill:#9900bb;"/>
   </g>
   <g id="patch_40">
    <path clip-path="url(#p49a9996a8e)" d="M 202.292137 199.237166 
L 209.538233 199.237166 
L 209.538233 185.713691 
L 202.292137 185.713691 
z
" style="fill:#9900bb;"/>
   </g>
   <g id="patch_41">
    <path clip-path="url(#p49a9996a8e)" d="M 200.766644 184.537737 
L 211.063727 184.537737 
L 211.063727 171.014263 
L 200.766644 171.014263 
z
" style="fill:#9900bb;"/>
   </g>
   <g id="patch_42">
    <path clip-path="url(#p49a9996a8e)" d="M 202.864198 169.838309 
L 208.966173 169.838309 
L 208.966173 156.314834 
L 202.864198 156.314834 
z
" style="fill:#9900bb;"/>
   </g>
   <g id="patch_43">
    <path clip-path="url(#p49a9996a8e)" d="M 203.436258 155.13888 
L 208.394113 155.13888 
L 208.394113 141.615406 
L 203.436258 141.615406 
z
" style="fill:#9900bb;"/>
   </g>
   <g id="patch_44">
    <path clip-path="url(#p49a9996a8e)" d="M 200.766644 140.439451 
L 211.063727 140.439451 
L 211.063727 126.915977 
L 200.766644 126.915977 
z
" style="fill:#9900bb;"/>
   </g>
   <g id="patch_45">
    <path clip-path="url(#p49a9996a8e)" d="M 204.771065 125.740023 
L 207.059306 125.740023 
L 207.059306 112.216549 
L 204.771065 112.216549 
z
" style="fill:#9900bb;"/>
   </g>
   <g id="patch_46">
    <path clip-path="url(#p49a9996a8e)" d="M 205.915185 111.040594 
L 205.915185 111.040594 
L 205.915185 97.51712 
L 205.915185 97.51712 
z
" style="fill:#9900bb;"/>
   </g>
   <g id="patch_47">
    <path clip-path="url(#p49a9996a8e)" d="M 205.915185 96.341166 
L 205.915185 96.341166 
L 205.915185 82.817691 
L 205.915185 82.817691 
z
" style="fill:#9900bb;"/>
   </g>
   <g id="patch_48">
    <path clip-path="url(#p49a9996a8e)" d="M 269.281852 272.734309 
L 269.281852 272.734309 
L 269.281852 259.210834 
L 269.281852 259.210834 
z
" style="fill:#9900bb;"/>
   </g>
   <g id="patch_49">
    <path clip-path="url(#p49a9996a8e)" d="M 268.709792 258.03488 
L 269.853912 258.03488 
L 269.853912 244.511406 
L 268.709792 244.511406 
z
" style="fill:#9900bb;"/>
   </g>
   <g id="patch_50">
    <path clip-path="url(#p49a9996a8e)" d="M 268.137731 243.335451 
L 270.425972 243.335451 
L 270.425972 229.811977 
L 268.137731 229.811977 
z
" style="fill:#9900bb;"/>
   </g>
   <g id="patch_51">
    <path clip-path="url(#p49a9996a8e)" d="M 268.137731 228.636023 
L 270.425972 228.636023 
L 270.425972 215.112549 
L 268.137731 215.112549 
z
" style="fill:#9900bb;"/>
   </g>
   <g id="patch_52">
    <path clip-path="url(#p49a9996a8e)" d="M 268.137731 213.936594 
L 270.425972 213.936594 
L 270.425972 200.41312 
L 268.137731 200.41312 
z
" style="fill:#9900bb;"/>
   </g>
   <g id="patch_53">
    <path clip-path="url(#p49a9996a8e)" d="M 267.565671 199.237166 
L 270.998032 199.237166 
L 270.998032 185.713691 
L 267.565671 185.713691 
z
" style="fill:#9900bb;"/>
   </g>
   <g id="patch_54">
    <path clip-path="url(#p49a9996a8e)" d="M 268.137731 184.537737 
L 270.425972 184.537737 
L 270.425972 171.014263 
L 268.137731 171.014263 
z
" style="fill:#9900bb;"/>
   </g>
   <g id="patch_55">
    <path clip-path="url(#p49a9996a8e)" d="M 266.802924 169.838309 
L 271.760779 169.838309 
L 271.760779 156.314834 
L 266.802924 156.314834 
z
" style="fill:#9900bb;"/>
   </g>
   <g id="patch_56">
    <path clip-path="url(#p49a9996a8e)" d="M 265.658804 155.13888 
L 272.9049 155.13888 
L 272.9049 141.615406 
L 265.658804 141.615406 
z
" style="fill:#9900bb;"/>
   </g>
   <g id="patch_57">
    <path clip-path="url(#p49a9996a8e)" d="M 266.421551 140.439451 
L 272.142153 140.439451 
L 272.142153 126.915977 
L 266.421551 126.915977 
z
" style="fill:#9900bb;"/>
   </g>
   <g id="patch_58">
    <path clip-path="url(#p49a9996a8e)" d="M 262.98919 125.740023 
L 275.574514 125.740023 
L 275.574514 112.216549 
L 262.98919 112.216549 
z
" style="fill:#9900bb;"/>
   </g>
   <g id="patch_59">
    <path clip-path="url(#p49a9996a8e)" d="M 268.709792 111.040594 
L 269.853912 111.040594 
L 269.853912 97.51712 
L 268.709792 97.51712 
z
" style="fill:#9900bb;"/>
   </g>
   <g id="patch_60">
    <path clip-path="url(#p49a9996a8e)" d="M 269.281852 96.341166 
L 269.281852 96.341166 
L 269.281852 82.817691 
L 269.281852 82.817691 
z
" style="fill:#9900bb;"/>
   </g>
   <g id="patch_61">
    <path clip-path="url(#p49a9996a8e)" d="M 332.648519 272.734309 
L 332.648519 272.734309 
L 332.648519 259.210834 
L 332.648519 259.210834 
z
" style="fill:#9900bb;"/>
   </g>
   <g id="patch_62">
    <path clip-path="url(#p49a9996a8e)" d="M 332.648519 258.03488 
L 332.648519 258.03488 
L 332.648519 244.511406 
L 332.648519 244.511406 
z
" style="fill:#9900bb;"/>
   </g>
   <g id="patch_63">
    <path clip-path="url(#p49a9996a8e)" d="M 331.313711 243.335451 
L 333.983326 243.335451 
L 333.983326 229.811977 
L 331.313711 229.811977 
z
" style="fill:#9900bb;"/>
   </g>
   <g id="patch_64">
    <path clip-path="url(#p49a9996a8e)" d="M 330.169591 228.636023 
L 335.127446 228.636023 
L 335.127446 215.112549 
L 330.169591 215.112549 
z
" style="fill:#9900bb;"/>
   </g>
   <g id="patch_65">
    <path clip-path="url(#p49a9996a8e)" d="M 332.076458 213.936594 
L 333.220579 213.936594 
L 333.220579 200.41312 
L 332.076458 200.41312 
z
" style="fill:#9900bb;"/>
   </g>
   <g id="patch_66">
    <path clip-path="url(#p49a9996a8e)" d="M 329.216157 199.237166 
L 336.08088 199.237166 
L 336.08088 185.713691 
L 329.216157 185.713691 
z
" style="fill:#9900bb;"/>
   </g>
   <g id="patch_67">
    <path clip-path="url(#p49a9996a8e)" d="M 329.788218 184.537737 
L 335.508819 184.537737 
L 335.508819 171.014263 
L 329.788218 171.014263 
z
" style="fill:#9900bb;"/>
   </g>
   <g id="patch_68">
    <path clip-path="url(#p49a9996a8e)" d="M 329.216157 169.838309 
L 336.08088 169.838309 
L 336.08088 156.314834 
L 329.216157 156.314834 
z
" style="fill:#9900bb;"/>
   </g>
   <g id="patch_69">
    <path clip-path="url(#p49a9996a8e)" d="M 327.30929 155.13888 
L 337.987747 155.13888 
L 337.987747 141.615406 
L 327.30929 141.615406 
z
" style="fill:#9900bb;"/>
   </g>
   <g id="patch_70">
    <path clip-path="url(#p49a9996a8e)" d="M 330.741651 140.439451 
L 334.555386 140.439451 
L 334.555386 126.915977 
L 330.741651 126.915977 
z
" style="fill:#9900bb;"/>
   </g>
   <g id="patch_71">
    <path clip-path="url(#p49a9996a8e)" d="M 331.504398 125.740023 
L 333.792639 125.740023 
L 333.792639 112.216549 
L 331.504398 112.216549 
z
" style="fill:#9900bb;"/>
   </g>
   <g id="patch_72">
    <path clip-path="url(#p49a9996a8e)" d="M 332.648519 111.040594 
L 332.648519 111.040594 
L 332.648519 97.51712 
L 332.648519 97.51712 
z
" style="fill:#9900bb;"/>
   </g>
   <g id="patch_73">
    <path clip-path="url(#p49a9996a8e)" d="M 332.648519 96.341166 
L 332.648519 96.341166 
L 332.648519 82.817691 
L 332.648519 82.817691 
z
" style="fill:#9900bb;"/>
   </g>
   <g id="patch_74">
    <path clip-path="url(#p49a9996a8e)" d="M 396.015185 272.734309 
L 396.015185 272.734309 
L 396.015185 259.210834 
L 396.015185 259.210834 
z
" style="fill:#9900bb;"/>
   </g>
   <g id="patch_75">
    <path clip-path="url(#p49a9996a8e)" d="M 396.015185 258.03488 
L 396.015185 258.03488 
L 396.015185 244.511406 
L 396.015185 244.511406 
z
" style="fill:#9900bb;"/>
   </g>
   <g id="patch_76">
    <path clip-path="url(#p49a9996a8e)" d="M 393.726944 243.335451 
L 398.303426 243.335451 
L 398.303426 229.811977 
L 393.726944 229.811977 
z
" style="fill:#9900bb;"/>
   </g>
   <g id="patch_77">
    <path clip-path="url(#p49a9996a8e)" d="M 394.299005 228.636023 
L 397.731366 228.636023 
L 397.731366 215.112549 
L 394.299005 215.112549 
z
" style="fill:#9900bb;"/>
   </g>
   <g id="patch_78">
    <path clip-path="url(#p49a9996a8e)" d="M 392.010764 213.936594 
L 400.019606 213.936594 
L 400.019606 200.41312 
L 392.010764 200.41312 
z
" style="fill:#9900bb;"/>
   </g>
   <g id="patch_79">
    <path clip-path="url(#p49a9996a8e)" d="M 394.680378 199.237166 
L 397.349992 199.237166 
L 397.349992 185.713691 
L 394.680378 185.713691 
z
" style="fill:#9900bb;"/>
   </g>
   <g id="patch_80">
    <path clip-path="url(#p49a9996a8e)" d="M 392.964198 184.537737 
L 399.066173 184.537737 
L 399.066173 171.014263 
L 392.964198 171.014263 
z
" style="fill:#9900bb;"/>
   </g>
   <g id="patch_81">
    <path clip-path="url(#p49a9996a8e)" d="M 392.582824 169.838309 
L 399.447546 169.838309 
L 399.447546 156.314834 
L 392.582824 156.314834 
z
" style="fill:#9900bb;"/>
   </g>
   <g id="patch_82">
    <path clip-path="url(#p49a9996a8e)" d="M 392.582824 155.13888 
L 399.447546 155.13888 
L 399.447546 141.615406 
L 392.582824 141.615406 
z
" style="fill:#9900bb;"/>
   </g>
   <g id="patch_83">
    <path clip-path="url(#p49a9996a8e)" d="M 393.154884 140.439451 
L 398.875486 140.439451 
L 398.875486 126.915977 
L 393.154884 126.915977 
z
" style="fill:#9900bb;"/>
   </g>
   <g id="patch_84">
    <path clip-path="url(#p49a9996a8e)" d="M 395.443125 125.740023 
L 396.587245 125.740023 
L 396.587245 112.216549 
L 395.443125 112.216549 
z
" style="fill:#9900bb;"/>
   </g>
   <g id="patch_85">
    <path clip-path="url(#p49a9996a8e)" d="M 396.015185 111.040594 
L 396.015185 111.040594 
L 396.015185 97.51712 
L 396.015185 97.51712 
z
" style="fill:#9900bb;"/>
   </g>
   <g id="patch_86">
    <path clip-path="url(#p49a9996a8e)" d="M 396.015185 96.341166 
L 396.015185 96.341166 
L 396.015185 82.817691 
L 396.015185 82.817691 
z
" style="fill:#9900bb;"/>
   </g>
   <g id="patch_87">
    <path clip-path="url(#p49a9996a8e)" d="M 96.783704 272.734309 
L 96.783704 272.734309 
L 96.783704 259.210834 
L 96.783704 259.210834 
z
" style="fill:#ffbb00;"/>
   </g>
   <g id="patch_88">
    <path clip-path="url(#p49a9996a8e)" d="M 96.783704 258.03488 
L 96.783704 258.03488 
L 96.783704 244.511406 
L 96.783704 244.511406 
z
" style="fill:#ffbb00;"/>
   </g>
   <g id="patch_89">
    <path clip-path="url(#p49a9996a8e)" d="M 96.020957 243.335451 
L 97.546451 243.335451 
L 97.546451 229.811977 
L 96.020957 229.811977 
z
" style="fill:#ffbb00;"/>
   </g>
   <g id="patch_90">
    <path clip-path="url(#p49a9996a8e)" d="M 95.448897 228.636023 
L 98.118511 228.636023 
L 98.118511 215.112549 
L 95.448897 215.112549 
z
" style="fill:#ffbb00;"/>
   </g>
   <g id="patch_91">
    <path clip-path="url(#p49a9996a8e)" d="M 96.020957 213.936594 
L 97.546451 213.936594 
L 97.546451 200.41312 
L 96.020957 200.41312 
z
" style="fill:#ffbb00;"/>
   </g>
   <g id="patch_92">
    <path clip-path="url(#p49a9996a8e)" d="M 93.542029 199.237166 
L 100.025378 199.237166 
L 100.025378 185.713691 
L 93.542029 185.713691 
z
" style="fill:#ffbb00;"/>
   </g>
   <g id="patch_93">
    <path clip-path="url(#p49a9996a8e)" d="M 94.876836 184.537737 
L 98.690571 184.537737 
L 98.690571 171.014263 
L 94.876836 171.014263 
z
" style="fill:#ffbb00;"/>
   </g>
   <g id="patch_94">
    <path clip-path="url(#p49a9996a8e)" d="M 96.783704 169.838309 
L 96.783704 169.838309 
L 96.783704 156.314834 
L 96.783704 156.314834 
z
" style="fill:#ffbb00;"/>
   </g>
   <g id="patch_95">
    <path clip-path="url(#p49a9996a8e)" d="M 95.639583 155.13888 
L 97.927824 155.13888 
L 97.927824 141.615406 
L 95.639583 141.615406 
z
" style="fill:#ffbb00;"/>
   </g>
   <g id="patch_96">
    <path clip-path="url(#p49a9996a8e)" d="M 96.783704 140.439451 
L 96.783704 140.439451 
L 96.783704 126.915977 
L 96.783704 126.915977 
z
" style="fill:#ffbb00;"/>
   </g>
   <g id="patch_97">
    <path clip-path="url(#p49a9996a8e)" d="M 96.211644 125.740023 
L 97.355764 125.740023 
L 97.355764 112.216549 
L 96.211644 112.216549 
z
" style="fill:#ffbb00;"/>
   </g>
   <g id="patch_98">
    <path clip-path="url(#p49a9996a8e)" d="M 96.211644 111.040594 
L 97.355764 111.040594 
L 97.355764 97.51712 
L 96.211644 97.51712 
z
" style="fill:#ffbb00;"/>
   </g>
   <g id="patch_99">
    <path clip-path="url(#p49a9996a8e)" d="M 96.783704 96.341166 
L 96.783704 96.341166 
L 96.783704 82.817691 
L 96.783704 82.817691 
z
" style="fill:#ffbb00;"/>
   </g>
   <g id="patch_100">
    <path clip-path="url(#p49a9996a8e)" d="M 160.15037 272.734309 
L 160.15037 272.734309 
L 160.15037 259.210834 
L 160.15037 259.210834 
z
" style="fill:#ffbb00;"/>
   </g>
   <g id="patch_101">
    <path clip-path="url(#p49a9996a8e)" d="M 160.15037 258.03488 
L 160.15037 258.03488 
L 160.15037 244.511406 
L 160.15037 244.511406 
z
" style="fill:#ffbb00;"/>
   </g>
   <g id="patch_102">
    <path clip-path="url(#p49a9996a8e)" d="M 160.15037 243.335451 
L 160.15037 243.335451 
L 160.15037 229.811977 
L 160.15037 229.811977 
z
" style="fill:#ffbb00;"/>
   </g>
   <g id="patch_103">
    <path clip-path="url(#p49a9996a8e)" d="M 160.15037 228.636023 
L 160.15037 228.636023 
L 160.15037 215.112549 
L 160.15037 215.112549 
z
" style="fill:#ffbb00;"/>
   </g>
   <g id="patch_104">
    <path clip-path="url(#p49a9996a8e)" d="M 160.15037 213.936594 
L 160.15037 213.936594 
L 160.15037 200.41312 
L 160.15037 200.41312 
z
" style="fill:#ffbb00;"/>
   </g>
   <g id="patch_105">
    <path clip-path="url(#p49a9996a8e)" d="M 160.15037 199.237166 
L 160.15037 199.237166 
L 160.15037 185.713691 
L 160.15037 185.713691 
z
" style="fill:#ffbb00;"/>
   </g>
   <g id="patch_106">
    <path clip-path="url(#p49a9996a8e)" d="M 159.57831 184.537737 
L 160.722431 184.537737 
L 160.722431 171.014263 
L 159.57831 171.014263 
z
" style="fill:#ffbb00;"/>
   </g>
   <g id="patch_107">
    <path clip-path="url(#p49a9996a8e)" d="M 158.243503 169.838309 
L 162.057238 169.838309 
L 162.057238 156.314834 
L 158.243503 156.314834 
z
" style="fill:#ffbb00;"/>
   </g>
   <g id="patch_108">
    <path clip-path="url(#p49a9996a8e)" d="M 157.671443 155.13888 
L 162.629298 155.13888 
L 162.629298 141.615406 
L 157.671443 141.615406 
z
" style="fill:#ffbb00;"/>
   </g>
   <g id="patch_109">
    <path clip-path="url(#p49a9996a8e)" d="M 159.00625 140.439451 
L 161.294491 140.439451 
L 161.294491 126.915977 
L 159.00625 126.915977 
z
" style="fill:#ffbb00;"/>
   </g>
   <g id="patch_110">
    <path clip-path="url(#p49a9996a8e)" d="M 157.671443 125.740023 
L 162.629298 125.740023 
L 162.629298 112.216549 
L 157.671443 112.216549 
z
" style="fill:#ffbb00;"/>
   </g>
   <g id="patch_111">
    <path clip-path="url(#p49a9996a8e)" d="M 158.243503 111.040594 
L 162.057238 111.040594 
L 162.057238 97.51712 
L 158.243503 97.51712 
z
" style="fill:#ffbb00;"/>
   </g>
   <g id="patch_112">
    <path clip-path="url(#p49a9996a8e)" d="M 160.15037 96.341166 
L 160.15037 96.341166 
L 160.15037 82.817691 
L 160.15037 82.817691 
z
" style="fill:#ffbb00;"/>
   </g>
   <g id="patch_113">
    <path clip-path="url(#p49a9996a8e)" d="M 223.517037 272.734309 
L 223.517037 272.734309 
L 223.517037 259.210834 
L 223.517037 259.210834 
z
" style="fill:#ffbb00;"/>
   </g>
   <g id="patch_114">
    <path clip-path="url(#p49a9996a8e)" d="M 223.517037 258.03488 
L 223.517037 258.03488 
L 223.517037 244.511406 
L 223.517037 244.511406 
z
" style="fill:#ffbb00;"/>
   </g>
   <g id="patch_115">
    <path clip-path="url(#p49a9996a8e)" d="M 223.517037 243.335451 
L 223.517037 243.335451 
L 223.517037 229.811977 
L 223.517037 229.811977 
z
" style="fill:#ffbb00;"/>
   </g>
   <g id="patch_116">
    <path clip-path="url(#p49a9996a8e)" d="M 223.517037 228.636023 
L 223.517037 228.636023 
L 223.517037 215.112549 
L 223.517037 215.112549 
z
" style="fill:#ffbb00;"/>
   </g>
   <g id="patch_117">
    <path clip-path="url(#p49a9996a8e)" d="M 223.517037 213.936594 
L 223.517037 213.936594 
L 223.517037 200.41312 
L 223.517037 200.41312 
z
" style="fill:#ffbb00;"/>
   </g>
   <g id="patch_118">
    <path clip-path="url(#p49a9996a8e)" d="M 223.517037 199.237166 
L 223.517037 199.237166 
L 223.517037 185.713691 
L 223.517037 185.713691 
z
" style="fill:#ffbb00;"/>
   </g>
   <g id="patch_119">
    <path clip-path="url(#p49a9996a8e)" d="M 223.517037 184.537737 
L 223.517037 184.537737 
L 223.517037 171.014263 
L 223.517037 171.014263 
z
" style="fill:#ffbb00;"/>
   </g>
   <g id="patch_120">
    <path clip-path="url(#p49a9996a8e)" d="M 223.517037 169.838309 
L 223.517037 169.838309 
L 223.517037 156.314834 
L 223.517037 156.314834 
z
" style="fill:#ffbb00;"/>
   </g>
   <g id="patch_121">
    <path clip-path="url(#p49a9996a8e)" d="M 222.372917 155.13888 
L 224.661157 155.13888 
L 224.661157 141.615406 
L 222.372917 141.615406 
z
" style="fill:#ffbb00;"/>
   </g>
   <g id="patch_122">
    <path clip-path="url(#p49a9996a8e)" d="M 220.656736 140.439451 
L 226.377338 140.439451 
L 226.377338 126.915977 
L 220.656736 126.915977 
z
" style="fill:#ffbb00;"/>
   </g>
   <g id="patch_123">
    <path clip-path="url(#p49a9996a8e)" d="M 220.084676 125.740023 
L 226.949398 125.740023 
L 226.949398 112.216549 
L 220.084676 112.216549 
z
" style="fill:#ffbb00;"/>
   </g>
   <g id="patch_124">
    <path clip-path="url(#p49a9996a8e)" d="M 220.084676 111.040594 
L 226.949398 111.040594 
L 226.949398 97.51712 
L 220.084676 97.51712 
z
" style="fill:#ffbb00;"/>
   </g>
   <g id="patch_125">
    <path clip-path="url(#p49a9996a8e)" d="M 223.517037 96.341166 
L 223.517037 96.341166 
L 223.517037 82.817691 
L 223.517037 82.817691 
z
" style="fill:#ffbb00;"/>
   </g>
   <g id="patch_126">
    <path clip-path="url(#p49a9996a8e)" d="M 286.883704 272.734309 
L 286.883704 272.734309 
L 286.883704 259.210834 
L 286.883704 259.210834 
z
" style="fill:#ffbb00;"/>
   </g>
   <g id="patch_127">
    <path clip-path="url(#p49a9996a8e)" d="M 286.883704 258.03488 
L 286.883704 258.03488 
L 286.883704 244.511406 
L 286.883704 244.511406 
z
" style="fill:#ffbb00;"/>
   </g>
   <g id="patch_128">
    <path clip-path="url(#p49a9996a8e)" d="M 286.883704 243.335451 
L 286.883704 243.335451 
L 286.883704 229.811977 
L 286.883704 229.811977 
z
" style="fill:#ffbb00;"/>
   </g>
   <g id="patch_129">
    <path clip-path="url(#p49a9996a8e)" d="M 286.883704 228.636023 
L 286.883704 228.636023 
L 286.883704 215.112549 
L 286.883704 215.112549 
z
" style="fill:#ffbb00;"/>
   </g>
   <g id="patch_130">
    <path clip-path="url(#p49a9996a8e)" d="M 286.883704 213.936594 
L 286.883704 213.936594 
L 286.883704 200.41312 
L 286.883704 200.41312 
z
" style="fill:#ffbb00;"/>
   </g>
   <g id="patch_131">
    <path clip-path="url(#p49a9996a8e)" d="M 286.883704 199.237166 
L 286.883704 199.237166 
L 286.883704 185.713691 
L 286.883704 185.713691 
z
" style="fill:#ffbb00;"/>
   </g>
   <g id="patch_132">
    <path clip-path="url(#p49a9996a8e)" d="M 286.883704 184.537737 
L 286.883704 184.537737 
L 286.883704 171.014263 
L 286.883704 171.014263 
z
" style="fill:#ffbb00;"/>
   </g>
   <g id="patch_133">
    <path clip-path="url(#p49a9996a8e)" d="M 286.883704 169.838309 
L 286.883704 169.838309 
L 286.883704 156.314834 
L 286.883704 156.314834 
z
" style="fill:#ffbb00;"/>
   </g>
   <g id="patch_134">
    <path clip-path="url(#p49a9996a8e)" d="M 286.883704 155.13888 
L 286.883704 155.13888 
L 286.883704 141.615406 
L 286.883704 141.615406 
z
" style="fill:#ffbb00;"/>
   </g>
   <g id="patch_135">
    <path clip-path="url(#p49a9996a8e)" d="M 286.311644 140.439451 
L 287.455764 140.439451 
L 287.455764 126.915977 
L 286.311644 126.915977 
z
" style="fill:#ffbb00;"/>
   </g>
   <g id="patch_136">
    <path clip-path="url(#p49a9996a8e)" d="M 282.879282 125.740023 
L 290.888125 125.740023 
L 290.888125 112.216549 
L 282.879282 112.216549 
z
" style="fill:#ffbb00;"/>
   </g>
   <g id="patch_137">
    <path clip-path="url(#p49a9996a8e)" d="M 284.023403 111.040594 
L 289.744005 111.040594 
L 289.744005 97.51712 
L 284.023403 97.51712 
z
" style="fill:#ffbb00;"/>
   </g>
   <g id="patch_138">
    <path clip-path="url(#p49a9996a8e)" d="M 283.451343 96.341166 
L 290.316065 96.341166 
L 290.316065 82.817691 
L 283.451343 82.817691 
z
" style="fill:#ffbb00;"/>
   </g>
   <g id="patch_139">
    <path clip-path="url(#p49a9996a8e)" d="M 350.25037 272.734309 
L 350.25037 272.734309 
L 350.25037 259.210834 
L 350.25037 259.210834 
z
" style="fill:#ffbb00;"/>
   </g>
   <g id="patch_140">
    <path clip-path="url(#p49a9996a8e)" d="M 350.25037 258.03488 
L 350.25037 258.03488 
L 350.25037 244.511406 
L 350.25037 244.511406 
z
" style="fill:#ffbb00;"/>
   </g>
   <g id="patch_141">
    <path clip-path="url(#p49a9996a8e)" d="M 350.25037 243.335451 
L 350.25037 243.335451 
L 350.25037 229.811977 
L 350.25037 229.811977 
z
" style="fill:#ffbb00;"/>
   </g>
   <g id="patch_142">
    <path clip-path="url(#p49a9996a8e)" d="M 350.25037 228.636023 
L 350.25037 228.636023 
L 350.25037 215.112549 
L 350.25037 215.112549 
z
" style="fill:#ffbb00;"/>
   </g>
   <g id="patch_143">
    <path clip-path="url(#p49a9996a8e)" d="M 350.25037 213.936594 
L 350.25037 213.936594 
L 350.25037 200.41312 
L 350.25037 200.41312 
z
" style="fill:#ffbb00;"/>
   </g>
   <g id="patch_144">
    <path clip-path="url(#p49a9996a8e)" d="M 350.25037 199.237166 
L 350.25037 199.237166 
L 350.25037 185.713691 
L 350.25037 185.713691 
z
" style="fill:#ffbb00;"/>
   </g>
   <g id="patch_145">
    <path clip-path="url(#p49a9996a8e)" d="M 350.25037 184.537737 
L 350.25037 184.537737 
L 350.25037 171.014263 
L 350.25037 171.014263 
z
" style="fill:#ffbb00;"/>
   </g>
   <g id="patch_146">
    <path clip-path="url(#p49a9996a8e)" d="M 349.10625 169.838309 
L 351.394491 169.838309 
L 351.394491 156.314834 
L 349.10625 156.314834 
z
" style="fill:#ffbb00;"/>
   </g>
   <g id="patch_147">
    <path clip-path="url(#p49a9996a8e)" d="M 348.53419 155.13888 
L 351.966551 155.13888 
L 351.966551 141.615406 
L 348.53419 141.615406 
z
" style="fill:#ffbb00;"/>
   </g>
   <g id="patch_148">
    <path clip-path="url(#p49a9996a8e)" d="M 348.343503 140.439451 
L 352.157238 140.439451 
L 352.157238 126.915977 
L 348.343503 126.915977 
z
" style="fill:#ffbb00;"/>
   </g>
   <g id="patch_149">
    <path clip-path="url(#p49a9996a8e)" d="M 346.627323 125.740023 
L 353.873418 125.740023 
L 353.873418 112.216549 
L 346.627323 112.216549 
z
" style="fill:#ffbb00;"/>
   </g>
   <g id="patch_150">
    <path clip-path="url(#p49a9996a8e)" d="M 347.96213 111.040594 
L 352.538611 111.040594 
L 352.538611 97.51712 
L 347.96213 97.51712 
z
" style="fill:#ffbb00;"/>
   </g>
   <g id="patch_151">
    <path clip-path="url(#p49a9996a8e)" d="M 350.25037 96.341166 
L 350.25037 96.341166 
L 350.25037 82.817691 
L 350.25037 82.817691 
z
" style="fill:#ffbb00;"/>
   </g>
   <g id="patch_152">
    <path clip-path="url(#p49a9996a8e)" d="M 413.617037 272.734309 
L 413.617037 272.734309 
L 413.617037 259.210834 
L 413.617037 259.210834 
z
" style="fill:#ffbb00;"/>
   </g>
   <g id="patch_153">
    <path clip-path="url(#p49a9996a8e)" d="M 413.617037 258.03488 
L 413.617037 258.03488 
L 413.617037 244.511406 
L 413.617037 244.511406 
z
" style="fill:#ffbb00;"/>
   </g>
   <g id="patch_154">
    <path clip-path="url(#p49a9996a8e)" d="M 413.617037 243.335451 
L 413.617037 243.335451 
L 413.617037 229.811977 
L 413.617037 229.811977 
z
" style="fill:#ffbb00;"/>
   </g>
   <g id="patch_155">
    <path clip-path="url(#p49a9996a8e)" d="M 413.617037 228.636023 
L 413.617037 228.636023 
L 413.617037 215.112549 
L 413.617037 215.112549 
z
" style="fill:#ffbb00;"/>
   </g>
   <g id="patch_156">
    <path clip-path="url(#p49a9996a8e)" d="M 413.617037 213.936594 
L 413.617037 213.936594 
L 413.617037 200.41312 
L 413.617037 200.41312 
z
" style="fill:#ffbb00;"/>
   </g>
   <g id="patch_157">
    <path clip-path="url(#p49a9996a8e)" d="M 413.42635 199.237166 
L 413.807724 199.237166 
L 413.807724 185.713691 
L 413.42635 185.713691 
z
" style="fill:#ffbb00;"/>
   </g>
   <g id="patch_158">
    <path clip-path="url(#p49a9996a8e)" d="M 412.28223 184.537737 
L 414.951844 184.537737 
L 414.951844 171.014263 
L 412.28223 171.014263 
z
" style="fill:#ffbb00;"/>
   </g>
   <g id="patch_159">
    <path clip-path="url(#p49a9996a8e)" d="M 413.044977 169.838309 
L 414.189097 169.838309 
L 414.189097 156.314834 
L 413.044977 156.314834 
z
" style="fill:#ffbb00;"/>
   </g>
   <g id="patch_160">
    <path clip-path="url(#p49a9996a8e)" d="M 413.42635 155.13888 
L 413.807724 155.13888 
L 413.807724 141.615406 
L 413.42635 141.615406 
z
" style="fill:#ffbb00;"/>
   </g>
   <g id="patch_161">
    <path clip-path="url(#p49a9996a8e)" d="M 411.71017 140.439451 
L 415.523904 140.439451 
L 415.523904 126.915977 
L 411.71017 126.915977 
z
" style="fill:#ffbb00;"/>
   </g>
   <g id="patch_162">
    <path clip-path="url(#p49a9996a8e)" d="M 410.566049 125.740023 
L 416.668025 125.740023 
L 416.668025 112.216549 
L 410.566049 112.216549 
z
" style="fill:#ffbb00;"/>
   </g>
   <g id="patch_163">
    <path clip-path="url(#p49a9996a8e)" d="M 412.28223 111.040594 
L 414.951844 111.040594 
L 414.951844 97.51712 
L 412.28223 97.51712 
z
" style="fill:#ffbb00;"/>
   </g>
   <g id="patch_164">
    <path clip-path="url(#p49a9996a8e)" d="M 412.472917 96.341166 
L 414.761157 96.341166 
L 414.761157 82.817691 
L 412.472917 82.817691 
z
" style="fill:#ffbb00;"/>
   </g>
   <g id="patch_165">
    <path clip-path="url(#p49a9996a8e)" d="M 114.385556 272.734309 
L 114.385556 272.734309 
L 114.385556 259.210834 
L 114.385556 259.210834 
z
" style="fill:#0066cc;"/>
   </g>
   <g id="patch_166">
    <path clip-path="url(#p49a9996a8e)" d="M 114.385556 258.03488 
L 114.385556 258.03488 
L 114.385556 244.511406 
L 114.385556 244.511406 
z
" style="fill:#0066cc;"/>
   </g>
   <g id="patch_167">
    <path clip-path="url(#p49a9996a8e)" d="M 114.194869 243.335451 
L 114.576242 243.335451 
L 114.576242 229.811977 
L 114.194869 229.811977 
z
" style="fill:#0066cc;"/>
   </g>
   <g id="patch_168">
    <path clip-path="url(#p49a9996a8e)" d="M 114.194869 228.636023 
L 114.576242 228.636023 
L 114.576242 215.112549 
L 114.194869 215.112549 
z
" style="fill:#0066cc;"/>
   </g>
   <g id="patch_169">
    <path clip-path="url(#p49a9996a8e)" d="M 114.385556 213.936594 
L 114.385556 213.936594 
L 114.385556 200.41312 
L 114.385556 200.41312 
z
" style="fill:#0066cc;"/>
   </g>
   <g id="patch_170">
    <path clip-path="url(#p49a9996a8e)" d="M 114.385556 199.237166 
L 114.385556 199.237166 
L 114.385556 185.713691 
L 114.385556 185.713691 
z
" style="fill:#0066cc;"/>
   </g>
   <g id="patch_171">
    <path clip-path="url(#p49a9996a8e)" d="M 114.385556 184.537737 
L 114.385556 184.537737 
L 114.385556 171.014263 
L 114.385556 171.014263 
z
" style="fill:#0066cc;"/>
   </g>
   <g id="patch_172">
    <path clip-path="url(#p49a9996a8e)" d="M 114.385556 169.838309 
L 114.385556 169.838309 
L 114.385556 156.314834 
L 114.385556 156.314834 
z
" style="fill:#0066cc;"/>
   </g>
   <g id="patch_173">
    <path clip-path="url(#p49a9996a8e)" d="M 114.385556 155.13888 
L 114.385556 155.13888 
L 114.385556 141.615406 
L 114.385556 141.615406 
z
" style="fill:#0066cc;"/>
   </g>
   <g id="patch_174">
    <path clip-path="url(#p49a9996a8e)" d="M 114.385556 140.439451 
L 114.385556 140.439451 
L 114.385556 126.915977 
L 114.385556 126.915977 
z
" style="fill:#0066cc;"/>
   </g>
   <g id="patch_175">
    <path clip-path="url(#p49a9996a8e)" d="M 114.385556 125.740023 
L 114.385556 125.740023 
L 114.385556 112.216549 
L 114.385556 112.216549 
z
" style="fill:#0066cc;"/>
   </g>
   <g id="patch_176">
    <path clip-path="url(#p49a9996a8e)" d="M 114.385556 111.040594 
L 114.385556 111.040594 
L 114.385556 97.51712 
L 114.385556 97.51712 
z
" style="fill:#0066cc;"/>
   </g>
   <g id="patch_177">
    <path clip-path="url(#p49a9996a8e)" d="M 114.385556 96.341166 
L 114.385556 96.341166 
L 114.385556 82.817691 
L 114.385556 82.817691 
z
" style="fill:#0066cc;"/>
   </g>
   <g id="patch_178">
    <path clip-path="url(#p49a9996a8e)" d="M 177.752222 272.734309 
L 177.752222 272.734309 
L 177.752222 259.210834 
L 177.752222 259.210834 
z
" style="fill:#0066cc;"/>
   </g>
   <g id="patch_179">
    <path clip-path="url(#p49a9996a8e)" d="M 177.752222 258.03488 
L 177.752222 258.03488 
L 177.752222 244.511406 
L 177.752222 244.511406 
z
" style="fill:#0066cc;"/>
   </g>
   <g id="patch_180">
    <path clip-path="url(#p49a9996a8e)" d="M 177.752222 243.335451 
L 177.752222 243.335451 
L 177.752222 229.811977 
L 177.752222 229.811977 
z
" style="fill:#0066cc;"/>
   </g>
   <g id="patch_181">
    <path clip-path="url(#p49a9996a8e)" d="M 177.752222 228.636023 
L 177.752222 228.636023 
L 177.752222 215.112549 
L 177.752222 215.112549 
z
" style="fill:#0066cc;"/>
   </g>
   <g id="patch_182">
    <path clip-path="url(#p49a9996a8e)" d="M 177.752222 213.936594 
L 177.752222 213.936594 
L 177.752222 200.41312 
L 177.752222 200.41312 
z
" style="fill:#0066cc;"/>
   </g>
   <g id="patch_183">
    <path clip-path="url(#p49a9996a8e)" d="M 177.752222 199.237166 
L 177.752222 199.237166 
L 177.752222 185.713691 
L 177.752222 185.713691 
z
" style="fill:#0066cc;"/>
   </g>
   <g id="patch_184">
    <path clip-path="url(#p49a9996a8e)" d="M 177.752222 184.537737 
L 177.752222 184.537737 
L 177.752222 171.014263 
L 177.752222 171.014263 
z
" style="fill:#0066cc;"/>
   </g>
   <g id="patch_185">
    <path clip-path="url(#p49a9996a8e)" d="M 177.752222 169.838309 
L 177.752222 169.838309 
L 177.752222 156.314834 
L 177.752222 156.314834 
z
" style="fill:#0066cc;"/>
   </g>
   <g id="patch_186">
    <path clip-path="url(#p49a9996a8e)" d="M 177.752222 155.13888 
L 177.752222 155.13888 
L 177.752222 141.615406 
L 177.752222 141.615406 
z
" style="fill:#0066cc;"/>
   </g>
   <g id="patch_187">
    <path clip-path="url(#p49a9996a8e)" d="M 177.752222 140.439451 
L 177.752222 140.439451 
L 177.752222 126.915977 
L 177.752222 126.915977 
z
" style="fill:#0066cc;"/>
   </g>
   <g id="patch_188">
    <path clip-path="url(#p49a9996a8e)" d="M 177.180162 125.740023 
L 178.324282 125.740023 
L 178.324282 112.216549 
L 177.180162 112.216549 
z
" style="fill:#0066cc;"/>
   </g>
   <g id="patch_189">
    <path clip-path="url(#p49a9996a8e)" d="M 177.752222 111.040594 
L 177.752222 111.040594 
L 177.752222 97.51712 
L 177.752222 97.51712 
z
" style="fill:#0066cc;"/>
   </g>
   <g id="patch_190">
    <path clip-path="url(#p49a9996a8e)" d="M 177.752222 96.341166 
L 177.752222 96.341166 
L 177.752222 82.817691 
L 177.752222 82.817691 
z
" style="fill:#0066cc;"/>
   </g>
   <g id="patch_191">
    <path clip-path="url(#p49a9996a8e)" d="M 241.118889 272.734309 
L 241.118889 272.734309 
L 241.118889 259.210834 
L 241.118889 259.210834 
z
" style="fill:#0066cc;"/>
   </g>
   <g id="patch_192">
    <path clip-path="url(#p49a9996a8e)" d="M 241.118889 258.03488 
L 241.118889 258.03488 
L 241.118889 244.511406 
L 241.118889 244.511406 
z
" style="fill:#0066cc;"/>
   </g>
   <g id="patch_193">
    <path clip-path="url(#p49a9996a8e)" d="M 241.118889 243.335451 
L 241.118889 243.335451 
L 241.118889 229.811977 
L 241.118889 229.811977 
z
" style="fill:#0066cc;"/>
   </g>
   <g id="patch_194">
    <path clip-path="url(#p49a9996a8e)" d="M 241.118889 228.636023 
L 241.118889 228.636023 
L 241.118889 215.112549 
L 241.118889 215.112549 
z
" style="fill:#0066cc;"/>
   </g>
   <g id="patch_195">
    <path clip-path="url(#p49a9996a8e)" d="M 241.118889 213.936594 
L 241.118889 213.936594 
L 241.118889 200.41312 
L 241.118889 200.41312 
z
" style="fill:#0066cc;"/>
   </g>
   <g id="patch_196">
    <path clip-path="url(#p49a9996a8e)" d="M 241.118889 199.237166 
L 241.118889 199.237166 
L 241.118889 185.713691 
L 241.118889 185.713691 
z
" style="fill:#0066cc;"/>
   </g>
   <g id="patch_197">
    <path clip-path="url(#p49a9996a8e)" d="M 241.118889 184.537737 
L 241.118889 184.537737 
L 241.118889 171.014263 
L 241.118889 171.014263 
z
" style="fill:#0066cc;"/>
   </g>
   <g id="patch_198">
    <path clip-path="url(#p49a9996a8e)" d="M 241.118889 169.838309 
L 241.118889 169.838309 
L 241.118889 156.314834 
L 241.118889 156.314834 
z
" style="fill:#0066cc;"/>
   </g>
   <g id="patch_199">
    <path clip-path="url(#p49a9996a8e)" d="M 241.118889 155.13888 
L 241.118889 155.13888 
L 241.118889 141.615406 
L 241.118889 141.615406 
z
" style="fill:#0066cc;"/>
   </g>
   <g id="patch_200">
    <path clip-path="url(#p49a9996a8e)" d="M 241.118889 140.439451 
L 241.118889 140.439451 
L 241.118889 126.915977 
L 241.118889 126.915977 
z
" style="fill:#0066cc;"/>
   </g>
   <g id="patch_201">
    <path clip-path="url(#p49a9996a8e)" d="M 241.118889 125.740023 
L 241.118889 125.740023 
L 241.118889 112.216549 
L 241.118889 112.216549 
z
" style="fill:#0066cc;"/>
   </g>
   <g id="patch_202">
    <path clip-path="url(#p49a9996a8e)" d="M 240.546829 111.040594 
L 241.690949 111.040594 
L 241.690949 97.51712 
L 240.546829 97.51712 
z
" style="fill:#0066cc;"/>
   </g>
   <g id="patch_203">
    <path clip-path="url(#p49a9996a8e)" d="M 241.118889 96.341166 
L 241.118889 96.341166 
L 241.118889 82.817691 
L 241.118889 82.817691 
z
" style="fill:#0066cc;"/>
   </g>
   <g id="patch_204">
    <path clip-path="url(#p49a9996a8e)" d="M 304.485556 272.734309 
L 304.485556 272.734309 
L 304.485556 259.210834 
L 304.485556 259.210834 
z
" style="fill:#0066cc;"/>
   </g>
   <g id="patch_205">
    <path clip-path="url(#p49a9996a8e)" d="M 304.485556 258.03488 
L 304.485556 258.03488 
L 304.485556 244.511406 
L 304.485556 244.511406 
z
" style="fill:#0066cc;"/>
   </g>
   <g id="patch_206">
    <path clip-path="url(#p49a9996a8e)" d="M 304.485556 243.335451 
L 304.485556 243.335451 
L 304.485556 229.811977 
L 304.485556 229.811977 
z
" style="fill:#0066cc;"/>
   </g>
   <g id="patch_207">
    <path clip-path="url(#p49a9996a8e)" d="M 304.485556 228.636023 
L 304.485556 228.636023 
L 304.485556 215.112549 
L 304.485556 215.112549 
z
" style="fill:#0066cc;"/>
   </g>
   <g id="patch_208">
    <path clip-path="url(#p49a9996a8e)" d="M 304.485556 213.936594 
L 304.485556 213.936594 
L 304.485556 200.41312 
L 304.485556 200.41312 
z
" style="fill:#0066cc;"/>
   </g>
   <g id="patch_209">
    <path clip-path="url(#p49a9996a8e)" d="M 304.485556 199.237166 
L 304.485556 199.237166 
L 304.485556 185.713691 
L 304.485556 185.713691 
z
" style="fill:#0066cc;"/>
   </g>
   <g id="patch_210">
    <path clip-path="url(#p49a9996a8e)" d="M 304.485556 184.537737 
L 304.485556 184.537737 
L 304.485556 171.014263 
L 304.485556 171.014263 
z
" style="fill:#0066cc;"/>
   </g>
   <g id="patch_211">
    <path clip-path="url(#p49a9996a8e)" d="M 304.485556 169.838309 
L 304.485556 169.838309 
L 304.485556 156.314834 
L 304.485556 156.314834 
z
" style="fill:#0066cc;"/>
   </g>
   <g id="patch_212">
    <path clip-path="url(#p49a9996a8e)" d="M 304.485556 155.13888 
L 304.485556 155.13888 
L 304.485556 141.615406 
L 304.485556 141.615406 
z
" style="fill:#0066cc;"/>
   </g>
   <g id="patch_213">
    <path clip-path="url(#p49a9996a8e)" d="M 304.485556 140.439451 
L 304.485556 140.439451 
L 304.485556 126.915977 
L 304.485556 126.915977 
z
" style="fill:#0066cc;"/>
   </g>
   <g id="patch_214">
    <path clip-path="url(#p49a9996a8e)" d="M 304.294869 125.740023 
L 304.676242 125.740023 
L 304.676242 112.216549 
L 304.294869 112.216549 
z
" style="fill:#0066cc;"/>
   </g>
   <g id="patch_215">
    <path clip-path="url(#p49a9996a8e)" d="M 304.294869 111.040594 
L 304.676242 111.040594 
L 304.676242 97.51712 
L 304.294869 97.51712 
z
" style="fill:#0066cc;"/>
   </g>
   <g id="patch_216">
    <path clip-path="url(#p49a9996a8e)" d="M 304.485556 96.341166 
L 304.485556 96.341166 
L 304.485556 82.817691 
L 304.485556 82.817691 
z
" style="fill:#0066cc;"/>
   </g>
   <g id="patch_217">
    <path clip-path="url(#p49a9996a8e)" d="M 367.852222 272.734309 
L 367.852222 272.734309 
L 367.852222 259.210834 
L 367.852222 259.210834 
z
" style="fill:#0066cc;"/>
   </g>
   <g id="patch_218">
    <path clip-path="url(#p49a9996a8e)" d="M 367.852222 258.03488 
L 367.852222 258.03488 
L 367.852222 244.511406 
L 367.852222 244.511406 
z
" style="fill:#0066cc;"/>
   </g>
   <g id="patch_219">
    <path clip-path="url(#p49a9996a8e)" d="M 367.852222 243.335451 
L 367.852222 243.335451 
L 367.852222 229.811977 
L 367.852222 229.811977 
z
" style="fill:#0066cc;"/>
   </g>
   <g id="patch_220">
    <path clip-path="url(#p49a9996a8e)" d="M 367.852222 228.636023 
L 367.852222 228.636023 
L 367.852222 215.112549 
L 367.852222 215.112549 
z
" style="fill:#0066cc;"/>
   </g>
   <g id="patch_221">
    <path clip-path="url(#p49a9996a8e)" d="M 367.852222 213.936594 
L 367.852222 213.936594 
L 367.852222 200.41312 
L 367.852222 200.41312 
z
" style="fill:#0066cc;"/>
   </g>
   <g id="patch_222">
    <path clip-path="url(#p49a9996a8e)" d="M 367.852222 199.237166 
L 367.852222 199.237166 
L 367.852222 185.713691 
L 367.852222 185.713691 
z
" style="fill:#0066cc;"/>
   </g>
   <g id="patch_223">
    <path clip-path="url(#p49a9996a8e)" d="M 367.852222 184.537737 
L 367.852222 184.537737 
L 367.852222 171.014263 
L 367.852222 171.014263 
z
" style="fill:#0066cc;"/>
   </g>
   <g id="patch_224">
    <path clip-path="url(#p49a9996a8e)" d="M 367.852222 169.838309 
L 367.852222 169.838309 
L 367.852222 156.314834 
L 367.852222 156.314834 
z
" style="fill:#0066cc;"/>
   </g>
   <g id="patch_225">
    <path clip-path="url(#p49a9996a8e)" d="M 367.280162 155.13888 
L 368.424282 155.13888 
L 368.424282 141.615406 
L 367.280162 141.615406 
z
" style="fill:#0066cc;"/>
   </g>
   <g id="patch_226">
    <path clip-path="url(#p49a9996a8e)" d="M 367.852222 140.439451 
L 367.852222 140.439451 
L 367.852222 126.915977 
L 367.852222 126.915977 
z
" style="fill:#0066cc;"/>
   </g>
   <g id="patch_227">
    <path clip-path="url(#p49a9996a8e)" d="M 367.852222 125.740023 
L 367.852222 125.740023 
L 367.852222 112.216549 
L 367.852222 112.216549 
z
" style="fill:#0066cc;"/>
   </g>
   <g id="patch_228">
    <path clip-path="url(#p49a9996a8e)" d="M 367.852222 111.040594 
L 367.852222 111.040594 
L 367.852222 97.51712 
L 367.852222 97.51712 
z
" style="fill:#0066cc;"/>
   </g>
   <g id="patch_229">
    <path clip-path="url(#p49a9996a8e)" d="M 367.852222 96.341166 
L 367.852222 96.341166 
L 367.852222 82.817691 
L 367.852222 82.817691 
z
" style="fill:#0066cc;"/>
   </g>
   <g id="patch_230">
    <path clip-path="url(#p49a9996a8e)" d="M 431.218889 272.734309 
L 431.218889 272.734309 
L 431.218889 259.210834 
L 431.218889 259.210834 
z
" style="fill:#0066cc;"/>
   </g>
   <g id="patch_231">
    <path clip-path="url(#p49a9996a8e)" d="M 431.218889 258.03488 
L 431.218889 258.03488 
L 431.218889 244.511406 
L 431.218889 244.511406 
z
" style="fill:#0066cc;"/>
   </g>
   <g id="patch_232">
    <path clip-path="url(#p49a9996a8e)" d="M 431.218889 243.335451 
L 431.218889 243.335451 
L 431.218889 229.811977 
L 431.218889 229.811977 
z
" style="fill:#0066cc;"/>
   </g>
   <g id="patch_233">
    <path clip-path="url(#p49a9996a8e)" d="M 431.218889 228.636023 
L 431.218889 228.636023 
L 431.218889 215.112549 
L 431.218889 215.112549 
z
" style="fill:#0066cc;"/>
   </g>
   <g id="patch_234">
    <path clip-path="url(#p49a9996a8e)" d="M 431.218889 213.936594 
L 431.218889 213.936594 
L 431.218889 200.41312 
L 431.218889 200.41312 
z
" style="fill:#0066cc;"/>
   </g>
   <g id="patch_235">
    <path clip-path="url(#p49a9996a8e)" d="M 431.028202 199.237166 
L 431.409576 199.237166 
L 431.409576 185.713691 
L 431.028202 185.713691 
z
" style="fill:#0066cc;"/>
   </g>
   <g id="patch_236">
    <path clip-path="url(#p49a9996a8e)" d="M 431.028202 184.537737 
L 431.409576 184.537737 
L 431.409576 171.014263 
L 431.028202 171.014263 
z
" style="fill:#0066cc;"/>
   </g>
   <g id="patch_237">
    <path clip-path="url(#p49a9996a8e)" d="M 431.218889 169.838309 
L 431.218889 169.838309 
L 431.218889 156.314834 
L 431.218889 156.314834 
z
" style="fill:#0066cc;"/>
   </g>
   <g id="patch_238">
    <path clip-path="url(#p49a9996a8e)" d="M 431.218889 155.13888 
L 431.218889 155.13888 
L 431.218889 141.615406 
L 431.218889 141.615406 
z
" style="fill:#0066cc;"/>
   </g>
   <g id="patch_239">
    <path clip-path="url(#p49a9996a8e)" d="M 431.218889 140.439451 
L 431.218889 140.439451 
L 431.218889 126.915977 
L 431.218889 126.915977 
z
" style="fill:#0066cc;"/>
   </g>
   <g id="patch_240">
    <path clip-path="url(#p49a9996a8e)" d="M 431.218889 125.740023 
L 431.218889 125.740023 
L 431.218889 112.216549 
L 431.218889 112.216549 
z
" style="fill:#0066cc;"/>
   </g>
   <g id="patch_241">
    <path clip-path="url(#p49a9996a8e)" d="M 431.218889 111.040594 
L 431.218889 111.040594 
L 431.218889 97.51712 
L 431.218889 97.51712 
z
" style="fill:#0066cc;"/>
   </g>
   <g id="patch_242">
    <path clip-path="url(#p49a9996a8e)" d="M 431.218889 96.341166 
L 431.218889 96.341166 
L 431.218889 82.817691 
L 431.218889 82.817691 
z
" style="fill:#0066cc;"/>
   </g>
   <g id="matplotlib.axis_1">
    <g id="xtick_1">
     <g id="line2d_1">
      <defs>
       <path d="M 0 0 
L 0 3.5 
" id="mbabc1eea46" style="stroke:#000000;stroke-width:0.8;"/>
      </defs>
      <g>
       <use style="stroke:#000000;stroke-width:0.8;" x="93.263333" xlink:href="#mbabc1eea46" y="280.672"/>
      </g>
     </g>
     <g id="text_1">
      <!-- musculature -->
      <g transform="translate(62.433255 296.030281)scale(0.11 -0.11)">
       <defs>
        <path d="M 46.78125 44.1875 
Q 49.859375 50.25 54.046875 53.125 
Q 58.25 56 63.96875 56 
Q 71.6875 56 75.859375 50.015625 
Q 80.03125 44.046875 80.03125 33.015625 
L 80.03125 0 
L 71.875 0 
L 71.875 32.71875 
Q 71.875 40.578125 69.375 44.375 
Q 66.890625 48.1875 61.71875 48.1875 
Q 55.46875 48.1875 51.796875 43.546875 
Q 48.140625 38.921875 48.140625 30.90625 
L 48.140625 0 
L 40.046875 0 
L 40.046875 32.71875 
Q 40.046875 40.625 37.53125 44.40625 
Q 35.015625 48.1875 29.78125 48.1875 
Q 23.578125 48.1875 19.9375 43.53125 
Q 16.3125 38.875 16.3125 30.90625 
L 16.3125 0 
L 8.15625 0 
L 8.15625 54.6875 
L 16.3125 54.6875 
L 16.3125 46.1875 
Q 19.09375 51.21875 22.953125 53.609375 
Q 26.8125 56 32.125 56 
Q 37.5 56 41.25 52.96875 
Q 45.015625 49.953125 46.78125 44.1875 
z
" id="DejaVuSansCondensed-109"/>
        <path d="M 7.671875 21.578125 
L 7.671875 54.6875 
L 15.71875 54.6875 
L 15.71875 21.921875 
Q 15.71875 14.15625 18.453125 10.265625 
Q 21.1875 6.390625 26.609375 6.390625 
Q 33.203125 6.390625 36.984375 11.03125 
Q 40.765625 15.671875 40.765625 23.6875 
L 40.765625 54.6875 
L 48.875 54.6875 
L 48.875 0 
L 40.765625 0 
L 40.765625 8.40625 
Q 37.84375 3.421875 33.953125 1 
Q 30.078125 -1.421875 24.90625 -1.421875 
Q 16.453125 -1.421875 12.0625 4.4375 
Q 7.671875 10.296875 7.671875 21.578125 
z
M 27.984375 56 
z
" id="DejaVuSansCondensed-117"/>
        <path d="M 39.84375 53.078125 
L 39.84375 44.578125 
Q 36.421875 46.53125 32.734375 47.5 
Q 29.046875 48.484375 25.09375 48.484375 
Q 19.09375 48.484375 16.0625 46.4375 
Q 13.03125 44.390625 13.03125 40.28125 
Q 13.03125 37.15625 15.203125 35.375 
Q 17.390625 33.59375 23.875 31.984375 
L 26.609375 31.296875 
Q 35.25 29.25 38.859375 25.515625 
Q 42.484375 21.78125 42.484375 15.09375 
Q 42.484375 7.46875 37.0625 3.015625 
Q 31.640625 -1.421875 22.171875 -1.421875 
Q 18.21875 -1.421875 13.921875 -0.5625 
Q 9.625 0.296875 4.890625 2 
L 4.890625 11.28125 
Q 9.375 8.6875 13.71875 7.390625 
Q 18.0625 6.109375 22.3125 6.109375 
Q 28.03125 6.109375 31.109375 8.28125 
Q 34.1875 10.453125 34.1875 14.40625 
Q 34.1875 18.0625 31.953125 20.015625 
Q 29.734375 21.96875 22.21875 23.78125 
L 19.4375 24.515625 
Q 11.921875 26.265625 8.5625 29.90625 
Q 5.21875 33.546875 5.21875 39.890625 
Q 5.21875 47.609375 10.15625 51.796875 
Q 15.09375 56 24.125 56 
Q 28.609375 56 32.5625 55.265625 
Q 36.53125 54.546875 39.84375 53.078125 
z
" id="DejaVuSansCondensed-115"/>
        <path d="M 43.890625 52.59375 
L 43.890625 44.1875 
Q 40.484375 46.296875 37.03125 47.34375 
Q 33.59375 48.390625 30.078125 48.390625 
Q 22.171875 48.390625 17.828125 42.84375 
Q 13.484375 37.3125 13.484375 27.296875 
Q 13.484375 17.28125 17.828125 11.734375 
Q 22.171875 6.203125 30.078125 6.203125 
Q 33.59375 6.203125 37.03125 7.25 
Q 40.484375 8.296875 43.890625 10.40625 
L 43.890625 2.09375 
Q 40.53125 0.34375 36.890625 -0.53125 
Q 33.25 -1.421875 29.203125 -1.421875 
Q 18.0625 -1.421875 11.515625 6.34375 
Q 4.984375 14.109375 4.984375 27.296875 
Q 4.984375 40.671875 11.59375 48.328125 
Q 18.21875 56 29.6875 56 
Q 33.453125 56 37.015625 55.140625 
Q 40.578125 54.296875 43.890625 52.59375 
z
" id="DejaVuSansCondensed-99"/>
        <path d="M 8.5 75.984375 
L 16.546875 75.984375 
L 16.546875 0 
L 8.5 0 
z
" id="DejaVuSansCondensed-108"/>
        <path d="M 30.859375 27.484375 
Q 21.046875 27.484375 17.265625 25 
Q 13.484375 22.515625 13.484375 16.5 
Q 13.484375 11.71875 16.3125 8.90625 
Q 19.140625 6.109375 24.03125 6.109375 
Q 30.765625 6.109375 34.8125 11.40625 
Q 38.875 16.703125 38.875 25.484375 
L 38.875 27.484375 
z
M 46.96875 31.203125 
L 46.96875 0 
L 38.875 0 
L 38.875 8.296875 
Q 36.140625 3.328125 32 0.953125 
Q 27.875 -1.421875 21.875 -1.421875 
Q 14.3125 -1.421875 9.859375 3.296875 
Q 5.421875 8.015625 5.421875 15.921875 
Q 5.421875 25.140625 10.953125 29.828125 
Q 16.5 34.515625 27.546875 34.515625 
L 38.875 34.515625 
L 38.875 35.40625 
Q 38.875 41.609375 35.203125 45 
Q 31.546875 48.390625 24.90625 48.390625 
Q 20.703125 48.390625 16.703125 47.265625 
Q 12.703125 46.140625 8.984375 43.890625 
L 8.984375 52.203125 
Q 13.421875 54.109375 17.59375 55.046875 
Q 21.78125 56 25.734375 56 
Q 36.421875 56 41.6875 49.84375 
Q 46.96875 43.703125 46.96875 31.203125 
z
" id="DejaVuSansCondensed-97"/>
        <path d="M 16.5 70.21875 
L 16.5 54.6875 
L 33.15625 54.6875 
L 33.15625 47.703125 
L 16.5 47.703125 
L 16.5 18.015625 
Q 16.5 11.328125 18.140625 9.421875 
Q 19.78125 7.515625 24.8125 7.515625 
L 33.15625 7.515625 
L 33.15625 0 
L 24.8125 0 
Q 15.484375 0 11.90625 3.875 
Q 8.34375 7.765625 8.34375 18.015625 
L 8.34375 47.703125 
L 2.4375 47.703125 
L 2.4375 54.6875 
L 8.34375 54.6875 
L 8.34375 70.21875 
z
" id="DejaVuSansCondensed-116"/>
        <path d="M 37.015625 46.296875 
Q 35.640625 47.171875 34.03125 47.578125 
Q 32.421875 48 30.515625 48 
Q 23.640625 48 19.96875 43.046875 
Q 16.3125 38.09375 16.3125 28.8125 
L 16.3125 0 
L 8.15625 0 
L 8.15625 54.6875 
L 16.3125 54.6875 
L 16.3125 46.1875 
Q 18.84375 51.171875 22.9375 53.578125 
Q 27.046875 56 32.859375 56 
Q 33.6875 56 34.71875 55.875 
Q 35.75 55.765625 36.96875 55.515625 
z
" id="DejaVuSansCondensed-114"/>
        <path d="M 50.59375 29.59375 
L 50.59375 25.203125 
L 13.375 25.203125 
Q 13.921875 15.921875 18.4375 11.0625 
Q 22.953125 6.203125 30.953125 6.203125 
Q 35.640625 6.203125 40.015625 7.46875 
Q 44.390625 8.734375 48.6875 11.28125 
L 48.6875 2.78125 
Q 44.34375 0.734375 39.765625 -0.34375 
Q 35.203125 -1.421875 30.515625 -1.421875 
Q 18.703125 -1.421875 11.84375 6.1875 
Q 4.984375 13.8125 4.984375 26.8125 
Q 4.984375 40.234375 11.5 48.109375 
Q 18.015625 56 29.109375 56 
Q 39.015625 56 44.796875 48.890625 
Q 50.59375 41.796875 50.59375 29.59375 
z
M 42.484375 32.234375 
Q 42.390625 39.59375 38.765625 43.984375 
Q 35.15625 48.390625 29.203125 48.390625 
Q 22.40625 48.390625 18.328125 44.140625 
Q 14.265625 39.890625 13.671875 32.171875 
z
" id="DejaVuSansCondensed-101"/>
       </defs>
       <use xlink:href="#DejaVuSansCondensed-109"/>
       <use x="87.646484" xlink:href="#DejaVuSansCondensed-117"/>
       <use x="144.677734" xlink:href="#DejaVuSansCondensed-115"/>
       <use x="191.552734" xlink:href="#DejaVuSansCondensed-99"/>
       <use x="241.015625" xlink:href="#DejaVuSansCondensed-117"/>
       <use x="298.046875" xlink:href="#DejaVuSansCondensed-108"/>
       <use x="323.046875" xlink:href="#DejaVuSansCondensed-97"/>
       <use x="378.173828" xlink:href="#DejaVuSansCondensed-116"/>
       <use x="413.427734" xlink:href="#DejaVuSansCondensed-117"/>
       <use x="470.458984" xlink:href="#DejaVuSansCondensed-114"/>
       <use x="505.171875" xlink:href="#DejaVuSansCondensed-101"/>
      </g>
     </g>
    </g>
    <g id="xtick_2">
     <g id="line2d_2">
      <g>
       <use style="stroke:#000000;stroke-width:0.8;" x="156.63" xlink:href="#mbabc1eea46" y="280.672"/>
      </g>
     </g>
     <g id="text_2">
      <!-- thinness -->
      <g transform="translate(135.704219 296.030281)scale(0.11 -0.11)">
       <defs>
        <path d="M 49.421875 33.015625 
L 49.421875 0 
L 41.3125 0 
L 41.3125 32.71875 
Q 41.3125 40.484375 38.578125 44.328125 
Q 35.84375 48.1875 30.421875 48.1875 
Q 23.875 48.1875 20.09375 43.546875 
Q 16.3125 38.921875 16.3125 30.90625 
L 16.3125 0 
L 8.15625 0 
L 8.15625 75.984375 
L 16.3125 75.984375 
L 16.3125 46.1875 
Q 19.1875 51.125 23.109375 53.5625 
Q 27.046875 56 32.234375 56 
Q 40.671875 56 45.046875 50.171875 
Q 49.421875 44.34375 49.421875 33.015625 
z
" id="DejaVuSansCondensed-104"/>
        <path d="M 8.5 54.6875 
L 16.546875 54.6875 
L 16.546875 0 
L 8.5 0 
z
M 8.5 75.984375 
L 16.546875 75.984375 
L 16.546875 64.59375 
L 8.5 64.59375 
z
" id="DejaVuSansCondensed-105"/>
        <path d="M 49.421875 33.015625 
L 49.421875 0 
L 41.3125 0 
L 41.3125 32.71875 
Q 41.3125 40.484375 38.578125 44.328125 
Q 35.84375 48.1875 30.421875 48.1875 
Q 23.875 48.1875 20.09375 43.546875 
Q 16.3125 38.921875 16.3125 30.90625 
L 16.3125 0 
L 8.15625 0 
L 8.15625 54.6875 
L 16.3125 54.6875 
L 16.3125 46.1875 
Q 19.1875 51.125 23.109375 53.5625 
Q 27.046875 56 32.234375 56 
Q 40.671875 56 45.046875 50.171875 
Q 49.421875 44.34375 49.421875 33.015625 
z
" id="DejaVuSansCondensed-110"/>
       </defs>
       <use xlink:href="#DejaVuSansCondensed-116"/>
       <use x="35.253906" xlink:href="#DejaVuSansCondensed-104"/>
       <use x="92.285156" xlink:href="#DejaVuSansCondensed-105"/>
       <use x="117.285156" xlink:href="#DejaVuSansCondensed-110"/>
       <use x="174.316406" xlink:href="#DejaVuSansCondensed-110"/>
       <use x="231.347656" xlink:href="#DejaVuSansCondensed-101"/>
       <use x="286.71875" xlink:href="#DejaVuSansCondensed-115"/>
       <use x="333.59375" xlink:href="#DejaVuSansCondensed-115"/>
      </g>
     </g>
    </g>
    <g id="xtick_3">
     <g id="line2d_3">
      <g>
       <use style="stroke:#000000;stroke-width:0.8;" x="219.996667" xlink:href="#mbabc1eea46" y="280.672"/>
      </g>
     </g>
     <g id="text_3">
      <!-- youth -->
      <g transform="translate(205.830729 296.030281)scale(0.11 -0.11)">
       <defs>
        <path d="M 28.953125 -5.078125 
Q 25.53125 -14.84375 22.28125 -17.8125 
Q 19.046875 -20.796875 13.578125 -20.796875 
L 7.125 -20.796875 
L 7.125 -13.28125 
L 11.859375 -13.28125 
Q 15.1875 -13.28125 17.03125 -11.515625 
Q 18.890625 -9.765625 21.140625 -3.21875 
L 22.609375 0.875 
L 2.6875 54.6875 
L 11.234375 54.6875 
L 26.609375 11.921875 
L 42 54.6875 
L 50.59375 54.6875 
z
" id="DejaVuSansCondensed-121"/>
        <path d="M 27.546875 48.390625 
Q 21.046875 48.390625 17.265625 42.75 
Q 13.484375 37.109375 13.484375 27.296875 
Q 13.484375 17.484375 17.234375 11.84375 
Q 21 6.203125 27.546875 6.203125 
Q 34.03125 6.203125 37.78125 11.859375 
Q 41.546875 17.53125 41.546875 27.296875 
Q 41.546875 37.015625 37.78125 42.703125 
Q 34.03125 48.390625 27.546875 48.390625 
z
M 27.546875 56 
Q 38.09375 56 44.109375 48.375 
Q 50.140625 40.765625 50.140625 27.296875 
Q 50.140625 13.875 44.109375 6.21875 
Q 38.09375 -1.421875 27.546875 -1.421875 
Q 16.9375 -1.421875 10.953125 6.21875 
Q 4.984375 13.875 4.984375 27.296875 
Q 4.984375 40.765625 10.953125 48.375 
Q 16.9375 56 27.546875 56 
z
" id="DejaVuSansCondensed-111"/>
       </defs>
       <use xlink:href="#DejaVuSansCondensed-121"/>
       <use x="53.222656" xlink:href="#DejaVuSansCondensed-111"/>
       <use x="108.251953" xlink:href="#DejaVuSansCondensed-117"/>
       <use x="165.283203" xlink:href="#DejaVuSansCondensed-116"/>
       <use x="200.537109" xlink:href="#DejaVuSansCondensed-104"/>
      </g>
     </g>
    </g>
    <g id="xtick_4">
     <g id="line2d_4">
      <g>
       <use style="stroke:#000000;stroke-width:0.8;" x="283.363333" xlink:href="#mbabc1eea46" y="280.672"/>
      </g>
     </g>
     <g id="text_4">
      <!-- attractive- -->
      <g transform="translate(257.595833 296.030281)scale(0.11 -0.11)">
       <defs>
        <path d="M 2.6875 54.6875 
L 11.234375 54.6875 
L 26.609375 8.796875 
L 42 54.6875 
L 50.59375 54.6875 
L 32.125 0 
L 21.140625 0 
z
" id="DejaVuSansCondensed-118"/>
        <path d="M 4.390625 31.390625 
L 28.078125 31.390625 
L 28.078125 23.390625 
L 4.390625 23.390625 
z
" id="DejaVuSansCondensed-45"/>
       </defs>
       <use xlink:href="#DejaVuSansCondensed-97"/>
       <use x="55.126953" xlink:href="#DejaVuSansCondensed-116"/>
       <use x="90.380859" xlink:href="#DejaVuSansCondensed-116"/>
       <use x="125.634766" xlink:href="#DejaVuSansCondensed-114"/>
       <use x="162.597656" xlink:href="#DejaVuSansCondensed-97"/>
       <use x="217.724609" xlink:href="#DejaVuSansCondensed-99"/>
       <use x="267.1875" xlink:href="#DejaVuSansCondensed-116"/>
       <use x="302.441406" xlink:href="#DejaVuSansCondensed-105"/>
       <use x="327.441406" xlink:href="#DejaVuSansCondensed-118"/>
       <use x="380.664062" xlink:href="#DejaVuSansCondensed-101"/>
       <use x="436.035156" xlink:href="#DejaVuSansCondensed-45"/>
      </g>
      <!-- ness -->
      <g transform="translate(272.02474 308.347875)scale(0.11 -0.11)">
       <use xlink:href="#DejaVuSansCondensed-110"/>
       <use x="57.03125" xlink:href="#DejaVuSansCondensed-101"/>
       <use x="112.402344" xlink:href="#DejaVuSansCondensed-115"/>
       <use x="159.277344" xlink:href="#DejaVuSansCondensed-115"/>
      </g>
     </g>
    </g>
    <g id="xtick_5">
     <g id="line2d_5">
      <g>
       <use style="stroke:#000000;stroke-width:0.8;" x="346.73" xlink:href="#mbabc1eea46" y="280.672"/>
      </g>
     </g>
     <g id="text_5">
      <!-- sexualization -->
      <g transform="translate(314.250781 296.030281)scale(0.11 -0.11)">
       <defs>
        <path d="M 49.421875 54.6875 
L 31.59375 28.078125 
L 50.296875 0 
L 40.765625 0 
L 26.46875 21.484375 
L 12.109375 0 
L 2.59375 0 
L 21.734375 28.609375 
L 4.203125 54.6875 
L 13.765625 54.6875 
L 26.8125 35.203125 
L 39.84375 54.6875 
z
" id="DejaVuSansCondensed-120"/>
        <path d="M 4.984375 54.6875 
L 43.359375 54.6875 
L 43.359375 46.484375 
L 12.984375 7.171875 
L 43.359375 7.171875 
L 43.359375 0 
L 3.859375 0 
L 3.859375 8.203125 
L 34.28125 47.515625 
L 4.984375 47.515625 
z
" id="DejaVuSansCondensed-122"/>
       </defs>
       <use xlink:href="#DejaVuSansCondensed-115"/>
       <use x="46.875" xlink:href="#DejaVuSansCondensed-101"/>
       <use x="100.496094" xlink:href="#DejaVuSansCondensed-120"/>
       <use x="153.71875" xlink:href="#DejaVuSansCondensed-117"/>
       <use x="210.75" xlink:href="#DejaVuSansCondensed-97"/>
       <use x="265.876953" xlink:href="#DejaVuSansCondensed-108"/>
       <use x="290.876953" xlink:href="#DejaVuSansCondensed-105"/>
       <use x="315.876953" xlink:href="#DejaVuSansCondensed-122"/>
       <use x="363.09375" xlink:href="#DejaVuSansCondensed-97"/>
       <use x="418.220703" xlink:href="#DejaVuSansCondensed-116"/>
       <use x="453.474609" xlink:href="#DejaVuSansCondensed-105"/>
       <use x="478.474609" xlink:href="#DejaVuSansCondensed-111"/>
       <use x="533.503906" xlink:href="#DejaVuSansCondensed-110"/>
      </g>
     </g>
    </g>
    <g id="xtick_6">
     <g id="line2d_6">
      <g>
       <use style="stroke:#000000;stroke-width:0.8;" x="410.096667" xlink:href="#mbabc1eea46" y="280.672"/>
      </g>
     </g>
     <g id="text_6">
      <!-- attire -->
      <g transform="translate(396.857135 296.030281)scale(0.11 -0.11)">
       <use xlink:href="#DejaVuSansCondensed-97"/>
       <use x="55.126953" xlink:href="#DejaVuSansCondensed-116"/>
       <use x="90.380859" xlink:href="#DejaVuSansCondensed-116"/>
       <use x="125.634766" xlink:href="#DejaVuSansCondensed-105"/>
       <use x="150.634766" xlink:href="#DejaVuSansCondensed-114"/>
       <use x="185.347656" xlink:href="#DejaVuSansCondensed-101"/>
      </g>
      <!-- sexualization -->
      <g transform="translate(377.617448 308.347875)scale(0.11 -0.11)">
       <use xlink:href="#DejaVuSansCondensed-115"/>
       <use x="46.875" xlink:href="#DejaVuSansCondensed-101"/>
       <use x="100.496094" xlink:href="#DejaVuSansCondensed-120"/>
       <use x="153.71875" xlink:href="#DejaVuSansCondensed-117"/>
       <use x="210.75" xlink:href="#DejaVuSansCondensed-97"/>
       <use x="265.876953" xlink:href="#DejaVuSansCondensed-108"/>
       <use x="290.876953" xlink:href="#DejaVuSansCondensed-105"/>
       <use x="315.876953" xlink:href="#DejaVuSansCondensed-122"/>
       <use x="363.09375" xlink:href="#DejaVuSansCondensed-97"/>
       <use x="418.220703" xlink:href="#DejaVuSansCondensed-116"/>
       <use x="453.474609" xlink:href="#DejaVuSansCondensed-105"/>
       <use x="478.474609" xlink:href="#DejaVuSansCondensed-111"/>
       <use x="533.503906" xlink:href="#DejaVuSansCondensed-110"/>
      </g>
     </g>
    </g>
    <g id="text_7">
     <!-- Construct -->
     <g transform="translate(218.99875 326.033187)scale(0.15 -0.15)">
      <defs>
       <path d="M 57.953125 67.28125 
L 57.953125 56.890625 
Q 53.46875 61.53125 48.390625 63.8125 
Q 43.3125 66.109375 37.59375 66.109375 
Q 26.375 66.109375 20.390625 58.46875 
Q 14.40625 50.828125 14.40625 36.375 
Q 14.40625 21.96875 20.390625 14.328125 
Q 26.375 6.6875 37.59375 6.6875 
Q 43.3125 6.6875 48.390625 8.984375 
Q 53.46875 11.28125 57.953125 15.921875 
L 57.953125 5.609375 
Q 53.328125 2.09375 48.09375 0.328125 
Q 42.875 -1.421875 37.109375 -1.421875 
Q 22.171875 -1.421875 13.625 8.703125 
Q 5.078125 18.84375 5.078125 36.375 
Q 5.078125 53.953125 13.625 64.078125 
Q 22.171875 74.21875 37.109375 74.21875 
Q 42.96875 74.21875 48.1875 72.484375 
Q 53.421875 70.75 57.953125 67.28125 
z
" id="DejaVuSansCondensed-67"/>
      </defs>
      <use xlink:href="#DejaVuSansCondensed-67"/>
      <use x="62.841797" xlink:href="#DejaVuSansCondensed-111"/>
      <use x="117.871094" xlink:href="#DejaVuSansCondensed-110"/>
      <use x="174.902344" xlink:href="#DejaVuSansCondensed-115"/>
      <use x="221.777344" xlink:href="#DejaVuSansCondensed-116"/>
      <use x="257.03125" xlink:href="#DejaVuSansCondensed-114"/>
      <use x="293.994141" xlink:href="#DejaVuSansCondensed-117"/>
      <use x="351.025391" xlink:href="#DejaVuSansCondensed-99"/>
      <use x="400.488281" xlink:href="#DejaVuSansCondensed-116"/>
     </g>
    </g>
   </g>
   <g id="matplotlib.axis_2">
    <g id="ytick_1">
     <g id="line2d_7">
      <defs>
       <path d="M 0 0 
L -3.5 0 
" id="m5c7d6558cd" style="stroke:#000000;stroke-width:0.8;"/>
      </defs>
      <g>
       <use style="stroke:#000000;stroke-width:0.8;" x="61.58" xlink:href="#m5c7d6558cd" y="265.972571"/>
      </g>
     </g>
     <g id="text_8">
      <!-- 1 -->
      <g transform="translate(46.567188 271.291478)scale(0.14 -0.14)">
       <defs>
        <path d="M 11.1875 8.296875 
L 25.6875 8.296875 
L 25.6875 63.921875 
L 9.859375 60.40625 
L 9.859375 69.390625 
L 25.59375 72.90625 
L 34.46875 72.90625 
L 34.46875 8.296875 
L 48.96875 8.296875 
L 48.96875 0 
L 11.1875 0 
z
" id="DejaVuSansCondensed-49"/>
       </defs>
       <use xlink:href="#DejaVuSansCondensed-49"/>
      </g>
     </g>
    </g>
    <g id="ytick_2">
     <g id="line2d_8">
      <g>
       <use style="stroke:#000000;stroke-width:0.8;" x="61.58" xlink:href="#m5c7d6558cd" y="251.273143"/>
      </g>
     </g>
     <g id="text_9">
      <!-- 1.5 -->
      <g transform="translate(34.555625 256.592049)scale(0.14 -0.14)">
       <defs>
        <path d="M 9.625 12.40625 
L 18.890625 12.40625 
L 18.890625 0 
L 9.625 0 
z
" id="DejaVuSansCondensed-46"/>
        <path d="M 9.71875 72.90625 
L 44.578125 72.90625 
L 44.578125 64.59375 
L 17.828125 64.59375 
L 17.828125 46.734375 
Q 19.78125 47.46875 21.703125 47.828125 
Q 23.640625 48.1875 25.59375 48.1875 
Q 36.578125 48.1875 43 41.5 
Q 49.421875 34.8125 49.421875 23.390625 
Q 49.421875 11.625 42.828125 5.09375 
Q 36.234375 -1.421875 24.21875 -1.421875 
Q 20.0625 -1.421875 15.796875 -0.640625 
Q 11.53125 0.140625 6.9375 1.703125 
L 6.9375 11.625 
Q 10.890625 9.234375 15.109375 8.0625 
Q 19.34375 6.890625 24.03125 6.890625 
Q 31.640625 6.890625 36.078125 11.328125 
Q 40.53125 15.765625 40.53125 23.390625 
Q 40.53125 31 36.078125 35.4375 
Q 31.640625 39.890625 24.03125 39.890625 
Q 20.453125 39.890625 16.90625 39.015625 
Q 13.375 38.140625 9.71875 36.28125 
z
" id="DejaVuSansCondensed-53"/>
       </defs>
       <use xlink:href="#DejaVuSansCondensed-49"/>
       <use x="57.226562" xlink:href="#DejaVuSansCondensed-46"/>
       <use x="85.791016" xlink:href="#DejaVuSansCondensed-53"/>
      </g>
     </g>
    </g>
    <g id="ytick_3">
     <g id="line2d_9">
      <g>
       <use style="stroke:#000000;stroke-width:0.8;" x="61.58" xlink:href="#m5c7d6558cd" y="236.573714"/>
      </g>
     </g>
     <g id="text_10">
      <!-- 2 -->
      <g transform="translate(46.567188 241.892621)scale(0.14 -0.14)">
       <defs>
        <path d="M 17.28125 8.296875 
L 48.25 8.296875 
L 48.25 0 
L 6.59375 0 
L 6.59375 8.296875 
Q 11.625 14.109375 20.359375 23.890625 
Q 29.109375 33.6875 31.34375 36.53125 
Q 35.59375 41.84375 37.28125 45.53125 
Q 38.96875 49.21875 38.96875 52.78125 
Q 38.96875 58.59375 35.296875 62.25 
Q 31.640625 65.921875 25.734375 65.921875 
Q 21.578125 65.921875 16.9375 64.3125 
Q 12.3125 62.703125 7.03125 59.421875 
L 7.03125 69.390625 
Q 12.40625 71.78125 17.0625 73 
Q 21.734375 74.21875 25.59375 74.21875 
Q 35.796875 74.21875 41.84375 68.546875 
Q 47.90625 62.890625 47.90625 53.421875 
Q 47.90625 48.921875 46.390625 44.890625 
Q 44.875 40.875 40.875 35.40625 
Q 39.75 33.984375 33.859375 27.21875 
Q 27.984375 20.453125 17.28125 8.296875 
z
" id="DejaVuSansCondensed-50"/>
       </defs>
       <use xlink:href="#DejaVuSansCondensed-50"/>
      </g>
     </g>
    </g>
    <g id="ytick_4">
     <g id="line2d_10">
      <g>
       <use style="stroke:#000000;stroke-width:0.8;" x="61.58" xlink:href="#m5c7d6558cd" y="221.874286"/>
      </g>
     </g>
     <g id="text_11">
      <!-- 2.5 -->
      <g transform="translate(34.555625 227.193192)scale(0.14 -0.14)">
       <use xlink:href="#DejaVuSansCondensed-50"/>
       <use x="57.226562" xlink:href="#DejaVuSansCondensed-46"/>
       <use x="85.791016" xlink:href="#DejaVuSansCondensed-53"/>
      </g>
     </g>
    </g>
    <g id="ytick_5">
     <g id="line2d_11">
      <g>
       <use style="stroke:#000000;stroke-width:0.8;" x="61.58" xlink:href="#m5c7d6558cd" y="207.174857"/>
      </g>
     </g>
     <g id="text_12">
      <!-- 3 -->
      <g transform="translate(46.567188 212.493763)scale(0.14 -0.14)">
       <defs>
        <path d="M 36.53125 39.3125 
Q 42.875 37.796875 46.453125 33 
Q 50.046875 28.21875 50.046875 21.1875 
Q 50.046875 10.40625 43.375 4.484375 
Q 36.71875 -1.421875 24.421875 -1.421875 
Q 20.265625 -1.421875 15.890625 -0.515625 
Q 11.53125 0.390625 6.84375 2.203125 
L 6.84375 11.71875 
Q 10.546875 9.328125 14.9375 8.109375 
Q 19.34375 6.890625 24.125 6.890625 
Q 32.46875 6.890625 36.84375 10.546875 
Q 41.21875 14.203125 41.21875 21.1875 
Q 41.21875 27.640625 37.15625 31.265625 
Q 33.109375 34.90625 25.828125 34.90625 
L 18.21875 34.90625 
L 18.21875 43.015625 
L 26.171875 43.015625 
Q 32.71875 43.015625 36.203125 45.921875 
Q 39.703125 48.828125 39.703125 54.296875 
Q 39.703125 59.90625 36.109375 62.90625 
Q 32.515625 65.921875 25.828125 65.921875 
Q 22.171875 65.921875 18.015625 65.03125 
Q 13.875 64.15625 8.84375 62.3125 
L 8.84375 71.09375 
Q 13.875 72.65625 18.28125 73.4375 
Q 22.703125 74.21875 26.609375 74.21875 
Q 36.71875 74.21875 42.625 69.109375 
Q 48.53125 64.015625 48.53125 55.328125 
Q 48.53125 49.265625 45.40625 45.09375 
Q 42.28125 40.921875 36.53125 39.3125 
z
" id="DejaVuSansCondensed-51"/>
       </defs>
       <use xlink:href="#DejaVuSansCondensed-51"/>
      </g>
     </g>
    </g>
    <g id="ytick_6">
     <g id="line2d_12">
      <g>
       <use style="stroke:#000000;stroke-width:0.8;" x="61.58" xlink:href="#m5c7d6558cd" y="192.475429"/>
      </g>
     </g>
     <g id="text_13">
      <!-- 3.5 -->
      <g transform="translate(34.555625 197.794335)scale(0.14 -0.14)">
       <use xlink:href="#DejaVuSansCondensed-51"/>
       <use x="57.226562" xlink:href="#DejaVuSansCondensed-46"/>
       <use x="85.791016" xlink:href="#DejaVuSansCondensed-53"/>
      </g>
     </g>
    </g>
    <g id="ytick_7">
     <g id="line2d_13">
      <g>
       <use style="stroke:#000000;stroke-width:0.8;" x="61.58" xlink:href="#m5c7d6558cd" y="177.776"/>
      </g>
     </g>
     <g id="text_14">
      <!-- 4 -->
      <g transform="translate(46.567188 183.094906)scale(0.14 -0.14)">
       <defs>
        <path d="M 34.03125 64.3125 
L 11.625 25.390625 
L 34.03125 25.390625 
z
M 31.6875 72.90625 
L 42.875 72.90625 
L 42.875 25.390625 
L 52.203125 25.390625 
L 52.203125 17.1875 
L 42.875 17.1875 
L 42.875 0 
L 34.03125 0 
L 34.03125 17.1875 
L 4.390625 17.1875 
L 4.390625 26.703125 
z
" id="DejaVuSansCondensed-52"/>
       </defs>
       <use xlink:href="#DejaVuSansCondensed-52"/>
      </g>
     </g>
    </g>
    <g id="ytick_8">
     <g id="line2d_14">
      <g>
       <use style="stroke:#000000;stroke-width:0.8;" x="61.58" xlink:href="#m5c7d6558cd" y="163.076571"/>
      </g>
     </g>
     <g id="text_15">
      <!-- 4.5 -->
      <g transform="translate(34.555625 168.395478)scale(0.14 -0.14)">
       <use xlink:href="#DejaVuSansCondensed-52"/>
       <use x="57.226562" xlink:href="#DejaVuSansCondensed-46"/>
       <use x="85.791016" xlink:href="#DejaVuSansCondensed-53"/>
      </g>
     </g>
    </g>
    <g id="ytick_9">
     <g id="line2d_15">
      <g>
       <use style="stroke:#000000;stroke-width:0.8;" x="61.58" xlink:href="#m5c7d6558cd" y="148.377143"/>
      </g>
     </g>
     <g id="text_16">
      <!-- 5 -->
      <g transform="translate(46.567188 153.696049)scale(0.14 -0.14)">
       <use xlink:href="#DejaVuSansCondensed-53"/>
      </g>
     </g>
    </g>
    <g id="ytick_10">
     <g id="line2d_16">
      <g>
       <use style="stroke:#000000;stroke-width:0.8;" x="61.58" xlink:href="#m5c7d6558cd" y="133.677714"/>
      </g>
     </g>
     <g id="text_17">
      <!-- 5.5 -->
      <g transform="translate(34.555625 138.996621)scale(0.14 -0.14)">
       <use xlink:href="#DejaVuSansCondensed-53"/>
       <use x="57.226562" xlink:href="#DejaVuSansCondensed-46"/>
       <use x="85.791016" xlink:href="#DejaVuSansCondensed-53"/>
      </g>
     </g>
    </g>
    <g id="ytick_11">
     <g id="line2d_17">
      <g>
       <use style="stroke:#000000;stroke-width:0.8;" x="61.58" xlink:href="#m5c7d6558cd" y="118.978286"/>
      </g>
     </g>
     <g id="text_18">
      <!-- 6 -->
      <g transform="translate(46.567188 124.297192)scale(0.14 -0.14)">
       <defs>
        <path d="M 29.6875 40.375 
Q 23.734375 40.375 20.234375 35.828125 
Q 16.75 31.296875 16.75 23.390625 
Q 16.75 15.53125 20.234375 10.953125 
Q 23.734375 6.390625 29.6875 6.390625 
Q 35.6875 6.390625 39.171875 10.953125 
Q 42.671875 15.53125 42.671875 23.390625 
Q 42.671875 31.296875 39.171875 35.828125 
Q 35.6875 40.375 29.6875 40.375 
z
M 47.3125 71.296875 
L 47.3125 62.3125 
Q 44 64.0625 40.578125 64.984375 
Q 37.15625 65.921875 33.84375 65.921875 
Q 25.046875 65.921875 20.40625 59.328125 
Q 15.765625 52.734375 15.140625 39.40625 
Q 17.71875 43.65625 21.625 45.921875 
Q 25.53125 48.1875 30.21875 48.1875 
Q 40.140625 48.1875 45.875 41.515625 
Q 51.609375 34.859375 51.609375 23.390625 
Q 51.609375 12.15625 45.625 5.359375 
Q 39.65625 -1.421875 29.6875 -1.421875 
Q 18.3125 -1.421875 12.296875 8.265625 
Q 6.296875 17.96875 6.296875 36.375 
Q 6.296875 53.65625 13.671875 63.9375 
Q 21.046875 74.21875 33.5 74.21875 
Q 36.8125 74.21875 40.234375 73.484375 
Q 43.65625 72.75 47.3125 71.296875 
z
" id="DejaVuSansCondensed-54"/>
       </defs>
       <use xlink:href="#DejaVuSansCondensed-54"/>
      </g>
     </g>
    </g>
    <g id="ytick_12">
     <g id="line2d_18">
      <g>
       <use style="stroke:#000000;stroke-width:0.8;" x="61.58" xlink:href="#m5c7d6558cd" y="104.278857"/>
      </g>
     </g>
     <g id="text_19">
      <!-- 6.5 -->
      <g transform="translate(34.555625 109.597763)scale(0.14 -0.14)">
       <use xlink:href="#DejaVuSansCondensed-54"/>
       <use x="57.226562" xlink:href="#DejaVuSansCondensed-46"/>
       <use x="85.791016" xlink:href="#DejaVuSansCondensed-53"/>
      </g>
     </g>
    </g>
    <g id="ytick_13">
     <g id="line2d_19">
      <g>
       <use style="stroke:#000000;stroke-width:0.8;" x="61.58" xlink:href="#m5c7d6558cd" y="89.579429"/>
      </g>
     </g>
     <g id="text_20">
      <!-- 7 -->
      <g transform="translate(46.567188 94.898335)scale(0.14 -0.14)">
       <defs>
        <path d="M 7.375 72.90625 
L 49.5625 72.90625 
L 49.5625 68.703125 
L 25.734375 0 
L 16.5 0 
L 38.875 64.59375 
L 7.375 64.59375 
z
" id="DejaVuSansCondensed-55"/>
       </defs>
       <use xlink:href="#DejaVuSansCondensed-55"/>
      </g>
     </g>
    </g>
    <g id="text_21">
     <!-- Median Construct Values -->
     <g transform="translate(27.436094 261.277953)rotate(-90)scale(0.15 -0.15)">
      <defs>
       <path d="M 8.84375 72.90625 
L 22.078125 72.90625 
L 38.8125 23.296875 
L 55.609375 72.90625 
L 68.84375 72.90625 
L 68.84375 0 
L 60.203125 0 
L 60.203125 64.015625 
L 43.265625 14.015625 
L 34.375 14.015625 
L 17.4375 64.015625 
L 17.4375 0 
L 8.84375 0 
z
" id="DejaVuSansCondensed-77"/>
       <path d="M 40.875 46.390625 
L 40.875 75.984375 
L 48.96875 75.984375 
L 48.96875 0 
L 40.875 0 
L 40.875 8.203125 
Q 38.328125 3.328125 34.4375 0.953125 
Q 30.5625 -1.421875 25.09375 -1.421875 
Q 16.15625 -1.421875 10.5625 6.484375 
Q 4.984375 14.40625 4.984375 27.296875 
Q 4.984375 40.1875 10.5625 48.09375 
Q 16.15625 56 25.09375 56 
Q 30.5625 56 34.4375 53.625 
Q 38.328125 51.265625 40.875 46.390625 
z
M 13.328125 27.296875 
Q 13.328125 17.390625 16.984375 11.75 
Q 20.65625 6.109375 27.046875 6.109375 
Q 33.5 6.109375 37.1875 11.75 
Q 40.875 17.390625 40.875 27.296875 
Q 40.875 37.203125 37.1875 42.84375 
Q 33.5 48.484375 27.046875 48.484375 
Q 20.65625 48.484375 16.984375 42.84375 
Q 13.328125 37.203125 13.328125 27.296875 
z
" id="DejaVuSansCondensed-100"/>
       <path id="DejaVuSansCondensed-32"/>
       <path d="M 25.734375 0 
L 0.6875 72.90625 
L 9.96875 72.90625 
L 30.765625 11.53125 
L 51.609375 72.90625 
L 60.84375 72.90625 
L 35.84375 0 
z
" id="DejaVuSansCondensed-86"/>
      </defs>
      <use xlink:href="#DejaVuSansCondensed-77"/>
      <use x="77.636719" xlink:href="#DejaVuSansCondensed-101"/>
      <use x="133.007812" xlink:href="#DejaVuSansCondensed-100"/>
      <use x="190.136719" xlink:href="#DejaVuSansCondensed-105"/>
      <use x="215.136719" xlink:href="#DejaVuSansCondensed-97"/>
      <use x="270.263672" xlink:href="#DejaVuSansCondensed-110"/>
      <use x="327.294922" xlink:href="#DejaVuSansCondensed-32"/>
      <use x="355.859375" xlink:href="#DejaVuSansCondensed-67"/>
      <use x="418.701172" xlink:href="#DejaVuSansCondensed-111"/>
      <use x="473.730469" xlink:href="#DejaVuSansCondensed-110"/>
      <use x="530.761719" xlink:href="#DejaVuSansCondensed-115"/>
      <use x="577.636719" xlink:href="#DejaVuSansCondensed-116"/>
      <use x="612.890625" xlink:href="#DejaVuSansCondensed-114"/>
      <use x="649.853516" xlink:href="#DejaVuSansCondensed-117"/>
      <use x="706.884766" xlink:href="#DejaVuSansCondensed-99"/>
      <use x="756.347656" xlink:href="#DejaVuSansCondensed-116"/>
      <use x="791.601562" xlink:href="#DejaVuSansCondensed-32"/>
      <use x="820.166016" xlink:href="#DejaVuSansCondensed-86"/>
      <use x="873.939453" xlink:href="#DejaVuSansCondensed-97"/>
      <use x="929.066406" xlink:href="#DejaVuSansCondensed-108"/>
      <use x="954.066406" xlink:href="#DejaVuSansCondensed-117"/>
      <use x="1011.097656" xlink:href="#DejaVuSansCondensed-101"/>
      <use x="1066.46875" xlink:href="#DejaVuSansCondensed-115"/>
     </g>
    </g>
   </g>
   <g id="patch_243">
    <path d="M 61.58 280.672 
L 61.58 74.88 
" style="fill:none;stroke:#000000;stroke-linecap:square;stroke-linejoin:miter;stroke-width:0.8;"/>
   </g>
   <g id="patch_244">
    <path d="M 441.78 280.672 
L 441.78 74.88 
" style="fill:none;stroke:#000000;stroke-linecap:square;stroke-linejoin:miter;stroke-width:0.8;"/>
   </g>
   <g id="patch_245">
    <path d="M 61.58 280.672 
L 441.78 280.672 
" style="fill:none;stroke:#000000;stroke-linecap:square;stroke-linejoin:miter;stroke-width:0.8;"/>
   </g>
   <g id="patch_246">
    <path d="M 61.58 74.88 
L 441.78 74.88 
" style="fill:none;stroke:#000000;stroke-linecap:square;stroke-linejoin:miter;stroke-width:0.8;"/>
   </g>
   <g id="text_22">
    <!-- Construct Ranges by Gender -->
    <g transform="translate(135.114531 29.88)scale(0.18 -0.18)">
     <defs>
      <path d="M 39.9375 34.1875 
Q 42.828125 33.109375 45.5 29.59375 
Q 48.1875 26.078125 50.921875 19.921875 
L 59.96875 0 
L 50.390625 0 
L 42 18.703125 
Q 38.765625 26.03125 35.71875 28.421875 
Q 32.671875 30.8125 27.390625 30.8125 
L 17.71875 30.8125 
L 17.71875 0 
L 8.84375 0 
L 8.84375 72.90625 
L 28.859375 72.90625 
Q 40.140625 72.90625 45.65625 67.671875 
Q 51.171875 62.453125 51.171875 51.90625 
Q 51.171875 45.015625 48.3125 40.46875 
Q 45.453125 35.9375 39.9375 34.1875 
z
M 17.71875 64.796875 
L 17.71875 38.921875 
L 28.859375 38.921875 
Q 35.296875 38.921875 38.5625 42.21875 
Q 41.84375 45.515625 41.84375 51.90625 
Q 41.84375 58.296875 38.5625 61.546875 
Q 35.296875 64.796875 28.859375 64.796875 
z
" id="DejaVuSansCondensed-82"/>
      <path d="M 40.875 27.984375 
Q 40.875 37.75 37.234375 43.109375 
Q 33.59375 48.484375 27.046875 48.484375 
Q 20.5625 48.484375 16.9375 43.109375 
Q 13.328125 37.75 13.328125 27.984375 
Q 13.328125 18.265625 16.9375 12.890625 
Q 20.5625 7.515625 27.046875 7.515625 
Q 33.59375 7.515625 37.234375 12.890625 
Q 40.875 18.265625 40.875 27.984375 
z
M 48.96875 6.78125 
Q 48.96875 -7.171875 43.375 -13.984375 
Q 37.796875 -20.796875 26.265625 -20.796875 
Q 22.015625 -20.796875 18.234375 -20.09375 
Q 14.453125 -19.390625 10.890625 -17.921875 
L 10.890625 -9.1875 
Q 14.453125 -11.328125 17.921875 -12.34375 
Q 21.390625 -13.375 25 -13.375 
Q 32.953125 -13.375 36.90625 -8.765625 
Q 40.875 -4.15625 40.875 5.171875 
L 40.875 9.625 
Q 38.375 4.78125 34.46875 2.390625 
Q 30.5625 0 25.09375 0 
Q 16.015625 0 10.5 7.65625 
Q 4.984375 15.328125 4.984375 27.984375 
Q 4.984375 40.671875 10.5 48.328125 
Q 16.015625 56 25.09375 56 
Q 30.5625 56 34.46875 53.609375 
Q 38.375 51.21875 40.875 46.390625 
L 40.875 54.6875 
L 48.96875 54.6875 
z
" id="DejaVuSansCondensed-103"/>
      <path d="M 43.796875 27.296875 
Q 43.796875 37.203125 40.125 42.84375 
Q 36.46875 48.484375 30.078125 48.484375 
Q 23.640625 48.484375 19.96875 42.84375 
Q 16.3125 37.203125 16.3125 27.296875 
Q 16.3125 17.390625 19.96875 11.75 
Q 23.640625 6.109375 30.078125 6.109375 
Q 36.46875 6.109375 40.125 11.75 
Q 43.796875 17.390625 43.796875 27.296875 
z
M 16.3125 46.390625 
Q 18.84375 51.265625 22.71875 53.625 
Q 26.609375 56 32.03125 56 
Q 41.015625 56 46.609375 48.09375 
Q 52.203125 40.1875 52.203125 27.296875 
Q 52.203125 14.40625 46.609375 6.484375 
Q 41.015625 -1.421875 32.03125 -1.421875 
Q 26.609375 -1.421875 22.71875 0.953125 
Q 18.84375 3.328125 16.3125 8.203125 
L 16.3125 0 
L 8.15625 0 
L 8.15625 75.984375 
L 16.3125 75.984375 
z
" id="DejaVuSansCondensed-98"/>
      <path d="M 53.5625 10.40625 
L 53.5625 29.984375 
L 39.0625 29.984375 
L 39.0625 38.09375 
L 62.359375 38.09375 
L 62.359375 6.78125 
Q 57.234375 2.734375 51.03125 0.65625 
Q 44.828125 -1.421875 37.796875 -1.421875 
Q 22.40625 -1.421875 13.734375 8.5625 
Q 5.078125 18.5625 5.078125 36.375 
Q 5.078125 54.25 13.734375 64.234375 
Q 22.40625 74.21875 37.796875 74.21875 
Q 44.1875 74.21875 49.96875 72.453125 
Q 55.765625 70.703125 60.640625 67.28125 
L 60.640625 56.78125 
Q 55.71875 61.421875 50.171875 63.765625 
Q 44.625 66.109375 38.53125 66.109375 
Q 26.515625 66.109375 20.453125 58.640625 
Q 14.40625 51.171875 14.40625 36.375 
Q 14.40625 21.625 20.453125 14.15625 
Q 26.515625 6.6875 38.53125 6.6875 
Q 43.265625 6.6875 46.953125 7.59375 
Q 50.640625 8.5 53.5625 10.40625 
z
" id="DejaVuSansCondensed-71"/>
     </defs>
     <use xlink:href="#DejaVuSansCondensed-67"/>
     <use x="62.841797" xlink:href="#DejaVuSansCondensed-111"/>
     <use x="117.871094" xlink:href="#DejaVuSansCondensed-110"/>
     <use x="174.902344" xlink:href="#DejaVuSansCondensed-115"/>
     <use x="221.777344" xlink:href="#DejaVuSansCondensed-116"/>
     <use x="257.03125" xlink:href="#DejaVuSansCondensed-114"/>
     <use x="293.994141" xlink:href="#DejaVuSansCondensed-117"/>
     <use x="351.025391" xlink:href="#DejaVuSansCondensed-99"/>
     <use x="400.488281" xlink:href="#DejaVuSansCondensed-116"/>
     <use x="435.742188" xlink:href="#DejaVuSansCondensed-32"/>
     <use x="464.306641" xlink:href="#DejaVuSansCondensed-82"/>
     <use x="524.556641" xlink:href="#DejaVuSansCondensed-97"/>
     <use x="579.683594" xlink:href="#DejaVuSansCondensed-110"/>
     <use x="636.714844" xlink:href="#DejaVuSansCondensed-103"/>
     <use x="693.84375" xlink:href="#DejaVuSansCondensed-101"/>
     <use x="749.214844" xlink:href="#DejaVuSansCondensed-115"/>
     <use x="796.089844" xlink:href="#DejaVuSansCondensed-32"/>
     <use x="824.654297" xlink:href="#DejaVuSansCondensed-98"/>
     <use x="881.783203" xlink:href="#DejaVuSansCondensed-121"/>
     <use x="935.005859" xlink:href="#DejaVuSansCondensed-32"/>
     <use x="963.570312" xlink:href="#DejaVuSansCondensed-71"/>
     <use x="1033.296875" xlink:href="#DejaVuSansCondensed-101"/>
     <use x="1088.667969" xlink:href="#DejaVuSansCondensed-110"/>
     <use x="1145.699219" xlink:href="#DejaVuSansCondensed-100"/>
     <use x="1202.828125" xlink:href="#DejaVuSansCondensed-101"/>
     <use x="1258.199219" xlink:href="#DejaVuSansCondensed-114"/>
    </g>
   </g>
   <g id="legend_1">
    <g id="patch_247">
     <path d="M 71.38 65.82208 
L 395.145312 65.82208 
Q 397.945312 65.82208 397.945312 63.02208 
L 397.945312 43.872705 
Q 397.945312 41.072705 395.145312 41.072705 
L 71.38 41.072705 
Q 68.58 41.072705 68.58 43.872705 
L 68.58 63.02208 
Q 68.58 65.82208 71.38 65.82208 
z
" style="fill:#ffffff;opacity:0.8;stroke:#cccccc;stroke-linejoin:miter;"/>
    </g>
    <g id="patch_248">
     <path d="M 74.18 57.310518 
L 102.18 57.310518 
L 102.18 47.510518 
L 74.18 47.510518 
z
" style="fill:#9900bb;"/>
    </g>
    <g id="text_23">
     <!-- Men -->
     <g transform="translate(113.38 57.310518)scale(0.14 -0.14)">
      <use xlink:href="#DejaVuSansCondensed-77"/>
      <use x="77.636719" xlink:href="#DejaVuSansCondensed-101"/>
      <use x="133.007812" xlink:href="#DejaVuSansCondensed-110"/>
     </g>
    </g>
    <g id="patch_249">
     <path d="M 167.986562 57.310518 
L 195.986562 57.310518 
L 195.986562 47.510518 
L 167.986562 47.510518 
z
" style="fill:#ffbb00;"/>
    </g>
    <g id="text_24">
     <!-- Women -->
     <g transform="translate(207.186562 57.310518)scale(0.14 -0.14)">
      <defs>
       <path d="M 2.984375 72.90625 
L 11.96875 72.90625 
L 25.734375 11.28125 
L 39.5 72.90625 
L 49.46875 72.90625 
L 63.28125 11.28125 
L 77.046875 72.90625 
L 86.03125 72.90625 
L 69.578125 0 
L 58.40625 0 
L 44.578125 63.28125 
L 30.5625 0 
L 19.4375 0 
z
" id="DejaVuSansCondensed-87"/>
      </defs>
      <use xlink:href="#DejaVuSansCondensed-87"/>
      <use x="83.089844" xlink:href="#DejaVuSansCondensed-111"/>
      <use x="138.119141" xlink:href="#DejaVuSansCondensed-109"/>
      <use x="225.765625" xlink:href="#DejaVuSansCondensed-101"/>
      <use x="281.136719" xlink:href="#DejaVuSansCondensed-110"/>
     </g>
    </g>
    <g id="patch_250">
     <path d="M 282.530625 57.310518 
L 310.530625 57.310518 
L 310.530625 47.510518 
L 282.530625 47.510518 
z
" style="fill:#0066cc;"/>
    </g>
    <g id="text_25">
     <!-- Ambiguous -->
     <g transform="translate(321.730625 57.310518)scale(0.14 -0.14)">
      <defs>
       <path d="M 30.765625 63.1875 
L 18.703125 26.90625 
L 42.875 26.90625 
z
M 25.734375 72.90625 
L 35.84375 72.90625 
L 60.84375 0 
L 51.609375 0 
L 45.609375 18.703125 
L 16.015625 18.703125 
L 10.0625 0 
L 0.6875 0 
z
" id="DejaVuSansCondensed-65"/>
      </defs>
      <use xlink:href="#DejaVuSansCondensed-65"/>
      <use x="61.523438" xlink:href="#DejaVuSansCondensed-109"/>
      <use x="149.169922" xlink:href="#DejaVuSansCondensed-98"/>
      <use x="206.298828" xlink:href="#DejaVuSansCondensed-105"/>
      <use x="231.298828" xlink:href="#DejaVuSansCondensed-103"/>
      <use x="288.427734" xlink:href="#DejaVuSansCondensed-117"/>
      <use x="345.458984" xlink:href="#DejaVuSansCondensed-111"/>
      <use x="400.488281" xlink:href="#DejaVuSansCondensed-117"/>
      <use x="457.519531" xlink:href="#DejaVuSansCondensed-115"/>
     </g>
    </g>
   </g>
  </g>
 </g>
 <defs>
  <clipPath id="p49a9996a8e">
   <rect height="205.792" width="380.2" x="61.58" y="74.88"/>
  </clipPath>
 </defs>
</svg>
