<?xml version="1.0" encoding="utf-8" standalone="no"?>
<!DOCTYPE svg PUBLIC "-//W3C//DTD SVG 1.1//EN"
  "http://www.w3.org/Graphics/SVG/1.1/DTD/svg11.dtd">
<!-- Created with matplotlib (https://matplotlib.org/) -->
<svg height="345.6pt" version="1.1" viewBox="0 0 460.8 345.6" width="460.8pt" xmlns="http://www.w3.org/2000/svg" xmlns:xlink="http://www.w3.org/1999/xlink">
 <metadata>
  <rdf:RDF xmlns:cc="http://creativecommons.org/ns#" xmlns:dc="http://purl.org/dc/elements/1.1/" xmlns:rdf="http://www.w3.org/1999/02/22-rdf-syntax-ns#">
   <cc:Work>
    <dc:type rdf:resource="http://purl.org/dc/dcmitype/StillImage"/>
    <dc:date>2020-08-07T17:15:19.050463</dc:date>
    <dc:format>image/svg+xml</dc:format>
    <dc:creator>
     <cc:Agent>
      <dc:title>Matplotlib v3.3.0, https://matplotlib.org/</dc:title>
     </cc:Agent>
    </dc:creator>
   </cc:Work>
  </rdf:RDF>
 </metadata>
 <defs>
  <style type="text/css">*{stroke-linecap:butt;stroke-linejoin:round;}</style>
 </defs>
 <g id="figure_1">
  <g id="axes_1">
   <g id="patch_1">
    <path d="M 187.54 321.58 
L 440.28 321.58 
L 440.28 47.24 
L 187.54 47.24 
z
" style="fill:#ffffff;"/>
   </g>
   <g id="patch_2">
    <path clip-path="url(#p084c4a7e8a)" d="M 187.54 309.11 
L 188.609799 309.11 
L 188.609799 288.750816 
L 187.54 288.750816 
z
" style="fill:#008844;"/>
   </g>
   <g id="patch_3">
    <path clip-path="url(#p084c4a7e8a)" d="M 187.54 283.66102 
L 188.609799 283.66102 
L 188.609799 263.301837 
L 187.54 263.301837 
z
" style="fill:#008844;"/>
   </g>
   <g id="patch_4">
    <path clip-path="url(#p084c4a7e8a)" d="M 187.54 258.212041 
L 189.679598 258.212041 
L 189.679598 237.852857 
L 187.54 237.852857 
z
" style="fill:#008844;"/>
   </g>
   <g id="patch_5">
    <path clip-path="url(#p084c4a7e8a)" d="M 187.54 232.763061 
L 251.727937 232.763061 
L 251.727937 212.403878 
L 187.54 212.403878 
z
" style="fill:#008844;"/>
   </g>
   <g id="patch_6">
    <path clip-path="url(#p084c4a7e8a)" d="M 187.54 207.314082 
L 204.656783 207.314082 
L 204.656783 186.954898 
L 187.54 186.954898 
z
" style="fill:#008844;"/>
   </g>
   <g id="patch_7">
    <path clip-path="url(#p084c4a7e8a)" d="M 187.54 181.865102 
L 231.401757 181.865102 
L 231.401757 161.505918 
L 187.54 161.505918 
z
" style="fill:#008844;"/>
   </g>
   <g id="patch_8">
    <path clip-path="url(#p084c4a7e8a)" d="M 187.54 156.416122 
L 281.682307 156.416122 
L 281.682307 136.056939 
L 187.54 136.056939 
z
" style="fill:#008844;"/>
   </g>
   <g id="patch_9">
    <path clip-path="url(#p084c4a7e8a)" d="M 187.54 130.967143 
L 428.244762 130.967143 
L 428.244762 110.607959 
L 187.54 110.607959 
z
" style="fill:#008844;"/>
   </g>
   <g id="patch_10">
    <path clip-path="url(#p084c4a7e8a)" d="M 187.54 105.518163 
L 241.029947 105.518163 
L 241.029947 85.15898 
L 187.54 85.15898 
z
" style="fill:#008844;"/>
   </g>
   <g id="patch_11">
    <path clip-path="url(#p084c4a7e8a)" d="M 187.54 80.069184 
L 189.679598 80.069184 
L 189.679598 59.71 
L 187.54 59.71 
z
" style="fill:#008844;"/>
   </g>
   <g id="matplotlib.axis_1">
    <g id="ytick_1">
     <g id="line2d_1">
      <defs>
       <path d="M 0 0 
L -3.5 0 
" id="m3b3eb527c5" style="stroke:#000000;stroke-width:0.8;"/>
      </defs>
      <g>
       <use style="stroke:#000000;stroke-width:0.8;" x="187.54" xlink:href="#m3b3eb527c5" y="298.930408"/>
      </g>
     </g>
     <g id="text_1">
      <!-- &lt;no answer&gt; -->
      <g transform="translate(63.431719 306.148924)scale(0.19 -0.19)">
       <defs>
        <path d="M 65.875 49.21875 
L 20.515625 31.296875 
L 65.875 13.484375 
L 65.875 4.59375 
L 9.515625 27.296875 
L 9.515625 35.40625 
L 65.875 58.109375 
z
" id="DejaVuSansCondensed-60"/>
        <path d="M 49.421875 33.015625 
L 49.421875 0 
L 41.3125 0 
L 41.3125 32.71875 
Q 41.3125 40.484375 38.578125 44.328125 
Q 35.84375 48.1875 30.421875 48.1875 
Q 23.875 48.1875 20.09375 43.546875 
Q 16.3125 38.921875 16.3125 30.90625 
L 16.3125 0 
L 8.15625 0 
L 8.15625 54.6875 
L 16.3125 54.6875 
L 16.3125 46.1875 
Q 19.1875 51.125 23.109375 53.5625 
Q 27.046875 56 32.234375 56 
Q 40.671875 56 45.046875 50.171875 
Q 49.421875 44.34375 49.421875 33.015625 
z
" id="DejaVuSansCondensed-110"/>
        <path d="M 27.546875 48.390625 
Q 21.046875 48.390625 17.265625 42.75 
Q 13.484375 37.109375 13.484375 27.296875 
Q 13.484375 17.484375 17.234375 11.84375 
Q 21 6.203125 27.546875 6.203125 
Q 34.03125 6.203125 37.78125 11.859375 
Q 41.546875 17.53125 41.546875 27.296875 
Q 41.546875 37.015625 37.78125 42.703125 
Q 34.03125 48.390625 27.546875 48.390625 
z
M 27.546875 56 
Q 38.09375 56 44.109375 48.375 
Q 50.140625 40.765625 50.140625 27.296875 
Q 50.140625 13.875 44.109375 6.21875 
Q 38.09375 -1.421875 27.546875 -1.421875 
Q 16.9375 -1.421875 10.953125 6.21875 
Q 4.984375 13.875 4.984375 27.296875 
Q 4.984375 40.765625 10.953125 48.375 
Q 16.9375 56 27.546875 56 
z
" id="DejaVuSansCondensed-111"/>
        <path id="DejaVuSansCondensed-32"/>
        <path d="M 30.859375 27.484375 
Q 21.046875 27.484375 17.265625 25 
Q 13.484375 22.515625 13.484375 16.5 
Q 13.484375 11.71875 16.3125 8.90625 
Q 19.140625 6.109375 24.03125 6.109375 
Q 30.765625 6.109375 34.8125 11.40625 
Q 38.875 16.703125 38.875 25.484375 
L 38.875 27.484375 
z
M 46.96875 31.203125 
L 46.96875 0 
L 38.875 0 
L 38.875 8.296875 
Q 36.140625 3.328125 32 0.953125 
Q 27.875 -1.421875 21.875 -1.421875 
Q 14.3125 -1.421875 9.859375 3.296875 
Q 5.421875 8.015625 5.421875 15.921875 
Q 5.421875 25.140625 10.953125 29.828125 
Q 16.5 34.515625 27.546875 34.515625 
L 38.875 34.515625 
L 38.875 35.40625 
Q 38.875 41.609375 35.203125 45 
Q 31.546875 48.390625 24.90625 48.390625 
Q 20.703125 48.390625 16.703125 47.265625 
Q 12.703125 46.140625 8.984375 43.890625 
L 8.984375 52.203125 
Q 13.421875 54.109375 17.59375 55.046875 
Q 21.78125 56 25.734375 56 
Q 36.421875 56 41.6875 49.84375 
Q 46.96875 43.703125 46.96875 31.203125 
z
" id="DejaVuSansCondensed-97"/>
        <path d="M 39.84375 53.078125 
L 39.84375 44.578125 
Q 36.421875 46.53125 32.734375 47.5 
Q 29.046875 48.484375 25.09375 48.484375 
Q 19.09375 48.484375 16.0625 46.4375 
Q 13.03125 44.390625 13.03125 40.28125 
Q 13.03125 37.15625 15.203125 35.375 
Q 17.390625 33.59375 23.875 31.984375 
L 26.609375 31.296875 
Q 35.25 29.25 38.859375 25.515625 
Q 42.484375 21.78125 42.484375 15.09375 
Q 42.484375 7.46875 37.0625 3.015625 
Q 31.640625 -1.421875 22.171875 -1.421875 
Q 18.21875 -1.421875 13.921875 -0.5625 
Q 9.625 0.296875 4.890625 2 
L 4.890625 11.28125 
Q 9.375 8.6875 13.71875 7.390625 
Q 18.0625 6.109375 22.3125 6.109375 
Q 28.03125 6.109375 31.109375 8.28125 
Q 34.1875 10.453125 34.1875 14.40625 
Q 34.1875 18.0625 31.953125 20.015625 
Q 29.734375 21.96875 22.21875 23.78125 
L 19.4375 24.515625 
Q 11.921875 26.265625 8.5625 29.90625 
Q 5.21875 33.546875 5.21875 39.890625 
Q 5.21875 47.609375 10.15625 51.796875 
Q 15.09375 56 24.125 56 
Q 28.609375 56 32.5625 55.265625 
Q 36.53125 54.546875 39.84375 53.078125 
z
" id="DejaVuSansCondensed-115"/>
        <path d="M 3.765625 54.6875 
L 11.859375 54.6875 
L 21.96875 12.015625 
L 32.03125 54.6875 
L 41.546875 54.6875 
L 51.65625 12.015625 
L 61.71875 54.6875 
L 69.828125 54.6875 
L 56.9375 0 
L 47.40625 0 
L 36.8125 44.828125 
L 26.171875 0 
L 16.65625 0 
z
" id="DejaVuSansCondensed-119"/>
        <path d="M 50.59375 29.59375 
L 50.59375 25.203125 
L 13.375 25.203125 
Q 13.921875 15.921875 18.4375 11.0625 
Q 22.953125 6.203125 30.953125 6.203125 
Q 35.640625 6.203125 40.015625 7.46875 
Q 44.390625 8.734375 48.6875 11.28125 
L 48.6875 2.78125 
Q 44.34375 0.734375 39.765625 -0.34375 
Q 35.203125 -1.421875 30.515625 -1.421875 
Q 18.703125 -1.421875 11.84375 6.1875 
Q 4.984375 13.8125 4.984375 26.8125 
Q 4.984375 40.234375 11.5 48.109375 
Q 18.015625 56 29.109375 56 
Q 39.015625 56 44.796875 48.890625 
Q 50.59375 41.796875 50.59375 29.59375 
z
M 42.484375 32.234375 
Q 42.390625 39.59375 38.765625 43.984375 
Q 35.15625 48.390625 29.203125 48.390625 
Q 22.40625 48.390625 18.328125 44.140625 
Q 14.265625 39.890625 13.671875 32.171875 
z
" id="DejaVuSansCondensed-101"/>
        <path d="M 37.015625 46.296875 
Q 35.640625 47.171875 34.03125 47.578125 
Q 32.421875 48 30.515625 48 
Q 23.640625 48 19.96875 43.046875 
Q 16.3125 38.09375 16.3125 28.8125 
L 16.3125 0 
L 8.15625 0 
L 8.15625 54.6875 
L 16.3125 54.6875 
L 16.3125 46.1875 
Q 18.84375 51.171875 22.9375 53.578125 
Q 27.046875 56 32.859375 56 
Q 33.6875 56 34.71875 55.875 
Q 35.75 55.765625 36.96875 55.515625 
z
" id="DejaVuSansCondensed-114"/>
        <path d="M 9.515625 49.21875 
L 9.515625 58.109375 
L 65.875 35.40625 
L 65.875 27.296875 
L 9.515625 4.59375 
L 9.515625 13.484375 
L 54.78125 31.296875 
z
" id="DejaVuSansCondensed-62"/>
       </defs>
       <use xlink:href="#DejaVuSansCondensed-60"/>
       <use x="75.390625" xlink:href="#DejaVuSansCondensed-110"/>
       <use x="132.421875" xlink:href="#DejaVuSansCondensed-111"/>
       <use x="187.451172" xlink:href="#DejaVuSansCondensed-32"/>
       <use x="216.015625" xlink:href="#DejaVuSansCondensed-97"/>
       <use x="271.142578" xlink:href="#DejaVuSansCondensed-110"/>
       <use x="328.173828" xlink:href="#DejaVuSansCondensed-115"/>
       <use x="375.048828" xlink:href="#DejaVuSansCondensed-119"/>
       <use x="448.632812" xlink:href="#DejaVuSansCondensed-101"/>
       <use x="504.003906" xlink:href="#DejaVuSansCondensed-114"/>
       <use x="540.966797" xlink:href="#DejaVuSansCondensed-62"/>
      </g>
     </g>
    </g>
    <g id="ytick_2">
     <g id="line2d_2">
      <g>
       <use style="stroke:#000000;stroke-width:0.8;" x="187.54" xlink:href="#m3b3eb527c5" y="273.481429"/>
      </g>
     </g>
     <g id="text_2">
      <!-- Primary school -->
      <g transform="translate(54.299844 280.699944)scale(0.19 -0.19)">
       <defs>
        <path d="M 17.71875 64.796875 
L 17.71875 37.40625 
L 28.859375 37.40625 
Q 35.0625 37.40625 38.453125 40.96875 
Q 41.84375 44.53125 41.84375 51.125 
Q 41.84375 57.671875 38.453125 61.234375 
Q 35.0625 64.796875 28.859375 64.796875 
z
M 8.84375 72.90625 
L 28.859375 72.90625 
Q 39.890625 72.90625 45.53125 67.359375 
Q 51.171875 61.8125 51.171875 51.125 
Q 51.171875 40.328125 45.53125 34.8125 
Q 39.890625 29.296875 28.859375 29.296875 
L 17.71875 29.296875 
L 17.71875 0 
L 8.84375 0 
z
" id="DejaVuSansCondensed-80"/>
        <path d="M 8.5 54.6875 
L 16.546875 54.6875 
L 16.546875 0 
L 8.5 0 
z
M 8.5 75.984375 
L 16.546875 75.984375 
L 16.546875 64.59375 
L 8.5 64.59375 
z
" id="DejaVuSansCondensed-105"/>
        <path d="M 46.78125 44.1875 
Q 49.859375 50.25 54.046875 53.125 
Q 58.25 56 63.96875 56 
Q 71.6875 56 75.859375 50.015625 
Q 80.03125 44.046875 80.03125 33.015625 
L 80.03125 0 
L 71.875 0 
L 71.875 32.71875 
Q 71.875 40.578125 69.375 44.375 
Q 66.890625 48.1875 61.71875 48.1875 
Q 55.46875 48.1875 51.796875 43.546875 
Q 48.140625 38.921875 48.140625 30.90625 
L 48.140625 0 
L 40.046875 0 
L 40.046875 32.71875 
Q 40.046875 40.625 37.53125 44.40625 
Q 35.015625 48.1875 29.78125 48.1875 
Q 23.578125 48.1875 19.9375 43.53125 
Q 16.3125 38.875 16.3125 30.90625 
L 16.3125 0 
L 8.15625 0 
L 8.15625 54.6875 
L 16.3125 54.6875 
L 16.3125 46.1875 
Q 19.09375 51.21875 22.953125 53.609375 
Q 26.8125 56 32.125 56 
Q 37.5 56 41.25 52.96875 
Q 45.015625 49.953125 46.78125 44.1875 
z
" id="DejaVuSansCondensed-109"/>
        <path d="M 28.953125 -5.078125 
Q 25.53125 -14.84375 22.28125 -17.8125 
Q 19.046875 -20.796875 13.578125 -20.796875 
L 7.125 -20.796875 
L 7.125 -13.28125 
L 11.859375 -13.28125 
Q 15.1875 -13.28125 17.03125 -11.515625 
Q 18.890625 -9.765625 21.140625 -3.21875 
L 22.609375 0.875 
L 2.6875 54.6875 
L 11.234375 54.6875 
L 26.609375 11.921875 
L 42 54.6875 
L 50.59375 54.6875 
z
" id="DejaVuSansCondensed-121"/>
        <path d="M 43.890625 52.59375 
L 43.890625 44.1875 
Q 40.484375 46.296875 37.03125 47.34375 
Q 33.59375 48.390625 30.078125 48.390625 
Q 22.171875 48.390625 17.828125 42.84375 
Q 13.484375 37.3125 13.484375 27.296875 
Q 13.484375 17.28125 17.828125 11.734375 
Q 22.171875 6.203125 30.078125 6.203125 
Q 33.59375 6.203125 37.03125 7.25 
Q 40.484375 8.296875 43.890625 10.40625 
L 43.890625 2.09375 
Q 40.53125 0.34375 36.890625 -0.53125 
Q 33.25 -1.421875 29.203125 -1.421875 
Q 18.0625 -1.421875 11.515625 6.34375 
Q 4.984375 14.109375 4.984375 27.296875 
Q 4.984375 40.671875 11.59375 48.328125 
Q 18.21875 56 29.6875 56 
Q 33.453125 56 37.015625 55.140625 
Q 40.578125 54.296875 43.890625 52.59375 
z
" id="DejaVuSansCondensed-99"/>
        <path d="M 49.421875 33.015625 
L 49.421875 0 
L 41.3125 0 
L 41.3125 32.71875 
Q 41.3125 40.484375 38.578125 44.328125 
Q 35.84375 48.1875 30.421875 48.1875 
Q 23.875 48.1875 20.09375 43.546875 
Q 16.3125 38.921875 16.3125 30.90625 
L 16.3125 0 
L 8.15625 0 
L 8.15625 75.984375 
L 16.3125 75.984375 
L 16.3125 46.1875 
Q 19.1875 51.125 23.109375 53.5625 
Q 27.046875 56 32.234375 56 
Q 40.671875 56 45.046875 50.171875 
Q 49.421875 44.34375 49.421875 33.015625 
z
" id="DejaVuSansCondensed-104"/>
        <path d="M 8.5 75.984375 
L 16.546875 75.984375 
L 16.546875 0 
L 8.5 0 
z
" id="DejaVuSansCondensed-108"/>
       </defs>
       <use xlink:href="#DejaVuSansCondensed-80"/>
       <use x="52.498047" xlink:href="#DejaVuSansCondensed-114"/>
       <use x="89.460938" xlink:href="#DejaVuSansCondensed-105"/>
       <use x="114.460938" xlink:href="#DejaVuSansCondensed-109"/>
       <use x="202.107422" xlink:href="#DejaVuSansCondensed-97"/>
       <use x="257.234375" xlink:href="#DejaVuSansCondensed-114"/>
       <use x="294.197266" xlink:href="#DejaVuSansCondensed-121"/>
       <use x="347.419922" xlink:href="#DejaVuSansCondensed-32"/>
       <use x="375.984375" xlink:href="#DejaVuSansCondensed-115"/>
       <use x="422.859375" xlink:href="#DejaVuSansCondensed-99"/>
       <use x="472.322266" xlink:href="#DejaVuSansCondensed-104"/>
       <use x="529.353516" xlink:href="#DejaVuSansCondensed-111"/>
       <use x="584.382812" xlink:href="#DejaVuSansCondensed-111"/>
       <use x="639.412109" xlink:href="#DejaVuSansCondensed-108"/>
      </g>
     </g>
    </g>
    <g id="ytick_3">
     <g id="line2d_3">
      <g>
       <use style="stroke:#000000;stroke-width:0.8;" x="187.54" xlink:href="#m3b3eb527c5" y="248.032449"/>
      </g>
     </g>
     <g id="text_3">
      <!-- Some high school -->
      <g transform="translate(29.124844 255.250965)scale(0.19 -0.19)">
       <defs>
        <path d="M 48.140625 70.515625 
L 48.140625 60.890625 
Q 43.109375 63.578125 38.609375 64.890625 
Q 34.125 66.21875 29.984375 66.21875 
Q 22.703125 66.21875 18.765625 63.09375 
Q 14.84375 59.96875 14.84375 54.203125 
Q 14.84375 49.359375 17.453125 46.890625 
Q 20.0625 44.4375 27.390625 42.921875 
L 32.71875 41.703125 
Q 42.671875 39.59375 47.375 34.296875 
Q 52.09375 29 52.09375 20.125 
Q 52.09375 9.515625 45.71875 4.046875 
Q 39.359375 -1.421875 27 -1.421875 
Q 22.3125 -1.421875 17.0625 -0.25 
Q 11.8125 0.921875 6.203125 3.21875 
L 6.203125 13.375 
Q 11.625 10.015625 16.796875 8.296875 
Q 21.96875 6.59375 27 6.59375 
Q 34.578125 6.59375 38.71875 9.90625 
Q 42.875 13.234375 42.875 19.390625 
Q 42.875 24.75 39.890625 27.78125 
Q 36.921875 30.8125 30.125 32.328125 
L 24.75 33.5 
Q 14.796875 35.6875 10.375 40.375 
Q 5.953125 45.0625 5.953125 53.421875 
Q 5.953125 63.09375 12.078125 68.65625 
Q 18.21875 74.21875 28.953125 74.21875 
Q 33.59375 74.21875 38.375 73.28125 
Q 43.171875 72.359375 48.140625 70.515625 
z
" id="DejaVuSansCondensed-83"/>
        <path d="M 40.875 27.984375 
Q 40.875 37.75 37.234375 43.109375 
Q 33.59375 48.484375 27.046875 48.484375 
Q 20.5625 48.484375 16.9375 43.109375 
Q 13.328125 37.75 13.328125 27.984375 
Q 13.328125 18.265625 16.9375 12.890625 
Q 20.5625 7.515625 27.046875 7.515625 
Q 33.59375 7.515625 37.234375 12.890625 
Q 40.875 18.265625 40.875 27.984375 
z
M 48.96875 6.78125 
Q 48.96875 -7.171875 43.375 -13.984375 
Q 37.796875 -20.796875 26.265625 -20.796875 
Q 22.015625 -20.796875 18.234375 -20.09375 
Q 14.453125 -19.390625 10.890625 -17.921875 
L 10.890625 -9.1875 
Q 14.453125 -11.328125 17.921875 -12.34375 
Q 21.390625 -13.375 25 -13.375 
Q 32.953125 -13.375 36.90625 -8.765625 
Q 40.875 -4.15625 40.875 5.171875 
L 40.875 9.625 
Q 38.375 4.78125 34.46875 2.390625 
Q 30.5625 0 25.09375 0 
Q 16.015625 0 10.5 7.65625 
Q 4.984375 15.328125 4.984375 27.984375 
Q 4.984375 40.671875 10.5 48.328125 
Q 16.015625 56 25.09375 56 
Q 30.5625 56 34.46875 53.609375 
Q 38.375 51.21875 40.875 46.390625 
L 40.875 54.6875 
L 48.96875 54.6875 
z
" id="DejaVuSansCondensed-103"/>
       </defs>
       <use xlink:href="#DejaVuSansCondensed-83"/>
       <use x="57.128906" xlink:href="#DejaVuSansCondensed-111"/>
       <use x="112.158203" xlink:href="#DejaVuSansCondensed-109"/>
       <use x="199.804688" xlink:href="#DejaVuSansCondensed-101"/>
       <use x="255.175781" xlink:href="#DejaVuSansCondensed-32"/>
       <use x="283.740234" xlink:href="#DejaVuSansCondensed-104"/>
       <use x="340.771484" xlink:href="#DejaVuSansCondensed-105"/>
       <use x="365.771484" xlink:href="#DejaVuSansCondensed-103"/>
       <use x="422.900391" xlink:href="#DejaVuSansCondensed-104"/>
       <use x="479.931641" xlink:href="#DejaVuSansCondensed-32"/>
       <use x="508.496094" xlink:href="#DejaVuSansCondensed-115"/>
       <use x="555.371094" xlink:href="#DejaVuSansCondensed-99"/>
       <use x="604.833984" xlink:href="#DejaVuSansCondensed-104"/>
       <use x="661.865234" xlink:href="#DejaVuSansCondensed-111"/>
       <use x="716.894531" xlink:href="#DejaVuSansCondensed-111"/>
       <use x="771.923828" xlink:href="#DejaVuSansCondensed-108"/>
      </g>
     </g>
    </g>
    <g id="ytick_4">
     <g id="line2d_4">
      <g>
       <use style="stroke:#000000;stroke-width:0.8;" x="187.54" xlink:href="#m3b3eb527c5" y="222.583469"/>
      </g>
     </g>
     <g id="text_4">
      <!-- High school -->
      <g transform="translate(81.012656 229.801985)scale(0.19 -0.19)">
       <defs>
        <path d="M 8.84375 72.90625 
L 17.71875 72.90625 
L 17.71875 43.015625 
L 49.953125 43.015625 
L 49.953125 72.90625 
L 58.84375 72.90625 
L 58.84375 0 
L 49.953125 0 
L 49.953125 34.71875 
L 17.71875 34.71875 
L 17.71875 0 
L 8.84375 0 
z
" id="DejaVuSansCondensed-72"/>
       </defs>
       <use xlink:href="#DejaVuSansCondensed-72"/>
       <use x="67.675781" xlink:href="#DejaVuSansCondensed-105"/>
       <use x="92.675781" xlink:href="#DejaVuSansCondensed-103"/>
       <use x="149.804688" xlink:href="#DejaVuSansCondensed-104"/>
       <use x="206.835938" xlink:href="#DejaVuSansCondensed-32"/>
       <use x="235.400391" xlink:href="#DejaVuSansCondensed-115"/>
       <use x="282.275391" xlink:href="#DejaVuSansCondensed-99"/>
       <use x="331.738281" xlink:href="#DejaVuSansCondensed-104"/>
       <use x="388.769531" xlink:href="#DejaVuSansCondensed-111"/>
       <use x="443.798828" xlink:href="#DejaVuSansCondensed-111"/>
       <use x="498.828125" xlink:href="#DejaVuSansCondensed-108"/>
      </g>
     </g>
    </g>
    <g id="ytick_5">
     <g id="line2d_5">
      <g>
       <use style="stroke:#000000;stroke-width:0.8;" x="187.54" xlink:href="#m3b3eb527c5" y="197.13449"/>
      </g>
     </g>
     <g id="text_5">
      <!-- Vocational training -->
      <g transform="translate(20.381875 204.353005)scale(0.19 -0.19)">
       <defs>
        <path d="M 25.734375 0 
L 0.6875 72.90625 
L 9.96875 72.90625 
L 30.765625 11.53125 
L 51.609375 72.90625 
L 60.84375 72.90625 
L 35.84375 0 
z
" id="DejaVuSansCondensed-86"/>
        <path d="M 16.5 70.21875 
L 16.5 54.6875 
L 33.15625 54.6875 
L 33.15625 47.703125 
L 16.5 47.703125 
L 16.5 18.015625 
Q 16.5 11.328125 18.140625 9.421875 
Q 19.78125 7.515625 24.8125 7.515625 
L 33.15625 7.515625 
L 33.15625 0 
L 24.8125 0 
Q 15.484375 0 11.90625 3.875 
Q 8.34375 7.765625 8.34375 18.015625 
L 8.34375 47.703125 
L 2.4375 47.703125 
L 2.4375 54.6875 
L 8.34375 54.6875 
L 8.34375 70.21875 
z
" id="DejaVuSansCondensed-116"/>
       </defs>
       <use xlink:href="#DejaVuSansCondensed-86"/>
       <use x="53.773438" xlink:href="#DejaVuSansCondensed-111"/>
       <use x="108.802734" xlink:href="#DejaVuSansCondensed-99"/>
       <use x="158.265625" xlink:href="#DejaVuSansCondensed-97"/>
       <use x="213.392578" xlink:href="#DejaVuSansCondensed-116"/>
       <use x="248.646484" xlink:href="#DejaVuSansCondensed-105"/>
       <use x="273.646484" xlink:href="#DejaVuSansCondensed-111"/>
       <use x="328.675781" xlink:href="#DejaVuSansCondensed-110"/>
       <use x="385.707031" xlink:href="#DejaVuSansCondensed-97"/>
       <use x="440.833984" xlink:href="#DejaVuSansCondensed-108"/>
       <use x="465.833984" xlink:href="#DejaVuSansCondensed-32"/>
       <use x="494.398438" xlink:href="#DejaVuSansCondensed-116"/>
       <use x="529.652344" xlink:href="#DejaVuSansCondensed-114"/>
       <use x="566.615234" xlink:href="#DejaVuSansCondensed-97"/>
       <use x="621.742188" xlink:href="#DejaVuSansCondensed-105"/>
       <use x="646.742188" xlink:href="#DejaVuSansCondensed-110"/>
       <use x="703.773438" xlink:href="#DejaVuSansCondensed-105"/>
       <use x="728.773438" xlink:href="#DejaVuSansCondensed-110"/>
       <use x="785.804688" xlink:href="#DejaVuSansCondensed-103"/>
      </g>
     </g>
    </g>
    <g id="ytick_6">
     <g id="line2d_6">
      <g>
       <use style="stroke:#000000;stroke-width:0.8;" x="187.54" xlink:href="#m3b3eb527c5" y="171.68551"/>
      </g>
     </g>
     <g id="text_6">
      <!-- Associate degree -->
      <g transform="translate(33.444375 178.904026)scale(0.19 -0.19)">
       <defs>
        <path d="M 30.765625 63.1875 
L 18.703125 26.90625 
L 42.875 26.90625 
z
M 25.734375 72.90625 
L 35.84375 72.90625 
L 60.84375 0 
L 51.609375 0 
L 45.609375 18.703125 
L 16.015625 18.703125 
L 10.0625 0 
L 0.6875 0 
z
" id="DejaVuSansCondensed-65"/>
        <path d="M 40.875 46.390625 
L 40.875 75.984375 
L 48.96875 75.984375 
L 48.96875 0 
L 40.875 0 
L 40.875 8.203125 
Q 38.328125 3.328125 34.4375 0.953125 
Q 30.5625 -1.421875 25.09375 -1.421875 
Q 16.15625 -1.421875 10.5625 6.484375 
Q 4.984375 14.40625 4.984375 27.296875 
Q 4.984375 40.1875 10.5625 48.09375 
Q 16.15625 56 25.09375 56 
Q 30.5625 56 34.4375 53.625 
Q 38.328125 51.265625 40.875 46.390625 
z
M 13.328125 27.296875 
Q 13.328125 17.390625 16.984375 11.75 
Q 20.65625 6.109375 27.046875 6.109375 
Q 33.5 6.109375 37.1875 11.75 
Q 40.875 17.390625 40.875 27.296875 
Q 40.875 37.203125 37.1875 42.84375 
Q 33.5 48.484375 27.046875 48.484375 
Q 20.65625 48.484375 16.984375 42.84375 
Q 13.328125 37.203125 13.328125 27.296875 
z
" id="DejaVuSansCondensed-100"/>
       </defs>
       <use xlink:href="#DejaVuSansCondensed-65"/>
       <use x="61.523438" xlink:href="#DejaVuSansCondensed-115"/>
       <use x="108.398438" xlink:href="#DejaVuSansCondensed-115"/>
       <use x="155.273438" xlink:href="#DejaVuSansCondensed-111"/>
       <use x="210.302734" xlink:href="#DejaVuSansCondensed-99"/>
       <use x="259.765625" xlink:href="#DejaVuSansCondensed-105"/>
       <use x="284.765625" xlink:href="#DejaVuSansCondensed-97"/>
       <use x="339.892578" xlink:href="#DejaVuSansCondensed-116"/>
       <use x="375.146484" xlink:href="#DejaVuSansCondensed-101"/>
       <use x="430.517578" xlink:href="#DejaVuSansCondensed-32"/>
       <use x="459.082031" xlink:href="#DejaVuSansCondensed-100"/>
       <use x="516.210938" xlink:href="#DejaVuSansCondensed-101"/>
       <use x="571.582031" xlink:href="#DejaVuSansCondensed-103"/>
       <use x="628.710938" xlink:href="#DejaVuSansCondensed-114"/>
       <use x="663.423828" xlink:href="#DejaVuSansCondensed-101"/>
       <use x="718.794922" xlink:href="#DejaVuSansCondensed-101"/>
      </g>
     </g>
    </g>
    <g id="ytick_7">
     <g id="line2d_7">
      <g>
       <use style="stroke:#000000;stroke-width:0.8;" x="187.54" xlink:href="#m3b3eb527c5" y="146.236531"/>
      </g>
     </g>
     <g id="text_7">
      <!-- Some college -->
      <g transform="translate(65.379219 153.455046)scale(0.19 -0.19)">
       <use xlink:href="#DejaVuSansCondensed-83"/>
       <use x="57.128906" xlink:href="#DejaVuSansCondensed-111"/>
       <use x="112.158203" xlink:href="#DejaVuSansCondensed-109"/>
       <use x="199.804688" xlink:href="#DejaVuSansCondensed-101"/>
       <use x="255.175781" xlink:href="#DejaVuSansCondensed-32"/>
       <use x="283.740234" xlink:href="#DejaVuSansCondensed-99"/>
       <use x="333.203125" xlink:href="#DejaVuSansCondensed-111"/>
       <use x="388.232422" xlink:href="#DejaVuSansCondensed-108"/>
       <use x="413.232422" xlink:href="#DejaVuSansCondensed-108"/>
       <use x="438.232422" xlink:href="#DejaVuSansCondensed-101"/>
       <use x="493.603516" xlink:href="#DejaVuSansCondensed-103"/>
       <use x="550.732422" xlink:href="#DejaVuSansCondensed-101"/>
      </g>
     </g>
    </g>
    <g id="ytick_8">
     <g id="line2d_8">
      <g>
       <use style="stroke:#000000;stroke-width:0.8;" x="187.54" xlink:href="#m3b3eb527c5" y="120.787551"/>
      </g>
     </g>
     <g id="text_8">
      <!-- Bachelor's degree -->
      <g transform="translate(26.458906 128.006067)scale(0.19 -0.19)">
       <defs>
        <path d="M 17.71875 34.8125 
L 17.71875 8.109375 
L 31.9375 8.109375 
Q 39.109375 8.109375 42.546875 11.40625 
Q 46 14.703125 46 21.484375 
Q 46 28.328125 42.546875 31.5625 
Q 39.109375 34.8125 31.9375 34.8125 
z
M 17.71875 64.796875 
L 17.71875 42.828125 
L 30.859375 42.828125 
Q 37.359375 42.828125 40.546875 45.53125 
Q 43.75 48.25 43.75 53.8125 
Q 43.75 59.328125 40.546875 62.0625 
Q 37.359375 64.796875 30.859375 64.796875 
z
M 8.84375 72.90625 
L 31.5 72.90625 
Q 41.65625 72.90625 47.140625 68.21875 
Q 52.640625 63.53125 52.640625 54.890625 
Q 52.640625 48.1875 49.828125 44.234375 
Q 47.015625 40.28125 41.546875 39.3125 
Q 48.140625 37.75 51.75 32.78125 
Q 55.375 27.828125 55.375 20.40625 
Q 55.375 10.640625 49.390625 5.3125 
Q 43.40625 0 32.375 0 
L 8.84375 0 
z
" id="DejaVuSansCondensed-66"/>
        <path d="M 16.109375 72.90625 
L 16.109375 45.796875 
L 8.640625 45.796875 
L 8.640625 72.90625 
z
" id="DejaVuSansCondensed-39"/>
       </defs>
       <use xlink:href="#DejaVuSansCondensed-66"/>
       <use x="61.71875" xlink:href="#DejaVuSansCondensed-97"/>
       <use x="116.845703" xlink:href="#DejaVuSansCondensed-99"/>
       <use x="166.308594" xlink:href="#DejaVuSansCondensed-104"/>
       <use x="223.339844" xlink:href="#DejaVuSansCondensed-101"/>
       <use x="278.710938" xlink:href="#DejaVuSansCondensed-108"/>
       <use x="303.710938" xlink:href="#DejaVuSansCondensed-111"/>
       <use x="358.740234" xlink:href="#DejaVuSansCondensed-114"/>
       <use x="395.703125" xlink:href="#DejaVuSansCondensed-39"/>
       <use x="420.410156" xlink:href="#DejaVuSansCondensed-115"/>
       <use x="467.285156" xlink:href="#DejaVuSansCondensed-32"/>
       <use x="495.849609" xlink:href="#DejaVuSansCondensed-100"/>
       <use x="552.978516" xlink:href="#DejaVuSansCondensed-101"/>
       <use x="608.349609" xlink:href="#DejaVuSansCondensed-103"/>
       <use x="665.478516" xlink:href="#DejaVuSansCondensed-114"/>
       <use x="700.191406" xlink:href="#DejaVuSansCondensed-101"/>
       <use x="755.5625" xlink:href="#DejaVuSansCondensed-101"/>
      </g>
     </g>
    </g>
    <g id="ytick_9">
     <g id="line2d_9">
      <g>
       <use style="stroke:#000000;stroke-width:0.8;" x="187.54" xlink:href="#m3b3eb527c5" y="95.338571"/>
      </g>
     </g>
     <g id="text_9">
      <!-- Master's degree -->
      <g transform="translate(43.270938 102.557087)scale(0.19 -0.19)">
       <defs>
        <path d="M 8.84375 72.90625 
L 22.078125 72.90625 
L 38.8125 23.296875 
L 55.609375 72.90625 
L 68.84375 72.90625 
L 68.84375 0 
L 60.203125 0 
L 60.203125 64.015625 
L 43.265625 14.015625 
L 34.375 14.015625 
L 17.4375 64.015625 
L 17.4375 0 
L 8.84375 0 
z
" id="DejaVuSansCondensed-77"/>
       </defs>
       <use xlink:href="#DejaVuSansCondensed-77"/>
       <use x="77.636719" xlink:href="#DejaVuSansCondensed-97"/>
       <use x="132.763672" xlink:href="#DejaVuSansCondensed-115"/>
       <use x="179.638672" xlink:href="#DejaVuSansCondensed-116"/>
       <use x="214.892578" xlink:href="#DejaVuSansCondensed-101"/>
       <use x="270.263672" xlink:href="#DejaVuSansCondensed-114"/>
       <use x="307.226562" xlink:href="#DejaVuSansCondensed-39"/>
       <use x="331.933594" xlink:href="#DejaVuSansCondensed-115"/>
       <use x="378.808594" xlink:href="#DejaVuSansCondensed-32"/>
       <use x="407.373047" xlink:href="#DejaVuSansCondensed-100"/>
       <use x="464.501953" xlink:href="#DejaVuSansCondensed-101"/>
       <use x="519.873047" xlink:href="#DejaVuSansCondensed-103"/>
       <use x="577.001953" xlink:href="#DejaVuSansCondensed-114"/>
       <use x="611.714844" xlink:href="#DejaVuSansCondensed-101"/>
       <use x="667.085938" xlink:href="#DejaVuSansCondensed-101"/>
      </g>
     </g>
    </g>
    <g id="ytick_10">
     <g id="line2d_10">
      <g>
       <use style="stroke:#000000;stroke-width:0.8;" x="187.54" xlink:href="#m3b3eb527c5" y="69.889592"/>
      </g>
     </g>
     <g id="text_10">
      <!-- Doctorate degree -->
      <g transform="translate(30.356875 77.108107)scale(0.19 -0.19)">
       <defs>
        <path d="M 17.71875 64.796875 
L 17.71875 8.109375 
L 28.421875 8.109375 
Q 42 8.109375 48.3125 14.9375 
Q 54.640625 21.78125 54.640625 36.53125 
Q 54.640625 51.171875 48.3125 57.984375 
Q 42 64.796875 28.421875 64.796875 
z
M 8.84375 72.90625 
L 27.046875 72.90625 
Q 46.140625 72.90625 55.046875 64.09375 
Q 63.96875 55.28125 63.96875 36.53125 
Q 63.96875 17.671875 55 8.828125 
Q 46.046875 0 27.046875 0 
L 8.84375 0 
z
" id="DejaVuSansCondensed-68"/>
       </defs>
       <use xlink:href="#DejaVuSansCondensed-68"/>
       <use x="69.287109" xlink:href="#DejaVuSansCondensed-111"/>
       <use x="124.316406" xlink:href="#DejaVuSansCondensed-99"/>
       <use x="173.779297" xlink:href="#DejaVuSansCondensed-116"/>
       <use x="209.033203" xlink:href="#DejaVuSansCondensed-111"/>
       <use x="264.0625" xlink:href="#DejaVuSansCondensed-114"/>
       <use x="301.025391" xlink:href="#DejaVuSansCondensed-97"/>
       <use x="356.152344" xlink:href="#DejaVuSansCondensed-116"/>
       <use x="391.40625" xlink:href="#DejaVuSansCondensed-101"/>
       <use x="446.777344" xlink:href="#DejaVuSansCondensed-32"/>
       <use x="475.341797" xlink:href="#DejaVuSansCondensed-100"/>
       <use x="532.470703" xlink:href="#DejaVuSansCondensed-101"/>
       <use x="587.841797" xlink:href="#DejaVuSansCondensed-103"/>
       <use x="644.970703" xlink:href="#DejaVuSansCondensed-114"/>
       <use x="679.683594" xlink:href="#DejaVuSansCondensed-101"/>
       <use x="735.054688" xlink:href="#DejaVuSansCondensed-101"/>
      </g>
     </g>
    </g>
   </g>
   <g id="patch_12">
    <path d="M 187.54 321.58 
L 187.54 47.24 
" style="fill:none;stroke:#000000;stroke-linecap:square;stroke-linejoin:miter;stroke-width:0.8;"/>
   </g>
   <g id="patch_13">
    <path d="M 440.28 321.58 
L 440.28 47.24 
" style="fill:none;stroke:#000000;stroke-linecap:square;stroke-linejoin:miter;stroke-width:0.8;"/>
   </g>
   <g id="patch_14">
    <path d="M 187.54 321.58 
L 440.28 321.58 
" style="fill:none;stroke:#000000;stroke-linecap:square;stroke-linejoin:miter;stroke-width:0.8;"/>
   </g>
   <g id="patch_15">
    <path d="M 187.54 47.24 
L 440.28 47.24 
" style="fill:none;stroke:#000000;stroke-linecap:square;stroke-linejoin:miter;stroke-width:0.8;"/>
   </g>
   <g id="text_11">
    <!-- 1 -->
    <g transform="translate(192.888995 304.173221)scale(0.19 -0.19)">
     <defs>
      <path d="M 11.1875 8.296875 
L 25.6875 8.296875 
L 25.6875 63.921875 
L 9.859375 60.40625 
L 9.859375 69.390625 
L 25.59375 72.90625 
L 34.46875 72.90625 
L 34.46875 8.296875 
L 48.96875 8.296875 
L 48.96875 0 
L 11.1875 0 
z
" id="DejaVuSansCondensed-49"/>
     </defs>
     <use xlink:href="#DejaVuSansCondensed-49"/>
    </g>
   </g>
   <g id="text_12">
    <!-- 1 -->
    <g transform="translate(192.888995 278.724241)scale(0.19 -0.19)">
     <use xlink:href="#DejaVuSansCondensed-49"/>
    </g>
   </g>
   <g id="text_13">
    <!-- 2 -->
    <g transform="translate(193.958794 253.275261)scale(0.19 -0.19)">
     <defs>
      <path d="M 17.28125 8.296875 
L 48.25 8.296875 
L 48.25 0 
L 6.59375 0 
L 6.59375 8.296875 
Q 11.625 14.109375 20.359375 23.890625 
Q 29.109375 33.6875 31.34375 36.53125 
Q 35.59375 41.84375 37.28125 45.53125 
Q 38.96875 49.21875 38.96875 52.78125 
Q 38.96875 58.59375 35.296875 62.25 
Q 31.640625 65.921875 25.734375 65.921875 
Q 21.578125 65.921875 16.9375 64.3125 
Q 12.3125 62.703125 7.03125 59.421875 
L 7.03125 69.390625 
Q 12.40625 71.78125 17.0625 73 
Q 21.734375 74.21875 25.59375 74.21875 
Q 35.796875 74.21875 41.84375 68.546875 
Q 47.90625 62.890625 47.90625 53.421875 
Q 47.90625 48.921875 46.390625 44.890625 
Q 44.875 40.875 40.875 35.40625 
Q 39.75 33.984375 33.859375 27.21875 
Q 27.984375 20.453125 17.28125 8.296875 
z
" id="DejaVuSansCondensed-50"/>
     </defs>
     <use xlink:href="#DejaVuSansCondensed-50"/>
    </g>
   </g>
   <g id="text_14">
    <!-- 60 -->
    <g style="fill:#ffffff;" transform="translate(225.699678 227.826282)scale(0.19 -0.19)">
     <defs>
      <path d="M 29.6875 40.375 
Q 23.734375 40.375 20.234375 35.828125 
Q 16.75 31.296875 16.75 23.390625 
Q 16.75 15.53125 20.234375 10.953125 
Q 23.734375 6.390625 29.6875 6.390625 
Q 35.6875 6.390625 39.171875 10.953125 
Q 42.671875 15.53125 42.671875 23.390625 
Q 42.671875 31.296875 39.171875 35.828125 
Q 35.6875 40.375 29.6875 40.375 
z
M 47.3125 71.296875 
L 47.3125 62.3125 
Q 44 64.0625 40.578125 64.984375 
Q 37.15625 65.921875 33.84375 65.921875 
Q 25.046875 65.921875 20.40625 59.328125 
Q 15.765625 52.734375 15.140625 39.40625 
Q 17.71875 43.65625 21.625 45.921875 
Q 25.53125 48.1875 30.21875 48.1875 
Q 40.140625 48.1875 45.875 41.515625 
Q 51.609375 34.859375 51.609375 23.390625 
Q 51.609375 12.15625 45.625 5.359375 
Q 39.65625 -1.421875 29.6875 -1.421875 
Q 18.3125 -1.421875 12.296875 8.265625 
Q 6.296875 17.96875 6.296875 36.375 
Q 6.296875 53.65625 13.671875 63.9375 
Q 21.046875 74.21875 33.5 74.21875 
Q 36.8125 74.21875 40.234375 73.484375 
Q 43.65625 72.75 47.3125 71.296875 
z
" id="DejaVuSansCondensed-54"/>
      <path d="M 28.609375 66.40625 
Q 21.78125 66.40625 18.3125 58.90625 
Q 14.84375 51.421875 14.84375 36.375 
Q 14.84375 21.390625 18.3125 13.890625 
Q 21.78125 6.390625 28.609375 6.390625 
Q 35.5 6.390625 38.9375 13.890625 
Q 42.390625 21.390625 42.390625 36.375 
Q 42.390625 51.421875 38.9375 58.90625 
Q 35.5 66.40625 28.609375 66.40625 
z
M 28.609375 74.21875 
Q 39.65625 74.21875 45.453125 64.515625 
Q 51.265625 54.828125 51.265625 36.375 
Q 51.265625 17.96875 45.453125 8.265625 
Q 39.65625 -1.421875 28.609375 -1.421875 
Q 17.578125 -1.421875 11.765625 8.265625 
Q 5.953125 17.96875 5.953125 36.375 
Q 5.953125 54.828125 11.765625 64.515625 
Q 17.578125 74.21875 28.609375 74.21875 
z
" id="DejaVuSansCondensed-48"/>
     </defs>
     <use xlink:href="#DejaVuSansCondensed-54"/>
     <use x="57.226562" xlink:href="#DejaVuSansCondensed-48"/>
    </g>
   </g>
   <g id="text_15">
    <!-- 16 -->
    <g transform="translate(208.935979 202.377302)scale(0.19 -0.19)">
     <use xlink:href="#DejaVuSansCondensed-49"/>
     <use x="57.226562" xlink:href="#DejaVuSansCondensed-54"/>
    </g>
   </g>
   <g id="text_16">
    <!-- 41 -->
    <g style="fill:#ffffff;" transform="translate(205.373498 176.928323)scale(0.19 -0.19)">
     <defs>
      <path d="M 34.03125 64.3125 
L 11.625 25.390625 
L 34.03125 25.390625 
z
M 31.6875 72.90625 
L 42.875 72.90625 
L 42.875 25.390625 
L 52.203125 25.390625 
L 52.203125 17.1875 
L 42.875 17.1875 
L 42.875 0 
L 34.03125 0 
L 34.03125 17.1875 
L 4.390625 17.1875 
L 4.390625 26.703125 
z
" id="DejaVuSansCondensed-52"/>
     </defs>
     <use xlink:href="#DejaVuSansCondensed-52"/>
     <use x="57.226562" xlink:href="#DejaVuSansCondensed-49"/>
    </g>
   </g>
   <g id="text_17">
    <!-- 88 -->
    <g style="fill:#ffffff;" transform="translate(255.654049 151.479343)scale(0.19 -0.19)">
     <defs>
      <path d="M 28.609375 34.625 
Q 22.265625 34.625 18.65625 30.859375 
Q 15.046875 27.09375 15.046875 20.515625 
Q 15.046875 13.921875 18.65625 10.15625 
Q 22.265625 6.390625 28.609375 6.390625 
Q 34.96875 6.390625 38.59375 10.171875 
Q 42.234375 13.96875 42.234375 20.515625 
Q 42.234375 27.09375 38.59375 30.859375 
Q 34.96875 34.625 28.609375 34.625 
z
M 19.734375 38.8125 
Q 14.015625 40.375 10.84375 44.71875 
Q 7.671875 49.078125 7.671875 55.328125 
Q 7.671875 64.0625 13.25 69.140625 
Q 18.84375 74.21875 28.609375 74.21875 
Q 38.421875 74.21875 43.984375 69.140625 
Q 49.5625 64.0625 49.5625 55.328125 
Q 49.5625 49.078125 46.390625 44.71875 
Q 43.21875 40.375 37.546875 38.8125 
Q 43.953125 37.15625 47.53125 32.3125 
Q 51.125 27.484375 51.125 20.515625 
Q 51.125 9.90625 45.28125 4.234375 
Q 39.453125 -1.421875 28.609375 -1.421875 
Q 17.78125 -1.421875 11.9375 4.234375 
Q 6.109375 9.90625 6.109375 20.515625 
Q 6.109375 27.484375 9.71875 32.3125 
Q 13.328125 37.15625 19.734375 38.8125 
z
M 16.5 54.390625 
Q 16.5 48.734375 19.671875 45.5625 
Q 22.859375 42.390625 28.609375 42.390625 
Q 34.328125 42.390625 37.546875 45.5625 
Q 40.765625 48.734375 40.765625 54.390625 
Q 40.765625 60.0625 37.546875 63.234375 
Q 34.328125 66.40625 28.609375 66.40625 
Q 22.859375 66.40625 19.671875 63.234375 
Q 16.5 60.0625 16.5 54.390625 
z
" id="DejaVuSansCondensed-56"/>
     </defs>
     <use xlink:href="#DejaVuSansCondensed-56"/>
     <use x="57.226562" xlink:href="#DejaVuSansCondensed-56"/>
    </g>
   </g>
   <g id="text_18">
    <!-- 225 -->
    <g style="fill:#ffffff;" transform="translate(391.341972 126.030364)scale(0.19 -0.19)">
     <defs>
      <path d="M 9.71875 72.90625 
L 44.578125 72.90625 
L 44.578125 64.59375 
L 17.828125 64.59375 
L 17.828125 46.734375 
Q 19.78125 47.46875 21.703125 47.828125 
Q 23.640625 48.1875 25.59375 48.1875 
Q 36.578125 48.1875 43 41.5 
Q 49.421875 34.8125 49.421875 23.390625 
Q 49.421875 11.625 42.828125 5.09375 
Q 36.234375 -1.421875 24.21875 -1.421875 
Q 20.0625 -1.421875 15.796875 -0.640625 
Q 11.53125 0.140625 6.9375 1.703125 
L 6.9375 11.625 
Q 10.890625 9.234375 15.109375 8.0625 
Q 19.34375 6.890625 24.03125 6.890625 
Q 31.640625 6.890625 36.078125 11.328125 
Q 40.53125 15.765625 40.53125 23.390625 
Q 40.53125 31 36.078125 35.4375 
Q 31.640625 39.890625 24.03125 39.890625 
Q 20.453125 39.890625 16.90625 39.015625 
Q 13.375 38.140625 9.71875 36.28125 
z
" id="DejaVuSansCondensed-53"/>
     </defs>
     <use xlink:href="#DejaVuSansCondensed-50"/>
     <use x="57.226562" xlink:href="#DejaVuSansCondensed-50"/>
     <use x="114.453125" xlink:href="#DejaVuSansCondensed-53"/>
    </g>
   </g>
   <g id="text_19">
    <!-- 50 -->
    <g style="fill:#ffffff;" transform="translate(215.001689 100.581384)scale(0.19 -0.19)">
     <use xlink:href="#DejaVuSansCondensed-53"/>
     <use x="57.226562" xlink:href="#DejaVuSansCondensed-48"/>
    </g>
   </g>
   <g id="text_20">
    <!-- 2 -->
    <g transform="translate(193.958794 75.132404)scale(0.19 -0.19)">
     <use xlink:href="#DejaVuSansCondensed-50"/>
    </g>
   </g>
   <g id="text_21">
    <!-- Education -->
    <g transform="translate(260.16125 39.24)scale(0.24 -0.24)">
     <defs>
      <path d="M 8.84375 72.90625 
L 50.296875 72.90625 
L 50.296875 64.59375 
L 17.71875 64.59375 
L 17.71875 43.015625 
L 48.96875 43.015625 
L 48.96875 34.71875 
L 17.71875 34.71875 
L 17.71875 8.296875 
L 51.125 8.296875 
L 51.125 0 
L 8.84375 0 
z
" id="DejaVuSansCondensed-69"/>
      <path d="M 7.671875 21.578125 
L 7.671875 54.6875 
L 15.71875 54.6875 
L 15.71875 21.921875 
Q 15.71875 14.15625 18.453125 10.265625 
Q 21.1875 6.390625 26.609375 6.390625 
Q 33.203125 6.390625 36.984375 11.03125 
Q 40.765625 15.671875 40.765625 23.6875 
L 40.765625 54.6875 
L 48.875 54.6875 
L 48.875 0 
L 40.765625 0 
L 40.765625 8.40625 
Q 37.84375 3.421875 33.953125 1 
Q 30.078125 -1.421875 24.90625 -1.421875 
Q 16.453125 -1.421875 12.0625 4.4375 
Q 7.671875 10.296875 7.671875 21.578125 
z
M 27.984375 56 
z
" id="DejaVuSansCondensed-117"/>
     </defs>
     <use xlink:href="#DejaVuSansCondensed-69"/>
     <use x="56.835938" xlink:href="#DejaVuSansCondensed-100"/>
     <use x="113.964844" xlink:href="#DejaVuSansCondensed-117"/>
     <use x="170.996094" xlink:href="#DejaVuSansCondensed-99"/>
     <use x="220.458984" xlink:href="#DejaVuSansCondensed-97"/>
     <use x="275.585938" xlink:href="#DejaVuSansCondensed-116"/>
     <use x="310.839844" xlink:href="#DejaVuSansCondensed-105"/>
     <use x="335.839844" xlink:href="#DejaVuSansCondensed-111"/>
     <use x="390.869141" xlink:href="#DejaVuSansCondensed-110"/>
    </g>
   </g>
  </g>
 </g>
 <defs>
  <clipPath id="p084c4a7e8a">
   <rect height="274.34" width="252.74" x="187.54" y="47.24"/>
  </clipPath>
 </defs>
</svg>
