<?xml version="1.0" encoding="utf-8" standalone="no"?>
<!DOCTYPE svg PUBLIC "-//W3C//DTD SVG 1.1//EN"
  "http://www.w3.org/Graphics/SVG/1.1/DTD/svg11.dtd">
<!-- Created with matplotlib (https://matplotlib.org/) -->
<svg height="345.6pt" version="1.1" viewBox="0 0 460.8 345.6" width="460.8pt" xmlns="http://www.w3.org/2000/svg" xmlns:xlink="http://www.w3.org/1999/xlink">
 <metadata>
  <rdf:RDF xmlns:cc="http://creativecommons.org/ns#" xmlns:dc="http://purl.org/dc/elements/1.1/" xmlns:rdf="http://www.w3.org/1999/02/22-rdf-syntax-ns#">
   <cc:Work>
    <dc:type rdf:resource="http://purl.org/dc/dcmitype/StillImage"/>
    <dc:date>2020-08-07T17:15:19.394684</dc:date>
    <dc:format>image/svg+xml</dc:format>
    <dc:creator>
     <cc:Agent>
      <dc:title>Matplotlib v3.3.0, https://matplotlib.org/</dc:title>
     </cc:Agent>
    </dc:creator>
   </cc:Work>
  </rdf:RDF>
 </metadata>
 <defs>
  <style type="text/css">*{stroke-linecap:butt;stroke-linejoin:round;}</style>
 </defs>
 <g id="figure_1">
  <g id="axes_1">
   <g id="patch_1">
    <path d="M 106.63 321.58 
L 440.28 321.58 
L 440.28 47.24 
L 106.63 47.24 
z
" style="fill:#ffffff;"/>
   </g>
   <g id="patch_2">
    <path clip-path="url(#pef53358713)" d="M 106.63 309.11 
L 107.548387 309.11 
L 107.548387 256.604737 
L 106.63 256.604737 
z
" style="fill:#440088;"/>
   </g>
   <g id="patch_3">
    <path clip-path="url(#pef53358713)" d="M 106.63 243.478421 
L 231.530633 243.478421 
L 231.530633 190.973158 
L 106.63 190.973158 
z
" style="fill:#440088;"/>
   </g>
   <g id="patch_4">
    <path clip-path="url(#pef53358713)" d="M 106.63 177.846842 
L 424.391905 177.846842 
L 424.391905 125.341579 
L 106.63 125.341579 
z
" style="fill:#440088;"/>
   </g>
   <g id="patch_5">
    <path clip-path="url(#pef53358713)" d="M 106.63 112.215263 
L 109.385161 112.215263 
L 109.385161 59.71 
L 106.63 59.71 
z
" style="fill:#440088;"/>
   </g>
   <g id="matplotlib.axis_1">
    <g id="ytick_1">
     <g id="line2d_1">
      <defs>
       <path d="M 0 0 
L -3.5 0 
" id="mbd2eaa20fe" style="stroke:#000000;stroke-width:0.8;"/>
      </defs>
      <g>
       <use style="stroke:#000000;stroke-width:0.8;" x="106.63" xlink:href="#mbd2eaa20fe" y="282.857368"/>
      </g>
     </g>
     <g id="text_1">
      <!-- Agender -->
      <g transform="translate(27.329062 290.075884)scale(0.19 -0.19)">
       <defs>
        <path d="M 30.765625 63.1875 
L 18.703125 26.90625 
L 42.875 26.90625 
z
M 25.734375 72.90625 
L 35.84375 72.90625 
L 60.84375 0 
L 51.609375 0 
L 45.609375 18.703125 
L 16.015625 18.703125 
L 10.0625 0 
L 0.6875 0 
z
" id="DejaVuSansCondensed-65"/>
        <path d="M 40.875 27.984375 
Q 40.875 37.75 37.234375 43.109375 
Q 33.59375 48.484375 27.046875 48.484375 
Q 20.5625 48.484375 16.9375 43.109375 
Q 13.328125 37.75 13.328125 27.984375 
Q 13.328125 18.265625 16.9375 12.890625 
Q 20.5625 7.515625 27.046875 7.515625 
Q 33.59375 7.515625 37.234375 12.890625 
Q 40.875 18.265625 40.875 27.984375 
z
M 48.96875 6.78125 
Q 48.96875 -7.171875 43.375 -13.984375 
Q 37.796875 -20.796875 26.265625 -20.796875 
Q 22.015625 -20.796875 18.234375 -20.09375 
Q 14.453125 -19.390625 10.890625 -17.921875 
L 10.890625 -9.1875 
Q 14.453125 -11.328125 17.921875 -12.34375 
Q 21.390625 -13.375 25 -13.375 
Q 32.953125 -13.375 36.90625 -8.765625 
Q 40.875 -4.15625 40.875 5.171875 
L 40.875 9.625 
Q 38.375 4.78125 34.46875 2.390625 
Q 30.5625 0 25.09375 0 
Q 16.015625 0 10.5 7.65625 
Q 4.984375 15.328125 4.984375 27.984375 
Q 4.984375 40.671875 10.5 48.328125 
Q 16.015625 56 25.09375 56 
Q 30.5625 56 34.46875 53.609375 
Q 38.375 51.21875 40.875 46.390625 
L 40.875 54.6875 
L 48.96875 54.6875 
z
" id="DejaVuSansCondensed-103"/>
        <path d="M 50.59375 29.59375 
L 50.59375 25.203125 
L 13.375 25.203125 
Q 13.921875 15.921875 18.4375 11.0625 
Q 22.953125 6.203125 30.953125 6.203125 
Q 35.640625 6.203125 40.015625 7.46875 
Q 44.390625 8.734375 48.6875 11.28125 
L 48.6875 2.78125 
Q 44.34375 0.734375 39.765625 -0.34375 
Q 35.203125 -1.421875 30.515625 -1.421875 
Q 18.703125 -1.421875 11.84375 6.1875 
Q 4.984375 13.8125 4.984375 26.8125 
Q 4.984375 40.234375 11.5 48.109375 
Q 18.015625 56 29.109375 56 
Q 39.015625 56 44.796875 48.890625 
Q 50.59375 41.796875 50.59375 29.59375 
z
M 42.484375 32.234375 
Q 42.390625 39.59375 38.765625 43.984375 
Q 35.15625 48.390625 29.203125 48.390625 
Q 22.40625 48.390625 18.328125 44.140625 
Q 14.265625 39.890625 13.671875 32.171875 
z
" id="DejaVuSansCondensed-101"/>
        <path d="M 49.421875 33.015625 
L 49.421875 0 
L 41.3125 0 
L 41.3125 32.71875 
Q 41.3125 40.484375 38.578125 44.328125 
Q 35.84375 48.1875 30.421875 48.1875 
Q 23.875 48.1875 20.09375 43.546875 
Q 16.3125 38.921875 16.3125 30.90625 
L 16.3125 0 
L 8.15625 0 
L 8.15625 54.6875 
L 16.3125 54.6875 
L 16.3125 46.1875 
Q 19.1875 51.125 23.109375 53.5625 
Q 27.046875 56 32.234375 56 
Q 40.671875 56 45.046875 50.171875 
Q 49.421875 44.34375 49.421875 33.015625 
z
" id="DejaVuSansCondensed-110"/>
        <path d="M 40.875 46.390625 
L 40.875 75.984375 
L 48.96875 75.984375 
L 48.96875 0 
L 40.875 0 
L 40.875 8.203125 
Q 38.328125 3.328125 34.4375 0.953125 
Q 30.5625 -1.421875 25.09375 -1.421875 
Q 16.15625 -1.421875 10.5625 6.484375 
Q 4.984375 14.40625 4.984375 27.296875 
Q 4.984375 40.1875 10.5625 48.09375 
Q 16.15625 56 25.09375 56 
Q 30.5625 56 34.4375 53.625 
Q 38.328125 51.265625 40.875 46.390625 
z
M 13.328125 27.296875 
Q 13.328125 17.390625 16.984375 11.75 
Q 20.65625 6.109375 27.046875 6.109375 
Q 33.5 6.109375 37.1875 11.75 
Q 40.875 17.390625 40.875 27.296875 
Q 40.875 37.203125 37.1875 42.84375 
Q 33.5 48.484375 27.046875 48.484375 
Q 20.65625 48.484375 16.984375 42.84375 
Q 13.328125 37.203125 13.328125 27.296875 
z
" id="DejaVuSansCondensed-100"/>
        <path d="M 37.015625 46.296875 
Q 35.640625 47.171875 34.03125 47.578125 
Q 32.421875 48 30.515625 48 
Q 23.640625 48 19.96875 43.046875 
Q 16.3125 38.09375 16.3125 28.8125 
L 16.3125 0 
L 8.15625 0 
L 8.15625 54.6875 
L 16.3125 54.6875 
L 16.3125 46.1875 
Q 18.84375 51.171875 22.9375 53.578125 
Q 27.046875 56 32.859375 56 
Q 33.6875 56 34.71875 55.875 
Q 35.75 55.765625 36.96875 55.515625 
z
" id="DejaVuSansCondensed-114"/>
       </defs>
       <use xlink:href="#DejaVuSansCondensed-65"/>
       <use x="61.523438" xlink:href="#DejaVuSansCondensed-103"/>
       <use x="118.652344" xlink:href="#DejaVuSansCondensed-101"/>
       <use x="174.023438" xlink:href="#DejaVuSansCondensed-110"/>
       <use x="231.054688" xlink:href="#DejaVuSansCondensed-100"/>
       <use x="288.183594" xlink:href="#DejaVuSansCondensed-101"/>
       <use x="343.554688" xlink:href="#DejaVuSansCondensed-114"/>
      </g>
     </g>
    </g>
    <g id="ytick_2">
     <g id="line2d_2">
      <g>
       <use style="stroke:#000000;stroke-width:0.8;" x="106.63" xlink:href="#mbd2eaa20fe" y="217.225789"/>
      </g>
     </g>
     <g id="text_2">
      <!-- Female -->
      <g transform="translate(37.921562 224.444305)scale(0.19 -0.19)">
       <defs>
        <path d="M 8.84375 72.90625 
L 46.53125 72.90625 
L 46.53125 64.59375 
L 17.71875 64.59375 
L 17.71875 43.109375 
L 43.75 43.109375 
L 43.75 34.8125 
L 17.71875 34.8125 
L 17.71875 0 
L 8.84375 0 
z
" id="DejaVuSansCondensed-70"/>
        <path d="M 46.78125 44.1875 
Q 49.859375 50.25 54.046875 53.125 
Q 58.25 56 63.96875 56 
Q 71.6875 56 75.859375 50.015625 
Q 80.03125 44.046875 80.03125 33.015625 
L 80.03125 0 
L 71.875 0 
L 71.875 32.71875 
Q 71.875 40.578125 69.375 44.375 
Q 66.890625 48.1875 61.71875 48.1875 
Q 55.46875 48.1875 51.796875 43.546875 
Q 48.140625 38.921875 48.140625 30.90625 
L 48.140625 0 
L 40.046875 0 
L 40.046875 32.71875 
Q 40.046875 40.625 37.53125 44.40625 
Q 35.015625 48.1875 29.78125 48.1875 
Q 23.578125 48.1875 19.9375 43.53125 
Q 16.3125 38.875 16.3125 30.90625 
L 16.3125 0 
L 8.15625 0 
L 8.15625 54.6875 
L 16.3125 54.6875 
L 16.3125 46.1875 
Q 19.09375 51.21875 22.953125 53.609375 
Q 26.8125 56 32.125 56 
Q 37.5 56 41.25 52.96875 
Q 45.015625 49.953125 46.78125 44.1875 
z
" id="DejaVuSansCondensed-109"/>
        <path d="M 30.859375 27.484375 
Q 21.046875 27.484375 17.265625 25 
Q 13.484375 22.515625 13.484375 16.5 
Q 13.484375 11.71875 16.3125 8.90625 
Q 19.140625 6.109375 24.03125 6.109375 
Q 30.765625 6.109375 34.8125 11.40625 
Q 38.875 16.703125 38.875 25.484375 
L 38.875 27.484375 
z
M 46.96875 31.203125 
L 46.96875 0 
L 38.875 0 
L 38.875 8.296875 
Q 36.140625 3.328125 32 0.953125 
Q 27.875 -1.421875 21.875 -1.421875 
Q 14.3125 -1.421875 9.859375 3.296875 
Q 5.421875 8.015625 5.421875 15.921875 
Q 5.421875 25.140625 10.953125 29.828125 
Q 16.5 34.515625 27.546875 34.515625 
L 38.875 34.515625 
L 38.875 35.40625 
Q 38.875 41.609375 35.203125 45 
Q 31.546875 48.390625 24.90625 48.390625 
Q 20.703125 48.390625 16.703125 47.265625 
Q 12.703125 46.140625 8.984375 43.890625 
L 8.984375 52.203125 
Q 13.421875 54.109375 17.59375 55.046875 
Q 21.78125 56 25.734375 56 
Q 36.421875 56 41.6875 49.84375 
Q 46.96875 43.703125 46.96875 31.203125 
z
" id="DejaVuSansCondensed-97"/>
        <path d="M 8.5 75.984375 
L 16.546875 75.984375 
L 16.546875 0 
L 8.5 0 
z
" id="DejaVuSansCondensed-108"/>
       </defs>
       <use xlink:href="#DejaVuSansCondensed-70"/>
       <use x="46.257812" xlink:href="#DejaVuSansCondensed-101"/>
       <use x="101.628906" xlink:href="#DejaVuSansCondensed-109"/>
       <use x="189.275391" xlink:href="#DejaVuSansCondensed-97"/>
       <use x="244.402344" xlink:href="#DejaVuSansCondensed-108"/>
       <use x="269.402344" xlink:href="#DejaVuSansCondensed-101"/>
      </g>
     </g>
    </g>
    <g id="ytick_3">
     <g id="line2d_3">
      <g>
       <use style="stroke:#000000;stroke-width:0.8;" x="106.63" xlink:href="#mbd2eaa20fe" y="151.594211"/>
      </g>
     </g>
     <g id="text_3">
      <!-- Male -->
      <g transform="translate(59.133281 158.812726)scale(0.19 -0.19)">
       <defs>
        <path d="M 8.84375 72.90625 
L 22.078125 72.90625 
L 38.8125 23.296875 
L 55.609375 72.90625 
L 68.84375 72.90625 
L 68.84375 0 
L 60.203125 0 
L 60.203125 64.015625 
L 43.265625 14.015625 
L 34.375 14.015625 
L 17.4375 64.015625 
L 17.4375 0 
L 8.84375 0 
z
" id="DejaVuSansCondensed-77"/>
       </defs>
       <use xlink:href="#DejaVuSansCondensed-77"/>
       <use x="77.636719" xlink:href="#DejaVuSansCondensed-97"/>
       <use x="132.763672" xlink:href="#DejaVuSansCondensed-108"/>
       <use x="157.763672" xlink:href="#DejaVuSansCondensed-101"/>
      </g>
     </g>
    </g>
    <g id="ytick_4">
     <g id="line2d_4">
      <g>
       <use style="stroke:#000000;stroke-width:0.8;" x="106.63" xlink:href="#mbd2eaa20fe" y="85.962632"/>
      </g>
     </g>
     <g id="text_4">
      <!-- Unknown -->
      <g transform="translate(20.272344 93.181147)scale(0.19 -0.19)">
       <defs>
        <path d="M 7.8125 72.90625 
L 16.75 72.90625 
L 16.75 28.609375 
Q 16.75 16.890625 20.578125 11.734375 
Q 24.421875 6.59375 32.953125 6.59375 
Q 41.5 6.59375 45.3125 11.734375 
Q 49.125 16.890625 49.125 28.609375 
L 49.125 72.90625 
L 58.0625 72.90625 
L 58.0625 27.390625 
Q 58.0625 13.140625 51.703125 5.859375 
Q 45.359375 -1.421875 32.953125 -1.421875 
Q 20.515625 -1.421875 14.15625 5.859375 
Q 7.8125 13.140625 7.8125 27.390625 
z
" id="DejaVuSansCondensed-85"/>
        <path d="M 8.15625 75.984375 
L 16.3125 75.984375 
L 16.3125 31.109375 
L 40.4375 54.6875 
L 50.78125 54.6875 
L 24.65625 29.109375 
L 51.859375 0 
L 41.3125 0 
L 16.3125 26.703125 
L 16.3125 0 
L 8.15625 0 
z
" id="DejaVuSansCondensed-107"/>
        <path d="M 27.546875 48.390625 
Q 21.046875 48.390625 17.265625 42.75 
Q 13.484375 37.109375 13.484375 27.296875 
Q 13.484375 17.484375 17.234375 11.84375 
Q 21 6.203125 27.546875 6.203125 
Q 34.03125 6.203125 37.78125 11.859375 
Q 41.546875 17.53125 41.546875 27.296875 
Q 41.546875 37.015625 37.78125 42.703125 
Q 34.03125 48.390625 27.546875 48.390625 
z
M 27.546875 56 
Q 38.09375 56 44.109375 48.375 
Q 50.140625 40.765625 50.140625 27.296875 
Q 50.140625 13.875 44.109375 6.21875 
Q 38.09375 -1.421875 27.546875 -1.421875 
Q 16.9375 -1.421875 10.953125 6.21875 
Q 4.984375 13.875 4.984375 27.296875 
Q 4.984375 40.765625 10.953125 48.375 
Q 16.9375 56 27.546875 56 
z
" id="DejaVuSansCondensed-111"/>
        <path d="M 3.765625 54.6875 
L 11.859375 54.6875 
L 21.96875 12.015625 
L 32.03125 54.6875 
L 41.546875 54.6875 
L 51.65625 12.015625 
L 61.71875 54.6875 
L 69.828125 54.6875 
L 56.9375 0 
L 47.40625 0 
L 36.8125 44.828125 
L 26.171875 0 
L 16.65625 0 
z
" id="DejaVuSansCondensed-119"/>
       </defs>
       <use xlink:href="#DejaVuSansCondensed-85"/>
       <use x="65.869141" xlink:href="#DejaVuSansCondensed-110"/>
       <use x="122.900391" xlink:href="#DejaVuSansCondensed-107"/>
       <use x="175" xlink:href="#DejaVuSansCondensed-110"/>
       <use x="232.03125" xlink:href="#DejaVuSansCondensed-111"/>
       <use x="287.060547" xlink:href="#DejaVuSansCondensed-119"/>
       <use x="360.644531" xlink:href="#DejaVuSansCondensed-110"/>
      </g>
     </g>
    </g>
   </g>
   <g id="patch_6">
    <path d="M 106.63 321.58 
L 106.63 47.24 
" style="fill:none;stroke:#000000;stroke-linecap:square;stroke-linejoin:miter;stroke-width:0.8;"/>
   </g>
   <g id="patch_7">
    <path d="M 440.28 321.58 
L 440.28 47.24 
" style="fill:none;stroke:#000000;stroke-linecap:square;stroke-linejoin:miter;stroke-width:0.8;"/>
   </g>
   <g id="patch_8">
    <path d="M 106.63 321.58 
L 440.28 321.58 
" style="fill:none;stroke:#000000;stroke-linecap:square;stroke-linejoin:miter;stroke-width:0.8;"/>
   </g>
   <g id="patch_9">
    <path d="M 106.63 47.24 
L 440.28 47.24 
" style="fill:none;stroke:#000000;stroke-linecap:square;stroke-linejoin:miter;stroke-width:0.8;"/>
   </g>
   <g id="text_5">
    <!-- 1 -->
    <g transform="translate(111.221935 288.100181)scale(0.19 -0.19)">
     <defs>
      <path d="M 11.1875 8.296875 
L 25.6875 8.296875 
L 25.6875 63.921875 
L 9.859375 60.40625 
L 9.859375 69.390625 
L 25.59375 72.90625 
L 34.46875 72.90625 
L 34.46875 8.296875 
L 48.96875 8.296875 
L 48.96875 0 
L 11.1875 0 
z
" id="DejaVuSansCondensed-49"/>
     </defs>
     <use xlink:href="#DejaVuSansCondensed-49"/>
    </g>
   </g>
   <g id="text_6">
    <!-- 136 -->
    <g style="fill:#ffffff;" transform="translate(195.233491 222.468602)scale(0.19 -0.19)">
     <defs>
      <path d="M 36.53125 39.3125 
Q 42.875 37.796875 46.453125 33 
Q 50.046875 28.21875 50.046875 21.1875 
Q 50.046875 10.40625 43.375 4.484375 
Q 36.71875 -1.421875 24.421875 -1.421875 
Q 20.265625 -1.421875 15.890625 -0.515625 
Q 11.53125 0.390625 6.84375 2.203125 
L 6.84375 11.71875 
Q 10.546875 9.328125 14.9375 8.109375 
Q 19.34375 6.890625 24.125 6.890625 
Q 32.46875 6.890625 36.84375 10.546875 
Q 41.21875 14.203125 41.21875 21.1875 
Q 41.21875 27.640625 37.15625 31.265625 
Q 33.109375 34.90625 25.828125 34.90625 
L 18.21875 34.90625 
L 18.21875 43.015625 
L 26.171875 43.015625 
Q 32.71875 43.015625 36.203125 45.921875 
Q 39.703125 48.828125 39.703125 54.296875 
Q 39.703125 59.90625 36.109375 62.90625 
Q 32.515625 65.921875 25.828125 65.921875 
Q 22.171875 65.921875 18.015625 65.03125 
Q 13.875 64.15625 8.84375 62.3125 
L 8.84375 71.09375 
Q 13.875 72.65625 18.28125 73.4375 
Q 22.703125 74.21875 26.609375 74.21875 
Q 36.71875 74.21875 42.625 69.109375 
Q 48.53125 64.015625 48.53125 55.328125 
Q 48.53125 49.265625 45.40625 45.09375 
Q 42.28125 40.921875 36.53125 39.3125 
z
" id="DejaVuSansCondensed-51"/>
      <path d="M 29.6875 40.375 
Q 23.734375 40.375 20.234375 35.828125 
Q 16.75 31.296875 16.75 23.390625 
Q 16.75 15.53125 20.234375 10.953125 
Q 23.734375 6.390625 29.6875 6.390625 
Q 35.6875 6.390625 39.171875 10.953125 
Q 42.671875 15.53125 42.671875 23.390625 
Q 42.671875 31.296875 39.171875 35.828125 
Q 35.6875 40.375 29.6875 40.375 
z
M 47.3125 71.296875 
L 47.3125 62.3125 
Q 44 64.0625 40.578125 64.984375 
Q 37.15625 65.921875 33.84375 65.921875 
Q 25.046875 65.921875 20.40625 59.328125 
Q 15.765625 52.734375 15.140625 39.40625 
Q 17.71875 43.65625 21.625 45.921875 
Q 25.53125 48.1875 30.21875 48.1875 
Q 40.140625 48.1875 45.875 41.515625 
Q 51.609375 34.859375 51.609375 23.390625 
Q 51.609375 12.15625 45.625 5.359375 
Q 39.65625 -1.421875 29.6875 -1.421875 
Q 18.3125 -1.421875 12.296875 8.265625 
Q 6.296875 17.96875 6.296875 36.375 
Q 6.296875 53.65625 13.671875 63.9375 
Q 21.046875 74.21875 33.5 74.21875 
Q 36.8125 74.21875 40.234375 73.484375 
Q 43.65625 72.75 47.3125 71.296875 
z
" id="DejaVuSansCondensed-54"/>
     </defs>
     <use xlink:href="#DejaVuSansCondensed-49"/>
     <use x="57.226562" xlink:href="#DejaVuSansCondensed-51"/>
     <use x="114.453125" xlink:href="#DejaVuSansCondensed-54"/>
    </g>
   </g>
   <g id="text_7">
    <!-- 346 -->
    <g style="fill:#ffffff;" transform="translate(388.094763 156.837023)scale(0.19 -0.19)">
     <defs>
      <path d="M 34.03125 64.3125 
L 11.625 25.390625 
L 34.03125 25.390625 
z
M 31.6875 72.90625 
L 42.875 72.90625 
L 42.875 25.390625 
L 52.203125 25.390625 
L 52.203125 17.1875 
L 42.875 17.1875 
L 42.875 0 
L 34.03125 0 
L 34.03125 17.1875 
L 4.390625 17.1875 
L 4.390625 26.703125 
z
" id="DejaVuSansCondensed-52"/>
     </defs>
     <use xlink:href="#DejaVuSansCondensed-51"/>
     <use x="57.226562" xlink:href="#DejaVuSansCondensed-52"/>
     <use x="114.453125" xlink:href="#DejaVuSansCondensed-54"/>
    </g>
   </g>
   <g id="text_8">
    <!-- 3 -->
    <g transform="translate(113.058709 91.205444)scale(0.19 -0.19)">
     <use xlink:href="#DejaVuSansCondensed-51"/>
    </g>
   </g>
   <g id="text_9">
    <!-- Gender -->
    <g transform="translate(233.661875 39.24)scale(0.24 -0.24)">
     <defs>
      <path d="M 53.5625 10.40625 
L 53.5625 29.984375 
L 39.0625 29.984375 
L 39.0625 38.09375 
L 62.359375 38.09375 
L 62.359375 6.78125 
Q 57.234375 2.734375 51.03125 0.65625 
Q 44.828125 -1.421875 37.796875 -1.421875 
Q 22.40625 -1.421875 13.734375 8.5625 
Q 5.078125 18.5625 5.078125 36.375 
Q 5.078125 54.25 13.734375 64.234375 
Q 22.40625 74.21875 37.796875 74.21875 
Q 44.1875 74.21875 49.96875 72.453125 
Q 55.765625 70.703125 60.640625 67.28125 
L 60.640625 56.78125 
Q 55.71875 61.421875 50.171875 63.765625 
Q 44.625 66.109375 38.53125 66.109375 
Q 26.515625 66.109375 20.453125 58.640625 
Q 14.40625 51.171875 14.40625 36.375 
Q 14.40625 21.625 20.453125 14.15625 
Q 26.515625 6.6875 38.53125 6.6875 
Q 43.265625 6.6875 46.953125 7.59375 
Q 50.640625 8.5 53.5625 10.40625 
z
" id="DejaVuSansCondensed-71"/>
     </defs>
     <use xlink:href="#DejaVuSansCondensed-71"/>
     <use x="69.726562" xlink:href="#DejaVuSansCondensed-101"/>
     <use x="125.097656" xlink:href="#DejaVuSansCondensed-110"/>
     <use x="182.128906" xlink:href="#DejaVuSansCondensed-100"/>
     <use x="239.257812" xlink:href="#DejaVuSansCondensed-101"/>
     <use x="294.628906" xlink:href="#DejaVuSansCondensed-114"/>
    </g>
   </g>
  </g>
 </g>
 <defs>
  <clipPath id="pef53358713">
   <rect height="274.34" width="333.65" x="106.63" y="47.24"/>
  </clipPath>
 </defs>
</svg>
