<?xml version="1.0" encoding="utf-8" standalone="no"?>
<!DOCTYPE svg PUBLIC "-//W3C//DTD SVG 1.1//EN"
  "http://www.w3.org/Graphics/SVG/1.1/DTD/svg11.dtd">
<!-- Created with matplotlib (https://matplotlib.org/) -->
<svg height="345.6pt" version="1.1" viewBox="0 0 460.8 345.6" width="460.8pt" xmlns="http://www.w3.org/2000/svg" xmlns:xlink="http://www.w3.org/1999/xlink">
 <metadata>
  <rdf:RDF xmlns:cc="http://creativecommons.org/ns#" xmlns:dc="http://purl.org/dc/elements/1.1/" xmlns:rdf="http://www.w3.org/1999/02/22-rdf-syntax-ns#">
   <cc:Work>
    <dc:type rdf:resource="http://purl.org/dc/dcmitype/StillImage"/>
    <dc:date>2020-08-08T07:56:57.269697</dc:date>
    <dc:format>image/svg+xml</dc:format>
    <dc:creator>
     <cc:Agent>
      <dc:title>Matplotlib v3.3.0, https://matplotlib.org/</dc:title>
     </cc:Agent>
    </dc:creator>
   </cc:Work>
  </rdf:RDF>
 </metadata>
 <defs>
  <style type="text/css">*{stroke-linecap:butt;stroke-linejoin:round;}</style>
 </defs>
 <g id="figure_1">
  <g id="axes_1">
   <g id="patch_1">
    <path d="M 77.2 321.58 
L 440.28 321.58 
L 440.28 47.24 
L 77.2 47.24 
z
" style="fill:#ffffff;"/>
   </g>
   <g id="patch_2">
    <path clip-path="url(#p44850a3ae8)" d="M 77.2 309.11 
L 140.283398 309.11 
L 140.283398 279.768824 
L 77.2 279.768824 
z
" style="fill:#339900;"/>
   </g>
   <g id="patch_3">
    <path clip-path="url(#p44850a3ae8)" d="M 77.2 272.433529 
L 422.990476 272.433529 
L 422.990476 243.092353 
L 77.2 243.092353 
z
" style="fill:#339900;"/>
   </g>
   <g id="patch_4">
    <path clip-path="url(#p44850a3ae8)" d="M 77.2 235.757059 
L 185.843629 235.757059 
L 185.843629 206.415882 
L 77.2 206.415882 
z
" style="fill:#339900;"/>
   </g>
   <g id="patch_5">
    <path clip-path="url(#p44850a3ae8)" d="M 77.2 199.080588 
L 112.246332 199.080588 
L 112.246332 169.739412 
L 77.2 169.739412 
z
" style="fill:#339900;"/>
   </g>
   <g id="patch_6">
    <path clip-path="url(#p44850a3ae8)" d="M 77.2 162.404118 
L 88.882111 162.404118 
L 88.882111 133.062941 
L 77.2 133.062941 
z
" style="fill:#339900;"/>
   </g>
   <g id="patch_7">
    <path clip-path="url(#p44850a3ae8)" d="M 77.2 125.727647 
L 79.536422 125.727647 
L 79.536422 96.386471 
L 77.2 96.386471 
z
" style="fill:#339900;"/>
   </g>
   <g id="patch_8">
    <path clip-path="url(#p44850a3ae8)" d="M 77.2 89.051176 
L 78.368211 89.051176 
L 78.368211 59.71 
L 77.2 59.71 
z
" style="fill:#339900;"/>
   </g>
   <g id="matplotlib.axis_1">
    <g id="ytick_1">
     <g id="line2d_1">
      <defs>
       <path d="M 0 0 
L -3.5 0 
" id="m5d9461a4b7" style="stroke:#000000;stroke-width:0.8;"/>
      </defs>
      <g>
       <use style="stroke:#000000;stroke-width:0.8;" x="77.2" xlink:href="#m5d9461a4b7" y="294.439412"/>
      </g>
     </g>
     <g id="text_1">
      <!-- 18-24 -->
      <g transform="translate(20.532813 301.657927)scale(0.19 -0.19)">
       <defs>
        <path d="M 11.1875 8.296875 
L 25.6875 8.296875 
L 25.6875 63.921875 
L 9.859375 60.40625 
L 9.859375 69.390625 
L 25.59375 72.90625 
L 34.46875 72.90625 
L 34.46875 8.296875 
L 48.96875 8.296875 
L 48.96875 0 
L 11.1875 0 
z
" id="DejaVuSansCondensed-49"/>
        <path d="M 28.609375 34.625 
Q 22.265625 34.625 18.65625 30.859375 
Q 15.046875 27.09375 15.046875 20.515625 
Q 15.046875 13.921875 18.65625 10.15625 
Q 22.265625 6.390625 28.609375 6.390625 
Q 34.96875 6.390625 38.59375 10.171875 
Q 42.234375 13.96875 42.234375 20.515625 
Q 42.234375 27.09375 38.59375 30.859375 
Q 34.96875 34.625 28.609375 34.625 
z
M 19.734375 38.8125 
Q 14.015625 40.375 10.84375 44.71875 
Q 7.671875 49.078125 7.671875 55.328125 
Q 7.671875 64.0625 13.25 69.140625 
Q 18.84375 74.21875 28.609375 74.21875 
Q 38.421875 74.21875 43.984375 69.140625 
Q 49.5625 64.0625 49.5625 55.328125 
Q 49.5625 49.078125 46.390625 44.71875 
Q 43.21875 40.375 37.546875 38.8125 
Q 43.953125 37.15625 47.53125 32.3125 
Q 51.125 27.484375 51.125 20.515625 
Q 51.125 9.90625 45.28125 4.234375 
Q 39.453125 -1.421875 28.609375 -1.421875 
Q 17.78125 -1.421875 11.9375 4.234375 
Q 6.109375 9.90625 6.109375 20.515625 
Q 6.109375 27.484375 9.71875 32.3125 
Q 13.328125 37.15625 19.734375 38.8125 
z
M 16.5 54.390625 
Q 16.5 48.734375 19.671875 45.5625 
Q 22.859375 42.390625 28.609375 42.390625 
Q 34.328125 42.390625 37.546875 45.5625 
Q 40.765625 48.734375 40.765625 54.390625 
Q 40.765625 60.0625 37.546875 63.234375 
Q 34.328125 66.40625 28.609375 66.40625 
Q 22.859375 66.40625 19.671875 63.234375 
Q 16.5 60.0625 16.5 54.390625 
z
" id="DejaVuSansCondensed-56"/>
        <path d="M 4.390625 31.390625 
L 28.078125 31.390625 
L 28.078125 23.390625 
L 4.390625 23.390625 
z
" id="DejaVuSansCondensed-45"/>
        <path d="M 17.28125 8.296875 
L 48.25 8.296875 
L 48.25 0 
L 6.59375 0 
L 6.59375 8.296875 
Q 11.625 14.109375 20.359375 23.890625 
Q 29.109375 33.6875 31.34375 36.53125 
Q 35.59375 41.84375 37.28125 45.53125 
Q 38.96875 49.21875 38.96875 52.78125 
Q 38.96875 58.59375 35.296875 62.25 
Q 31.640625 65.921875 25.734375 65.921875 
Q 21.578125 65.921875 16.9375 64.3125 
Q 12.3125 62.703125 7.03125 59.421875 
L 7.03125 69.390625 
Q 12.40625 71.78125 17.0625 73 
Q 21.734375 74.21875 25.59375 74.21875 
Q 35.796875 74.21875 41.84375 68.546875 
Q 47.90625 62.890625 47.90625 53.421875 
Q 47.90625 48.921875 46.390625 44.890625 
Q 44.875 40.875 40.875 35.40625 
Q 39.75 33.984375 33.859375 27.21875 
Q 27.984375 20.453125 17.28125 8.296875 
z
" id="DejaVuSansCondensed-50"/>
        <path d="M 34.03125 64.3125 
L 11.625 25.390625 
L 34.03125 25.390625 
z
M 31.6875 72.90625 
L 42.875 72.90625 
L 42.875 25.390625 
L 52.203125 25.390625 
L 52.203125 17.1875 
L 42.875 17.1875 
L 42.875 0 
L 34.03125 0 
L 34.03125 17.1875 
L 4.390625 17.1875 
L 4.390625 26.703125 
z
" id="DejaVuSansCondensed-52"/>
       </defs>
       <use xlink:href="#DejaVuSansCondensed-49"/>
       <use x="57.226562" xlink:href="#DejaVuSansCondensed-56"/>
       <use x="114.453125" xlink:href="#DejaVuSansCondensed-45"/>
       <use x="146.923828" xlink:href="#DejaVuSansCondensed-50"/>
       <use x="204.150391" xlink:href="#DejaVuSansCondensed-52"/>
      </g>
     </g>
    </g>
    <g id="ytick_2">
     <g id="line2d_2">
      <g>
       <use style="stroke:#000000;stroke-width:0.8;" x="77.2" xlink:href="#m5d9461a4b7" y="257.762941"/>
      </g>
     </g>
     <g id="text_2">
      <!-- 25-34 -->
      <g transform="translate(20.532813 264.981457)scale(0.19 -0.19)">
       <defs>
        <path d="M 9.71875 72.90625 
L 44.578125 72.90625 
L 44.578125 64.59375 
L 17.828125 64.59375 
L 17.828125 46.734375 
Q 19.78125 47.46875 21.703125 47.828125 
Q 23.640625 48.1875 25.59375 48.1875 
Q 36.578125 48.1875 43 41.5 
Q 49.421875 34.8125 49.421875 23.390625 
Q 49.421875 11.625 42.828125 5.09375 
Q 36.234375 -1.421875 24.21875 -1.421875 
Q 20.0625 -1.421875 15.796875 -0.640625 
Q 11.53125 0.140625 6.9375 1.703125 
L 6.9375 11.625 
Q 10.890625 9.234375 15.109375 8.0625 
Q 19.34375 6.890625 24.03125 6.890625 
Q 31.640625 6.890625 36.078125 11.328125 
Q 40.53125 15.765625 40.53125 23.390625 
Q 40.53125 31 36.078125 35.4375 
Q 31.640625 39.890625 24.03125 39.890625 
Q 20.453125 39.890625 16.90625 39.015625 
Q 13.375 38.140625 9.71875 36.28125 
z
" id="DejaVuSansCondensed-53"/>
        <path d="M 36.53125 39.3125 
Q 42.875 37.796875 46.453125 33 
Q 50.046875 28.21875 50.046875 21.1875 
Q 50.046875 10.40625 43.375 4.484375 
Q 36.71875 -1.421875 24.421875 -1.421875 
Q 20.265625 -1.421875 15.890625 -0.515625 
Q 11.53125 0.390625 6.84375 2.203125 
L 6.84375 11.71875 
Q 10.546875 9.328125 14.9375 8.109375 
Q 19.34375 6.890625 24.125 6.890625 
Q 32.46875 6.890625 36.84375 10.546875 
Q 41.21875 14.203125 41.21875 21.1875 
Q 41.21875 27.640625 37.15625 31.265625 
Q 33.109375 34.90625 25.828125 34.90625 
L 18.21875 34.90625 
L 18.21875 43.015625 
L 26.171875 43.015625 
Q 32.71875 43.015625 36.203125 45.921875 
Q 39.703125 48.828125 39.703125 54.296875 
Q 39.703125 59.90625 36.109375 62.90625 
Q 32.515625 65.921875 25.828125 65.921875 
Q 22.171875 65.921875 18.015625 65.03125 
Q 13.875 64.15625 8.84375 62.3125 
L 8.84375 71.09375 
Q 13.875 72.65625 18.28125 73.4375 
Q 22.703125 74.21875 26.609375 74.21875 
Q 36.71875 74.21875 42.625 69.109375 
Q 48.53125 64.015625 48.53125 55.328125 
Q 48.53125 49.265625 45.40625 45.09375 
Q 42.28125 40.921875 36.53125 39.3125 
z
" id="DejaVuSansCondensed-51"/>
       </defs>
       <use xlink:href="#DejaVuSansCondensed-50"/>
       <use x="57.226562" xlink:href="#DejaVuSansCondensed-53"/>
       <use x="114.453125" xlink:href="#DejaVuSansCondensed-45"/>
       <use x="146.923828" xlink:href="#DejaVuSansCondensed-51"/>
       <use x="204.150391" xlink:href="#DejaVuSansCondensed-52"/>
      </g>
     </g>
    </g>
    <g id="ytick_3">
     <g id="line2d_3">
      <g>
       <use style="stroke:#000000;stroke-width:0.8;" x="77.2" xlink:href="#m5d9461a4b7" y="221.086471"/>
      </g>
     </g>
     <g id="text_3">
      <!-- 35-44 -->
      <g transform="translate(20.532813 228.304986)scale(0.19 -0.19)">
       <use xlink:href="#DejaVuSansCondensed-51"/>
       <use x="57.226562" xlink:href="#DejaVuSansCondensed-53"/>
       <use x="114.453125" xlink:href="#DejaVuSansCondensed-45"/>
       <use x="146.923828" xlink:href="#DejaVuSansCondensed-52"/>
       <use x="204.150391" xlink:href="#DejaVuSansCondensed-52"/>
      </g>
     </g>
    </g>
    <g id="ytick_4">
     <g id="line2d_4">
      <g>
       <use style="stroke:#000000;stroke-width:0.8;" x="77.2" xlink:href="#m5d9461a4b7" y="184.41"/>
      </g>
     </g>
     <g id="text_4">
      <!-- 45-54 -->
      <g transform="translate(20.532813 191.628516)scale(0.19 -0.19)">
       <use xlink:href="#DejaVuSansCondensed-52"/>
       <use x="57.226562" xlink:href="#DejaVuSansCondensed-53"/>
       <use x="114.453125" xlink:href="#DejaVuSansCondensed-45"/>
       <use x="146.923828" xlink:href="#DejaVuSansCondensed-53"/>
       <use x="204.150391" xlink:href="#DejaVuSansCondensed-52"/>
      </g>
     </g>
    </g>
    <g id="ytick_5">
     <g id="line2d_5">
      <g>
       <use style="stroke:#000000;stroke-width:0.8;" x="77.2" xlink:href="#m5d9461a4b7" y="147.733529"/>
      </g>
     </g>
     <g id="text_5">
      <!-- 55-64 -->
      <g transform="translate(20.532813 154.952045)scale(0.19 -0.19)">
       <defs>
        <path d="M 29.6875 40.375 
Q 23.734375 40.375 20.234375 35.828125 
Q 16.75 31.296875 16.75 23.390625 
Q 16.75 15.53125 20.234375 10.953125 
Q 23.734375 6.390625 29.6875 6.390625 
Q 35.6875 6.390625 39.171875 10.953125 
Q 42.671875 15.53125 42.671875 23.390625 
Q 42.671875 31.296875 39.171875 35.828125 
Q 35.6875 40.375 29.6875 40.375 
z
M 47.3125 71.296875 
L 47.3125 62.3125 
Q 44 64.0625 40.578125 64.984375 
Q 37.15625 65.921875 33.84375 65.921875 
Q 25.046875 65.921875 20.40625 59.328125 
Q 15.765625 52.734375 15.140625 39.40625 
Q 17.71875 43.65625 21.625 45.921875 
Q 25.53125 48.1875 30.21875 48.1875 
Q 40.140625 48.1875 45.875 41.515625 
Q 51.609375 34.859375 51.609375 23.390625 
Q 51.609375 12.15625 45.625 5.359375 
Q 39.65625 -1.421875 29.6875 -1.421875 
Q 18.3125 -1.421875 12.296875 8.265625 
Q 6.296875 17.96875 6.296875 36.375 
Q 6.296875 53.65625 13.671875 63.9375 
Q 21.046875 74.21875 33.5 74.21875 
Q 36.8125 74.21875 40.234375 73.484375 
Q 43.65625 72.75 47.3125 71.296875 
z
" id="DejaVuSansCondensed-54"/>
       </defs>
       <use xlink:href="#DejaVuSansCondensed-53"/>
       <use x="57.226562" xlink:href="#DejaVuSansCondensed-53"/>
       <use x="114.453125" xlink:href="#DejaVuSansCondensed-45"/>
       <use x="146.923828" xlink:href="#DejaVuSansCondensed-54"/>
       <use x="204.150391" xlink:href="#DejaVuSansCondensed-52"/>
      </g>
     </g>
    </g>
    <g id="ytick_6">
     <g id="line2d_6">
      <g>
       <use style="stroke:#000000;stroke-width:0.8;" x="77.2" xlink:href="#m5d9461a4b7" y="111.057059"/>
      </g>
     </g>
     <g id="text_6">
      <!-- 65-74 -->
      <g transform="translate(20.532813 118.275574)scale(0.19 -0.19)">
       <defs>
        <path d="M 7.375 72.90625 
L 49.5625 72.90625 
L 49.5625 68.703125 
L 25.734375 0 
L 16.5 0 
L 38.875 64.59375 
L 7.375 64.59375 
z
" id="DejaVuSansCondensed-55"/>
       </defs>
       <use xlink:href="#DejaVuSansCondensed-54"/>
       <use x="57.226562" xlink:href="#DejaVuSansCondensed-53"/>
       <use x="114.453125" xlink:href="#DejaVuSansCondensed-45"/>
       <use x="146.923828" xlink:href="#DejaVuSansCondensed-55"/>
       <use x="204.150391" xlink:href="#DejaVuSansCondensed-52"/>
      </g>
     </g>
    </g>
    <g id="ytick_7">
     <g id="line2d_7">
      <g>
       <use style="stroke:#000000;stroke-width:0.8;" x="77.2" xlink:href="#m5d9461a4b7" y="74.380588"/>
      </g>
     </g>
     <g id="text_7">
      <!-- 75+ -->
      <g transform="translate(34.126719 81.599104)scale(0.19 -0.19)">
       <defs>
        <path d="M 41.40625 62.703125 
L 41.40625 35.5 
L 65.875 35.5 
L 65.875 27.203125 
L 41.40625 27.203125 
L 41.40625 0 
L 34.03125 0 
L 34.03125 27.203125 
L 9.515625 27.203125 
L 9.515625 35.5 
L 34.03125 35.5 
L 34.03125 62.703125 
z
" id="DejaVuSansCondensed-43"/>
       </defs>
       <use xlink:href="#DejaVuSansCondensed-55"/>
       <use x="57.226562" xlink:href="#DejaVuSansCondensed-53"/>
       <use x="114.453125" xlink:href="#DejaVuSansCondensed-43"/>
      </g>
     </g>
    </g>
   </g>
   <g id="patch_9">
    <path d="M 77.2 321.58 
L 77.2 47.24 
" style="fill:none;stroke:#000000;stroke-linecap:square;stroke-linejoin:miter;stroke-width:0.8;"/>
   </g>
   <g id="patch_10">
    <path d="M 440.28 321.58 
L 440.28 47.24 
" style="fill:none;stroke:#000000;stroke-linecap:square;stroke-linejoin:miter;stroke-width:0.8;"/>
   </g>
   <g id="patch_11">
    <path d="M 77.2 321.58 
L 440.28 321.58 
" style="fill:none;stroke:#000000;stroke-linecap:square;stroke-linejoin:miter;stroke-width:0.8;"/>
   </g>
   <g id="patch_12">
    <path d="M 77.2 47.24 
L 440.28 47.24 
" style="fill:none;stroke:#000000;stroke-linecap:square;stroke-linejoin:miter;stroke-width:0.8;"/>
   </g>
   <g id="text_8">
    <!-- 54 -->
    <g style="fill:#ffffff;" transform="translate(113.861491 299.682224)scale(0.19 -0.19)">
     <use xlink:href="#DejaVuSansCondensed-53"/>
     <use x="57.226562" xlink:href="#DejaVuSansCondensed-52"/>
    </g>
   </g>
   <g id="text_9">
    <!-- 296 -->
    <g style="fill:#ffffff;" transform="translate(385.694038 263.005754)scale(0.19 -0.19)">
     <defs>
      <path d="M 9.859375 1.515625 
L 9.859375 10.5 
Q 13.234375 8.734375 16.640625 7.8125 
Q 20.0625 6.890625 23.390625 6.890625 
Q 32.171875 6.890625 36.8125 13.453125 
Q 41.453125 20.015625 42.09375 33.40625 
Q 39.546875 29.203125 35.640625 26.953125 
Q 31.734375 24.703125 27 24.703125 
Q 17.140625 24.703125 11.40625 31.3125 
Q 5.671875 37.9375 5.671875 49.421875 
Q 5.671875 60.640625 11.640625 67.421875 
Q 17.625 74.21875 27.546875 74.21875 
Q 38.921875 74.21875 44.921875 64.515625 
Q 50.921875 54.828125 50.921875 36.375 
Q 50.921875 19.140625 43.578125 8.859375 
Q 36.234375 -1.421875 23.78125 -1.421875 
Q 20.40625 -1.421875 16.984375 -0.6875 
Q 13.578125 0.046875 9.859375 1.515625 
z
M 27.546875 32.421875 
Q 33.546875 32.421875 37.03125 36.953125 
Q 40.53125 41.5 40.53125 49.421875 
Q 40.53125 57.28125 37.03125 61.84375 
Q 33.546875 66.40625 27.546875 66.40625 
Q 21.578125 66.40625 18.078125 61.84375 
Q 14.59375 57.28125 14.59375 49.421875 
Q 14.59375 41.5 18.078125 36.953125 
Q 21.578125 32.421875 27.546875 32.421875 
z
" id="DejaVuSansCondensed-57"/>
     </defs>
     <use xlink:href="#DejaVuSansCondensed-50"/>
     <use x="57.226562" xlink:href="#DejaVuSansCondensed-57"/>
     <use x="114.453125" xlink:href="#DejaVuSansCondensed-54"/>
    </g>
   </g>
   <g id="text_10">
    <!-- 93 -->
    <g style="fill:#ffffff;" transform="translate(159.421723 226.329283)scale(0.19 -0.19)">
     <use xlink:href="#DejaVuSansCondensed-57"/>
     <use x="57.226562" xlink:href="#DejaVuSansCondensed-51"/>
    </g>
   </g>
   <g id="text_11">
    <!-- 30 -->
    <g style="fill:#ffffff;" transform="translate(85.824425 189.652812)scale(0.19 -0.19)">
     <defs>
      <path d="M 28.609375 66.40625 
Q 21.78125 66.40625 18.3125 58.90625 
Q 14.84375 51.421875 14.84375 36.375 
Q 14.84375 21.390625 18.3125 13.890625 
Q 21.78125 6.390625 28.609375 6.390625 
Q 35.5 6.390625 38.9375 13.890625 
Q 42.390625 21.390625 42.390625 36.375 
Q 42.390625 51.421875 38.9375 58.90625 
Q 35.5 66.40625 28.609375 66.40625 
z
M 28.609375 74.21875 
Q 39.65625 74.21875 45.453125 64.515625 
Q 51.265625 54.828125 51.265625 36.375 
Q 51.265625 17.96875 45.453125 8.265625 
Q 39.65625 -1.421875 28.609375 -1.421875 
Q 17.578125 -1.421875 11.765625 8.265625 
Q 5.953125 17.96875 5.953125 36.375 
Q 5.953125 54.828125 11.765625 64.515625 
Q 17.578125 74.21875 28.609375 74.21875 
z
" id="DejaVuSansCondensed-48"/>
     </defs>
     <use xlink:href="#DejaVuSansCondensed-51"/>
     <use x="57.226562" xlink:href="#DejaVuSansCondensed-48"/>
    </g>
   </g>
   <g id="text_12">
    <!-- 10 -->
    <g transform="translate(93.554955 152.976342)scale(0.19 -0.19)">
     <use xlink:href="#DejaVuSansCondensed-49"/>
     <use x="57.226562" xlink:href="#DejaVuSansCondensed-48"/>
    </g>
   </g>
   <g id="text_13">
    <!-- 2 -->
    <g transform="translate(84.209266 116.299871)scale(0.19 -0.19)">
     <use xlink:href="#DejaVuSansCondensed-50"/>
    </g>
   </g>
   <g id="text_14">
    <!-- 1 -->
    <g transform="translate(83.041055 79.623401)scale(0.19 -0.19)">
     <use xlink:href="#DejaVuSansCondensed-49"/>
    </g>
   </g>
   <g id="text_15">
    <!-- Age -->
    <g transform="translate(237.85625 39.24)scale(0.24 -0.24)">
     <defs>
      <path d="M 30.765625 63.1875 
L 18.703125 26.90625 
L 42.875 26.90625 
z
M 25.734375 72.90625 
L 35.84375 72.90625 
L 60.84375 0 
L 51.609375 0 
L 45.609375 18.703125 
L 16.015625 18.703125 
L 10.0625 0 
L 0.6875 0 
z
" id="DejaVuSansCondensed-65"/>
      <path d="M 40.875 27.984375 
Q 40.875 37.75 37.234375 43.109375 
Q 33.59375 48.484375 27.046875 48.484375 
Q 20.5625 48.484375 16.9375 43.109375 
Q 13.328125 37.75 13.328125 27.984375 
Q 13.328125 18.265625 16.9375 12.890625 
Q 20.5625 7.515625 27.046875 7.515625 
Q 33.59375 7.515625 37.234375 12.890625 
Q 40.875 18.265625 40.875 27.984375 
z
M 48.96875 6.78125 
Q 48.96875 -7.171875 43.375 -13.984375 
Q 37.796875 -20.796875 26.265625 -20.796875 
Q 22.015625 -20.796875 18.234375 -20.09375 
Q 14.453125 -19.390625 10.890625 -17.921875 
L 10.890625 -9.1875 
Q 14.453125 -11.328125 17.921875 -12.34375 
Q 21.390625 -13.375 25 -13.375 
Q 32.953125 -13.375 36.90625 -8.765625 
Q 40.875 -4.15625 40.875 5.171875 
L 40.875 9.625 
Q 38.375 4.78125 34.46875 2.390625 
Q 30.5625 0 25.09375 0 
Q 16.015625 0 10.5 7.65625 
Q 4.984375 15.328125 4.984375 27.984375 
Q 4.984375 40.671875 10.5 48.328125 
Q 16.015625 56 25.09375 56 
Q 30.5625 56 34.46875 53.609375 
Q 38.375 51.21875 40.875 46.390625 
L 40.875 54.6875 
L 48.96875 54.6875 
z
" id="DejaVuSansCondensed-103"/>
      <path d="M 50.59375 29.59375 
L 50.59375 25.203125 
L 13.375 25.203125 
Q 13.921875 15.921875 18.4375 11.0625 
Q 22.953125 6.203125 30.953125 6.203125 
Q 35.640625 6.203125 40.015625 7.46875 
Q 44.390625 8.734375 48.6875 11.28125 
L 48.6875 2.78125 
Q 44.34375 0.734375 39.765625 -0.34375 
Q 35.203125 -1.421875 30.515625 -1.421875 
Q 18.703125 -1.421875 11.84375 6.1875 
Q 4.984375 13.8125 4.984375 26.8125 
Q 4.984375 40.234375 11.5 48.109375 
Q 18.015625 56 29.109375 56 
Q 39.015625 56 44.796875 48.890625 
Q 50.59375 41.796875 50.59375 29.59375 
z
M 42.484375 32.234375 
Q 42.390625 39.59375 38.765625 43.984375 
Q 35.15625 48.390625 29.203125 48.390625 
Q 22.40625 48.390625 18.328125 44.140625 
Q 14.265625 39.890625 13.671875 32.171875 
z
" id="DejaVuSansCondensed-101"/>
     </defs>
     <use xlink:href="#DejaVuSansCondensed-65"/>
     <use x="61.523438" xlink:href="#DejaVuSansCondensed-103"/>
     <use x="118.652344" xlink:href="#DejaVuSansCondensed-101"/>
    </g>
   </g>
  </g>
 </g>
 <defs>
  <clipPath id="p44850a3ae8">
   <rect height="274.34" width="363.08" x="77.2" y="47.24"/>
  </clipPath>
 </defs>
</svg>
