<?xml version="1.0" encoding="utf-8" standalone="no"?>
<!DOCTYPE svg PUBLIC "-//W3C//DTD SVG 1.1//EN"
  "http://www.w3.org/Graphics/SVG/1.1/DTD/svg11.dtd">
<!-- Created with matplotlib (https://matplotlib.org/) -->
<svg height="345.6pt" version="1.1" viewBox="0 0 460.8 345.6" width="460.8pt" xmlns="http://www.w3.org/2000/svg" xmlns:xlink="http://www.w3.org/1999/xlink">
 <metadata>
  <rdf:RDF xmlns:cc="http://creativecommons.org/ns#" xmlns:dc="http://purl.org/dc/elements/1.1/" xmlns:rdf="http://www.w3.org/1999/02/22-rdf-syntax-ns#">
   <cc:Work>
    <dc:type rdf:resource="http://purl.org/dc/dcmitype/StillImage"/>
    <dc:date>2020-08-08T07:56:57.762965</dc:date>
    <dc:format>image/svg+xml</dc:format>
    <dc:creator>
     <cc:Agent>
      <dc:title>Matplotlib v3.3.0, https://matplotlib.org/</dc:title>
     </cc:Agent>
    </dc:creator>
   </cc:Work>
  </rdf:RDF>
 </metadata>
 <defs>
  <style type="text/css">*{stroke-linecap:butt;stroke-linejoin:round;}</style>
 </defs>
 <g id="figure_1">
  <g id="axes_1">
   <g id="patch_1">
    <path d="M 131.02 321.58 
L 440.28 321.58 
L 440.28 47.24 
L 131.02 47.24 
z
" style="fill:#ffffff;"/>
   </g>
   <g id="patch_2">
    <path clip-path="url(#p57a1e23f3d)" d="M 131.02 309.11 
L 425.553333 309.11 
L 425.553333 267.543333 
L 131.02 267.543333 
z
" style="fill:#001177;"/>
   </g>
   <g id="patch_3">
    <path clip-path="url(#p57a1e23f3d)" d="M 131.02 257.151667 
L 392.50813 257.151667 
L 392.50813 215.585 
L 131.02 215.585 
z
" style="fill:#001177;"/>
   </g>
   <g id="patch_4">
    <path clip-path="url(#p57a1e23f3d)" d="M 131.02 205.193333 
L 208.60439 205.193333 
L 208.60439 163.626667 
L 131.02 163.626667 
z
" style="fill:#001177;"/>
   </g>
   <g id="patch_5">
    <path clip-path="url(#p57a1e23f3d)" d="M 131.02 153.235 
L 188.489919 153.235 
L 188.489919 111.668333 
L 131.02 111.668333 
z
" style="fill:#001177;"/>
   </g>
   <g id="patch_6">
    <path clip-path="url(#p57a1e23f3d)" d="M 131.02 101.276667 
L 138.20374 101.276667 
L 138.20374 59.71 
L 131.02 59.71 
z
" style="fill:#001177;"/>
   </g>
   <g id="matplotlib.axis_1">
    <g id="ytick_1">
     <g id="line2d_1">
      <defs>
       <path d="M 0 0 
L -3.5 0 
" id="m0d6dac1dce" style="stroke:#000000;stroke-width:0.8;"/>
      </defs>
      <g>
       <use style="stroke:#000000;stroke-width:0.8;" x="131.02" xlink:href="#m0d6dac1dce" y="288.326667"/>
      </g>
     </g>
     <g id="text_1">
      <!-- Daily -->
      <g transform="translate(80.77125 295.545182)scale(0.19 -0.19)">
       <defs>
        <path d="M 17.71875 64.796875 
L 17.71875 8.109375 
L 28.421875 8.109375 
Q 42 8.109375 48.3125 14.9375 
Q 54.640625 21.78125 54.640625 36.53125 
Q 54.640625 51.171875 48.3125 57.984375 
Q 42 64.796875 28.421875 64.796875 
z
M 8.84375 72.90625 
L 27.046875 72.90625 
Q 46.140625 72.90625 55.046875 64.09375 
Q 63.96875 55.28125 63.96875 36.53125 
Q 63.96875 17.671875 55 8.828125 
Q 46.046875 0 27.046875 0 
L 8.84375 0 
z
" id="DejaVuSansCondensed-68"/>
        <path d="M 30.859375 27.484375 
Q 21.046875 27.484375 17.265625 25 
Q 13.484375 22.515625 13.484375 16.5 
Q 13.484375 11.71875 16.3125 8.90625 
Q 19.140625 6.109375 24.03125 6.109375 
Q 30.765625 6.109375 34.8125 11.40625 
Q 38.875 16.703125 38.875 25.484375 
L 38.875 27.484375 
z
M 46.96875 31.203125 
L 46.96875 0 
L 38.875 0 
L 38.875 8.296875 
Q 36.140625 3.328125 32 0.953125 
Q 27.875 -1.421875 21.875 -1.421875 
Q 14.3125 -1.421875 9.859375 3.296875 
Q 5.421875 8.015625 5.421875 15.921875 
Q 5.421875 25.140625 10.953125 29.828125 
Q 16.5 34.515625 27.546875 34.515625 
L 38.875 34.515625 
L 38.875 35.40625 
Q 38.875 41.609375 35.203125 45 
Q 31.546875 48.390625 24.90625 48.390625 
Q 20.703125 48.390625 16.703125 47.265625 
Q 12.703125 46.140625 8.984375 43.890625 
L 8.984375 52.203125 
Q 13.421875 54.109375 17.59375 55.046875 
Q 21.78125 56 25.734375 56 
Q 36.421875 56 41.6875 49.84375 
Q 46.96875 43.703125 46.96875 31.203125 
z
" id="DejaVuSansCondensed-97"/>
        <path d="M 8.5 54.6875 
L 16.546875 54.6875 
L 16.546875 0 
L 8.5 0 
z
M 8.5 75.984375 
L 16.546875 75.984375 
L 16.546875 64.59375 
L 8.5 64.59375 
z
" id="DejaVuSansCondensed-105"/>
        <path d="M 8.5 75.984375 
L 16.546875 75.984375 
L 16.546875 0 
L 8.5 0 
z
" id="DejaVuSansCondensed-108"/>
        <path d="M 28.953125 -5.078125 
Q 25.53125 -14.84375 22.28125 -17.8125 
Q 19.046875 -20.796875 13.578125 -20.796875 
L 7.125 -20.796875 
L 7.125 -13.28125 
L 11.859375 -13.28125 
Q 15.1875 -13.28125 17.03125 -11.515625 
Q 18.890625 -9.765625 21.140625 -3.21875 
L 22.609375 0.875 
L 2.6875 54.6875 
L 11.234375 54.6875 
L 26.609375 11.921875 
L 42 54.6875 
L 50.59375 54.6875 
z
" id="DejaVuSansCondensed-121"/>
       </defs>
       <use xlink:href="#DejaVuSansCondensed-68"/>
       <use x="69.287109" xlink:href="#DejaVuSansCondensed-97"/>
       <use x="124.414062" xlink:href="#DejaVuSansCondensed-105"/>
       <use x="149.414062" xlink:href="#DejaVuSansCondensed-108"/>
       <use x="174.414062" xlink:href="#DejaVuSansCondensed-121"/>
      </g>
     </g>
    </g>
    <g id="ytick_2">
     <g id="line2d_2">
      <g>
       <use style="stroke:#000000;stroke-width:0.8;" x="131.02" xlink:href="#m0d6dac1dce" y="236.368333"/>
      </g>
     </g>
     <g id="text_2">
      <!-- Weekly -->
      <g transform="translate(62.430313 243.586849)scale(0.19 -0.19)">
       <defs>
        <path d="M 2.984375 72.90625 
L 11.96875 72.90625 
L 25.734375 11.28125 
L 39.5 72.90625 
L 49.46875 72.90625 
L 63.28125 11.28125 
L 77.046875 72.90625 
L 86.03125 72.90625 
L 69.578125 0 
L 58.40625 0 
L 44.578125 63.28125 
L 30.5625 0 
L 19.4375 0 
z
" id="DejaVuSansCondensed-87"/>
        <path d="M 50.59375 29.59375 
L 50.59375 25.203125 
L 13.375 25.203125 
Q 13.921875 15.921875 18.4375 11.0625 
Q 22.953125 6.203125 30.953125 6.203125 
Q 35.640625 6.203125 40.015625 7.46875 
Q 44.390625 8.734375 48.6875 11.28125 
L 48.6875 2.78125 
Q 44.34375 0.734375 39.765625 -0.34375 
Q 35.203125 -1.421875 30.515625 -1.421875 
Q 18.703125 -1.421875 11.84375 6.1875 
Q 4.984375 13.8125 4.984375 26.8125 
Q 4.984375 40.234375 11.5 48.109375 
Q 18.015625 56 29.109375 56 
Q 39.015625 56 44.796875 48.890625 
Q 50.59375 41.796875 50.59375 29.59375 
z
M 42.484375 32.234375 
Q 42.390625 39.59375 38.765625 43.984375 
Q 35.15625 48.390625 29.203125 48.390625 
Q 22.40625 48.390625 18.328125 44.140625 
Q 14.265625 39.890625 13.671875 32.171875 
z
" id="DejaVuSansCondensed-101"/>
        <path d="M 8.15625 75.984375 
L 16.3125 75.984375 
L 16.3125 31.109375 
L 40.4375 54.6875 
L 50.78125 54.6875 
L 24.65625 29.109375 
L 51.859375 0 
L 41.3125 0 
L 16.3125 26.703125 
L 16.3125 0 
L 8.15625 0 
z
" id="DejaVuSansCondensed-107"/>
       </defs>
       <use xlink:href="#DejaVuSansCondensed-87"/>
       <use x="83.089844" xlink:href="#DejaVuSansCondensed-101"/>
       <use x="138.460938" xlink:href="#DejaVuSansCondensed-101"/>
       <use x="193.832031" xlink:href="#DejaVuSansCondensed-107"/>
       <use x="245.931641" xlink:href="#DejaVuSansCondensed-108"/>
       <use x="270.931641" xlink:href="#DejaVuSansCondensed-121"/>
      </g>
     </g>
    </g>
    <g id="ytick_3">
     <g id="line2d_3">
      <g>
       <use style="stroke:#000000;stroke-width:0.8;" x="131.02" xlink:href="#m0d6dac1dce" y="184.41"/>
      </g>
     </g>
     <g id="text_3">
      <!-- Monthly -->
      <g transform="translate(55.581406 191.628516)scale(0.19 -0.19)">
       <defs>
        <path d="M 8.84375 72.90625 
L 22.078125 72.90625 
L 38.8125 23.296875 
L 55.609375 72.90625 
L 68.84375 72.90625 
L 68.84375 0 
L 60.203125 0 
L 60.203125 64.015625 
L 43.265625 14.015625 
L 34.375 14.015625 
L 17.4375 64.015625 
L 17.4375 0 
L 8.84375 0 
z
" id="DejaVuSansCondensed-77"/>
        <path d="M 27.546875 48.390625 
Q 21.046875 48.390625 17.265625 42.75 
Q 13.484375 37.109375 13.484375 27.296875 
Q 13.484375 17.484375 17.234375 11.84375 
Q 21 6.203125 27.546875 6.203125 
Q 34.03125 6.203125 37.78125 11.859375 
Q 41.546875 17.53125 41.546875 27.296875 
Q 41.546875 37.015625 37.78125 42.703125 
Q 34.03125 48.390625 27.546875 48.390625 
z
M 27.546875 56 
Q 38.09375 56 44.109375 48.375 
Q 50.140625 40.765625 50.140625 27.296875 
Q 50.140625 13.875 44.109375 6.21875 
Q 38.09375 -1.421875 27.546875 -1.421875 
Q 16.9375 -1.421875 10.953125 6.21875 
Q 4.984375 13.875 4.984375 27.296875 
Q 4.984375 40.765625 10.953125 48.375 
Q 16.9375 56 27.546875 56 
z
" id="DejaVuSansCondensed-111"/>
        <path d="M 49.421875 33.015625 
L 49.421875 0 
L 41.3125 0 
L 41.3125 32.71875 
Q 41.3125 40.484375 38.578125 44.328125 
Q 35.84375 48.1875 30.421875 48.1875 
Q 23.875 48.1875 20.09375 43.546875 
Q 16.3125 38.921875 16.3125 30.90625 
L 16.3125 0 
L 8.15625 0 
L 8.15625 54.6875 
L 16.3125 54.6875 
L 16.3125 46.1875 
Q 19.1875 51.125 23.109375 53.5625 
Q 27.046875 56 32.234375 56 
Q 40.671875 56 45.046875 50.171875 
Q 49.421875 44.34375 49.421875 33.015625 
z
" id="DejaVuSansCondensed-110"/>
        <path d="M 16.5 70.21875 
L 16.5 54.6875 
L 33.15625 54.6875 
L 33.15625 47.703125 
L 16.5 47.703125 
L 16.5 18.015625 
Q 16.5 11.328125 18.140625 9.421875 
Q 19.78125 7.515625 24.8125 7.515625 
L 33.15625 7.515625 
L 33.15625 0 
L 24.8125 0 
Q 15.484375 0 11.90625 3.875 
Q 8.34375 7.765625 8.34375 18.015625 
L 8.34375 47.703125 
L 2.4375 47.703125 
L 2.4375 54.6875 
L 8.34375 54.6875 
L 8.34375 70.21875 
z
" id="DejaVuSansCondensed-116"/>
        <path d="M 49.421875 33.015625 
L 49.421875 0 
L 41.3125 0 
L 41.3125 32.71875 
Q 41.3125 40.484375 38.578125 44.328125 
Q 35.84375 48.1875 30.421875 48.1875 
Q 23.875 48.1875 20.09375 43.546875 
Q 16.3125 38.921875 16.3125 30.90625 
L 16.3125 0 
L 8.15625 0 
L 8.15625 75.984375 
L 16.3125 75.984375 
L 16.3125 46.1875 
Q 19.1875 51.125 23.109375 53.5625 
Q 27.046875 56 32.234375 56 
Q 40.671875 56 45.046875 50.171875 
Q 49.421875 44.34375 49.421875 33.015625 
z
" id="DejaVuSansCondensed-104"/>
       </defs>
       <use xlink:href="#DejaVuSansCondensed-77"/>
       <use x="77.636719" xlink:href="#DejaVuSansCondensed-111"/>
       <use x="132.666016" xlink:href="#DejaVuSansCondensed-110"/>
       <use x="189.697266" xlink:href="#DejaVuSansCondensed-116"/>
       <use x="224.951172" xlink:href="#DejaVuSansCondensed-104"/>
       <use x="281.982422" xlink:href="#DejaVuSansCondensed-108"/>
       <use x="306.982422" xlink:href="#DejaVuSansCondensed-121"/>
      </g>
     </g>
    </g>
    <g id="ytick_4">
     <g id="line2d_4">
      <g>
       <use style="stroke:#000000;stroke-width:0.8;" x="131.02" xlink:href="#m0d6dac1dce" y="132.451667"/>
      </g>
     </g>
     <g id="text_4">
      <!-- Infrequently -->
      <g transform="translate(20.410625 139.670182)scale(0.19 -0.19)">
       <defs>
        <path d="M 8.84375 72.90625 
L 17.71875 72.90625 
L 17.71875 0 
L 8.84375 0 
z
" id="DejaVuSansCondensed-73"/>
        <path d="M 33.40625 75.984375 
L 33.40625 68.5 
L 25.6875 68.5 
Q 21.296875 68.5 19.609375 66.546875 
Q 17.921875 64.59375 17.921875 59.515625 
L 17.921875 54.6875 
L 31.25 54.6875 
L 31.25 47.703125 
L 17.921875 47.703125 
L 17.921875 0 
L 9.8125 0 
L 9.8125 47.703125 
L 2.046875 47.703125 
L 2.046875 54.6875 
L 9.8125 54.6875 
L 9.8125 58.5 
Q 9.8125 67.625 13.625 71.796875 
Q 17.4375 75.984375 25.734375 75.984375 
z
" id="DejaVuSansCondensed-102"/>
        <path d="M 37.015625 46.296875 
Q 35.640625 47.171875 34.03125 47.578125 
Q 32.421875 48 30.515625 48 
Q 23.640625 48 19.96875 43.046875 
Q 16.3125 38.09375 16.3125 28.8125 
L 16.3125 0 
L 8.15625 0 
L 8.15625 54.6875 
L 16.3125 54.6875 
L 16.3125 46.1875 
Q 18.84375 51.171875 22.9375 53.578125 
Q 27.046875 56 32.859375 56 
Q 33.6875 56 34.71875 55.875 
Q 35.75 55.765625 36.96875 55.515625 
z
" id="DejaVuSansCondensed-114"/>
        <path d="M 13.328125 27.296875 
Q 13.328125 17.390625 16.984375 11.75 
Q 20.65625 6.109375 27.046875 6.109375 
Q 33.5 6.109375 37.1875 11.75 
Q 40.875 17.390625 40.875 27.296875 
Q 40.875 37.203125 37.1875 42.84375 
Q 33.5 48.484375 27.046875 48.484375 
Q 20.65625 48.484375 16.984375 42.84375 
Q 13.328125 37.203125 13.328125 27.296875 
z
M 40.875 8.203125 
Q 38.328125 3.328125 34.4375 0.953125 
Q 30.5625 -1.421875 25.09375 -1.421875 
Q 16.15625 -1.421875 10.5625 6.484375 
Q 4.984375 14.40625 4.984375 27.296875 
Q 4.984375 40.1875 10.5625 48.09375 
Q 16.15625 56 25.09375 56 
Q 30.5625 56 34.4375 53.625 
Q 38.328125 51.265625 40.875 46.390625 
L 40.875 54.6875 
L 48.96875 54.6875 
L 48.96875 -20.796875 
L 40.875 -20.796875 
z
" id="DejaVuSansCondensed-113"/>
        <path d="M 7.671875 21.578125 
L 7.671875 54.6875 
L 15.71875 54.6875 
L 15.71875 21.921875 
Q 15.71875 14.15625 18.453125 10.265625 
Q 21.1875 6.390625 26.609375 6.390625 
Q 33.203125 6.390625 36.984375 11.03125 
Q 40.765625 15.671875 40.765625 23.6875 
L 40.765625 54.6875 
L 48.875 54.6875 
L 48.875 0 
L 40.765625 0 
L 40.765625 8.40625 
Q 37.84375 3.421875 33.953125 1 
Q 30.078125 -1.421875 24.90625 -1.421875 
Q 16.453125 -1.421875 12.0625 4.4375 
Q 7.671875 10.296875 7.671875 21.578125 
z
M 27.984375 56 
z
" id="DejaVuSansCondensed-117"/>
       </defs>
       <use xlink:href="#DejaVuSansCondensed-73"/>
       <use x="26.513672" xlink:href="#DejaVuSansCondensed-110"/>
       <use x="83.544922" xlink:href="#DejaVuSansCondensed-102"/>
       <use x="115.185547" xlink:href="#DejaVuSansCondensed-114"/>
       <use x="149.898438" xlink:href="#DejaVuSansCondensed-101"/>
       <use x="205.269531" xlink:href="#DejaVuSansCondensed-113"/>
       <use x="262.398438" xlink:href="#DejaVuSansCondensed-117"/>
       <use x="319.429688" xlink:href="#DejaVuSansCondensed-101"/>
       <use x="374.800781" xlink:href="#DejaVuSansCondensed-110"/>
       <use x="431.832031" xlink:href="#DejaVuSansCondensed-116"/>
       <use x="467.085938" xlink:href="#DejaVuSansCondensed-108"/>
       <use x="492.085938" xlink:href="#DejaVuSansCondensed-121"/>
      </g>
     </g>
    </g>
    <g id="ytick_5">
     <g id="line2d_5">
      <g>
       <use style="stroke:#000000;stroke-width:0.8;" x="131.02" xlink:href="#m0d6dac1dce" y="80.493333"/>
      </g>
     </g>
     <g id="text_5">
      <!-- Never -->
      <g transform="translate(73.058438 87.711849)scale(0.19 -0.19)">
       <defs>
        <path d="M 8.84375 72.90625 
L 20.796875 72.90625 
L 49.90625 11.921875 
L 49.90625 72.90625 
L 58.5 72.90625 
L 58.5 0 
L 46.53125 0 
L 17.4375 60.984375 
L 17.4375 0 
L 8.84375 0 
z
" id="DejaVuSansCondensed-78"/>
        <path d="M 2.6875 54.6875 
L 11.234375 54.6875 
L 26.609375 8.796875 
L 42 54.6875 
L 50.59375 54.6875 
L 32.125 0 
L 21.140625 0 
z
" id="DejaVuSansCondensed-118"/>
       </defs>
       <use xlink:href="#DejaVuSansCondensed-78"/>
       <use x="67.285156" xlink:href="#DejaVuSansCondensed-101"/>
       <use x="122.65625" xlink:href="#DejaVuSansCondensed-118"/>
       <use x="175.878906" xlink:href="#DejaVuSansCondensed-101"/>
       <use x="231.25" xlink:href="#DejaVuSansCondensed-114"/>
      </g>
     </g>
    </g>
   </g>
   <g id="patch_7">
    <path d="M 131.02 321.58 
L 131.02 47.24 
" style="fill:none;stroke:#000000;stroke-linecap:square;stroke-linejoin:miter;stroke-width:0.8;"/>
   </g>
   <g id="patch_8">
    <path d="M 440.28 321.58 
L 440.28 47.24 
" style="fill:none;stroke:#000000;stroke-linecap:square;stroke-linejoin:miter;stroke-width:0.8;"/>
   </g>
   <g id="patch_9">
    <path d="M 131.02 321.58 
L 440.28 321.58 
" style="fill:none;stroke:#000000;stroke-linecap:square;stroke-linejoin:miter;stroke-width:0.8;"/>
   </g>
   <g id="patch_10">
    <path d="M 131.02 47.24 
L 440.28 47.24 
" style="fill:none;stroke:#000000;stroke-linecap:square;stroke-linejoin:miter;stroke-width:0.8;"/>
   </g>
   <g id="text_6">
    <!-- 205 -->
    <g style="fill:#ffffff;" transform="translate(387.182748 293.569479)scale(0.19 -0.19)">
     <defs>
      <path d="M 17.28125 8.296875 
L 48.25 8.296875 
L 48.25 0 
L 6.59375 0 
L 6.59375 8.296875 
Q 11.625 14.109375 20.359375 23.890625 
Q 29.109375 33.6875 31.34375 36.53125 
Q 35.59375 41.84375 37.28125 45.53125 
Q 38.96875 49.21875 38.96875 52.78125 
Q 38.96875 58.59375 35.296875 62.25 
Q 31.640625 65.921875 25.734375 65.921875 
Q 21.578125 65.921875 16.9375 64.3125 
Q 12.3125 62.703125 7.03125 59.421875 
L 7.03125 69.390625 
Q 12.40625 71.78125 17.0625 73 
Q 21.734375 74.21875 25.59375 74.21875 
Q 35.796875 74.21875 41.84375 68.546875 
Q 47.90625 62.890625 47.90625 53.421875 
Q 47.90625 48.921875 46.390625 44.890625 
Q 44.875 40.875 40.875 35.40625 
Q 39.75 33.984375 33.859375 27.21875 
Q 27.984375 20.453125 17.28125 8.296875 
z
" id="DejaVuSansCondensed-50"/>
      <path d="M 28.609375 66.40625 
Q 21.78125 66.40625 18.3125 58.90625 
Q 14.84375 51.421875 14.84375 36.375 
Q 14.84375 21.390625 18.3125 13.890625 
Q 21.78125 6.390625 28.609375 6.390625 
Q 35.5 6.390625 38.9375 13.890625 
Q 42.390625 21.390625 42.390625 36.375 
Q 42.390625 51.421875 38.9375 58.90625 
Q 35.5 66.40625 28.609375 66.40625 
z
M 28.609375 74.21875 
Q 39.65625 74.21875 45.453125 64.515625 
Q 51.265625 54.828125 51.265625 36.375 
Q 51.265625 17.96875 45.453125 8.265625 
Q 39.65625 -1.421875 28.609375 -1.421875 
Q 17.578125 -1.421875 11.765625 8.265625 
Q 5.953125 17.96875 5.953125 36.375 
Q 5.953125 54.828125 11.765625 64.515625 
Q 17.578125 74.21875 28.609375 74.21875 
z
" id="DejaVuSansCondensed-48"/>
      <path d="M 9.71875 72.90625 
L 44.578125 72.90625 
L 44.578125 64.59375 
L 17.828125 64.59375 
L 17.828125 46.734375 
Q 19.78125 47.46875 21.703125 47.828125 
Q 23.640625 48.1875 25.59375 48.1875 
Q 36.578125 48.1875 43 41.5 
Q 49.421875 34.8125 49.421875 23.390625 
Q 49.421875 11.625 42.828125 5.09375 
Q 36.234375 -1.421875 24.21875 -1.421875 
Q 20.0625 -1.421875 15.796875 -0.640625 
Q 11.53125 0.140625 6.9375 1.703125 
L 6.9375 11.625 
Q 10.890625 9.234375 15.109375 8.0625 
Q 19.34375 6.890625 24.03125 6.890625 
Q 31.640625 6.890625 36.078125 11.328125 
Q 40.53125 15.765625 40.53125 23.390625 
Q 40.53125 31 36.078125 35.4375 
Q 31.640625 39.890625 24.03125 39.890625 
Q 20.453125 39.890625 16.90625 39.015625 
Q 13.375 38.140625 9.71875 36.28125 
z
" id="DejaVuSansCondensed-53"/>
     </defs>
     <use xlink:href="#DejaVuSansCondensed-50"/>
     <use x="57.226562" xlink:href="#DejaVuSansCondensed-48"/>
     <use x="114.453125" xlink:href="#DejaVuSansCondensed-53"/>
    </g>
   </g>
   <g id="text_7">
    <!-- 182 -->
    <g style="fill:#ffffff;" transform="translate(354.137544 241.611146)scale(0.19 -0.19)">
     <defs>
      <path d="M 11.1875 8.296875 
L 25.6875 8.296875 
L 25.6875 63.921875 
L 9.859375 60.40625 
L 9.859375 69.390625 
L 25.59375 72.90625 
L 34.46875 72.90625 
L 34.46875 8.296875 
L 48.96875 8.296875 
L 48.96875 0 
L 11.1875 0 
z
" id="DejaVuSansCondensed-49"/>
      <path d="M 28.609375 34.625 
Q 22.265625 34.625 18.65625 30.859375 
Q 15.046875 27.09375 15.046875 20.515625 
Q 15.046875 13.921875 18.65625 10.15625 
Q 22.265625 6.390625 28.609375 6.390625 
Q 34.96875 6.390625 38.59375 10.171875 
Q 42.234375 13.96875 42.234375 20.515625 
Q 42.234375 27.09375 38.59375 30.859375 
Q 34.96875 34.625 28.609375 34.625 
z
M 19.734375 38.8125 
Q 14.015625 40.375 10.84375 44.71875 
Q 7.671875 49.078125 7.671875 55.328125 
Q 7.671875 64.0625 13.25 69.140625 
Q 18.84375 74.21875 28.609375 74.21875 
Q 38.421875 74.21875 43.984375 69.140625 
Q 49.5625 64.0625 49.5625 55.328125 
Q 49.5625 49.078125 46.390625 44.71875 
Q 43.21875 40.375 37.546875 38.8125 
Q 43.953125 37.15625 47.53125 32.3125 
Q 51.125 27.484375 51.125 20.515625 
Q 51.125 9.90625 45.28125 4.234375 
Q 39.453125 -1.421875 28.609375 -1.421875 
Q 17.78125 -1.421875 11.9375 4.234375 
Q 6.109375 9.90625 6.109375 20.515625 
Q 6.109375 27.484375 9.71875 32.3125 
Q 13.328125 37.15625 19.734375 38.8125 
z
M 16.5 54.390625 
Q 16.5 48.734375 19.671875 45.5625 
Q 22.859375 42.390625 28.609375 42.390625 
Q 34.328125 42.390625 37.546875 45.5625 
Q 40.765625 48.734375 40.765625 54.390625 
Q 40.765625 60.0625 37.546875 63.234375 
Q 34.328125 66.40625 28.609375 66.40625 
Q 22.859375 66.40625 19.671875 63.234375 
Q 16.5 60.0625 16.5 54.390625 
z
" id="DejaVuSansCondensed-56"/>
     </defs>
     <use xlink:href="#DejaVuSansCondensed-49"/>
     <use x="57.226562" xlink:href="#DejaVuSansCondensed-56"/>
     <use x="114.453125" xlink:href="#DejaVuSansCondensed-50"/>
    </g>
   </g>
   <g id="text_8">
    <!-- 54 -->
    <g style="fill:#ffffff;" transform="translate(181.108336 189.652812)scale(0.19 -0.19)">
     <defs>
      <path d="M 34.03125 64.3125 
L 11.625 25.390625 
L 34.03125 25.390625 
z
M 31.6875 72.90625 
L 42.875 72.90625 
L 42.875 25.390625 
L 52.203125 25.390625 
L 52.203125 17.1875 
L 42.875 17.1875 
L 42.875 0 
L 34.03125 0 
L 34.03125 17.1875 
L 4.390625 17.1875 
L 4.390625 26.703125 
z
" id="DejaVuSansCondensed-52"/>
     </defs>
     <use xlink:href="#DejaVuSansCondensed-53"/>
     <use x="57.226562" xlink:href="#DejaVuSansCondensed-52"/>
    </g>
   </g>
   <g id="text_9">
    <!-- 40 -->
    <g style="fill:#ffffff;" transform="translate(160.993864 137.694479)scale(0.19 -0.19)">
     <use xlink:href="#DejaVuSansCondensed-52"/>
     <use x="57.226562" xlink:href="#DejaVuSansCondensed-48"/>
    </g>
   </g>
   <g id="text_10">
    <!-- 5 -->
    <g transform="translate(143.950732 85.736146)scale(0.19 -0.19)">
     <use xlink:href="#DejaVuSansCondensed-53"/>
    </g>
   </g>
   <g id="text_11">
    <!-- Play Frequency -->
    <g transform="translate(204.048125 39.24)scale(0.24 -0.24)">
     <defs>
      <path d="M 17.71875 64.796875 
L 17.71875 37.40625 
L 28.859375 37.40625 
Q 35.0625 37.40625 38.453125 40.96875 
Q 41.84375 44.53125 41.84375 51.125 
Q 41.84375 57.671875 38.453125 61.234375 
Q 35.0625 64.796875 28.859375 64.796875 
z
M 8.84375 72.90625 
L 28.859375 72.90625 
Q 39.890625 72.90625 45.53125 67.359375 
Q 51.171875 61.8125 51.171875 51.125 
Q 51.171875 40.328125 45.53125 34.8125 
Q 39.890625 29.296875 28.859375 29.296875 
L 17.71875 29.296875 
L 17.71875 0 
L 8.84375 0 
z
" id="DejaVuSansCondensed-80"/>
      <path id="DejaVuSansCondensed-32"/>
      <path d="M 8.84375 72.90625 
L 46.53125 72.90625 
L 46.53125 64.59375 
L 17.71875 64.59375 
L 17.71875 43.109375 
L 43.75 43.109375 
L 43.75 34.8125 
L 17.71875 34.8125 
L 17.71875 0 
L 8.84375 0 
z
" id="DejaVuSansCondensed-70"/>
      <path d="M 43.890625 52.59375 
L 43.890625 44.1875 
Q 40.484375 46.296875 37.03125 47.34375 
Q 33.59375 48.390625 30.078125 48.390625 
Q 22.171875 48.390625 17.828125 42.84375 
Q 13.484375 37.3125 13.484375 27.296875 
Q 13.484375 17.28125 17.828125 11.734375 
Q 22.171875 6.203125 30.078125 6.203125 
Q 33.59375 6.203125 37.03125 7.25 
Q 40.484375 8.296875 43.890625 10.40625 
L 43.890625 2.09375 
Q 40.53125 0.34375 36.890625 -0.53125 
Q 33.25 -1.421875 29.203125 -1.421875 
Q 18.0625 -1.421875 11.515625 6.34375 
Q 4.984375 14.109375 4.984375 27.296875 
Q 4.984375 40.671875 11.59375 48.328125 
Q 18.21875 56 29.6875 56 
Q 33.453125 56 37.015625 55.140625 
Q 40.578125 54.296875 43.890625 52.59375 
z
" id="DejaVuSansCondensed-99"/>
     </defs>
     <use xlink:href="#DejaVuSansCondensed-80"/>
     <use x="54.248047" xlink:href="#DejaVuSansCondensed-108"/>
     <use x="79.248047" xlink:href="#DejaVuSansCondensed-97"/>
     <use x="134.375" xlink:href="#DejaVuSansCondensed-121"/>
     <use x="187.597656" xlink:href="#DejaVuSansCondensed-32"/>
     <use x="216.162109" xlink:href="#DejaVuSansCondensed-70"/>
     <use x="260.669922" xlink:href="#DejaVuSansCondensed-114"/>
     <use x="295.382812" xlink:href="#DejaVuSansCondensed-101"/>
     <use x="350.753906" xlink:href="#DejaVuSansCondensed-113"/>
     <use x="407.882812" xlink:href="#DejaVuSansCondensed-117"/>
     <use x="464.914062" xlink:href="#DejaVuSansCondensed-101"/>
     <use x="520.285156" xlink:href="#DejaVuSansCondensed-110"/>
     <use x="577.316406" xlink:href="#DejaVuSansCondensed-99"/>
     <use x="626.779297" xlink:href="#DejaVuSansCondensed-121"/>
    </g>
   </g>
  </g>
 </g>
 <defs>
  <clipPath id="p57a1e23f3d">
   <rect height="274.34" width="309.26" x="131.02" y="47.24"/>
  </clipPath>
 </defs>
</svg>
