<?xml version="1.0" encoding="utf-8" standalone="no"?>
<!DOCTYPE svg PUBLIC "-//W3C//DTD SVG 1.1//EN"
  "http://www.w3.org/Graphics/SVG/1.1/DTD/svg11.dtd">
<!-- Created with matplotlib (https://matplotlib.org/) -->
<svg height="345.6pt" version="1.1" viewBox="0 0 460.8 345.6" width="460.8pt" xmlns="http://www.w3.org/2000/svg" xmlns:xlink="http://www.w3.org/1999/xlink">
 <metadata>
  <rdf:RDF xmlns:cc="http://creativecommons.org/ns#" xmlns:dc="http://purl.org/dc/elements/1.1/" xmlns:rdf="http://www.w3.org/1999/02/22-rdf-syntax-ns#">
   <cc:Work>
    <dc:type rdf:resource="http://purl.org/dc/dcmitype/StillImage"/>
    <dc:date>2020-08-08T07:56:54.545136</dc:date>
    <dc:format>image/svg+xml</dc:format>
    <dc:creator>
     <cc:Agent>
      <dc:title>Matplotlib v3.3.0, https://matplotlib.org/</dc:title>
     </cc:Agent>
    </dc:creator>
   </cc:Work>
  </rdf:RDF>
 </metadata>
 <defs>
  <style type="text/css">*{stroke-linecap:butt;stroke-linejoin:round;}</style>
 </defs>
 <g id="figure_1">
  <g id="patch_1">
   <path d="M 0 345.6 
L 460.8 345.6 
L 460.8 0 
L 0 0 
z
" style="fill:#ffffff;"/>
  </g>
  <g id="axes_1">
   <g id="patch_2">
    <path d="M 63.11 289.6 
L 444.6 289.6 
L 444.6 74.88 
L 63.11 74.88 
z
" style="fill:#ffffff;"/>
   </g>
   <g id="patch_3">
    <path clip-path="url(#pd20ff2a2ba)" d="M 63.11 279.84 
L 464.678421 279.84 
L 464.678421 264.824615 
L 63.11 264.824615 
z
" style="fill:#ffffff;opacity:0.3;stroke:#808080;stroke-linejoin:miter;"/>
   </g>
   <g id="patch_4">
    <path clip-path="url(#pd20ff2a2ba)" d="M 63.11 264.824615 
L 464.678421 264.824615 
L 464.678421 249.809231 
L 63.11 249.809231 
z
" style="fill:#ffffff;opacity:0.3;stroke:#808080;stroke-linejoin:miter;"/>
   </g>
   <g id="patch_5">
    <path clip-path="url(#pd20ff2a2ba)" d="M 63.11 249.809231 
L 464.678421 249.809231 
L 464.678421 234.793846 
L 63.11 234.793846 
z
" style="fill:#ffffff;opacity:0.3;stroke:#808080;stroke-linejoin:miter;"/>
   </g>
   <g id="patch_6">
    <path clip-path="url(#pd20ff2a2ba)" d="M 63.11 234.793846 
L 464.678421 234.793846 
L 464.678421 219.778462 
L 63.11 219.778462 
z
" style="fill:#ffffff;opacity:0.3;stroke:#808080;stroke-linejoin:miter;"/>
   </g>
   <g id="patch_7">
    <path clip-path="url(#pd20ff2a2ba)" d="M 63.11 219.778462 
L 464.678421 219.778462 
L 464.678421 204.763077 
L 63.11 204.763077 
z
" style="fill:#ffffff;opacity:0.3;stroke:#808080;stroke-linejoin:miter;"/>
   </g>
   <g id="patch_8">
    <path clip-path="url(#pd20ff2a2ba)" d="M 63.11 204.763077 
L 464.678421 204.763077 
L 464.678421 189.747692 
L 63.11 189.747692 
z
" style="fill:#ffffff;opacity:0.3;stroke:#808080;stroke-linejoin:miter;"/>
   </g>
   <g id="patch_9">
    <path clip-path="url(#pd20ff2a2ba)" d="M 63.11 189.747692 
L 464.678421 189.747692 
L 464.678421 174.732308 
L 63.11 174.732308 
z
" style="fill:#ffffff;opacity:0.3;stroke:#808080;stroke-linejoin:miter;"/>
   </g>
   <g id="patch_10">
    <path clip-path="url(#pd20ff2a2ba)" d="M 63.11 174.732308 
L 464.678421 174.732308 
L 464.678421 159.716923 
L 63.11 159.716923 
z
" style="fill:#ffffff;opacity:0.3;stroke:#808080;stroke-linejoin:miter;"/>
   </g>
   <g id="patch_11">
    <path clip-path="url(#pd20ff2a2ba)" d="M 63.11 159.716923 
L 464.678421 159.716923 
L 464.678421 144.701538 
L 63.11 144.701538 
z
" style="fill:#ffffff;opacity:0.3;stroke:#808080;stroke-linejoin:miter;"/>
   </g>
   <g id="patch_12">
    <path clip-path="url(#pd20ff2a2ba)" d="M 63.11 144.701538 
L 464.678421 144.701538 
L 464.678421 129.686154 
L 63.11 129.686154 
z
" style="fill:#ffffff;opacity:0.3;stroke:#808080;stroke-linejoin:miter;"/>
   </g>
   <g id="patch_13">
    <path clip-path="url(#pd20ff2a2ba)" d="M 63.11 129.686154 
L 464.678421 129.686154 
L 464.678421 114.670769 
L 63.11 114.670769 
z
" style="fill:#ffffff;opacity:0.3;stroke:#808080;stroke-linejoin:miter;"/>
   </g>
   <g id="patch_14">
    <path clip-path="url(#pd20ff2a2ba)" d="M 63.11 114.670769 
L 464.678421 114.670769 
L 464.678421 99.655385 
L 63.11 99.655385 
z
" style="fill:#ffffff;opacity:0.3;stroke:#808080;stroke-linejoin:miter;"/>
   </g>
   <g id="patch_15">
    <path clip-path="url(#pd20ff2a2ba)" d="M 63.11 99.655385 
L 464.678421 99.655385 
L 464.678421 84.64 
L 63.11 84.64 
z
" style="fill:#ffffff;opacity:0.3;stroke:#808080;stroke-linejoin:miter;"/>
   </g>
   <g id="patch_16">
    <path clip-path="url(#pd20ff2a2ba)" d="M 63.11 279.84 
L 63.11 279.84 
L 63.11 274.834872 
L 63.11 274.834872 
z
" style="fill:#9900bb;"/>
   </g>
   <g id="patch_17">
    <path clip-path="url(#pd20ff2a2ba)" d="M 63.11 264.824615 
L 63.11 264.824615 
L 63.11 259.819487 
L 63.11 259.819487 
z
" style="fill:#9900bb;"/>
   </g>
   <g id="patch_18">
    <path clip-path="url(#pd20ff2a2ba)" d="M 63.11 249.809231 
L 143.423684 249.809231 
L 143.423684 244.804103 
L 63.11 244.804103 
z
" style="fill:#9900bb;"/>
   </g>
   <g id="patch_19">
    <path clip-path="url(#pd20ff2a2ba)" d="M 63.11 234.793846 
L 263.894211 234.793846 
L 263.894211 229.788718 
L 63.11 229.788718 
z
" style="fill:#9900bb;"/>
   </g>
   <g id="patch_20">
    <path clip-path="url(#pd20ff2a2ba)" d="M 63.11 219.778462 
L 103.266842 219.778462 
L 103.266842 214.773333 
L 63.11 214.773333 
z
" style="fill:#9900bb;"/>
   </g>
   <g id="patch_21">
    <path clip-path="url(#pd20ff2a2ba)" d="M 63.11 204.763077 
L 304.051053 204.763077 
L 304.051053 199.757949 
L 63.11 199.757949 
z
" style="fill:#9900bb;"/>
   </g>
   <g id="patch_22">
    <path clip-path="url(#pd20ff2a2ba)" d="M 63.11 189.747692 
L 263.894211 189.747692 
L 263.894211 184.742564 
L 63.11 184.742564 
z
" style="fill:#9900bb;"/>
   </g>
   <g id="patch_23">
    <path clip-path="url(#pd20ff2a2ba)" d="M 63.11 174.732308 
L 304.051053 174.732308 
L 304.051053 169.727179 
L 63.11 169.727179 
z
" style="fill:#9900bb;"/>
   </g>
   <g id="patch_24">
    <path clip-path="url(#pd20ff2a2ba)" d="M 63.11 159.716923 
L 424.521579 159.716923 
L 424.521579 154.711795 
L 63.11 154.711795 
z
" style="fill:#9900bb;"/>
   </g>
   <g id="patch_25">
    <path clip-path="url(#pd20ff2a2ba)" d="M 63.11 144.701538 
L 223.737368 144.701538 
L 223.737368 139.69641 
L 63.11 139.69641 
z
" style="fill:#9900bb;"/>
   </g>
   <g id="patch_26">
    <path clip-path="url(#pd20ff2a2ba)" d="M 63.11 129.686154 
L 143.423684 129.686154 
L 143.423684 124.681026 
L 63.11 124.681026 
z
" style="fill:#9900bb;"/>
   </g>
   <g id="patch_27">
    <path clip-path="url(#pd20ff2a2ba)" d="M 63.11 114.670769 
L 63.11 114.670769 
L 63.11 109.665641 
L 63.11 109.665641 
z
" style="fill:#9900bb;"/>
   </g>
   <g id="patch_28">
    <path clip-path="url(#pd20ff2a2ba)" d="M 63.11 99.655385 
L 63.11 99.655385 
L 63.11 94.650256 
L 63.11 94.650256 
z
" style="fill:#9900bb;"/>
   </g>
   <g id="patch_29">
    <path clip-path="url(#pd20ff2a2ba)" d="M 63.11 274.834872 
L 63.11 274.834872 
L 63.11 269.829744 
L 63.11 269.829744 
z
" style="fill:#ffbb00;"/>
   </g>
   <g id="patch_30">
    <path clip-path="url(#pd20ff2a2ba)" d="M 63.11 259.819487 
L 63.11 259.819487 
L 63.11 254.814359 
L 63.11 254.814359 
z
" style="fill:#ffbb00;"/>
   </g>
   <g id="patch_31">
    <path clip-path="url(#pd20ff2a2ba)" d="M 63.11 244.804103 
L 63.11 244.804103 
L 63.11 239.798974 
L 63.11 239.798974 
z
" style="fill:#ffbb00;"/>
   </g>
   <g id="patch_32">
    <path clip-path="url(#pd20ff2a2ba)" d="M 63.11 229.788718 
L 63.11 229.788718 
L 63.11 224.78359 
L 63.11 224.78359 
z
" style="fill:#ffbb00;"/>
   </g>
   <g id="patch_33">
    <path clip-path="url(#pd20ff2a2ba)" d="M 63.11 214.773333 
L 63.11 214.773333 
L 63.11 209.768205 
L 63.11 209.768205 
z
" style="fill:#ffbb00;"/>
   </g>
   <g id="patch_34">
    <path clip-path="url(#pd20ff2a2ba)" d="M 63.11 199.757949 
L 63.11 199.757949 
L 63.11 194.752821 
L 63.11 194.752821 
z
" style="fill:#ffbb00;"/>
   </g>
   <g id="patch_35">
    <path clip-path="url(#pd20ff2a2ba)" d="M 63.11 184.742564 
L 63.11 184.742564 
L 63.11 179.737436 
L 63.11 179.737436 
z
" style="fill:#ffbb00;"/>
   </g>
   <g id="patch_36">
    <path clip-path="url(#pd20ff2a2ba)" d="M 63.11 169.727179 
L 143.423684 169.727179 
L 143.423684 164.722051 
L 63.11 164.722051 
z
" style="fill:#ffbb00;"/>
   </g>
   <g id="patch_37">
    <path clip-path="url(#pd20ff2a2ba)" d="M 63.11 154.711795 
L 183.580526 154.711795 
L 183.580526 149.706667 
L 63.11 149.706667 
z
" style="fill:#ffbb00;"/>
   </g>
   <g id="patch_38">
    <path clip-path="url(#pd20ff2a2ba)" d="M 63.11 139.69641 
L 183.580526 139.69641 
L 183.580526 134.691282 
L 63.11 134.691282 
z
" style="fill:#ffbb00;"/>
   </g>
   <g id="patch_39">
    <path clip-path="url(#pd20ff2a2ba)" d="M 63.11 124.681026 
L 344.207895 124.681026 
L 344.207895 119.675897 
L 63.11 119.675897 
z
" style="fill:#ffbb00;"/>
   </g>
   <g id="patch_40">
    <path clip-path="url(#pd20ff2a2ba)" d="M 63.11 109.665641 
L 223.737368 109.665641 
L 223.737368 104.660513 
L 63.11 104.660513 
z
" style="fill:#ffbb00;"/>
   </g>
   <g id="patch_41">
    <path clip-path="url(#pd20ff2a2ba)" d="M 63.11 94.650256 
L 63.11 94.650256 
L 63.11 89.645128 
L 63.11 89.645128 
z
" style="fill:#ffbb00;"/>
   </g>
   <g id="patch_42">
    <path clip-path="url(#pd20ff2a2ba)" d="M 63.11 269.829744 
L 63.11 269.829744 
L 63.11 264.824615 
L 63.11 264.824615 
z
" style="fill:#0066cc;"/>
   </g>
   <g id="patch_43">
    <path clip-path="url(#pd20ff2a2ba)" d="M 63.11 254.814359 
L 63.11 254.814359 
L 63.11 249.809231 
L 63.11 249.809231 
z
" style="fill:#0066cc;"/>
   </g>
   <g id="patch_44">
    <path clip-path="url(#pd20ff2a2ba)" d="M 63.11 239.798974 
L 63.11 239.798974 
L 63.11 234.793846 
L 63.11 234.793846 
z
" style="fill:#0066cc;"/>
   </g>
   <g id="patch_45">
    <path clip-path="url(#pd20ff2a2ba)" d="M 63.11 224.78359 
L 63.11 224.78359 
L 63.11 219.778462 
L 63.11 219.778462 
z
" style="fill:#0066cc;"/>
   </g>
   <g id="patch_46">
    <path clip-path="url(#pd20ff2a2ba)" d="M 63.11 209.768205 
L 63.11 209.768205 
L 63.11 204.763077 
L 63.11 204.763077 
z
" style="fill:#0066cc;"/>
   </g>
   <g id="patch_47">
    <path clip-path="url(#pd20ff2a2ba)" d="M 63.11 194.752821 
L 63.11 194.752821 
L 63.11 189.747692 
L 63.11 189.747692 
z
" style="fill:#0066cc;"/>
   </g>
   <g id="patch_48">
    <path clip-path="url(#pd20ff2a2ba)" d="M 63.11 179.737436 
L 63.11 179.737436 
L 63.11 174.732308 
L 63.11 174.732308 
z
" style="fill:#0066cc;"/>
   </g>
   <g id="patch_49">
    <path clip-path="url(#pd20ff2a2ba)" d="M 63.11 164.722051 
L 63.11 164.722051 
L 63.11 159.716923 
L 63.11 159.716923 
z
" style="fill:#0066cc;"/>
   </g>
   <g id="patch_50">
    <path clip-path="url(#pd20ff2a2ba)" d="M 63.11 149.706667 
L 103.266842 149.706667 
L 103.266842 144.701538 
L 63.11 144.701538 
z
" style="fill:#0066cc;"/>
   </g>
   <g id="patch_51">
    <path clip-path="url(#pd20ff2a2ba)" d="M 63.11 134.691282 
L 63.11 134.691282 
L 63.11 129.686154 
L 63.11 129.686154 
z
" style="fill:#0066cc;"/>
   </g>
   <g id="patch_52">
    <path clip-path="url(#pd20ff2a2ba)" d="M 63.11 119.675897 
L 63.11 119.675897 
L 63.11 114.670769 
L 63.11 114.670769 
z
" style="fill:#0066cc;"/>
   </g>
   <g id="patch_53">
    <path clip-path="url(#pd20ff2a2ba)" d="M 63.11 104.660513 
L 63.11 104.660513 
L 63.11 99.655385 
L 63.11 99.655385 
z
" style="fill:#0066cc;"/>
   </g>
   <g id="patch_54">
    <path clip-path="url(#pd20ff2a2ba)" d="M 63.11 89.645128 
L 63.11 89.645128 
L 63.11 84.64 
L 63.11 84.64 
z
" style="fill:#0066cc;"/>
   </g>
   <g id="matplotlib.axis_1">
    <g id="xtick_1">
     <g id="line2d_1">
      <defs>
       <path d="M 0 0 
L 0 3.5 
" id="m04c1f43f6b" style="stroke:#000000;stroke-width:0.8;"/>
      </defs>
      <g>
       <use style="stroke:#000000;stroke-width:0.8;" x="63.11" xlink:href="#m04c1f43f6b" y="289.6"/>
      </g>
     </g>
     <g id="text_1">
      <!-- 0 -->
      <g transform="translate(58.817422 307.997656)scale(0.15 -0.15)">
       <defs>
        <path d="M 28.609375 66.40625 
Q 21.78125 66.40625 18.3125 58.90625 
Q 14.84375 51.421875 14.84375 36.375 
Q 14.84375 21.390625 18.3125 13.890625 
Q 21.78125 6.390625 28.609375 6.390625 
Q 35.5 6.390625 38.9375 13.890625 
Q 42.390625 21.390625 42.390625 36.375 
Q 42.390625 51.421875 38.9375 58.90625 
Q 35.5 66.40625 28.609375 66.40625 
z
M 28.609375 74.21875 
Q 39.65625 74.21875 45.453125 64.515625 
Q 51.265625 54.828125 51.265625 36.375 
Q 51.265625 17.96875 45.453125 8.265625 
Q 39.65625 -1.421875 28.609375 -1.421875 
Q 17.578125 -1.421875 11.765625 8.265625 
Q 5.953125 17.96875 5.953125 36.375 
Q 5.953125 54.828125 11.765625 64.515625 
Q 17.578125 74.21875 28.609375 74.21875 
z
" id="DejaVuSansCondensed-48"/>
       </defs>
       <use xlink:href="#DejaVuSansCondensed-48"/>
      </g>
     </g>
    </g>
    <g id="xtick_2">
     <g id="line2d_2">
      <g>
       <use style="stroke:#000000;stroke-width:0.8;" x="103.266842" xlink:href="#m04c1f43f6b" y="289.6"/>
      </g>
     </g>
     <g id="text_2">
      <!-- 1 -->
      <g transform="translate(98.974264 307.997656)scale(0.15 -0.15)">
       <defs>
        <path d="M 11.1875 8.296875 
L 25.6875 8.296875 
L 25.6875 63.921875 
L 9.859375 60.40625 
L 9.859375 69.390625 
L 25.59375 72.90625 
L 34.46875 72.90625 
L 34.46875 8.296875 
L 48.96875 8.296875 
L 48.96875 0 
L 11.1875 0 
z
" id="DejaVuSansCondensed-49"/>
       </defs>
       <use xlink:href="#DejaVuSansCondensed-49"/>
      </g>
     </g>
    </g>
    <g id="xtick_3">
     <g id="line2d_3">
      <g>
       <use style="stroke:#000000;stroke-width:0.8;" x="143.423684" xlink:href="#m04c1f43f6b" y="289.6"/>
      </g>
     </g>
     <g id="text_3">
      <!-- 2 -->
      <g transform="translate(139.131106 307.997656)scale(0.15 -0.15)">
       <defs>
        <path d="M 17.28125 8.296875 
L 48.25 8.296875 
L 48.25 0 
L 6.59375 0 
L 6.59375 8.296875 
Q 11.625 14.109375 20.359375 23.890625 
Q 29.109375 33.6875 31.34375 36.53125 
Q 35.59375 41.84375 37.28125 45.53125 
Q 38.96875 49.21875 38.96875 52.78125 
Q 38.96875 58.59375 35.296875 62.25 
Q 31.640625 65.921875 25.734375 65.921875 
Q 21.578125 65.921875 16.9375 64.3125 
Q 12.3125 62.703125 7.03125 59.421875 
L 7.03125 69.390625 
Q 12.40625 71.78125 17.0625 73 
Q 21.734375 74.21875 25.59375 74.21875 
Q 35.796875 74.21875 41.84375 68.546875 
Q 47.90625 62.890625 47.90625 53.421875 
Q 47.90625 48.921875 46.390625 44.890625 
Q 44.875 40.875 40.875 35.40625 
Q 39.75 33.984375 33.859375 27.21875 
Q 27.984375 20.453125 17.28125 8.296875 
z
" id="DejaVuSansCondensed-50"/>
       </defs>
       <use xlink:href="#DejaVuSansCondensed-50"/>
      </g>
     </g>
    </g>
    <g id="xtick_4">
     <g id="line2d_4">
      <g>
       <use style="stroke:#000000;stroke-width:0.8;" x="183.580526" xlink:href="#m04c1f43f6b" y="289.6"/>
      </g>
     </g>
     <g id="text_4">
      <!-- 3 -->
      <g transform="translate(179.287948 307.997656)scale(0.15 -0.15)">
       <defs>
        <path d="M 36.53125 39.3125 
Q 42.875 37.796875 46.453125 33 
Q 50.046875 28.21875 50.046875 21.1875 
Q 50.046875 10.40625 43.375 4.484375 
Q 36.71875 -1.421875 24.421875 -1.421875 
Q 20.265625 -1.421875 15.890625 -0.515625 
Q 11.53125 0.390625 6.84375 2.203125 
L 6.84375 11.71875 
Q 10.546875 9.328125 14.9375 8.109375 
Q 19.34375 6.890625 24.125 6.890625 
Q 32.46875 6.890625 36.84375 10.546875 
Q 41.21875 14.203125 41.21875 21.1875 
Q 41.21875 27.640625 37.15625 31.265625 
Q 33.109375 34.90625 25.828125 34.90625 
L 18.21875 34.90625 
L 18.21875 43.015625 
L 26.171875 43.015625 
Q 32.71875 43.015625 36.203125 45.921875 
Q 39.703125 48.828125 39.703125 54.296875 
Q 39.703125 59.90625 36.109375 62.90625 
Q 32.515625 65.921875 25.828125 65.921875 
Q 22.171875 65.921875 18.015625 65.03125 
Q 13.875 64.15625 8.84375 62.3125 
L 8.84375 71.09375 
Q 13.875 72.65625 18.28125 73.4375 
Q 22.703125 74.21875 26.609375 74.21875 
Q 36.71875 74.21875 42.625 69.109375 
Q 48.53125 64.015625 48.53125 55.328125 
Q 48.53125 49.265625 45.40625 45.09375 
Q 42.28125 40.921875 36.53125 39.3125 
z
" id="DejaVuSansCondensed-51"/>
       </defs>
       <use xlink:href="#DejaVuSansCondensed-51"/>
      </g>
     </g>
    </g>
    <g id="xtick_5">
     <g id="line2d_5">
      <g>
       <use style="stroke:#000000;stroke-width:0.8;" x="223.737368" xlink:href="#m04c1f43f6b" y="289.6"/>
      </g>
     </g>
     <g id="text_5">
      <!-- 4 -->
      <g transform="translate(219.44479 307.997656)scale(0.15 -0.15)">
       <defs>
        <path d="M 34.03125 64.3125 
L 11.625 25.390625 
L 34.03125 25.390625 
z
M 31.6875 72.90625 
L 42.875 72.90625 
L 42.875 25.390625 
L 52.203125 25.390625 
L 52.203125 17.1875 
L 42.875 17.1875 
L 42.875 0 
L 34.03125 0 
L 34.03125 17.1875 
L 4.390625 17.1875 
L 4.390625 26.703125 
z
" id="DejaVuSansCondensed-52"/>
       </defs>
       <use xlink:href="#DejaVuSansCondensed-52"/>
      </g>
     </g>
    </g>
    <g id="xtick_6">
     <g id="line2d_6">
      <g>
       <use style="stroke:#000000;stroke-width:0.8;" x="263.894211" xlink:href="#m04c1f43f6b" y="289.6"/>
      </g>
     </g>
     <g id="text_6">
      <!-- 5 -->
      <g transform="translate(259.601632 307.997656)scale(0.15 -0.15)">
       <defs>
        <path d="M 9.71875 72.90625 
L 44.578125 72.90625 
L 44.578125 64.59375 
L 17.828125 64.59375 
L 17.828125 46.734375 
Q 19.78125 47.46875 21.703125 47.828125 
Q 23.640625 48.1875 25.59375 48.1875 
Q 36.578125 48.1875 43 41.5 
Q 49.421875 34.8125 49.421875 23.390625 
Q 49.421875 11.625 42.828125 5.09375 
Q 36.234375 -1.421875 24.21875 -1.421875 
Q 20.0625 -1.421875 15.796875 -0.640625 
Q 11.53125 0.140625 6.9375 1.703125 
L 6.9375 11.625 
Q 10.890625 9.234375 15.109375 8.0625 
Q 19.34375 6.890625 24.03125 6.890625 
Q 31.640625 6.890625 36.078125 11.328125 
Q 40.53125 15.765625 40.53125 23.390625 
Q 40.53125 31 36.078125 35.4375 
Q 31.640625 39.890625 24.03125 39.890625 
Q 20.453125 39.890625 16.90625 39.015625 
Q 13.375 38.140625 9.71875 36.28125 
z
" id="DejaVuSansCondensed-53"/>
       </defs>
       <use xlink:href="#DejaVuSansCondensed-53"/>
      </g>
     </g>
    </g>
    <g id="xtick_7">
     <g id="line2d_7">
      <g>
       <use style="stroke:#000000;stroke-width:0.8;" x="304.051053" xlink:href="#m04c1f43f6b" y="289.6"/>
      </g>
     </g>
     <g id="text_7">
      <!-- 6 -->
      <g transform="translate(299.758475 307.997656)scale(0.15 -0.15)">
       <defs>
        <path d="M 29.6875 40.375 
Q 23.734375 40.375 20.234375 35.828125 
Q 16.75 31.296875 16.75 23.390625 
Q 16.75 15.53125 20.234375 10.953125 
Q 23.734375 6.390625 29.6875 6.390625 
Q 35.6875 6.390625 39.171875 10.953125 
Q 42.671875 15.53125 42.671875 23.390625 
Q 42.671875 31.296875 39.171875 35.828125 
Q 35.6875 40.375 29.6875 40.375 
z
M 47.3125 71.296875 
L 47.3125 62.3125 
Q 44 64.0625 40.578125 64.984375 
Q 37.15625 65.921875 33.84375 65.921875 
Q 25.046875 65.921875 20.40625 59.328125 
Q 15.765625 52.734375 15.140625 39.40625 
Q 17.71875 43.65625 21.625 45.921875 
Q 25.53125 48.1875 30.21875 48.1875 
Q 40.140625 48.1875 45.875 41.515625 
Q 51.609375 34.859375 51.609375 23.390625 
Q 51.609375 12.15625 45.625 5.359375 
Q 39.65625 -1.421875 29.6875 -1.421875 
Q 18.3125 -1.421875 12.296875 8.265625 
Q 6.296875 17.96875 6.296875 36.375 
Q 6.296875 53.65625 13.671875 63.9375 
Q 21.046875 74.21875 33.5 74.21875 
Q 36.8125 74.21875 40.234375 73.484375 
Q 43.65625 72.75 47.3125 71.296875 
z
" id="DejaVuSansCondensed-54"/>
       </defs>
       <use xlink:href="#DejaVuSansCondensed-54"/>
      </g>
     </g>
    </g>
    <g id="xtick_8">
     <g id="line2d_8">
      <g>
       <use style="stroke:#000000;stroke-width:0.8;" x="344.207895" xlink:href="#m04c1f43f6b" y="289.6"/>
      </g>
     </g>
     <g id="text_8">
      <!-- 7 -->
      <g transform="translate(339.915317 307.997656)scale(0.15 -0.15)">
       <defs>
        <path d="M 7.375 72.90625 
L 49.5625 72.90625 
L 49.5625 68.703125 
L 25.734375 0 
L 16.5 0 
L 38.875 64.59375 
L 7.375 64.59375 
z
" id="DejaVuSansCondensed-55"/>
       </defs>
       <use xlink:href="#DejaVuSansCondensed-55"/>
      </g>
     </g>
    </g>
    <g id="xtick_9">
     <g id="line2d_9">
      <g>
       <use style="stroke:#000000;stroke-width:0.8;" x="384.364737" xlink:href="#m04c1f43f6b" y="289.6"/>
      </g>
     </g>
     <g id="text_9">
      <!-- 8 -->
      <g transform="translate(380.072159 307.997656)scale(0.15 -0.15)">
       <defs>
        <path d="M 28.609375 34.625 
Q 22.265625 34.625 18.65625 30.859375 
Q 15.046875 27.09375 15.046875 20.515625 
Q 15.046875 13.921875 18.65625 10.15625 
Q 22.265625 6.390625 28.609375 6.390625 
Q 34.96875 6.390625 38.59375 10.171875 
Q 42.234375 13.96875 42.234375 20.515625 
Q 42.234375 27.09375 38.59375 30.859375 
Q 34.96875 34.625 28.609375 34.625 
z
M 19.734375 38.8125 
Q 14.015625 40.375 10.84375 44.71875 
Q 7.671875 49.078125 7.671875 55.328125 
Q 7.671875 64.0625 13.25 69.140625 
Q 18.84375 74.21875 28.609375 74.21875 
Q 38.421875 74.21875 43.984375 69.140625 
Q 49.5625 64.0625 49.5625 55.328125 
Q 49.5625 49.078125 46.390625 44.71875 
Q 43.21875 40.375 37.546875 38.8125 
Q 43.953125 37.15625 47.53125 32.3125 
Q 51.125 27.484375 51.125 20.515625 
Q 51.125 9.90625 45.28125 4.234375 
Q 39.453125 -1.421875 28.609375 -1.421875 
Q 17.78125 -1.421875 11.9375 4.234375 
Q 6.109375 9.90625 6.109375 20.515625 
Q 6.109375 27.484375 9.71875 32.3125 
Q 13.328125 37.15625 19.734375 38.8125 
z
M 16.5 54.390625 
Q 16.5 48.734375 19.671875 45.5625 
Q 22.859375 42.390625 28.609375 42.390625 
Q 34.328125 42.390625 37.546875 45.5625 
Q 40.765625 48.734375 40.765625 54.390625 
Q 40.765625 60.0625 37.546875 63.234375 
Q 34.328125 66.40625 28.609375 66.40625 
Q 22.859375 66.40625 19.671875 63.234375 
Q 16.5 60.0625 16.5 54.390625 
z
" id="DejaVuSansCondensed-56"/>
       </defs>
       <use xlink:href="#DejaVuSansCondensed-56"/>
      </g>
     </g>
    </g>
    <g id="xtick_10">
     <g id="line2d_10">
      <g>
       <use style="stroke:#000000;stroke-width:0.8;" x="424.521579" xlink:href="#m04c1f43f6b" y="289.6"/>
      </g>
     </g>
     <g id="text_10">
      <!-- 9 -->
      <g transform="translate(420.229001 307.997656)scale(0.15 -0.15)">
       <defs>
        <path d="M 9.859375 1.515625 
L 9.859375 10.5 
Q 13.234375 8.734375 16.640625 7.8125 
Q 20.0625 6.890625 23.390625 6.890625 
Q 32.171875 6.890625 36.8125 13.453125 
Q 41.453125 20.015625 42.09375 33.40625 
Q 39.546875 29.203125 35.640625 26.953125 
Q 31.734375 24.703125 27 24.703125 
Q 17.140625 24.703125 11.40625 31.3125 
Q 5.671875 37.9375 5.671875 49.421875 
Q 5.671875 60.640625 11.640625 67.421875 
Q 17.625 74.21875 27.546875 74.21875 
Q 38.921875 74.21875 44.921875 64.515625 
Q 50.921875 54.828125 50.921875 36.375 
Q 50.921875 19.140625 43.578125 8.859375 
Q 36.234375 -1.421875 23.78125 -1.421875 
Q 20.40625 -1.421875 16.984375 -0.6875 
Q 13.578125 0.046875 9.859375 1.515625 
z
M 27.546875 32.421875 
Q 33.546875 32.421875 37.03125 36.953125 
Q 40.53125 41.5 40.53125 49.421875 
Q 40.53125 57.28125 37.03125 61.84375 
Q 33.546875 66.40625 27.546875 66.40625 
Q 21.578125 66.40625 18.078125 61.84375 
Q 14.59375 57.28125 14.59375 49.421875 
Q 14.59375 41.5 18.078125 36.953125 
Q 21.578125 32.421875 27.546875 32.421875 
z
" id="DejaVuSansCondensed-57"/>
       </defs>
       <use xlink:href="#DejaVuSansCondensed-57"/>
      </g>
     </g>
    </g>
    <g id="text_11">
     <!-- Number of Characters -->
     <g transform="translate(179.13625 326.514844)scale(0.15 -0.15)">
      <defs>
       <path d="M 8.84375 72.90625 
L 20.796875 72.90625 
L 49.90625 11.921875 
L 49.90625 72.90625 
L 58.5 72.90625 
L 58.5 0 
L 46.53125 0 
L 17.4375 60.984375 
L 17.4375 0 
L 8.84375 0 
z
" id="DejaVuSansCondensed-78"/>
       <path d="M 7.671875 21.578125 
L 7.671875 54.6875 
L 15.71875 54.6875 
L 15.71875 21.921875 
Q 15.71875 14.15625 18.453125 10.265625 
Q 21.1875 6.390625 26.609375 6.390625 
Q 33.203125 6.390625 36.984375 11.03125 
Q 40.765625 15.671875 40.765625 23.6875 
L 40.765625 54.6875 
L 48.875 54.6875 
L 48.875 0 
L 40.765625 0 
L 40.765625 8.40625 
Q 37.84375 3.421875 33.953125 1 
Q 30.078125 -1.421875 24.90625 -1.421875 
Q 16.453125 -1.421875 12.0625 4.4375 
Q 7.671875 10.296875 7.671875 21.578125 
z
M 27.984375 56 
z
" id="DejaVuSansCondensed-117"/>
       <path d="M 46.78125 44.1875 
Q 49.859375 50.25 54.046875 53.125 
Q 58.25 56 63.96875 56 
Q 71.6875 56 75.859375 50.015625 
Q 80.03125 44.046875 80.03125 33.015625 
L 80.03125 0 
L 71.875 0 
L 71.875 32.71875 
Q 71.875 40.578125 69.375 44.375 
Q 66.890625 48.1875 61.71875 48.1875 
Q 55.46875 48.1875 51.796875 43.546875 
Q 48.140625 38.921875 48.140625 30.90625 
L 48.140625 0 
L 40.046875 0 
L 40.046875 32.71875 
Q 40.046875 40.625 37.53125 44.40625 
Q 35.015625 48.1875 29.78125 48.1875 
Q 23.578125 48.1875 19.9375 43.53125 
Q 16.3125 38.875 16.3125 30.90625 
L 16.3125 0 
L 8.15625 0 
L 8.15625 54.6875 
L 16.3125 54.6875 
L 16.3125 46.1875 
Q 19.09375 51.21875 22.953125 53.609375 
Q 26.8125 56 32.125 56 
Q 37.5 56 41.25 52.96875 
Q 45.015625 49.953125 46.78125 44.1875 
z
" id="DejaVuSansCondensed-109"/>
       <path d="M 43.796875 27.296875 
Q 43.796875 37.203125 40.125 42.84375 
Q 36.46875 48.484375 30.078125 48.484375 
Q 23.640625 48.484375 19.96875 42.84375 
Q 16.3125 37.203125 16.3125 27.296875 
Q 16.3125 17.390625 19.96875 11.75 
Q 23.640625 6.109375 30.078125 6.109375 
Q 36.46875 6.109375 40.125 11.75 
Q 43.796875 17.390625 43.796875 27.296875 
z
M 16.3125 46.390625 
Q 18.84375 51.265625 22.71875 53.625 
Q 26.609375 56 32.03125 56 
Q 41.015625 56 46.609375 48.09375 
Q 52.203125 40.1875 52.203125 27.296875 
Q 52.203125 14.40625 46.609375 6.484375 
Q 41.015625 -1.421875 32.03125 -1.421875 
Q 26.609375 -1.421875 22.71875 0.953125 
Q 18.84375 3.328125 16.3125 8.203125 
L 16.3125 0 
L 8.15625 0 
L 8.15625 75.984375 
L 16.3125 75.984375 
z
" id="DejaVuSansCondensed-98"/>
       <path d="M 50.59375 29.59375 
L 50.59375 25.203125 
L 13.375 25.203125 
Q 13.921875 15.921875 18.4375 11.0625 
Q 22.953125 6.203125 30.953125 6.203125 
Q 35.640625 6.203125 40.015625 7.46875 
Q 44.390625 8.734375 48.6875 11.28125 
L 48.6875 2.78125 
Q 44.34375 0.734375 39.765625 -0.34375 
Q 35.203125 -1.421875 30.515625 -1.421875 
Q 18.703125 -1.421875 11.84375 6.1875 
Q 4.984375 13.8125 4.984375 26.8125 
Q 4.984375 40.234375 11.5 48.109375 
Q 18.015625 56 29.109375 56 
Q 39.015625 56 44.796875 48.890625 
Q 50.59375 41.796875 50.59375 29.59375 
z
M 42.484375 32.234375 
Q 42.390625 39.59375 38.765625 43.984375 
Q 35.15625 48.390625 29.203125 48.390625 
Q 22.40625 48.390625 18.328125 44.140625 
Q 14.265625 39.890625 13.671875 32.171875 
z
" id="DejaVuSansCondensed-101"/>
       <path d="M 37.015625 46.296875 
Q 35.640625 47.171875 34.03125 47.578125 
Q 32.421875 48 30.515625 48 
Q 23.640625 48 19.96875 43.046875 
Q 16.3125 38.09375 16.3125 28.8125 
L 16.3125 0 
L 8.15625 0 
L 8.15625 54.6875 
L 16.3125 54.6875 
L 16.3125 46.1875 
Q 18.84375 51.171875 22.9375 53.578125 
Q 27.046875 56 32.859375 56 
Q 33.6875 56 34.71875 55.875 
Q 35.75 55.765625 36.96875 55.515625 
z
" id="DejaVuSansCondensed-114"/>
       <path id="DejaVuSansCondensed-32"/>
       <path d="M 27.546875 48.390625 
Q 21.046875 48.390625 17.265625 42.75 
Q 13.484375 37.109375 13.484375 27.296875 
Q 13.484375 17.484375 17.234375 11.84375 
Q 21 6.203125 27.546875 6.203125 
Q 34.03125 6.203125 37.78125 11.859375 
Q 41.546875 17.53125 41.546875 27.296875 
Q 41.546875 37.015625 37.78125 42.703125 
Q 34.03125 48.390625 27.546875 48.390625 
z
M 27.546875 56 
Q 38.09375 56 44.109375 48.375 
Q 50.140625 40.765625 50.140625 27.296875 
Q 50.140625 13.875 44.109375 6.21875 
Q 38.09375 -1.421875 27.546875 -1.421875 
Q 16.9375 -1.421875 10.953125 6.21875 
Q 4.984375 13.875 4.984375 27.296875 
Q 4.984375 40.765625 10.953125 48.375 
Q 16.9375 56 27.546875 56 
z
" id="DejaVuSansCondensed-111"/>
       <path d="M 33.40625 75.984375 
L 33.40625 68.5 
L 25.6875 68.5 
Q 21.296875 68.5 19.609375 66.546875 
Q 17.921875 64.59375 17.921875 59.515625 
L 17.921875 54.6875 
L 31.25 54.6875 
L 31.25 47.703125 
L 17.921875 47.703125 
L 17.921875 0 
L 9.8125 0 
L 9.8125 47.703125 
L 2.046875 47.703125 
L 2.046875 54.6875 
L 9.8125 54.6875 
L 9.8125 58.5 
Q 9.8125 67.625 13.625 71.796875 
Q 17.4375 75.984375 25.734375 75.984375 
z
" id="DejaVuSansCondensed-102"/>
       <path d="M 57.953125 67.28125 
L 57.953125 56.890625 
Q 53.46875 61.53125 48.390625 63.8125 
Q 43.3125 66.109375 37.59375 66.109375 
Q 26.375 66.109375 20.390625 58.46875 
Q 14.40625 50.828125 14.40625 36.375 
Q 14.40625 21.96875 20.390625 14.328125 
Q 26.375 6.6875 37.59375 6.6875 
Q 43.3125 6.6875 48.390625 8.984375 
Q 53.46875 11.28125 57.953125 15.921875 
L 57.953125 5.609375 
Q 53.328125 2.09375 48.09375 0.328125 
Q 42.875 -1.421875 37.109375 -1.421875 
Q 22.171875 -1.421875 13.625 8.703125 
Q 5.078125 18.84375 5.078125 36.375 
Q 5.078125 53.953125 13.625 64.078125 
Q 22.171875 74.21875 37.109375 74.21875 
Q 42.96875 74.21875 48.1875 72.484375 
Q 53.421875 70.75 57.953125 67.28125 
z
" id="DejaVuSansCondensed-67"/>
       <path d="M 49.421875 33.015625 
L 49.421875 0 
L 41.3125 0 
L 41.3125 32.71875 
Q 41.3125 40.484375 38.578125 44.328125 
Q 35.84375 48.1875 30.421875 48.1875 
Q 23.875 48.1875 20.09375 43.546875 
Q 16.3125 38.921875 16.3125 30.90625 
L 16.3125 0 
L 8.15625 0 
L 8.15625 75.984375 
L 16.3125 75.984375 
L 16.3125 46.1875 
Q 19.1875 51.125 23.109375 53.5625 
Q 27.046875 56 32.234375 56 
Q 40.671875 56 45.046875 50.171875 
Q 49.421875 44.34375 49.421875 33.015625 
z
" id="DejaVuSansCondensed-104"/>
       <path d="M 30.859375 27.484375 
Q 21.046875 27.484375 17.265625 25 
Q 13.484375 22.515625 13.484375 16.5 
Q 13.484375 11.71875 16.3125 8.90625 
Q 19.140625 6.109375 24.03125 6.109375 
Q 30.765625 6.109375 34.8125 11.40625 
Q 38.875 16.703125 38.875 25.484375 
L 38.875 27.484375 
z
M 46.96875 31.203125 
L 46.96875 0 
L 38.875 0 
L 38.875 8.296875 
Q 36.140625 3.328125 32 0.953125 
Q 27.875 -1.421875 21.875 -1.421875 
Q 14.3125 -1.421875 9.859375 3.296875 
Q 5.421875 8.015625 5.421875 15.921875 
Q 5.421875 25.140625 10.953125 29.828125 
Q 16.5 34.515625 27.546875 34.515625 
L 38.875 34.515625 
L 38.875 35.40625 
Q 38.875 41.609375 35.203125 45 
Q 31.546875 48.390625 24.90625 48.390625 
Q 20.703125 48.390625 16.703125 47.265625 
Q 12.703125 46.140625 8.984375 43.890625 
L 8.984375 52.203125 
Q 13.421875 54.109375 17.59375 55.046875 
Q 21.78125 56 25.734375 56 
Q 36.421875 56 41.6875 49.84375 
Q 46.96875 43.703125 46.96875 31.203125 
z
" id="DejaVuSansCondensed-97"/>
       <path d="M 43.890625 52.59375 
L 43.890625 44.1875 
Q 40.484375 46.296875 37.03125 47.34375 
Q 33.59375 48.390625 30.078125 48.390625 
Q 22.171875 48.390625 17.828125 42.84375 
Q 13.484375 37.3125 13.484375 27.296875 
Q 13.484375 17.28125 17.828125 11.734375 
Q 22.171875 6.203125 30.078125 6.203125 
Q 33.59375 6.203125 37.03125 7.25 
Q 40.484375 8.296875 43.890625 10.40625 
L 43.890625 2.09375 
Q 40.53125 0.34375 36.890625 -0.53125 
Q 33.25 -1.421875 29.203125 -1.421875 
Q 18.0625 -1.421875 11.515625 6.34375 
Q 4.984375 14.109375 4.984375 27.296875 
Q 4.984375 40.671875 11.59375 48.328125 
Q 18.21875 56 29.6875 56 
Q 33.453125 56 37.015625 55.140625 
Q 40.578125 54.296875 43.890625 52.59375 
z
" id="DejaVuSansCondensed-99"/>
       <path d="M 16.5 70.21875 
L 16.5 54.6875 
L 33.15625 54.6875 
L 33.15625 47.703125 
L 16.5 47.703125 
L 16.5 18.015625 
Q 16.5 11.328125 18.140625 9.421875 
Q 19.78125 7.515625 24.8125 7.515625 
L 33.15625 7.515625 
L 33.15625 0 
L 24.8125 0 
Q 15.484375 0 11.90625 3.875 
Q 8.34375 7.765625 8.34375 18.015625 
L 8.34375 47.703125 
L 2.4375 47.703125 
L 2.4375 54.6875 
L 8.34375 54.6875 
L 8.34375 70.21875 
z
" id="DejaVuSansCondensed-116"/>
       <path d="M 39.84375 53.078125 
L 39.84375 44.578125 
Q 36.421875 46.53125 32.734375 47.5 
Q 29.046875 48.484375 25.09375 48.484375 
Q 19.09375 48.484375 16.0625 46.4375 
Q 13.03125 44.390625 13.03125 40.28125 
Q 13.03125 37.15625 15.203125 35.375 
Q 17.390625 33.59375 23.875 31.984375 
L 26.609375 31.296875 
Q 35.25 29.25 38.859375 25.515625 
Q 42.484375 21.78125 42.484375 15.09375 
Q 42.484375 7.46875 37.0625 3.015625 
Q 31.640625 -1.421875 22.171875 -1.421875 
Q 18.21875 -1.421875 13.921875 -0.5625 
Q 9.625 0.296875 4.890625 2 
L 4.890625 11.28125 
Q 9.375 8.6875 13.71875 7.390625 
Q 18.0625 6.109375 22.3125 6.109375 
Q 28.03125 6.109375 31.109375 8.28125 
Q 34.1875 10.453125 34.1875 14.40625 
Q 34.1875 18.0625 31.953125 20.015625 
Q 29.734375 21.96875 22.21875 23.78125 
L 19.4375 24.515625 
Q 11.921875 26.265625 8.5625 29.90625 
Q 5.21875 33.546875 5.21875 39.890625 
Q 5.21875 47.609375 10.15625 51.796875 
Q 15.09375 56 24.125 56 
Q 28.609375 56 32.5625 55.265625 
Q 36.53125 54.546875 39.84375 53.078125 
z
" id="DejaVuSansCondensed-115"/>
      </defs>
      <use xlink:href="#DejaVuSansCondensed-78"/>
      <use x="67.285156" xlink:href="#DejaVuSansCondensed-117"/>
      <use x="124.316406" xlink:href="#DejaVuSansCondensed-109"/>
      <use x="211.962891" xlink:href="#DejaVuSansCondensed-98"/>
      <use x="269.091797" xlink:href="#DejaVuSansCondensed-101"/>
      <use x="324.462891" xlink:href="#DejaVuSansCondensed-114"/>
      <use x="361.425781" xlink:href="#DejaVuSansCondensed-32"/>
      <use x="389.990234" xlink:href="#DejaVuSansCondensed-111"/>
      <use x="445.019531" xlink:href="#DejaVuSansCondensed-102"/>
      <use x="476.660156" xlink:href="#DejaVuSansCondensed-32"/>
      <use x="505.224609" xlink:href="#DejaVuSansCondensed-67"/>
      <use x="568.066406" xlink:href="#DejaVuSansCondensed-104"/>
      <use x="625.097656" xlink:href="#DejaVuSansCondensed-97"/>
      <use x="680.224609" xlink:href="#DejaVuSansCondensed-114"/>
      <use x="717.1875" xlink:href="#DejaVuSansCondensed-97"/>
      <use x="772.314453" xlink:href="#DejaVuSansCondensed-99"/>
      <use x="821.777344" xlink:href="#DejaVuSansCondensed-116"/>
      <use x="857.03125" xlink:href="#DejaVuSansCondensed-101"/>
      <use x="912.402344" xlink:href="#DejaVuSansCondensed-114"/>
      <use x="949.365234" xlink:href="#DejaVuSansCondensed-115"/>
     </g>
    </g>
   </g>
   <g id="matplotlib.axis_2">
    <g id="ytick_1">
     <g id="line2d_11">
      <defs>
       <path d="M 0 0 
L -3.5 0 
" id="m414ced3ff6" style="stroke:#000000;stroke-width:0.8;"/>
      </defs>
      <g>
       <use style="stroke:#000000;stroke-width:0.8;" x="63.11" xlink:href="#m414ced3ff6" y="272.332308"/>
      </g>
     </g>
     <g id="text_12">
      <!-- 1 -->
      <g transform="translate(47.524844 278.031136)scale(0.15 -0.15)">
       <use xlink:href="#DejaVuSansCondensed-49"/>
      </g>
     </g>
    </g>
    <g id="ytick_2">
     <g id="line2d_12">
      <g>
       <use style="stroke:#000000;stroke-width:0.8;" x="63.11" xlink:href="#m414ced3ff6" y="257.316923"/>
      </g>
     </g>
     <g id="text_13">
      <!-- 1.5 -->
      <g transform="translate(34.655313 263.015751)scale(0.15 -0.15)">
       <defs>
        <path d="M 9.625 12.40625 
L 18.890625 12.40625 
L 18.890625 0 
L 9.625 0 
z
" id="DejaVuSansCondensed-46"/>
       </defs>
       <use xlink:href="#DejaVuSansCondensed-49"/>
       <use x="57.226562" xlink:href="#DejaVuSansCondensed-46"/>
       <use x="85.791016" xlink:href="#DejaVuSansCondensed-53"/>
      </g>
     </g>
    </g>
    <g id="ytick_3">
     <g id="line2d_13">
      <g>
       <use style="stroke:#000000;stroke-width:0.8;" x="63.11" xlink:href="#m414ced3ff6" y="242.301538"/>
      </g>
     </g>
     <g id="text_14">
      <!-- 2 -->
      <g transform="translate(47.524844 248.000367)scale(0.15 -0.15)">
       <use xlink:href="#DejaVuSansCondensed-50"/>
      </g>
     </g>
    </g>
    <g id="ytick_4">
     <g id="line2d_14">
      <g>
       <use style="stroke:#000000;stroke-width:0.8;" x="63.11" xlink:href="#m414ced3ff6" y="227.286154"/>
      </g>
     </g>
     <g id="text_15">
      <!-- 2.5 -->
      <g transform="translate(34.655313 232.984982)scale(0.15 -0.15)">
       <use xlink:href="#DejaVuSansCondensed-50"/>
       <use x="57.226562" xlink:href="#DejaVuSansCondensed-46"/>
       <use x="85.791016" xlink:href="#DejaVuSansCondensed-53"/>
      </g>
     </g>
    </g>
    <g id="ytick_5">
     <g id="line2d_15">
      <g>
       <use style="stroke:#000000;stroke-width:0.8;" x="63.11" xlink:href="#m414ced3ff6" y="212.270769"/>
      </g>
     </g>
     <g id="text_16">
      <!-- 3 -->
      <g transform="translate(47.524844 217.969597)scale(0.15 -0.15)">
       <use xlink:href="#DejaVuSansCondensed-51"/>
      </g>
     </g>
    </g>
    <g id="ytick_6">
     <g id="line2d_16">
      <g>
       <use style="stroke:#000000;stroke-width:0.8;" x="63.11" xlink:href="#m414ced3ff6" y="197.255385"/>
      </g>
     </g>
     <g id="text_17">
      <!-- 3.5 -->
      <g transform="translate(34.655313 202.954213)scale(0.15 -0.15)">
       <use xlink:href="#DejaVuSansCondensed-51"/>
       <use x="57.226562" xlink:href="#DejaVuSansCondensed-46"/>
       <use x="85.791016" xlink:href="#DejaVuSansCondensed-53"/>
      </g>
     </g>
    </g>
    <g id="ytick_7">
     <g id="line2d_17">
      <g>
       <use style="stroke:#000000;stroke-width:0.8;" x="63.11" xlink:href="#m414ced3ff6" y="182.24"/>
      </g>
     </g>
     <g id="text_18">
      <!-- 4 -->
      <g transform="translate(47.524844 187.938828)scale(0.15 -0.15)">
       <use xlink:href="#DejaVuSansCondensed-52"/>
      </g>
     </g>
    </g>
    <g id="ytick_8">
     <g id="line2d_18">
      <g>
       <use style="stroke:#000000;stroke-width:0.8;" x="63.11" xlink:href="#m414ced3ff6" y="167.224615"/>
      </g>
     </g>
     <g id="text_19">
      <!-- 4.5 -->
      <g transform="translate(34.655313 172.923444)scale(0.15 -0.15)">
       <use xlink:href="#DejaVuSansCondensed-52"/>
       <use x="57.226562" xlink:href="#DejaVuSansCondensed-46"/>
       <use x="85.791016" xlink:href="#DejaVuSansCondensed-53"/>
      </g>
     </g>
    </g>
    <g id="ytick_9">
     <g id="line2d_19">
      <g>
       <use style="stroke:#000000;stroke-width:0.8;" x="63.11" xlink:href="#m414ced3ff6" y="152.209231"/>
      </g>
     </g>
     <g id="text_20">
      <!-- 5 -->
      <g transform="translate(47.524844 157.908059)scale(0.15 -0.15)">
       <use xlink:href="#DejaVuSansCondensed-53"/>
      </g>
     </g>
    </g>
    <g id="ytick_10">
     <g id="line2d_20">
      <g>
       <use style="stroke:#000000;stroke-width:0.8;" x="63.11" xlink:href="#m414ced3ff6" y="137.193846"/>
      </g>
     </g>
     <g id="text_21">
      <!-- 5.5 -->
      <g transform="translate(34.655313 142.892674)scale(0.15 -0.15)">
       <use xlink:href="#DejaVuSansCondensed-53"/>
       <use x="57.226562" xlink:href="#DejaVuSansCondensed-46"/>
       <use x="85.791016" xlink:href="#DejaVuSansCondensed-53"/>
      </g>
     </g>
    </g>
    <g id="ytick_11">
     <g id="line2d_21">
      <g>
       <use style="stroke:#000000;stroke-width:0.8;" x="63.11" xlink:href="#m414ced3ff6" y="122.178462"/>
      </g>
     </g>
     <g id="text_22">
      <!-- 6 -->
      <g transform="translate(47.524844 127.87729)scale(0.15 -0.15)">
       <use xlink:href="#DejaVuSansCondensed-54"/>
      </g>
     </g>
    </g>
    <g id="ytick_12">
     <g id="line2d_22">
      <g>
       <use style="stroke:#000000;stroke-width:0.8;" x="63.11" xlink:href="#m414ced3ff6" y="107.163077"/>
      </g>
     </g>
     <g id="text_23">
      <!-- 6.5 -->
      <g transform="translate(34.655313 112.861905)scale(0.15 -0.15)">
       <use xlink:href="#DejaVuSansCondensed-54"/>
       <use x="57.226562" xlink:href="#DejaVuSansCondensed-46"/>
       <use x="85.791016" xlink:href="#DejaVuSansCondensed-53"/>
      </g>
     </g>
    </g>
    <g id="ytick_13">
     <g id="line2d_23">
      <g>
       <use style="stroke:#000000;stroke-width:0.8;" x="63.11" xlink:href="#m414ced3ff6" y="92.147692"/>
      </g>
     </g>
     <g id="text_24">
      <!-- 7 -->
      <g transform="translate(47.524844 97.84652)scale(0.15 -0.15)">
       <use xlink:href="#DejaVuSansCondensed-55"/>
      </g>
     </g>
    </g>
    <g id="text_25">
     <!-- Median Sexualization Construct -->
     <g transform="translate(27.535781 288.811484)rotate(-90)scale(0.15 -0.15)">
      <defs>
       <path d="M 8.84375 72.90625 
L 22.078125 72.90625 
L 38.8125 23.296875 
L 55.609375 72.90625 
L 68.84375 72.90625 
L 68.84375 0 
L 60.203125 0 
L 60.203125 64.015625 
L 43.265625 14.015625 
L 34.375 14.015625 
L 17.4375 64.015625 
L 17.4375 0 
L 8.84375 0 
z
" id="DejaVuSansCondensed-77"/>
       <path d="M 40.875 46.390625 
L 40.875 75.984375 
L 48.96875 75.984375 
L 48.96875 0 
L 40.875 0 
L 40.875 8.203125 
Q 38.328125 3.328125 34.4375 0.953125 
Q 30.5625 -1.421875 25.09375 -1.421875 
Q 16.15625 -1.421875 10.5625 6.484375 
Q 4.984375 14.40625 4.984375 27.296875 
Q 4.984375 40.1875 10.5625 48.09375 
Q 16.15625 56 25.09375 56 
Q 30.5625 56 34.4375 53.625 
Q 38.328125 51.265625 40.875 46.390625 
z
M 13.328125 27.296875 
Q 13.328125 17.390625 16.984375 11.75 
Q 20.65625 6.109375 27.046875 6.109375 
Q 33.5 6.109375 37.1875 11.75 
Q 40.875 17.390625 40.875 27.296875 
Q 40.875 37.203125 37.1875 42.84375 
Q 33.5 48.484375 27.046875 48.484375 
Q 20.65625 48.484375 16.984375 42.84375 
Q 13.328125 37.203125 13.328125 27.296875 
z
" id="DejaVuSansCondensed-100"/>
       <path d="M 8.5 54.6875 
L 16.546875 54.6875 
L 16.546875 0 
L 8.5 0 
z
M 8.5 75.984375 
L 16.546875 75.984375 
L 16.546875 64.59375 
L 8.5 64.59375 
z
" id="DejaVuSansCondensed-105"/>
       <path d="M 49.421875 33.015625 
L 49.421875 0 
L 41.3125 0 
L 41.3125 32.71875 
Q 41.3125 40.484375 38.578125 44.328125 
Q 35.84375 48.1875 30.421875 48.1875 
Q 23.875 48.1875 20.09375 43.546875 
Q 16.3125 38.921875 16.3125 30.90625 
L 16.3125 0 
L 8.15625 0 
L 8.15625 54.6875 
L 16.3125 54.6875 
L 16.3125 46.1875 
Q 19.1875 51.125 23.109375 53.5625 
Q 27.046875 56 32.234375 56 
Q 40.671875 56 45.046875 50.171875 
Q 49.421875 44.34375 49.421875 33.015625 
z
" id="DejaVuSansCondensed-110"/>
       <path d="M 48.140625 70.515625 
L 48.140625 60.890625 
Q 43.109375 63.578125 38.609375 64.890625 
Q 34.125 66.21875 29.984375 66.21875 
Q 22.703125 66.21875 18.765625 63.09375 
Q 14.84375 59.96875 14.84375 54.203125 
Q 14.84375 49.359375 17.453125 46.890625 
Q 20.0625 44.4375 27.390625 42.921875 
L 32.71875 41.703125 
Q 42.671875 39.59375 47.375 34.296875 
Q 52.09375 29 52.09375 20.125 
Q 52.09375 9.515625 45.71875 4.046875 
Q 39.359375 -1.421875 27 -1.421875 
Q 22.3125 -1.421875 17.0625 -0.25 
Q 11.8125 0.921875 6.203125 3.21875 
L 6.203125 13.375 
Q 11.625 10.015625 16.796875 8.296875 
Q 21.96875 6.59375 27 6.59375 
Q 34.578125 6.59375 38.71875 9.90625 
Q 42.875 13.234375 42.875 19.390625 
Q 42.875 24.75 39.890625 27.78125 
Q 36.921875 30.8125 30.125 32.328125 
L 24.75 33.5 
Q 14.796875 35.6875 10.375 40.375 
Q 5.953125 45.0625 5.953125 53.421875 
Q 5.953125 63.09375 12.078125 68.65625 
Q 18.21875 74.21875 28.953125 74.21875 
Q 33.59375 74.21875 38.375 73.28125 
Q 43.171875 72.359375 48.140625 70.515625 
z
" id="DejaVuSansCondensed-83"/>
       <path d="M 49.421875 54.6875 
L 31.59375 28.078125 
L 50.296875 0 
L 40.765625 0 
L 26.46875 21.484375 
L 12.109375 0 
L 2.59375 0 
L 21.734375 28.609375 
L 4.203125 54.6875 
L 13.765625 54.6875 
L 26.8125 35.203125 
L 39.84375 54.6875 
z
" id="DejaVuSansCondensed-120"/>
       <path d="M 8.5 75.984375 
L 16.546875 75.984375 
L 16.546875 0 
L 8.5 0 
z
" id="DejaVuSansCondensed-108"/>
       <path d="M 4.984375 54.6875 
L 43.359375 54.6875 
L 43.359375 46.484375 
L 12.984375 7.171875 
L 43.359375 7.171875 
L 43.359375 0 
L 3.859375 0 
L 3.859375 8.203125 
L 34.28125 47.515625 
L 4.984375 47.515625 
z
" id="DejaVuSansCondensed-122"/>
      </defs>
      <use xlink:href="#DejaVuSansCondensed-77"/>
      <use x="77.636719" xlink:href="#DejaVuSansCondensed-101"/>
      <use x="133.007812" xlink:href="#DejaVuSansCondensed-100"/>
      <use x="190.136719" xlink:href="#DejaVuSansCondensed-105"/>
      <use x="215.136719" xlink:href="#DejaVuSansCondensed-97"/>
      <use x="270.263672" xlink:href="#DejaVuSansCondensed-110"/>
      <use x="327.294922" xlink:href="#DejaVuSansCondensed-32"/>
      <use x="355.859375" xlink:href="#DejaVuSansCondensed-83"/>
      <use x="412.988281" xlink:href="#DejaVuSansCondensed-101"/>
      <use x="466.609375" xlink:href="#DejaVuSansCondensed-120"/>
      <use x="519.832031" xlink:href="#DejaVuSansCondensed-117"/>
      <use x="576.863281" xlink:href="#DejaVuSansCondensed-97"/>
      <use x="631.990234" xlink:href="#DejaVuSansCondensed-108"/>
      <use x="656.990234" xlink:href="#DejaVuSansCondensed-105"/>
      <use x="681.990234" xlink:href="#DejaVuSansCondensed-122"/>
      <use x="729.207031" xlink:href="#DejaVuSansCondensed-97"/>
      <use x="784.333984" xlink:href="#DejaVuSansCondensed-116"/>
      <use x="819.587891" xlink:href="#DejaVuSansCondensed-105"/>
      <use x="844.587891" xlink:href="#DejaVuSansCondensed-111"/>
      <use x="899.617188" xlink:href="#DejaVuSansCondensed-110"/>
      <use x="956.648438" xlink:href="#DejaVuSansCondensed-32"/>
      <use x="985.212891" xlink:href="#DejaVuSansCondensed-67"/>
      <use x="1048.054688" xlink:href="#DejaVuSansCondensed-111"/>
      <use x="1103.083984" xlink:href="#DejaVuSansCondensed-110"/>
      <use x="1160.115234" xlink:href="#DejaVuSansCondensed-115"/>
      <use x="1206.990234" xlink:href="#DejaVuSansCondensed-116"/>
      <use x="1242.244141" xlink:href="#DejaVuSansCondensed-114"/>
      <use x="1279.207031" xlink:href="#DejaVuSansCondensed-117"/>
      <use x="1336.238281" xlink:href="#DejaVuSansCondensed-99"/>
      <use x="1385.701172" xlink:href="#DejaVuSansCondensed-116"/>
     </g>
    </g>
   </g>
   <g id="patch_55">
    <path d="M 63.11 289.6 
L 63.11 74.88 
" style="fill:none;stroke:#000000;stroke-linecap:square;stroke-linejoin:miter;stroke-width:0.8;"/>
   </g>
   <g id="patch_56">
    <path d="M 444.6 289.6 
L 444.6 74.88 
" style="fill:none;stroke:#000000;stroke-linecap:square;stroke-linejoin:miter;stroke-width:0.8;"/>
   </g>
   <g id="patch_57">
    <path d="M 63.11 289.6 
L 444.6 289.6 
" style="fill:none;stroke:#000000;stroke-linecap:square;stroke-linejoin:miter;stroke-width:0.8;"/>
   </g>
   <g id="patch_58">
    <path d="M 63.11 74.88 
L 444.6 74.88 
" style="fill:none;stroke:#000000;stroke-linecap:square;stroke-linejoin:miter;stroke-width:0.8;"/>
   </g>
   <g id="text_26">
    <!-- Sexualization by Gender -->
    <g transform="translate(154.867656 29.88)scale(0.18 -0.18)">
     <defs>
      <path d="M 28.953125 -5.078125 
Q 25.53125 -14.84375 22.28125 -17.8125 
Q 19.046875 -20.796875 13.578125 -20.796875 
L 7.125 -20.796875 
L 7.125 -13.28125 
L 11.859375 -13.28125 
Q 15.1875 -13.28125 17.03125 -11.515625 
Q 18.890625 -9.765625 21.140625 -3.21875 
L 22.609375 0.875 
L 2.6875 54.6875 
L 11.234375 54.6875 
L 26.609375 11.921875 
L 42 54.6875 
L 50.59375 54.6875 
z
" id="DejaVuSansCondensed-121"/>
      <path d="M 53.5625 10.40625 
L 53.5625 29.984375 
L 39.0625 29.984375 
L 39.0625 38.09375 
L 62.359375 38.09375 
L 62.359375 6.78125 
Q 57.234375 2.734375 51.03125 0.65625 
Q 44.828125 -1.421875 37.796875 -1.421875 
Q 22.40625 -1.421875 13.734375 8.5625 
Q 5.078125 18.5625 5.078125 36.375 
Q 5.078125 54.25 13.734375 64.234375 
Q 22.40625 74.21875 37.796875 74.21875 
Q 44.1875 74.21875 49.96875 72.453125 
Q 55.765625 70.703125 60.640625 67.28125 
L 60.640625 56.78125 
Q 55.71875 61.421875 50.171875 63.765625 
Q 44.625 66.109375 38.53125 66.109375 
Q 26.515625 66.109375 20.453125 58.640625 
Q 14.40625 51.171875 14.40625 36.375 
Q 14.40625 21.625 20.453125 14.15625 
Q 26.515625 6.6875 38.53125 6.6875 
Q 43.265625 6.6875 46.953125 7.59375 
Q 50.640625 8.5 53.5625 10.40625 
z
" id="DejaVuSansCondensed-71"/>
     </defs>
     <use xlink:href="#DejaVuSansCondensed-83"/>
     <use x="57.128906" xlink:href="#DejaVuSansCondensed-101"/>
     <use x="110.75" xlink:href="#DejaVuSansCondensed-120"/>
     <use x="163.972656" xlink:href="#DejaVuSansCondensed-117"/>
     <use x="221.003906" xlink:href="#DejaVuSansCondensed-97"/>
     <use x="276.130859" xlink:href="#DejaVuSansCondensed-108"/>
     <use x="301.130859" xlink:href="#DejaVuSansCondensed-105"/>
     <use x="326.130859" xlink:href="#DejaVuSansCondensed-122"/>
     <use x="373.347656" xlink:href="#DejaVuSansCondensed-97"/>
     <use x="428.474609" xlink:href="#DejaVuSansCondensed-116"/>
     <use x="463.728516" xlink:href="#DejaVuSansCondensed-105"/>
     <use x="488.728516" xlink:href="#DejaVuSansCondensed-111"/>
     <use x="543.757812" xlink:href="#DejaVuSansCondensed-110"/>
     <use x="600.789062" xlink:href="#DejaVuSansCondensed-32"/>
     <use x="629.353516" xlink:href="#DejaVuSansCondensed-98"/>
     <use x="686.482422" xlink:href="#DejaVuSansCondensed-121"/>
     <use x="739.705078" xlink:href="#DejaVuSansCondensed-32"/>
     <use x="768.269531" xlink:href="#DejaVuSansCondensed-71"/>
     <use x="837.996094" xlink:href="#DejaVuSansCondensed-101"/>
     <use x="893.367188" xlink:href="#DejaVuSansCondensed-110"/>
     <use x="950.398438" xlink:href="#DejaVuSansCondensed-100"/>
     <use x="1007.527344" xlink:href="#DejaVuSansCondensed-101"/>
     <use x="1062.898438" xlink:href="#DejaVuSansCondensed-114"/>
    </g>
   </g>
   <g id="legend_1">
    <g id="patch_59">
     <path d="M 72.91 65.7328 
L 396.675313 65.7328 
Q 399.475313 65.7328 399.475313 62.9328 
L 399.475313 43.783425 
Q 399.475313 40.983425 396.675313 40.983425 
L 72.91 40.983425 
Q 70.11 40.983425 70.11 43.783425 
L 70.11 62.9328 
Q 70.11 65.7328 72.91 65.7328 
z
" style="fill:#ffffff;opacity:0.8;stroke:#cccccc;stroke-linejoin:miter;"/>
    </g>
    <g id="patch_60">
     <path d="M 75.71 57.221237 
L 103.71 57.221237 
L 103.71 47.421237 
L 75.71 47.421237 
z
" style="fill:#9900bb;"/>
    </g>
    <g id="text_27">
     <!-- Men -->
     <g transform="translate(114.91 57.221237)scale(0.14 -0.14)">
      <use xlink:href="#DejaVuSansCondensed-77"/>
      <use x="77.636719" xlink:href="#DejaVuSansCondensed-101"/>
      <use x="133.007812" xlink:href="#DejaVuSansCondensed-110"/>
     </g>
    </g>
    <g id="patch_61">
     <path d="M 169.516563 57.221237 
L 197.516563 57.221237 
L 197.516563 47.421237 
L 169.516563 47.421237 
z
" style="fill:#ffbb00;"/>
    </g>
    <g id="text_28">
     <!-- Women -->
     <g transform="translate(208.716563 57.221237)scale(0.14 -0.14)">
      <defs>
       <path d="M 2.984375 72.90625 
L 11.96875 72.90625 
L 25.734375 11.28125 
L 39.5 72.90625 
L 49.46875 72.90625 
L 63.28125 11.28125 
L 77.046875 72.90625 
L 86.03125 72.90625 
L 69.578125 0 
L 58.40625 0 
L 44.578125 63.28125 
L 30.5625 0 
L 19.4375 0 
z
" id="DejaVuSansCondensed-87"/>
      </defs>
      <use xlink:href="#DejaVuSansCondensed-87"/>
      <use x="83.089844" xlink:href="#DejaVuSansCondensed-111"/>
      <use x="138.119141" xlink:href="#DejaVuSansCondensed-109"/>
      <use x="225.765625" xlink:href="#DejaVuSansCondensed-101"/>
      <use x="281.136719" xlink:href="#DejaVuSansCondensed-110"/>
     </g>
    </g>
    <g id="patch_62">
     <path d="M 284.060625 57.221237 
L 312.060625 57.221237 
L 312.060625 47.421237 
L 284.060625 47.421237 
z
" style="fill:#0066cc;"/>
    </g>
    <g id="text_29">
     <!-- Ambiguous -->
     <g transform="translate(323.260625 57.221237)scale(0.14 -0.14)">
      <defs>
       <path d="M 30.765625 63.1875 
L 18.703125 26.90625 
L 42.875 26.90625 
z
M 25.734375 72.90625 
L 35.84375 72.90625 
L 60.84375 0 
L 51.609375 0 
L 45.609375 18.703125 
L 16.015625 18.703125 
L 10.0625 0 
L 0.6875 0 
z
" id="DejaVuSansCondensed-65"/>
       <path d="M 40.875 27.984375 
Q 40.875 37.75 37.234375 43.109375 
Q 33.59375 48.484375 27.046875 48.484375 
Q 20.5625 48.484375 16.9375 43.109375 
Q 13.328125 37.75 13.328125 27.984375 
Q 13.328125 18.265625 16.9375 12.890625 
Q 20.5625 7.515625 27.046875 7.515625 
Q 33.59375 7.515625 37.234375 12.890625 
Q 40.875 18.265625 40.875 27.984375 
z
M 48.96875 6.78125 
Q 48.96875 -7.171875 43.375 -13.984375 
Q 37.796875 -20.796875 26.265625 -20.796875 
Q 22.015625 -20.796875 18.234375 -20.09375 
Q 14.453125 -19.390625 10.890625 -17.921875 
L 10.890625 -9.1875 
Q 14.453125 -11.328125 17.921875 -12.34375 
Q 21.390625 -13.375 25 -13.375 
Q 32.953125 -13.375 36.90625 -8.765625 
Q 40.875 -4.15625 40.875 5.171875 
L 40.875 9.625 
Q 38.375 4.78125 34.46875 2.390625 
Q 30.5625 0 25.09375 0 
Q 16.015625 0 10.5 7.65625 
Q 4.984375 15.328125 4.984375 27.984375 
Q 4.984375 40.671875 10.5 48.328125 
Q 16.015625 56 25.09375 56 
Q 30.5625 56 34.46875 53.609375 
Q 38.375 51.21875 40.875 46.390625 
L 40.875 54.6875 
L 48.96875 54.6875 
z
" id="DejaVuSansCondensed-103"/>
      </defs>
      <use xlink:href="#DejaVuSansCondensed-65"/>
      <use x="61.523438" xlink:href="#DejaVuSansCondensed-109"/>
      <use x="149.169922" xlink:href="#DejaVuSansCondensed-98"/>
      <use x="206.298828" xlink:href="#DejaVuSansCondensed-105"/>
      <use x="231.298828" xlink:href="#DejaVuSansCondensed-103"/>
      <use x="288.427734" xlink:href="#DejaVuSansCondensed-117"/>
      <use x="345.458984" xlink:href="#DejaVuSansCondensed-111"/>
      <use x="400.488281" xlink:href="#DejaVuSansCondensed-117"/>
      <use x="457.519531" xlink:href="#DejaVuSansCondensed-115"/>
     </g>
    </g>
   </g>
  </g>
 </g>
 <defs>
  <clipPath id="pd20ff2a2ba">
   <rect height="214.72" width="381.49" x="63.11" y="74.88"/>
  </clipPath>
 </defs>
</svg>
